# dique - exportado do GemPy
v 593372.9751971371 7009470.651223066 878.431999427419
v 593316.4025431093 7009355.098363979 934.8421710241846
v 592588.6356997893 7010801.385356631 931.6212760989806
v 593257.7972541797 7009244.351414456 991.2730889048739
v 593197.4153755498 7009138.47666548 1048.167619230915
v 592530.5838413624 7010695.911120371 988.2418444690045
v 592470.6542053478 7010584.681763531 1045.2856580945693
v 590467.7439378259 7014003.91759914 823.6080288111814
v 589749.5141675768 7015085.983361315 817.6781336166616
v 591137.0911947829 7012810.910921116 826.0621210485111
v 590483.7979979817 7014104.4141182555 879.7257169591411
v 590499.6602452585 7014194.482683661 936.3428486338992
v 589766.1408499752 7015100.146364543 876.0186520732207
v 589783.1166287658 7015115.071132803 934.856169470218
v 590515.5367536998 7014275.663749784 993.3086323847289
v 590531.5429719995 7014349.163935576 1050.4372356914432
v 589800.22297549 7015130.828268704 994.1800352019959
v 589817.2541739766 7015147.438969706 1053.9517590628961
v 591393.4186589365 7012792.819282568 890.7039974768018
v 591283.8704150383 7013430.435998352 941.8979919036206
v 598731.6629124181 7001544.899446721 534.5191273318195
v 598688.8332330334 7001469.072769256 582.7856972129839
v 594900.2661440948 7007240.705005854 436.4523342067799
v 594874.4604964481 7007171.658343888 478.8940561653985
v 595027.5308791113 7007240.666185659 435.5049645072344
v 595687.5239986413 7006215.497331273 480.76277818429026
v 594839.6203473534 7007082.702561817 535.680073700874
v 594804.3215220922 7006997.621605343 592.3850133373423
v 595851.1762224638 7006125.471010327 523.0568966836288
v 595908.9058518239 7006307.826011075 573.2263801915971
v 594900.2316110027 7007336.760098581 436.3760525911555
v 594874.3639013758 7007410.092954212 478.221834990731
v 595027.5751796553 7007336.749928353 435.8473845110869
v 595179.0221989909 7007410.308864022 477.1410448684889
v 594839.4903758286 7007507.680905209 533.5477949955523
v 594804.1842690211 7007605.218409976 588.0671756225133
v 595358.4937466136 7007508.214684168 532.6371567023215
v 595515.0404953702 7007605.965874797 588.1098984280284
v 598141.5966376702 7002748.06618875 478.7592008425569
v 597142.680212915 7003898.028946247 535.8913438089374
v 597239.9834898604 7003964.427668205 589.8701944010686
v 596547.4581375729 7005167.560798641 535.5861768581406
v 596786.0177186775 7005618.431123559 593.1634780942616
v 598366.5067435668 7002975.9655188285 535.5806003186938
v 598662.9835947705 7003096.734411054 592.5371991086919
v 602912.5437117893 6994836.228747858 307.89997100662805
v 602902.8218111146 6995228.29906712 367.37033656020515
v 603758.2595782906 6993748.398626021 307.9570613071043
v 601595.4984546892 6996379.863431373 418.5232763449107
v 601536.1888828278 6997376.468166183 476.8354115107185
v 600073.7261785378 6998875.071722398 485.55964378551073
v 599689.048425288 7000610.345282203 479.0792876383906
v 601103.1806898627 6998014.789156075 494.23348955637493
v 600080.6451112377 6998800.347087002 536.0979428786213
v 600006.295207872 6998883.134338095 568.0353510972972
v 599879.212532532 7000950.177460668 536.3173330235119
v 601536.1673507382 6998331.61046635 534.5117029394962
v 602411.7810489769 6995344.677575477 397.05448953264647
v 602902.8226973544 6995669.261311375 418.51931703382184
v 594768.5597459326 7006916.039930995 649.0830697184257
v 594732.3423116078 7006837.63485521 705.8330647931724
v 595877.2223895179 7006326.21220526 617.6320128672187
v 594695.677511079 7006762.122940736 762.670359189211
v 594658.5681617173 7006689.248529505 819.6103262697753
v 594768.3677798455 7007703.186334187 641.9808809901508
v 594731.9188401059 7007802.000202674 695.456324348783
v 594176.1345717404 7008654.158232738 768.0119204023882
v 594120.1692694613 7008796.560212821 809.1839514719043
v 597316.3502753113 7004048.983847004 642.7727116415562
v 597275.6464847291 7003964.541146142 687.4185179915721
v 597034.6588743962 7006013.574486228 653.5975173689486
v 597378.9693819158 7005713.43902642 698.39219354019
v 598551.6658405174 7003568.6406453345 650.2362799578749
v 594621.0084252051 7006618.776271256 876.6543422191012
v 594582.9825685276 7006550.487075904 933.7946196571264
v 594544.464700973 7006484.176269478 991.0175254034568
v 594505.4187095112 7006419.652617551 1048.3055666147575
v 594183.2652845598 7008789.07195828 857.1918971598639
v 594236.0779328648 7008785.093966008 901.8376938574443
v 594278.8404340076 7008783.879304346 944.0202443044816
v 594224.8044416229 7008653.342677475 988.7114466703333
f 6 4 3
f 7 5 6
f 14 13 12
f 17 14 15
f 18 17 16
f 32 24 31
f 34 33 26
f 35 27 32
f 36 28 35
f 37 34 29
f 43 42 41
f 44 39 21
f 45 44 22
f 56 52 54
f 65 60 36
f 66 61 65
f 67 63 66
f 68 64 67
f 71 43 69
f 72 71 70
f 78 68 74
f 79 78 75
f 80 79 76
f 81 77 80
f 2 3 4
f 4 6 5
f 8 11 9
f 11 12 13
f 12 15 14
f 15 16 17
f 21 44 22
f 23 31 24
f 25 26 33
f 26 29 34
f 29 30 37
f 30 38 62
f 41 69 43
f 54 56 55
f 69 71 70
f 11 10 19
f 12 19 20
f 24 26 25
f 28 29 30
f 32 33 34
f 35 34 37
f 30 42 43
f 40 39 44
f 41 44 45
f 21 52 56
f 54 53 57
f 60 62 30
f 62 43 71
f 5 81 80
f 78 1 2
f 79 2 4
f 80 4 5
f 10 11 8
f 19 12 11
f 56 21 22
f 25 23 24
f 42 30 29
f 43 30 62
f 33 32 31
f 34 35 32
f 37 36 35
f 45 69 41
f 48 47 46
f 59 50 49
f 57 55 54
f 73 69 70
f 31 25 33
f 51 50 53
f 49 58 59
f 25 31 23
