# encaixante_irati - exportado do GemPy
v 587734.0531369897 7002052.324160283 446.37590671579505
v 588221.124046964 7001383.412034378 478.2654925733953
v 589185.9321553928 6997855.681839671 493.4613412515951
v 589398.5970610181 7002305.848269596 499.54842044194356
v 588634.3243791059 7000740.3224573415 538.9319089819387
v 588872.3071627038 7000356.995567814 583.6217600059201
v 589330.4148294535 6998095.770627091 536.6708516597465
v 589580.4209704748 6998909.549140287 598.0215802126007
v 589861.7324308795 7001771.586384836 533.0628866003703
v 589788.9248961917 7000474.265519005 601.3769888776733
v 591556.3468462517 6999619.317572748 601.657944609552
v 591283.1342111704 7001626.681417269 552.4516187406398
v 591156.3604812215 7000381.7598360665 591.3901943735461
v 592308.250185059 6999619.298058857 605.2204681554256
v 592397.8728135765 7001795.01475104 562.2452037549573
v 592836.1894507429 7001043.634742591 610.7871833585451
v 588152.2750578556 7006659.928609874 136.58727548121863
v 588206.5364592127 7006582.986314322 198.21332586774963
v 588265.0557608975 7006511.544293877 262.20547051212856
v 588331.5588115639 7006448.308406537 327.79960239828273
v 588084.4191222638 7008275.696621798 252.9196671788589
v 588158.8559155234 7008347.938811603 300.5500177653792
v 588420.8823086482 7011814.8294626195 194.87502920175092
v 588376.1175249689 7011445.984630238 250.09722955862833
v 589121.4095285847 7012034.357473985 215.93446803069838
v 589175.8670679247 7011941.434180113 250.72148180335955
v 588234.3929652162 7008412.102023531 346.56982925272393
v 588291.3072014037 7008695.012227047 398.0080980920915
v 588376.1314350576 7010958.07780475 307.3041743784187
v 588345.4548919351 7010206.487691989 363.6176229620842
v 589270.677095289 7011741.873474738 307.72377528841
v 589376.3018203172 7011412.831970811 365.00528121987156
v 587734.0930139149 7002546.584014367 446.527018471808
v 588281.467644886 7002727.508997985 479.7843879500331
v 588523.3868075165 7006470.4785528565 385.6779939906319
v 588378.7900428815 7005907.087188375 473.7711118588049
v 589858.7151484936 7003429.0781566445 504.73234113899576
v 589363.950551543 7007113.612344057 434.8370298921456
v 589838.6551861571 7006203.8617482 487.7162760074017
v 588375.6852321281 7003398.755508462 535.7698669088046
v 588434.7886996025 7004270.056425919 596.8748408482845
v 588375.8991560782 7005510.973297029 542.7925554450785
v 588435.1183753402 7005115.172110881 599.1371155528788
v 589781.8294086293 7003523.401973138 524.6257524373623
v 589176.184464872 7004630.790705519 577.8406773751194
v 589342.6607846611 7005309.170675465 544.1727398397453
v 589176.205319498 7005051.494134514 576.4168216939677
v 588868.0710557194 7008472.400291579 427.984318752741
v 588809.3494750003 7009898.804033419 401.96780384199315
v 589330.6552169464 7008476.047817185 442.2158286028279
v 589965.8881305025 7008482.0630703755 467.1054792188939
v 589444.6514572253 7010764.011273557 424.04551728376543
v 589792.5485245371 7010868.388799144 481.7341113927442
v 590204.2734763059 7009306.317249876 535.7669348886405
v 590409.9854471901 7009579.290717461 575.2391709650587
v 590228.0594434048 7011033.851934518 539.7640387617129
v 590410.0882494242 7010348.486371979 575.1782435216637
v 591284.9725198383 7003934.160025191 450.50145004532806
v 591201.9275209677 7005945.480319756 478.3318298668883
v 592054.1535326223 7004306.502466614 479.1096547003906
v 592053.430178289 7005045.733501576 501.39093736838777
v 591282.8197925035 7002739.990657565 510.96158443150904
v 591623.933420205 7006661.57151188 544.5025014100446
v 591874.1126498065 7007101.143422093 574.1892583376188
v 592400.508309786 7003591.185507507 473.1302344594319
v 593211.7720985333 7003843.572331566 530.0041313522889
v 592195.8695258576 7005466.51184132 553.4931868366077
v 592577.8200896329 7006192.627167096 713.2336376429547
v 590663.4044021877 7007687.306737426 489.1756120767242
v 590904.1226700274 7008108.830502023 500.9283429359283
v 591293.714818077 7008687.365049828 509.9949466254917
v 590597.4665200509 7011939.921771164 558.421612022866
v 590771.8026957205 7011033.906972487 593.2567633329298
v 592278.3695961449 7007813.499281919 594.9756499810529
v 593317.0226406656 7011999.259820288 614.7054075535435
v 590261.258907393 6998933.040905844 625.5792005172506
v 590246.3574743639 7000144.136265173 624.3367986308027
v 591298.065416925 6998678.025108772 636.6500401474902
v 592009.8890378989 6997727.965082818 679.2015378988916
v 590587.3299586992 7000144.204108483 623.518223152122
v 592643.0449883962 6998678.28459814 658.4874517283455
v 592009.8890378989 6997727.965082818 679.2015378988916
v 593277.5266843907 7000287.297747934 629.0221595217959
v 587999.55081728 7004540.555571128 651.3569016654953
v 587748.3992041975 7004770.316847998 707.9622416664415
v 587999.8389605411 7005001.912464077 651.4885980048276
v 587748.5057736118 7004939.145446469 707.9946153162712
v 587654.5577188649 7004891.1838104585 737.4712173125253
v 587654.5580989921 7004903.727187981 737.4703625628051
v 593419.9179710333 7004727.438965246 613.9777422563592
v 593285.5163754523 7006064.916165769 745.3648221955982
v 591653.7989231149 7009406.432807061 632.7913919807022
v 591573.3244558487 7010953.365862622 656.4496814770464
v 591934.3477476242 7011805.237614555 683.5242731196658
v 592676.1775487026 7008633.277007183 647.3778113052598
v 593069.7436396606 7009453.84287674 695.9144415793315
v 592629.2948096334 7011087.123602499 683.6829164210318
v 592566.7241391126 7010957.145283424 696.3325662923227
v 587556.2924730271 7019111.331454252 192.84264943860427
v 587459.7091072968 7018997.515701407 246.3247521572946
v 587363.0319488783 7018886.025048891 295.14661273200005
v 587267.4548906104 7018774.002263436 336.2096020857149
v 586263.2981695568 7015417.088436591 662.6764730448563
v 587175.7972840089 7018654.553813059 365.3371892071608
v 587091.8500089386 7018513.465689487 378.71985840221873
v 587016.2596356313 7018329.056502077 378.4012284623167
v 586749.1344273215 7017697.438201823 449.41632164032205
v 589121.4091263628 7012074.82942763 215.9355743305195
v 589175.855060749 7012112.592123936 250.74651660034147
v 589270.6208715113 7012180.72315818 307.82747502153364
v 589376.4584611289 7012261.799545293 364.8687550438046
v 588061.2206603655 7019112.814427576 182.7382193810888
v 588469.877415113 7019012.10127994 232.7775999390201
v 588059.7850146266 7019465.948092243 181.99087811335073
v 588466.9494136147 7019644.248170017 232.88652393629206
v 589184.7510731779 7019170.847148357 269.80698828401387
v 589184.9138368962 7019316.863205573 269.1318375431613
v 588378.9755294276 7018727.639033233 291.23916976707403
v 588380.8355676013 7018459.443641498 348.6258474462193
v 588375.320198002 7020112.651338654 300.5588545415621
v 588375.5420070033 7020480.2795271445 363.1832664844568
v 589318.306187411 7019068.231580769 310.10184153641524
v 589479.1298659104 7018915.953048698 370.71827289181255
v 589319.3358637491 7019482.301171368 306.0623402124541
v 589481.5078020093 7019701.017746685 361.5002096266202
v 593405.7767103752 7016554.174055885 264.1950892357749
v 593372.412258752 7014429.799560963 331.331486346812
v 593074.8964805242 7014356.968259018 364.6939629590593
v 593288.1113583418 7015712.089532754 309.76729010417705
v 592780.3115208935 7015642.697233005 364.5642270896709
v 593405.7784989157 7016987.987602447 264.20643693364116
v 593367.6152879843 7021401.677555652 193.63233353040727
v 593255.6466147248 7021215.671430281 250.73731662721747
v 593312.4964080402 7017191.492722077 307.82394139420376
v 593169.0321307058 7017433.41309313 364.8514837652568
v 593107.5856076806 7021038.563129347 307.8046597967764
v 592901.3781519679 7020870.084863814 364.74425192388844
v 589497.0301739734 7012361.530245253 421.86538802095464
v 589637.539508239 7012489.16081608 478.8276649107007
v 589928.7491708389 7012622.152505172 537.6722757588675
v 589829.422933707 7013485.304542657 593.879661750679
v 588381.7099595146 7018189.884953083 408.94600676434095
v 588380.7285943486 7017918.346584886 472.4344183481834
v 588375.6398946795 7020794.236815165 422.68064936741416
v 588375.6375920771 7021065.539980228 480.83081045774
v 589600.983195291 7018763.805433645 428.29021850084797
v 589697.8880091631 7018609.574343936 480.28141680924165
v 589603.403276723 7019886.495379042 418.68132233052455
v 589698.4063166274 7020046.2098505795 476.8085035652862
v 588378.031061413 7017642.907833644 537.0407716727664
v 588374.8785477206 7017355.7109803585 597.4697562957016
v 588375.6221884429 7021302.648115405 538.2374049483005
v 588416.2010363053 7021511.712572026 593.4661588516383
v 589776.8984743942 7018451.284012964 527.0125226232253
v 589970.3600699139 7018351.560190727 570.2448160377364
v 589774.5923286997 7020185.631492016 535.1762929363117
v 589982.9482450304 7020742.708826529 592.7035991796137
v 591933.9617273199 7014365.776500572 434.9172063602683
v 591818.104685981 7014236.623080299 479.03375624094195
v 591933.9472362852 7014943.34857123 434.88155086429134
v 591846.867401988 7015700.56411412 481.26242718555955
v 592625.9548821957 7014208.593988994 417.5648882194006
v 592736.8275310515 7013801.741063371 478.67329121366623
v 592247.1976213965 7015700.543914367 418.3710838905431
v 592112.5344564937 7016534.764125002 462.7919699530072
v 591197.792192707 7013252.967249254 546.8501294035567
v 591090.5762054163 7013225.89616437 592.997937369902
v 591585.3757253768 7015642.794097545 537.198453397078
v 591289.8075251131 7015642.796619913 594.7891928556174
v 592736.711561155 7013326.578163599 536.2013744219054
v 592793.9834317329 7012629.582166327 594.918574022851
v 591991.2466002109 7018986.695687995 446.4938989160138
v 591909.9852288606 7018126.561275501 480.8003363683762
v 591942.2680279498 7020417.074986132 435.5421540934271
v 591705.7821303661 7020417.0439457055 479.44305262244967
v 592627.2475519592 7018223.772754078 431.74124507473414
v 592706.6173428156 7018338.052974465 471.1873377673911
v 592575.6424138189 7020214.297375264 420.7850913961395
v 593152.6116989021 7019363.236991794 479.00999836425547
v 591584.3273318459 7018030.121533515 537.5834733044974
v 591088.9633069925 7018146.303542808 595.539686063531
v 591251.0716381524 7020416.862791582 535.9426125175888
v 590760.8228368531 7020416.812748688 577.5092813238585
v 593399.8765916819 7019168.669914047 516.3545623857334
v 593399.8759990712 7019266.801395878 516.3539230152508
v 591283.0781521811 7025214.497000884 193.80780763431721
v 591283.0902439406 7024879.245023331 251.00042485833814
v 592915.6888015042 7022804.197086331 193.74443366373714
v 592666.4378432804 7022804.193237801 250.87968616929925
v 592284.7691572229 7024344.989766968 193.67829486117643
v 592147.4784202701 7024170.61629333 250.77878858440647
v 591894.2483627873 7023788.571691729 324.23785835325293
v 591610.275311102 7023316.056303818 365.3376431813089
v 591359.0818693539 7024429.1662597135 306.5676510007688
v 590883.4090865406 7024218.076045168 365.0869744618269
v 592331.5225941018 7022917.426623536 306.39642671704274
v 592174.582267563 7022122.407935984 365.0204030508766
v 592051.3840776675 7024049.546244758 286.1453804665947
v 589829.3780854609 7023871.401568752 434.2374157966493
v 589829.374429876 7023492.215968739 479.7039990242308
v 589829.3557599674 7022900.695874824 537.2661548348983
v 589875.9016996085 7022090.4589003 596.2628225379742
v 591281.1108661004 7022787.252532168 416.89216287729613
v 591091.8961199437 7022462.257141503 480.2235317602622
v 590623.5357864938 7024036.738302553 396.40689407037837
v 592038.8843043637 7021706.422679512 396.31156628845935
v 590885.8858184053 7022117.978271971 536.9405462320078
v 590694.5973528121 7021817.014591702 576.4561640852072
v 586639.8038423533 7015455.776384108 851.9558680691912
v 587510.7319016483 7015851.216545914 904.6073631057045
v 587314.4410580649 7016948.399415979 647.481715026232
v 587589.0644195299 7016853.861829669 682.5687825574564
v 588821.4658473749 7014843.121123127 666.7878735639467
v 588357.2545431324 7015741.678469422 808.2781575687428
v 589829.1313068744 7014228.401402012 633.596965445003
v 589829.2553702196 7014936.960477104 660.2956183400305
v 590070.732903804 7016366.410366589 722.88167015006
v 590554.7497752556 7016832.285415365 736.4355397618689
v 588372.1682963179 7017057.239948666 651.6338551984405
v 588375.4959757595 7016860.264681525 676.6935379762634
v 588927.8512494807 7021576.989845044 631.296290267876
v 589830.3827575827 7017602.678886763 638.3470515504478
v 590071.1177001768 7016991.56842832 708.4956906502662
v 589422.4881968551 7021577.054850309 631.5918868587578
v 590554.749777502 7016837.920747394 736.4354398852421
v 591246.2825350293 7013167.48595268 638.055631147175
v 591934.2223298422 7012129.706224297 684.2309632526049
v 590915.2221744267 7015557.996369225 649.742800897938
v 590688.7812403782 7016510.43393306 715.5193167129705
v 592306.0421151232 7012326.654337132 650.7761049192507
v 592066.8987087565 7012129.703634447 684.204762734691
v 590557.9547562966 7016832.285404592 736.4354504849272
v 590974.3652603325 7017496.152695775 652.4198437807813
v 590688.6712681403 7017010.476107707 713.2662895421053
v 590557.9547691846 7016837.920754871 736.4355003621209
v 589422.4485256523 7021775.88510898 632.0190482530838
v 597695.6426361451 7002236.209584619 383.38841416297083
v 598927.4670415167 7002159.683220395 319.2040395467569
v 598486.6527464924 7001739.938219362 367.3540986555582
v 594752.6356935696 6997652.579037244 618.6859141944085
v 596083.5782990167 6997407.635624267 544.7590380916273
v 595617.0139029822 6997142.60136562 593.289475476654
v 596370.9515378989 6997718.57800318 507.8265378988916
v 596310.5773974054 7002364.033208331 503.9772887152428
v 594752.6497257325 6997787.011566518 618.876710953152
v 594190.4993960591 7001951.948989917 634.1502704934668
v 596155.3895051706 6997956.701014477 535.3347589924497
v 595730.7723890134 6998707.665141451 613.2492743057576
v 596113.2768874628 7001990.928963007 548.4602432240746
v 595732.115512972 7001388.103759826 634.6693296355849
v 597784.5871320264 6997716.033843836 449.1348787350438
v 597439.5093542108 6997516.946060146 476.7133815454025
v 598551.5372018638 6997621.796947825 442.01893560154593
v 598551.5164726382 6997070.6711259745 474.88833597633055
v 596959.0033870031 6997094.184253649 525.850952294365
v 597097.8125609176 6996234.887725217 592.3703382373952
v 598551.523261478 6996309.2896943735 537.01275514971
v 598606.1800922893 6995704.277696592 597.360620696699
v 597784.5868132062 6997785.87096325 449.12465684319636
v 597305.1581539882 6998555.178225305 496.58502760458543
v 597481.1025155714 7001861.567872689 433.1164279237244
v 597156.0226454983 7001349.598208239 508.1306414669168
v 598592.0257733227 6998722.539802621 447.960052147185
v 598134.1545541014 6999377.511213204 471.0284679023464
v 598591.6868384181 7000640.332733795 421.12365466591035
v 598133.8255433965 7000328.269493166 465.10237053402307
v 596702.9966003876 6998680.239329358 537.7003909801233
v 596580.4741813604 6999627.769138238 587.6239676832674
v 596860.2210743839 7000796.751871249 546.048074085104
v 596580.1563106469 7000372.92648264 583.3017533446479
v 596259.3877701465 7004717.346168441 260.7667832575416
v 596177.2908566509 7006094.775492734 187.22782296909963
v 596098.2679833559 7004482.709926163 300.68483923752285
v 595875.380743838 7004212.55702177 344.55650783507383
v 595764.2912471751 7006096.99202952 239.60216736092843
v 595295.4252857248 7006099.317740593 305.89451374918445
v 596231.7822890125 7007571.988677716 261.86090760503913
v 596044.2425271361 7007877.694434449 314.0579330364718
v 595796.8760155173 7008166.478262819 372.0840144138293
v 597387.7075732063 7004538.025099772 186.71887289799201
v 596978.9397819925 7004246.522698626 237.2841880254744
v 596899.7942084187 7006093.717599539 132.76553527260864
v 596411.2345309369 7006093.991850425 161.8493424430343
v 598551.7746076391 7003994.399573152 184.69839144582886
v 598551.6665403239 7003257.369229624 245.51858067397455
v 597097.9299032902 7003514.293111884 305.4106049553696
v 597165.903490608 7002954.196271478 362.9329737670037
v 598486.4278436162 7002703.618278633 297.82103276030557
v 597958.1848845851 7002569.878478627 342.1328386406909
v 597340.2076820062 7007835.045499585 191.2761617222664
v 596961.7196397036 7008181.131845992 243.97811628128642
v 598551.3859649842 7008590.893544049 185.09628368209178
v 598557.778974375 7009361.65446016 243.65980471170178
v 599046.8626262397 7009869.9312233515 269.46854940859527
v 597183.417658616 7009139.367264119 302.40609403441533
v 596801.4894773166 7009360.997155689 361.54921565122874
v 597726.4610058188 7009930.319273063 327.8637133536353
v 597528.9451413334 7010320.200061562 365.5920405784112
v 598077.6023165822 7009585.584782879 287.4187006994161
v 598557.9465738724 7010250.786728769 303.703915217964
v 598551.4039122697 7011255.792561197 360.3007572089424
v 594849.6307876359 7004730.1731858095 435.1969508362497
v 594718.9240041841 7004443.541845084 445.20953851010415
v 594791.4115566816 7006099.412497041 404.29508494821783
v 594494.9922952164 7006093.445886816 485.1834048108909
v 595541.0295399707 7004054.672199928 391.51671620083624
v 595752.2570300333 7003168.269369448 483.22816958651094
v 594981.8098728261 7006100.70172229 358.98429357188314
v 594519.3329715374 7004095.287355151 460.1477632157155
v 594023.2099406609 7003716.426159332 489.34415335303225
v 594136.6213602665 7006083.717311522 588.0254916117576
v 593766.2367288712 7006074.212397293 681.249760975496
v 595385.6880985434 7002900.556291031 550.9072295483803
v 595117.500982081 7002664.737917767 585.2950264655269
v 594821.9224140052 7007719.730869952 441.4494955844836
v 594690.5070484929 7008132.264164098 486.8340546158413
v 595749.4562257783 7008784.359699863 426.5759042449811
v 595594.4016749249 7009396.318040849 468.5354103930939
v 596360.2048787776 7009714.116587326 450.0847078695788
v 596129.0617512485 7010214.292271007 482.8863575022407
v 594552.6580736244 7008659.121093154 513.3978312695041
v 594113.9901152311 7008482.458920901 558.9421946294426
v 594848.1707027701 7010122.084873835 549.9895113577307
v 594277.059016764 7011058.787983187 576.0094831747537
v 595089.3799740814 7009569.510749338 517.2773041290451
v 595602.6767456972 7011033.814287303 529.0095210560498
v 595147.5555556911 7011714.18604613 581.3186458420375
v 596753.3188344967 7002780.297873614 421.982569121696
v 596525.3401509376 7002615.023187512 464.44874149382866
v 596512.1495390623 7009583.152762042 421.02506586699565
v 596370.9515378989 7009686.93100856 450.70153789889156
v 597160.3781717905 7010792.879902299 426.40932365237535
v 596762.1595483641 7011407.983697393 479.0321878919517
v 598551.4760288282 7011875.969936819 406.8800570433549
v 596471.0604845334 7011946.446138295 514.5220786147277
v 600005.3625048981 7001958.309058201 306.06422744891876
v 600005.2369971961 7000873.642933622 361.30560640208364
v 600966.2031830248 7002127.522783231 318.6977190921745
v 601454.8664562023 7001744.574230384 355.25943636147207
v 602202.4771841178 7002405.961699028 391.8208532579616
v 599620.0422323011 6997606.061871815 443.9635595429736
v 600064.8372675274 6997048.50980611 472.7856752944509
v 601458.9216394144 6997262.561865475 492.4416796670605
v 599998.6121790685 6995752.330530879 538.5100988203188
v 599509.6586015596 6995445.06470772 573.8720665676823
v 601458.9117031395 6996069.05408736 527.3959815256509
v 600065.0438859158 6998736.940422108 432.9927270846048
v 600589.1488359745 6997810.324331157 453.1496769208574
v 600005.2223330528 7000235.091014758 398.1873803807966
v 601459.1219530151 6999398.561557817 429.0440673637534
v 601458.9766010642 6998205.032415886 463.87466936049134
v 601459.7365744979 7000648.404605 391.4018820101701
v 602208.6460614718 6997660.011565865 506.4202176042825
v 602417.1297921049 6996736.918198361 541.4039969859248
v 603193.0144359726 6996495.95156128 592.7368328595383
v 603740.1527289086 6997258.500568304 612.4980205761068
v 602264.5372544834 6999880.790595148 444.46484097849344
v 602437.0787232043 6999024.117683166 481.8026091415767
v 602362.3087024656 7001493.9515668545 418.5544981684459
v 602907.6691205783 7001319.847358973 473.10365675008984
v 603170.3215657345 6998983.258344867 535.0762729753457
v 603486.3601105508 6998221.349217524 573.9108338045455
v 603426.7560077226 7001319.916393941 524.5216698076815
v 603685.8008432892 6999812.774481236 559.6032568366
v 603858.8488026898 6998983.333721928 591.3779720589528
v 603708.524911493 7001319.937564018 553.9979867004922
v 604024.2831434341 7001319.955285998 590.5536706615887
v 600017.7909683564 7004356.279147432 180.49922799125932
v 600005.9831060768 7003284.021477678 236.65947311922878
v 600451.3115960794 7006094.058306391 165.06797687821802
v 600799.126592728 7004719.685566405 215.36782035080728
v 600975.7141908088 7004248.551643516 245.8753395130766
v 600869.1072533876 7006094.126661899 197.17635763507366
v 601293.6145415828 7006094.150906456 239.78447104852148
v 600005.6292537405 7002607.843447892 274.4310106243366
v 601286.7200499341 7003532.46437905 293.9175342783695
v 601958.2232200035 7003707.089473802 352.1500353265301
v 601960.5715170295 7006469.315067292 308.38071496559996
v 602149.4771230319 7006060.17142776 334.7500476129329
v 600059.4570533228 7008072.428266007 178.61346914616195
v 600081.8305507649 7009260.999903633 241.69881278123597
v 599647.5723392636 7009870.047005602 267.64761557902546
v 600846.2548773141 7007587.337283472 210.12804299802298
v 601049.8388189769 7008065.471785139 243.31308025605244
v 600616.6309604684 7009616.3919076 282.0403934095534
v 600081.5167616329 7010289.201683639 298.67310925423993
v 600005.3511559451 7011307.477015308 361.2144226260904
v 601585.7172084531 7008294.101428124 294.1173543739685
v 602021.7064077676 7008707.917831668 350.3262424140992
v 600953.2367068221 7009994.3394132005 319.31624409402286
v 601250.2007267184 7010372.218239325 360.42624866286235
v 602278.7751115295 7003707.1790392175 383.9926894550276
v 602189.1026019442 7007242.451701723 336.0394162863909
v 602350.4666475175 7006305.670032083 356.2153614184902
v 602189.1012577906 7007306.234453092 336.0514669566802
v 602310.3648074981 7007869.270338163 360.26524657077067
v 600005.2993669094 7011879.767836098 406.77870053392286
v 602170.3780942239 7009635.96431168 394.7785348098618
v 601485.338584979 7010978.129503037 411.59914866141776
v 601815.6845123206 7011721.970478967 477.3269783701185
v 602110.1277291485 7012000.206744185 511.9410489950249
v 602620.7934511214 7003707.176939611 423.57737751803046
v 603103.0137298927 7003707.193951186 482.00714201724566
v 602815.9312037021 7006094.216012548 417.12271247401736
v 603252.8747501359 7006094.226480161 475.2951759353172
v 603487.7482528897 7003707.196600734 530.4329012262548
v 603552.343381687 7006094.236044236 516.9152351882268
v 603715.3936756743 7003707.193071605 559.0500883047926
v 604021.2370988961 7003707.18403678 596.6078739004647
v 603766.6941801417 7006094.242986421 545.91794847904
v 604109.8480200975 7006094.249470959 591.311987886294
v 602574.1827003948 7008696.822643802 408.14481541957434
v 603149.5808038134 7008481.468757378 472.63171181334803
v 602357.6118960981 7010078.954765985 431.8449556811413
v 602575.6646065892 7010528.460559403 475.39764665270434
v 603513.6857059756 7008481.448458841 517.3922631243852
v 602934.4362629097 7010898.378473546 528.295859881681
v 603351.162808039 7011444.268404439 591.2199314097535
v 603747.165163974 7008481.436511826 546.4274220500768
v 604076.587304318 7008481.424590241 588.8053688258043
v 603669.6773233383 7009795.893106295 561.2703804436176
v 603802.2236849816 7010250.668221549 591.9212184843562
v 594236.9419999333 6997234.409317706 647.7511890427976
v 594190.3968932547 6996171.4755999055 707.9974004485582
v 595644.0558477705 6996338.313423744 647.2863170040106
v 595608.5549484759 6995647.762937605 703.9439430067152
v 594190.3624047727 6995544.2196165295 755.6318111085756
v 595100.3122450928 6995459.051082548 747.3655717864253
v 594227.4246839224 6998783.88505965 672.9400347025787
v 594674.6901027136 6999775.828559241 696.9324628207987
v 594190.9384324072 7000719.055838831 665.2103925133451
v 594674.7450011326 7000273.475818457 689.9700348004534
v 595366.2509258833 6999302.4110808065 660.106856398845
v 595056.7841794554 6999775.517407592 693.6939963324785
v 595365.9832984344 7000746.369030331 665.1964179561483
v 595056.6119532987 7000273.429657584 688.9939189698121
v 597097.8022182736 6995696.0833824985 650.1957876644921
v 597097.8003250114 6995405.850749874 685.9699210142153
v 598127.1574027727 6995502.793407266 652.8149705573005
v 597894.6578789643 6995386.000882554 684.6544187858074
v 593481.5496591369 7004726.630129643 614.6776883742133
v 593525.8687005166 7006068.125402871 731.5783900543844
v 593687.8958663179 7008588.5625303015 621.8562656747316
v 593552.8275967258 7009454.5080019245 691.9366527038441
v 593713.9853922304 7010549.5539051015 643.110346296668
v 593552.1158313776 7010109.334271462 688.7621226432533
v 603501.6667143578 6995667.080807451 629.9068735233988
v 603759.4029014225 6994931.137205213 668.0309416724851
v 603949.3521016368 6994144.66049177 708.7749075895791
v 603951.7358157808 6996495.940648689 648.8363954233306
v 604670.5647802199 6996741.831092431 711.1882260247703
v 604620.2731417607 6994278.937551789 766.2761107331039
v 604927.8815924082 6993422.160486446 821.5797010406776
v 604938.1051140456 6996076.916521476 749.5912213763822
v 604391.6119405259 6998932.816319126 648.0067519531394
v 604879.141694923 6998932.831013854 699.4748345020598
v 604507.6750114997 7001319.976348736 648.3578294442854
v 604918.6963757023 7001319.985851122 699.5751961500162
v 605088.3148899109 6992976.085799065 850.9969077726654
v 604468.1904259946 7003707.171281858 653.4091857487466
v 604926.4195801507 7003759.428112773 714.8842066091329
v 604531.625835773 7006094.253857266 649.069424090842
v 604947.2128086211 7005937.565362847 709.676729070087
v 605087.0839405739 7004589.962016955 737.4834617385108
v 605087.1235735359 7005037.402870886 737.2246550994486
v 603560.4766464975 7011912.985211137 628.6489347006623
v 604511.8594405097 7008481.41334125 646.6568263973129
v 604944.5168931347 7008689.3510772325 707.3419625855178
v 604027.1452647238 7011017.892447011 644.6142063178511
v 604575.2386636905 7010868.605490799 704.2313386232848
v 605090.4684004397 7009623.672807749 736.6692424111183
v 604987.0163192587 7011107.285524236 756.6824408639868
v 605103.2343612327 7012062.0765379 793.4515378988915
v 593511.8231013664 7016554.175134019 264.19818197710805
v 593485.951205359 7014429.80302675 331.348323874256
v 593561.8189309464 7014357.03977811 364.9475914286375
v 593570.898882594 7015712.114601935 309.80575603718427
v 593768.4967304916 7015642.721478523 364.3450201078374
v 593511.8223658395 7016987.986234117 264.210267471619
v 594190.3392555898 7021241.403909077 193.4196847313528
v 594190.3599994158 7020992.230780714 250.580434962408
v 595037.0221750538 7021450.359422418 193.63320484302994
v 595083.7837214108 7021387.173420418 250.75443893441275
v 593580.7773230547 7017191.482120914 307.8660446950702
v 593670.1195927616 7017433.3874785295 365.0060995937122
v 594190.3853404723 7020752.51651021 307.75457652374644
v 594190.4090606666 7020521.7830069605 364.9370480237806
v 595130.0135694372 7021324.535656798 307.87506994105104
v 595175.95004347 7021262.220348261 364.9949344529978
v 593695.661875406 7014211.252207086 421.8453686290413
v 593839.6616851479 7014014.374784444 478.58447830740727
v 593991.4142434291 7015642.752718893 421.6048745465638
v 594225.0285668687 7015642.770988048 478.8856098575113
v 593996.5445715833 7013731.044560775 535.4040815498822
v 594291.3088675487 7013139.282426504 584.7511551014893
v 594472.9344591242 7015642.773250621 536.1617838768456
v 594746.9659423226 7015616.928223506 594.8625962626887
v 596116.7690907139 7012333.604541433 551.7874102668668
v 595549.358139356 7013263.625851372 593.9575900528092
v 594982.3620585372 7014803.990068301 614.9398494400926
v 593759.2312943266 7017651.545217158 422.1852973796917
v 593848.944707565 7017851.61042875 479.3939461873779
v 594190.4244061948 7020299.226699769 422.1224853477613
v 594190.4264803124 7020083.753943275 479.31441578161855
v 595221.8307895465 7021199.964830957 422.11350188717347
v 595267.8949469316 7021137.46693559 479.2299355072434
v 593865.0805243974 7018235.812985448 536.0151411742223
v 594128.6935072978 7018029.9788561985 593.666683302412
v 594065.3606903779 7019775.427192035 535.9191746881663
v 594285.5832060423 7019816.828789596 593.6135266729327
v 595314.3856015238 7021074.381066716 536.3431773385794
v 595361.5524752776 7021010.313399742 593.4520598708955
v 597761.5054624185 7012121.776091717 447.39167490132445
v 597488.9364056842 7012360.138949272 477.7961183893939
v 598551.5104586236 7012263.096034682 436.2107759930168
v 598551.504049617 7012845.50327277 477.4596261509293
v 597012.4007678169 7012747.987959917 531.2848497644768
v 597097.7909264422 7013581.431777141 592.7504603566618
v 598551.4969851394 7013506.462715795 535.5333056889118
v 598551.4881855352 7014000.006198697 593.1116647081668
v 595763.8607589868 7022375.264682399 193.66675062822145
v 595810.6238965909 7022326.156840462 250.80188599790625
v 595856.8546150536 7022275.766738793 307.9326540498732
v 595902.7918769034 7022223.914482184 365.05970537142764
v 594646.6245027599 7030785.829813352 193.61844987909103
v 594619.8435197097 7030758.001662063 250.74212980214787
v 595644.0681176585 7030133.641982521 193.57705822398788
v 595644.0687719 7030093.663037405 250.70531714310403
v 594593.5740010422 7030732.107379191 307.8662186872822
v 594567.7630873924 7030708.013246554 364.9906948585841
v 595644.0695866579 7030056.452085491 307.83329975955536
v 595644.0706051686 7030021.810908199 364.9610567968705
v 596766.2446807416 7023568.7471883455 193.59351860747887
v 596815.4131625806 7023519.6248699045 250.70603618985
v 597493.0772347706 7024727.298257585 193.62571507797952
v 597542.2421854278 7024639.669469173 250.75565801870562
v 598008.201255645 7025920.882500448 193.6502123931316
v 598035.1558558517 7025833.258971198 250.77953933227013
v 596866.5970656419 7023469.222324115 307.8164149363455
v 596919.951326695 7023417.36033202 364.92448781317233
v 597593.420253974 7024541.532364056 307.8856897745245
v 597646.7665506029 7024431.201710253 365.01471686558926
v 598063.5501831585 7025735.127582387 307.90962708173106
v 598093.5369930421 7025624.804433253 365.0414952309778
v 597097.8431235688 7030013.767723057 193.6038977996513
v 597097.8440818063 7029992.340769428 250.73115541257027
v 598735.0471032012 7027036.600139072 193.65905089652637
v 598762.0044255897 7027005.350084219 250.78382356966893
v 598460.0503349908 7030665.952549091 193.64477930559462
v 598470.5621084793 7030656.67974107 250.76921693997087
v 597097.8449500859 7029972.50339599 307.85849947375027
v 597097.8457091998 7029954.1033228375 364.98592785474534
v 598790.4018003483 7026972.342456141 307.90832828638435
v 598820.3923293236 7026937.400571701 365.0325357546112
v 598480.5591819227 7030648.162207815 307.8936250531701
v 598490.1423284481 7030640.312128491 365.0180129147755
v 595948.6738718431 7022170.399889401 422.1836793866749
v 595994.7401997048 7022115.000819315 479.30522807247445
v 596041.2343161973 7022057.470675219 536.425021913566
v 596088.4061684946 7021997.534667947 593.5437112498114
v 594542.3509260204 7030685.601416206 422.1155175940672
v 594517.269103206 7030664.765238149 479.2406291590655
v 595644.0718545215 7029989.561110432 422.08863364486666
v 595644.0733476088 7029959.538964155 479.216071938331
v 594492.4385890006 7030645.403575249 536.3659555441799
v 594467.7681281352 7030627.415042091 593.4914276096356
v 595644.0750838763 7029931.589573457 536.3434086577881
v 595644.0770479555 7029905.561494858 593.4706734036747
v 596975.6459117732 7023363.839510457 422.03018528340414
v 597033.8732593423 7023308.438550907 479.1336615673114
v 597702.4515594812 7024306.6332518235 422.14126294232597
v 597760.667348155 7024165.307562893 479.2657954874591
v 598125.2769237926 7025500.2481885245 422.17954417186564
v 598158.9390778287 7025358.94062539 479.330317500992
v 597229.5549886756 7023393.059716677 536.828073614608
v 597097.8569561779 7023152.508432372 593.365527179082
v 597801.8358009565 7024059.304577978 518.3782059514967
v 597832.9695246079 7023985.740253629 556.4614477702853
v 597851.4686380565 7023959.22100539 593.5138867692314
v 598125.6771074976 7024989.618322559 537.1195592736168
v 598259.6338508864 7025191.356089918 593.6228181653288
v 597097.8463415423 7029936.995506239 422.1134386839665
v 597097.8468326997 7029921.042038549 479.24102998369625
v 598852.1389675372 7026900.327173268 422.156425270142
v 598885.814696847 7026860.90086855 479.27999205743345
v 598499.4010993037 7030633.044976729 422.1423890663697
v 598508.4144299132 7030626.279909276 479.26676131620843
v 597097.8471728368 7029906.114282803 536.3686965214695
v 597097.8473577527 7029892.098427755 593.4964195010261
v 598921.6031480959 7026818.871262925 536.4032553880315
v 598959.700078005 7026773.952215761 593.5262657223001
v 598517.2503701496 7030619.9420574205 536.3911373884487
v 598525.9648483829 7030613.9676894145 593.5155279727801
v 600005.2654160545 7012268.848077939 435.86695715869143
v 600005.2456365835 7012865.621326337 477.4836232636752
v 600798.5746118473 7012129.449917426 446.94167616865036
v 601088.7499983988 7012380.262309915 478.0497151092219
v 600005.2199293696 7013554.239042057 535.1162582443303
v 600005.201098481 7014088.582052831 592.5596545524652
v 601559.0587818073 7012796.609246734 530.2824818886015
v 601458.9795393003 7013709.81227398 591.5174115166064
v 602364.5454001288 7012350.990389918 549.7997960711143
v 602624.1843528626 7012711.173868645 591.865893186688
v 600005.173432275 7028035.231666496 193.66679717616904
v 600005.1742889581 7027973.531134101 250.79523988562698
v 600344.0611835171 7030842.638373001 193.64047961691819
v 600335.5960689854 7030882.182329264 250.7655133472993
v 601458.8622326145 7028407.29701941 193.66914409090822
v 601458.8626229006 7028302.9096786445 250.79672075607368
v 601458.8594766613 7029871.576248962 193.64169642051763
v 601458.8619621464 7029981.5587146785 250.77875587300912
v 600005.1752570492 7027908.680505239 307.9241144055369
v 600005.1763390007 7027840.336828389 365.05351257127137
v 600325.7571031867 7030916.167686756 307.89050162350804
v 600314.059266995 7030945.758886865 365.01549691139894
v 601458.8629777135 7028190.575915522 307.9241987857917
v 601458.8633786575 7028069.294827696 365.0520350536218
v 601458.8640160892 7030080.036302881 307.9129315532927
v 601458.8655691975 7030169.044687887 365.0446099907299
v 602912.5408816572 7028543.650442927 193.58201098954783
v 602912.5396262901 7028400.899132802 250.6968984796482
v 602912.5455334472 7029083.622371449 193.58588792033333
v 602912.5432915277 7029247.238506837 250.73692789438076
v 603701.7726657587 7028713.424883752 193.63769516750267
v 603774.3774283454 7028644.613514264 250.76009284832276
v 603701.7755190172 7028861.123588055 193.62944827060898
v 603774.3865173587 7028954.279668858 250.72913788128113
v 602912.5378927744 7028247.824462417 307.8109108907375
v 602912.5354019686 7028083.205969442 364.92391592943227
v 602912.5444827417 7029396.767076134 307.8870436120409
v 602912.5488601809 7029534.262869905 365.03538205289635
v 603849.9611292046 7028572.031156706 307.8801935157399
v 603928.7893888499 7028495.291760309 364.9974676393682
v 603849.979735277 7029039.290607534 307.8098824133401
v 603928.8191322756 7029117.345564852 364.8721127649264
v 600005.1775368369 7027768.108956902 422.18354754255853
v 600005.1788532644 7027691.54890762 479.31435571737006
v 600299.7907490298 7030971.815348674 422.14053700887376
v 600281.8650196057 7030994.982329869 479.2656631809262
v 601458.864000471 7027937.900633412 422.18108836727106
v 601458.8651879382 7027795.023393474 479.31284258022674
v 601458.8666130306 7030250.162463364 422.17421085804614
v 601458.8671866644 7030324.633152237 479.30213710873727
v 600005.180295048 7027610.141144257 536.4460947705443
v 600005.1818808883 7027523.28937336 593.5789340211788
v 600258.5416732368 7031015.749631034 536.3909418156579
v 600226.8579476085 7031034.490442855 593.5165089748025
v 601458.8675751426 7027639.036944854 536.4496872837351
v 601458.8721281533 7027467.989436843 593.5949889645755
v 601458.8673602159 7030393.447712784 536.4287498198821
v 601458.867218887 7030457.401800572 593.5543581304313
v 602912.5318274519 7027905.634536184 422.0356897980049
v 602912.5268775444 7027713.469774376 479.1460346836591
v 602912.5559173889 7029661.44123694 422.1812231154804
v 602912.5649386247 7029779.746774022 479.3239720227345
v 604011.1857969192 7028413.958037626 422.1115623629415
v 604097.5445496019 7028327.533110289 479.22265391343865
v 604011.2260233624 7029189.446727301 421.91757355895214
v 604097.5915493404 7029256.4464840945 478.9494593853342
v 602912.5205103271 7027504.783109764 536.2551625128784
v 602912.5133970222 7027277.280571844 593.3645627887263
v 602912.5750059074 7029890.405171926 536.4631388834151
v 602912.5849971258 7029994.462599189 593.5983637071528
v 604188.3450651041 7028235.449596977 536.3316425558213
v 604284.1690881746 7028137.054632121 593.439462464921
v 604188.3913900205 7029319.07493041 535.9725335331473
v 604284.2035672962 7029377.959808122 592.9930369684153
v 594856.9276759577 7016486.2370446585 650.6709665495507
v 594909.8097197537 7016810.464503119 681.3147312736673
v 595905.5700105204 7014194.512993782 651.6611582930996
v 596170.0599361798 7014364.708317033 692.3034800921065
v 595178.8015884794 7015292.674172989 650.7162131230136
v 595572.2482405304 7015686.954106645 706.613499123898
v 595786.2256874925 7016012.814960109 765.1519820637735
v 595908.7932208068 7016345.155402734 822.1205935855407
v 594312.3999260059 7018029.989764994 650.7431487909098
v 594544.6009131907 7017884.926757052 703.4978090877551
v 594372.7475596726 7019751.345289454 650.7137680904957
v 594457.0549898043 7019683.955567544 707.8159672545899
v 594974.7417434725 7016992.399980966 719.3587488064437
v 595409.6545712168 7020944.820313331 650.5555002255976
v 595458.9622211994 7020877.415269046 707.6528398171823
v 594539.0940454232 7018377.934368433 765.2202650459265
v 594619.5356302055 7018591.618461448 822.2865114542309
v 594539.165391801 7019614.134083592 764.9236761200955
v 594619.5696829909 7019541.301731615 822.0368396642442
v 595059.4900843916 7017184.3881876785 764.7710023666501
v 595182.0041497332 7017398.088033741 821.8817093172391
v 595509.7578002632 7020807.570974697 764.7442374413312
v 595562.3345685999 7020734.711043702 821.8309791512487
v 597097.7899561096 7014105.45460001 650.5995329151835
v 597097.7828033145 7014383.689096876 689.5017916440978
v 597097.7646787984 7014715.088745676 718.3077985590043
v 598415.9272118872 7014353.481014695 648.3912351504011
v 597840.9909732183 7014446.34531521 679.7429570027107
v 598810.1160118057 7014638.003055741 666.5590731078082
v 598415.931124867 7014952.903326165 702.8861235903427
v 597097.751441167 7015317.576787946 765.3230105569245
v 597097.7646044549 7015894.452738996 822.3489804175266
v 598551.4876041642 7015690.761897177 765.2042772540117
v 598551.4924313993 7016163.32248908 822.3165833611337
v 596056.1311167004 7016575.455546587 879.2149577518711
v 596237.5309077498 7016745.116554249 936.2884153124862
v 596349.0689119457 7016824.283480987 967.5216505366533
v 594698.6340621474 7018780.390029546 879.2857459710956
v 594776.679722619 7018949.898934803 936.3228285646708
v 594698.6419372275 7019464.817810084 879.1538705086766
v 594776.6803555787 7019383.976355301 936.2728431966294
v 595329.2953300168 7017586.798358932 879.1431815760607
v 595510.6756486236 7017756.285960927 936.5234540734012
v 595868.2850431359 7020974.820487098 888.2214498677539
v 595789.7663843161 7020716.080356046 930.2407917412386
v 594853.9316927191 7019104.20908528 993.4046501231444
v 594900.6797956016 7019193.1409247 1028.0695367348048
v 594853.931219761 7019298.000617825 993.3934307607406
v 594900.6797624021 7019243.568232984 1028.0692400925263
v 595776.3400491271 7017847.836160844 989.7880930223234
v 595555.3771615106 7018688.588512749 1048.7553362731649
v 595644.1180922233 7020228.638444686 993.0814521476836
v 595555.3970014512 7019814.698454235 1048.1268217047523
v 597097.780884762 7016316.150925954 879.4142455917865
v 597097.7919624277 7016640.063207645 936.5277509798627
v 598632.2534862354 7016580.237000996 882.017964737928
v 598160.1816686806 7016731.295320259 936.3572156305318
v 597097.7974626335 7016809.4373833835 971.2476395428448
v 597895.1509765058 7016812.56238805 970.3259749058282
v 596371.3420983334 7021609.10948512 907.4272177214099
v 596392.8895386362 7021525.752958979 936.2722309705134
v 599170.635806621 7016971.457822268 902.4660477552527
v 598887.0342837472 7017308.316111382 936.4952575815296
v 597097.8015629981 7017163.1311203055 999.8231011252207
v 597097.8091009175 7017810.783735934 1050.7248305410335
v 596437.4354614203 7021347.801989918 993.42146770654
v 596485.9665039072 7021141.143377124 1050.5744518010397
v 598448.4650972794 7017679.640452202 991.500935317081
v 598635.720350899 7018570.011514297 1049.3285055118163
v 599176.3609437183 7019328.90945693 1066.9540249924305
v 596136.514734001 7021934.884482326 650.6618661682264
v 596185.8298877106 7021869.171229226 707.7800490828673
v 596236.6330246355 7021799.99635468 764.8988001093627
v 596289.2158319666 7021726.901149785 822.018710920235
v 594443.1548407818 7030610.694713118 650.6170049558094
v 594418.488083951 7030595.135496415 707.7426611847994
v 595644.0792084202 7029881.304640115 650.5978865545908
v 595644.0815205945 7029858.673742173 707.7250607294775
v 594393.6553885741 7030580.633201206 764.8683721864054
v 594368.547914569 7030567.091901645 821.9941168742721
v 595644.0839338241 7029837.535617086 764.8522044692937
v 595644.0863991051 7029817.775331477 821.9793250193142
v 597097.851841626 7023048.082154872 650.5027575752698
v 597097.8432254066 7022938.983289379 707.6479564500272
v 597880.6680309098 7023917.427492633 650.6371784237273
v 597911.0385840528 7023874.02178738 707.7584968164873
v 598329.4432254628 7025191.357597042 650.7613932139062
v 598403.1723030293 7025191.358543502 707.8992689104558
v 597097.8311003797 7022824.440023004 764.802054383913
v 597097.8155325922 7022703.597846669 821.9663010073136
v 597942.7985189583 7023828.631371293 764.8769144411673
v 597976.1697583902 7023780.859288707 821.9913148532057
v 598481.2950463917 7025191.359240257 765.0365263305979
v 598564.3228665891 7025191.36014541 822.1738654159697
v 597097.8473909617 7029878.903644172 650.6241475218299
v 597097.847288766 7029866.468193827 707.7517934381336
v 599000.3161711023 7026725.812590826 650.6491072235851
v 599043.6815777881 7026674.063910542 707.7718880041466
v 598534.5997586683 7030608.311152955 650.6399535164652
v 598690.206099758 7030716.809430782 713.4771994156719
v 597097.8470813284 7029854.759365557 764.8792749347148
v 597097.8468029216 7029843.768203562 822.0065537628518
v 599090.0523044398 7026618.24457099 764.894703720981
v 599139.7181414407 7026557.800574558 822.017638834501
v 598863.1150459521 7030838.220675043 764.6249942764871
v 598698.6440705517 7030695.335895036 816.3006764135281
v 596349.2915371137 7021641.600163926 884.6887895925529
v 596371.7647830703 7021609.399169082 907.7015381231075
v 594343.0638809734 7030554.427196131 879.1198767155879
v 594317.1100397904 7030542.567163018 936.2456354607193
v 595644.0888735623 7029799.298118265 879.1064289729946
v 595644.0913217218 7029782.027748357 936.2335217336946
v 594290.6019075619 7030531.451864559 993.3713789015123
v 594263.4633900527 7030521.032188949 1050.4970946991432
v 595644.0937151341 7029765.903646258 993.360606913648
v 595644.0960315374 7029750.878175925 1050.4876860922877
v 596855.7075698934 7022253.867891735 888.5349299936181
v 596969.9632288743 7022307.990711466 930.6092721248681
v 598011.3806922294 7023730.282692961 879.1004850017564
v 598048.6735399662 7023676.44036808 936.2032682666601
v 598652.8163456067 7025191.361635485 879.312280317421
v 598924.3237532022 7025588.568968159 945.7766619495026
v 597164.2690311209 7022425.334491515 993.470591094122
v 597212.8036893193 7022363.377448021 1050.6245233423401
v 598088.3138786842 7023618.814026239 993.2987031312722
v 598130.6003652376 7023556.807491401 1050.3860475602123
v 598908.3448081613 7025396.949770832 987.9094129475222
v 598857.3205733261 7025066.462539802 1050.694906724192
v 597097.8464829549 7029833.501997492 879.1336292570561
v 597097.8461442776 7029823.976846115 936.2605167113077
v 599193.0115264138 7026492.0626873225 879.1408539603163
v 599255.9186335655 7026413.140908475 941.6601115342607
v 598551.4752027324 7030562.311206627 879.1375063164813
v 598551.4761092403 7030546.326754843 936.261895450996
v 597097.8458039911 7029815.212158883 993.3872360502648
v 597097.8454744008 7029807.227624996 1050.5138077763947
v 599280.0240779022 7026382.659601195 964.8265382596019
v 598551.47692053 7030531.462302631 993.386372359244
v 598551.4776327079 7030517.73531372 1050.5109281449363
v 600005.1886229883 7014386.861740337 630.1257456009082
v 600005.1756018965 7014777.440445499 659.0251800279979
v 600005.1712355702 7015467.062339535 707.5459207019289
v 601604.2958981666 7014294.906131416 646.5526620076955
v 602185.7015378989 7014462.452435811 679.2015378988916
v 601458.8903600415 7014643.9567198595 667.6564491046215
v 601458.8696786129 7015333.912024153 707.0924938146901
v 600005.1674271344 7016102.194019803 764.6844245280591
v 600028.9827978595 7016603.523515291 822.6445997134052
v 601458.8675340379 7016187.193416385 764.3121349754215
v 601458.8605538926 7016690.769286102 807.6378613429057
v 600529.4378995709 7017258.6032182155 842.6993029595767
v 601458.856626046 7017487.411454976 836.6641390932327
v 602778.5862513488 7013469.93164417 652.0019734082259
v 602986.9259111995 7014101.00386326 700.181795473853
v 602193.229492625 7014459.9799876055 678.7792736230784
v 602460.2038160661 7014765.603256273 707.5888758471758
v 603761.1430258352 7012378.402602561 666.6623677991928
v 603960.6561277319 7012817.003189577 706.6142151188177
v 603513.2997437833 7014343.678610221 742.8036199389179
v 602982.2937755194 7015336.733594075 762.2077885437822
v 603027.5146483047 7016511.0182464775 820.869178971869
v 604466.2916267401 7013046.677028633 767.1936246201069
v 604865.094837571 7013429.143485578 815.0442303042512
v 603804.1968495304 7014824.027628835 780.9976113380429
v 604078.5903284155 7015312.972179034 821.434592215931
v 602619.553676465 7017282.151630821 840.16439333035
v 599560.3032132752 7016755.264664417 864.3136596963882
v 600107.0903173671 7017910.70184912 883.3179836396356
v 599744.1596108199 7018501.889076792 936.4586500135438
v 600653.7890122555 7019333.102005811 900.8113854072913
v 600470.9732362697 7019577.188764775 936.1357861856218
v 601458.8492247756 7018680.984927395 869.1273460715898
v 601458.8425237766 7019404.216964117 897.5945415442477
v 601458.8329790004 7020020.944643168 935.6613255595951
v 599479.1351892529 7018947.322160562 993.3799679680017
v 599331.3206275429 7019156.773551618 1028.8728138571755
v 600205.9467312734 7019913.874616584 993.1844712957918
v 599891.5357399493 7020051.657204408 1048.6131584966206
v 601458.8202127318 7020785.294702899 992.8948247081921
v 601450.6469266495 7021364.191246434 1049.8771328044136
v 603588.6783108675 7016817.454599012 851.6709627014161
v 605029.2530168609 7014325.047363218 855.2338874989993
v 604534.6657744817 7015970.8734956505 871.6894118806849
v 605009.114530612 7016715.654980685 911.1927534761115
v 603011.694938871 7018191.581402829 876.7529762034687
v 603403.8495441129 7019101.017769118 912.588378116326
v 602434.7241955147 7019354.813535592 901.6469690324476
v 602916.5915558591 7019806.277257902 933.5155464120122
v 604039.995084756 7017509.608208457 889.5250764095438
v 604461.2346642618 7018195.157435156 917.8236711371644
v 604366.2354675237 7020076.825300172 946.8862169840472
v 602912.555109357 7020931.545087611 993.697046310057
v 602912.5647810859 7021495.096986355 1032.0750213341573
v 604266.9957638077 7021302.534530262 988.1122162499387
v 603716.2806623364 7021550.764963043 1025.9501606524886
v 602165.3447653472 7026365.906689597 730.3597013310973
v 602108.0068280624 7026308.731472272 764.8852002001565
v 602015.690637065 7026209.172846092 822.0028414678844
v 600005.1836546973 7027430.300619875 650.7130373416378
v 600005.1856977942 7027330.366421844 707.8485548626917
v 600181.344852005 7031051.488271513 650.6426979812982
v 599944.1877653272 7031088.038044501 713.4871232310285
v 601458.879704957 7027279.510738684 650.7520661352492
v 601592.0529695043 7026955.695299509 710.0854651372832
v 601458.8668495786 7030517.1370226545 650.6792180226427
v 601458.8663315077 7030573.183398935 707.8035362111715
v 600005.1881292526 7027222.540551064 764.985644406674
v 600005.1910897586 7027105.711521818 822.1245257123164
v 599783.5029768905 7031106.945934966 759.8356359573654
v 600005.1390194134 7031080.566484884 822.0256077268801
v 601381.2127819291 7026989.132406999 765.0662447490167
v 601288.912393082 7026932.734146815 822.1915020029833
v 601458.8657317553 7030626.028433629 764.9274789118407
v 601458.8651034549 7030676.138664019 822.0511810422374
v 602237.0156846747 7026365.906474384 730.3574965198077
v 602400.7670183678 7026308.727796049 764.8398579322649
v 602705.748298768 7026209.154452996 821.8628009908139
v 602912.5072687984 7027028.196689874 650.4777501001113
v 602797.9236527177 7026702.425746732 709.7146519389232
v 602912.5936713871 7030092.8156698225 650.7295455476788
v 602912.5999483976 7030186.234139255 707.8570549699148
v 604498.4818720052 7028155.725080909 648.4822200716051
v 604366.2398924668 7027811.284250523 707.6800568945519
v 604498.4975281404 7029358.599928837 647.8873737462204
v 604366.226684558 7029725.069998328 707.2655400334087
v 603127.6134187743 7026602.177559468 764.8029196842504
v 603432.6232475109 7026469.44609822 821.9869602961803
v 602912.6032864081 7030275.378020582 764.9818062273579
v 602912.6037782497 7030360.810954728 822.1049048972952
v 604366.2432708595 7027590.596938947 764.7898770644679
v 604366.2526132872 7027350.768797793 821.8785611535088
v 604366.2033619842 7029955.740750957 764.4910237509835
v 604366.1878539397 7030165.016112013 821.703381625836
v 599280.4431111201 7026383.458930449 964.2978946820062
v 601926.9350585449 7026100.675876858 879.1098518277553
v 601840.9274593315 7025981.718931738 936.1924887627838
v 599344.2136847632 7026343.399145092 993.3910945756223
v 599481.6274748622 7026259.950924169 1050.5286784815041
v 601929.8052367273 7021801.712997859 1069.1097146054747
v 601757.0000313832 7025850.4249680415 993.2475069609366
v 601674.6049594799 7025704.478294188 1050.3008085584197
v 600005.1946905962 7026978.567216604 879.2656180745673
v 599763.9862900217 7026688.038508904 945.7159296563389
v 600005.1386279886 7031080.204813827 879.1500049270403
v 600005.1382010127 7031079.920797363 936.2743704589654
v 601200.1651759299 7026871.311815605 879.297092361175
v 601114.1604148166 7026804.117927394 936.3913878102812
v 601458.864485816 7030723.920736677 879.1747519289165
v 601458.8639055568 7030769.711546182 936.2982774692648
v 599912.5507514789 7026660.395162883 987.8579202170729
v 600208.507164848 7026648.783548572 1050.628413679417
v 600005.1377556765 7031079.843418703 993.3986957121369
v 600005.1373045512 7031080.075145191 1050.5229770382525
v 601030.2293771313 7026730.2761721695 993.4808775341882
v 600947.81807755 7026648.748147155 1050.570580976403
v 601458.8633771873 7030813.791071673 993.4218166974299
v 601458.86290378 7030856.393844731 1050.5453995794983
v 603041.9147396196 7026113.172156581 874.3639492212271
v 602912.509147376 7025802.130054486 935.9740615630337
v 603706.760565846 7026311.015663641 890.6943507431859
v 603801.8217906246 7026205.294871698 936.2581523789032
v 602912.571091619 7021927.5602532495 1060.5829317440425
v 602912.520500694 7025524.405402816 993.0687042633824
v 602912.5329368842 7025212.332069404 1050.206794176565
v 604685.3926896866 7021911.401897206 1003.4017282133116
v 604266.9608488767 7022261.86973894 1046.7111252478715
v 603930.4852509097 7026058.862583379 993.3779178742452
v 604072.0140446464 7025892.705301768 1050.5075589260791
v 603612.8011849272 7026395.166922632 852.6123714372461
v 602912.6017964017 7030443.011544866 879.2269617552045
v 602912.5978365002 7030522.383225144 936.3479497902779
v 604261.3182556343 7027002.255986316 874.459807935879
v 604528.6875571428 7027019.894285621 936.126677276661
v 604366.1814029815 7030355.887898027 878.8968072946145
v 604366.1830452876 7030530.805061629 936.0724765618502
v 602912.5927682177 7030599.263386175 993.468015531432
v 602912.5875107154 7030673.932692866 1050.5876874038258
v 604657.3415061733 7026877.295949193 993.2950021406123
v 604798.8632778865 7026718.796404317 1050.4721459579396
v 604366.1898282046 7030691.794013402 993.2337916544445
v 604366.198343334 7030840.547391504 1050.384525388474
f 22 21 18
f 27 22 19
f 28 27 20
f 34 33 2
f 44 9 37
f 46 44 39
f 47 45 46
f 48 28 35
f 49 30 48
f 51 50 39
f 53 52 51
f 56 53 54
f 57 56 55
f 66 65 16
f 67 61 65
f 68 67 66
f 70 69 63
f 71 70 64
f 77 10 76
f 80 78 13
f 83 16 81
f 86 84 43
f 87 85 86
f 89 88 87
f 91 68 90
f 93 73 92
f 95 74 91
f 98 96 97
f 109 108 26
f 110 109 31
f 111 110 32
f 115 114 113
f 124 117 122
f 125 124 123
f 130 128 129
f 134 129 131
f 135 130 134
f 138 111 52
f 139 138 53
f 140 139 56
f 148 125 146
f 149 148 147
f 156 149 154
f 157 156 155
f 161 159 160
f 164 162 130
f 167 73 166
f 168 166 161
f 169 167 168
f 175 173 174
f 176 164 135
f 177 176 165
f 179 178 177
f 180 168 173
f 181 169 180
f 182 180 175
f 183 181 182
f 185 179 184
f 189 133 188
f 191 189 190
f 195 193 194
f 196 136 189
f 197 137 196
f 198 196 191
f 204 175 203
f 205 203 195
f 206 178 197
f 207 182 204
f 208 183 207
f 211 107 209
f 212 211 210
f 225 223 218
f 226 167 93
f 227 226 94
f 228 226 169
f 230 97 171
f 231 98 230
f 233 228 181
f 234 229 233
f 235 232 234
f 236 224 202
f 248 242 247
f 260 252 259
f 266 264 265
f 267 255 260
f 269 267 262
f 270 268 269
f 275 273 272
f 276 274 275
f 278 275 277
f 279 276 278
f 283 281 282
f 289 239 288
f 291 283 290
f 298 296 297
f 300 299 294
f 305 303 304
f 308 306 276
f 311 309 305
f 312 310 311
f 313 249 307
f 314 250 313
f 316 305 315
f 317 308 279
f 320 318 319
f 321 311 316
f 322 312 321
f 324 322 323
f 326 325 320
f 328 261 287
f 329 262 328
f 332 330 298
f 348 347 342
f 360 359 358
f 361 358 354
f 362 361 355
f 363 360 361
f 367 366 365
f 374 373 372
f 377 376 339
f 378 374 376
f 379 378 377
f 384 383 374
f 386 382 385
f 388 384 378
f 389 388 379
f 391 390 389
f 396 395 394
f 399 391 398
f 402 392 359
f 403 402 360
f 404 394 402
f 405 404 403
f 406 403 363
f 407 405 406
f 409 408 367
f 411 410 409
f 412 396 404
f 413 412 405
f 415 414 413
f 416 413 407
f 417 415 416
f 420 419 411
f 422 421 420
f 429 423 245
f 432 431 430
f 435 433 250
f 436 434 435
f 442 441 312
f 443 442 322
f 445 443 324
f 446 444 445
f 451 450 449
f 454 451 452
f 455 365 450
f 456 455 451
f 457 367 455
f 458 457 456
f 460 409 457
f 461 460 458
f 462 411 460
f 463 462 461
f 465 463 464
f 467 420 462
f 468 467 463
f 469 422 467
f 470 469 468
f 472 470 471
f 478 477 476
f 484 479 477
f 485 484 478
f 492 478 490
f 493 492 491
f 496 493 494
f 497 496 495
f 499 327 498
f 501 485 492
f 502 501 493
f 507 502 496
f 508 507 497
f 510 509 508
f 514 333 513
f 517 335 514
f 522 521 483
f 523 522 488
f 524 523 489
f 536 535 534
f 541 536 539
f 542 541 540
f 548 547 538
f 553 548 543
f 554 553 544
f 557 524 505
f 558 557 506
f 559 558 511
f 560 559 512
f 571 542 569
f 572 571 570
f 577 572 575
f 581 580 579
f 584 554 573
f 585 584 574
f 590 585 580
f 591 590 581
f 597 596 400
f 600 597 401
f 603 602 418
f 627 626 625
f 634 627 632
f 635 634 633
f 658 635 656
f 659 658 657
f 666 659 664
f 667 666 665
f 672 500 670
f 673 672 671
f 676 508 668
f 677 676 669
f 678 510 676
f 679 678 677
f 685 679 683
f 686 685 684
f 687 680 674
f 688 687 675
f 697 695 696
f 707 686 705
f 708 707 706
f 709 688 702
f 710 709 703
f 715 708 713
f 716 715 714
f 717 710 704
f 730 724 729
f 735 726 730
f 738 560 681
f 739 738 682
f 740 739 689
f 741 740 690
f 754 581 752
f 755 754 753
f 760 755 758
f 761 760 759
f 764 591 754
f 765 764 755
f 770 765 760
f 771 770 761
f 774 741 711
f 775 774 712
f 785 784 728
f 788 761 786
f 789 788 787
f 790 785 733
f 791 790 734
f 794 789 792
f 795 794 793
f 798 771 788
f 799 798 789
f 804 799 794
f 820 603 466
f 823 822 821
f 825 824 470
f 827 823 826
f 829 825 472
f 830 829 473
f 832 831 830
f 835 834 818
f 838 836 837
f 844 842 838
f 845 843 844
f 850 832 849
f 852 833 848
f 855 854 853
f 857 856 851
f 878 864 871
f 879 865 878
f 891 667 889
f 893 886 883
f 894 893 884
f 913 902 879
f 914 903 913
f 917 910 904
f 918 917 905
f 921 907 914
f 922 908 921
f 933 862 932
f 936 894 925
f 940 939 928
f 945 940 934
f 946 945 935
f 1 2 33
f 4 9 37
f 8 76 10
f 11 13 78
f 14 81 16
f 15 16 65
f 17 18 21
f 18 19 22
f 19 20 27
f 20 35 28
f 25 26 108
f 26 31 109
f 28 48 30
f 31 32 110
f 32 52 111
f 37 39 44
f 38 39 50
f 41 43 84
f 44 46 45
f 50 51 52
f 51 54 53
f 52 53 138
f 53 56 139
f 54 55 56
f 59 63 69
f 60 65 61
f 63 64 70
f 65 66 67
f 66 90 68
f 68 91 74
f 71 92 73
f 72 73 166
f 73 93 167
f 75 171 97
f 84 86 85
f 85 87 88
f 93 94 226
f 95 96 97
f 97 230 98
f 103 209 107
f 112 113 114
f 116 122 117
f 122 123 124
f 123 146 125
f 126 131 129
f 127 129 128
f 128 130 162
f 129 134 130
f 130 135 164
f 132 188 133
f 133 189 136
f 136 196 137
f 137 197 178
f 146 147 148
f 147 154 149
f 154 155 156
f 157 202 224
f 158 160 159
f 159 161 166
f 161 173 168
f 164 176 165
f 166 168 167
f 167 226 169
f 168 180 169
f 169 181 228
f 172 174 173
f 173 175 180
f 174 203 175
f 175 204 182
f 176 177 178
f 177 184 179
f 180 182 181
f 182 207 183
f 188 190 189
f 189 191 196
f 192 194 193
f 193 195 203
f 209 210 211
f 217 218 223
f 228 233 229
f 229 234 232
f 237 287 261
f 238 288 239
f 240 245 423
f 241 247 242
f 244 307 249
f 248 250 433
f 249 313 250
f 251 259 252
f 252 260 255
f 260 262 267
f 261 328 262
f 263 265 264
f 267 269 268
f 271 272 273
f 272 277 275
f 273 275 274
f 274 276 306
f 275 278 276
f 276 279 308
f 280 282 281
f 282 290 283
f 293 294 299
f 295 297 296
f 296 298 330
f 302 304 303
f 303 305 309
f 304 315 305
f 305 316 311
f 309 311 310
f 310 312 441
f 311 321 312
f 312 322 442
f 317 319 318
f 318 320 325
f 321 323 322
f 322 324 443
f 326 498 327
f 332 513 333
f 333 514 335
f 338 339 376
f 340 359 392
f 341 342 347
f 353 354 358
f 354 355 361
f 356 450 365
f 357 358 359
f 358 361 360
f 359 360 402
f 360 363 403
f 364 365 366
f 365 455 367
f 366 367 408
f 367 457 409
f 371 372 373
f 372 376 374
f 373 374 383
f 374 378 384
f 376 377 378
f 378 379 388
f 381 385 382
f 388 389 390
f 389 398 391
f 392 402 394
f 393 394 395
f 394 404 396
f 399 400 596
f 400 401 597
f 402 403 404
f 403 406 405
f 404 405 412
f 405 407 413
f 408 409 410
f 409 460 411
f 410 411 419
f 411 462 420
f 412 413 414
f 413 416 415
f 417 418 602
f 418 466 603
f 419 420 421
f 420 467 422
f 429 430 431
f 433 435 434
f 443 445 444
f 448 449 450
f 449 452 451
f 450 451 455
f 455 456 457
f 457 458 460
f 460 461 462
f 461 464 463
f 462 463 467
f 467 468 469
f 468 471 470
f 469 470 824
f 470 472 825
f 472 473 829
f 474 477 479
f 475 476 477
f 476 490 478
f 477 478 484
f 478 492 485
f 482 483 521
f 483 488 522
f 488 489 523
f 489 505 524
f 490 491 492
f 491 494 493
f 492 493 501
f 493 496 502
f 494 495 496
f 496 497 507
f 497 668 508
f 499 670 500
f 505 506 557
f 506 511 558
f 507 508 509
f 508 676 510
f 511 512 559
f 512 681 560
f 533 534 535
f 534 539 536
f 537 538 547
f 538 543 548
f 539 540 541
f 540 569 542
f 543 544 553
f 544 573 554
f 569 570 571
f 570 575 572
f 573 574 584
f 574 580 585
f 578 579 580
f 579 752 581
f 580 581 590
f 581 754 591
f 624 625 626
f 625 632 627
f 632 633 634
f 633 656 635
f 656 657 658
f 657 664 659
f 664 665 666
f 665 889 667
f 668 669 676
f 670 671 672
f 673 674 680
f 674 675 687
f 675 702 688
f 676 677 678
f 677 683 679
f 681 682 738
f 682 689 739
f 683 684 685
f 684 705 686
f 689 690 740
f 690 711 741
f 694 696 695
f 702 703 709
f 703 704 710
f 705 706 707
f 706 713 708
f 711 712 774
f 713 714 715
f 723 729 724
f 724 730 726
f 727 728 784
f 728 733 785
f 733 734 790
f 752 753 754
f 753 758 755
f 754 755 764
f 755 760 765
f 758 759 760
f 759 786 761
f 760 761 770
f 761 788 771
f 786 787 788
f 787 792 789
f 788 789 798
f 789 794 799
f 792 793 794
f 815 818 834
f 820 821 822
f 821 826 823
f 828 848 833
f 829 830 831
f 830 849 832
f 835 837 836
f 836 838 842
f 842 844 843
f 850 851 856
f 852 853 854
f 861 932 862
f 863 871 864
f 864 878 865
f 865 879 902
f 882 883 886
f 883 884 893
f 884 925 894
f 901 904 910
f 902 913 903
f 903 914 907
f 904 905 917
f 907 921 908
f 927 928 939
f 928 934 940
f 934 935 945
f 5 9 4
f 6 10 9
f 10 13 12
f 13 16 15
f 24 26 25
f 29 31 26
f 30 32 31
f 36 39 38
f 40 37 44
f 41 44 45
f 42 46 39
f 43 47 46
f 49 52 32
f 44 62 58
f 62 65 60
f 63 61 67
f 64 67 68
f 54 69 70
f 55 70 71
f 57 73 72
f 77 80 13
f 78 81 14
f 79 82 81
f 92 74 95
f 94 98 97
f 100 113 112
f 101 118 113
f 102 119 118
f 118 122 116
f 119 123 122
f 120 117 124
f 121 124 125
f 104 142 119
f 105 143 142
f 142 146 123
f 143 147 146
f 144 125 148
f 145 148 149
f 106 150 143
f 107 151 150
f 150 154 147
f 151 155 154
f 152 149 156
f 153 156 157
f 159 163 162
f 161 164 165
f 141 167 166
f 166 170 163
f 167 171 170
f 173 176 177
f 187 191 190
f 193 197 196
f 194 198 191
f 200 204 203
f 203 206 197
f 201 207 204
f 202 208 207
f 214 216 217
f 211 219 151
f 212 220 219
f 219 222 155
f 220 223 222
f 221 157 224
f 215 167 226
f 217 228 229
f 226 230 171
f 227 231 230
f 218 229 232
f 222 233 181
f 223 234 233
f 225 235 234
f 252 254 253
f 242 256 255
f 255 257 254
f 256 258 257
f 260 263 264
f 261 265 239
f 262 266 265
f 247 260 267
f 248 267 268
f 249 269 262
f 250 270 269
f 281 285 284
f 273 286 281
f 274 287 286
f 286 288 285
f 287 289 288
f 291 292 293
f 278 291 295
f 279 295 296
f 295 293 299
f 298 300 301
f 303 307 306
f 309 313 307
f 310 314 313
f 316 317 318
f 321 318 325
f 324 326 327
f 306 328 287
f 307 329 328
f 317 296 330
f 318 330 331
f 320 332 333
f 332 301 334
f 326 333 335
f 239 337 336
f 337 339 338
f 254 342 341
f 257 344 342
f 258 345 344
f 344 346 343
f 265 349 337
f 348 351 350
f 349 352 339
f 346 354 353
f 351 358 357
f 352 359 340
f 362 365 364
f 285 369 368
f 369 372 371
f 288 375 369
f 375 376 372
f 293 380 381
f 381 383 384
f 300 382 386
f 301 386 387
f 385 384 388
f 387 390 391
f 379 394 393
f 389 395 396
f 334 387 397
f 397 391 399
f 398 396 412
f 400 414 415
f 401 415 417
f 418 421 422
f 423 425 242
f 424 426 425
f 427 428 426
f 83 431 246
f 429 248 433
f 430 433 434
f 431 435 250
f 432 436 435
f 425 437 256
f 426 438 437
f 437 439 258
f 438 440 439
f 90 310 441
f 96 443 444
f 97 445 324
f 98 446 445
f 447 450 356
f 466 422 469
f 128 476 475
f 129 477 474
f 133 481 480
f 481 483 482
f 134 479 484
f 135 484 485
f 136 486 481
f 137 487 486
f 486 488 483
f 487 489 488
f 162 490 476
f 163 491 490
f 170 494 491
f 171 495 494
f 176 485 501
f 177 501 502
f 178 503 487
f 179 504 503
f 503 505 489
f 504 506 505
f 184 502 507
f 185 509 504
f 509 511 506
f 510 512 511
f 514 515 516
f 499 517 518
f 517 516 519
f 518 519 520
f 526 527 528
f 529 528 531
f 530 531 532
f 522 534 533
f 536 538 537
f 523 539 534
f 524 540 539
f 541 543 538
f 542 544 543
f 528 545 546
f 546 549 550
f 531 546 551
f 532 551 552
f 551 550 555
f 552 555 556
f 561 532 563
f 562 563 564
f 565 564 567
f 566 567 568
f 557 569 540
f 558 570 569
f 571 573 544
f 572 574 573
f 559 575 570
f 560 576 575
f 576 579 578
f 577 580 574
f 563 552 582
f 564 582 583
f 582 556 586
f 583 586 587
f 567 583 588
f 568 588 589
f 588 587 592
f 589 592 593
f 516 594 595
f 595 596 597
f 519 595 598
f 520 598 599
f 598 597 600
f 599 600 601
f 601 602 603
f 548 605 604
f 605 609 608
f 607 610 611
f 553 612 605
f 554 613 612
f 612 616 609
f 613 617 616
f 614 611 618
f 615 618 619
f 609 621 620
f 611 622 623
f 621 625 624
f 623 626 627
f 616 628 621
f 617 629 628
f 618 623 630
f 619 630 631
f 628 632 625
f 629 633 632
f 630 627 634
f 631 634 635
f 584 636 613
f 585 637 636
f 636 640 617
f 637 641 640
f 638 619 642
f 639 642 643
f 590 644 637
f 591 645 644
f 644 648 641
f 645 649 648
f 646 643 650
f 647 650 651
f 640 652 629
f 641 653 652
f 642 631 654
f 643 654 655
f 652 656 633
f 653 657 656
f 654 635 658
f 655 658 659
f 648 660 653
f 649 661 660
f 650 655 662
f 651 662 663
f 660 664 657
f 661 665 664
f 662 659 666
f 663 666 667
f 668 500 672
f 669 672 673
f 678 681 512
f 679 682 681
f 683 680 687
f 684 687 688
f 685 689 682
f 686 690 689
f 670 518 691
f 671 691 692
f 691 520 694
f 692 694 695
f 674 693 698
f 675 698 699
f 698 697 700
f 699 700 701
f 705 688 709
f 706 709 710
f 707 711 690
f 708 712 711
f 713 710 717
f 714 717 718
f 715 719 712
f 716 720 719
f 702 699 721
f 703 721 722
f 721 701 723
f 722 723 724
f 704 722 725
f 725 724 726
f 712 728 727
f 718 731 732
f 719 733 728
f 720 734 733
f 732 735 736
f 742 568 744
f 743 744 745
f 746 745 748
f 747 748 749
f 738 750 576
f 739 751 750
f 750 752 579
f 751 753 752
f 740 756 751
f 741 757 756
f 756 758 753
f 757 759 758
f 744 589 762
f 745 762 763
f 762 593 766
f 763 766 767
f 748 763 768
f 749 768 769
f 768 767 772
f 769 772 773
f 776 749 778
f 777 778 779
f 780 779 782
f 781 782 783
f 774 784 757
f 775 785 784
f 784 786 759
f 785 787 786
f 790 792 787
f 791 793 792
f 778 769 796
f 779 796 797
f 796 773 800
f 797 800 801
f 782 797 802
f 783 802 803
f 802 801 805
f 803 805 806
f 694 599 807
f 697 808 809
f 807 601 810
f 809 812 813
f 700 809 814
f 701 814 815
f 814 813 816
f 815 816 817
f 810 603 820
f 811 820 821
f 813 822 823
f 821 824 825
f 816 823 827
f 817 827 828
f 826 825 829
f 828 831 832
f 723 815 834
f 730 835 836
f 835 819 839
f 838 840 841
f 735 836 842
f 736 842 843
f 844 841 846
f 845 846 847
f 848 832 850
f 839 833 852
f 841 854 855
f 853 856 857
f 846 855 859
f 847 859 860
f 859 858 861
f 860 861 862
f 764 866 645
f 765 867 866
f 866 870 649
f 867 871 870
f 868 651 872
f 869 872 873
f 770 874 867
f 771 875 874
f 772 869 876
f 773 876 877
f 874 878 871
f 875 879 878
f 876 873 880
f 877 880 881
f 864 883 882
f 865 884 883
f 870 885 661
f 871 886 885
f 872 663 887
f 873 887 888
f 885 889 665
f 886 890 889
f 887 667 891
f 888 891 892
f 880 888 895
f 881 895 896
f 893 897 890
f 894 898 897
f 895 892 899
f 896 899 900
f 794 904 901
f 795 905 904
f 798 909 875
f 799 910 909
f 800 877 911
f 801 911 912
f 909 913 879
f 910 914 913
f 911 881 915
f 912 915 916
f 804 917 910
f 805 912 919
f 806 919 920
f 917 921 914
f 918 922 921
f 919 916 923
f 920 923 924
f 902 925 884
f 903 926 925
f 926 928 927
f 907 930 926
f 908 931 930
f 930 934 928
f 931 935 934
f 915 896 937
f 916 937 938
f 936 939 898
f 937 900 941
f 938 941 942
f 923 938 943
f 924 943 944
f 943 942 947
f 944 947 948
f 4 2 5
f 9 5 6
f 12 9 10
f 13 10 77
f 14 11 78
f 15 12 13
f 246 16 83
f 25 23 24
f 26 24 29
f 31 29 30
f 32 30 49
f 37 40 34
f 38 35 36
f 39 36 42
f 58 44 37
f 44 41 40
f 46 42 43
f 69 54 51
f 70 55 54
f 72 56 57
f 60 58 62
f 61 63 59
f 67 64 63
f 310 90 66
f 74 92 71
f 324 75 97
f 81 78 79
f 97 94 93
f 443 96 95
f 445 97 98
f 112 99 100
f 113 100 101
f 118 101 102
f 119 102 104
f 142 104 105
f 143 105 106
f 150 106 107
f 151 107 211
f 116 113 118
f 117 120 115
f 122 118 119
f 123 119 142
f 124 121 120
f 125 144 121
f 474 126 129
f 475 127 128
f 476 128 162
f 479 134 131
f 480 132 133
f 481 133 136
f 484 135 134
f 485 176 135
f 486 136 137
f 487 137 178
f 166 141 140
f 167 215 141
f 146 142 143
f 147 143 150
f 148 145 144
f 149 152 145
f 154 150 151
f 155 151 219
f 156 153 152
f 157 221 153
f 181 155 222
f 162 158 159
f 163 159 166
f 164 161 160
f 490 162 163
f 491 163 170
f 170 166 167
f 171 167 226
f 494 170 171
f 176 172 173
f 501 177 176
f 502 184 177
f 503 178 179
f 504 179 185
f 190 186 187
f 191 187 194
f 196 192 193
f 197 193 203
f 203 199 200
f 204 200 201
f 207 201 202
f 219 211 212
f 216 214 213
f 228 217 216
f 229 218 217
f 222 219 220
f 233 222 223
f 234 223 225
f 230 226 227
f 239 237 261
f 336 238 239
f 337 239 265
f 242 240 423
f 255 241 242
f 256 242 425
f 260 247 243
f 262 244 249
f 248 429 245
f 250 246 431
f 267 248 247
f 269 249 250
f 253 251 252
f 254 252 255
f 341 253 254
f 342 254 257
f 257 255 256
f 258 256 437
f 344 257 258
f 263 260 259
f 265 261 262
f 281 271 273
f 286 273 274
f 287 274 306
f 291 278 277
f 295 279 278
f 296 317 279
f 284 280 281
f 285 281 286
f 368 284 285
f 369 285 288
f 288 286 287
f 292 291 290
f 293 295 291
f 380 293 292
f 382 300 294
f 300 298 297
f 301 332 298
f 386 301 300
f 387 334 301
f 306 302 303
f 307 303 309
f 328 306 307
f 313 309 310
f 317 316 315
f 318 321 316
f 330 318 317
f 332 320 319
f 333 326 320
f 326 324 323
f 338 336 337
f 339 337 349
f 340 339 352
f 343 342 344
f 353 343 346
f 350 347 348
f 357 350 351
f 356 355 447
f 364 361 362
f 371 368 369
f 372 369 375
f 393 378 379
f 383 381 380
f 384 385 381
f 390 387 386
f 391 397 387
f 395 389 388
f 396 398 389
f 414 400 399
f 415 401 400
f 421 418 417
f 422 466 418
f 425 423 424
f 426 424 427
f 437 425 426
f 433 430 429
f 435 431 432
f 439 437 438
f 482 480 481
f 483 481 486
f 488 486 487
f 489 487 503
f 500 668 497
f 517 499 498
f 518 670 499
f 505 503 504
f 506 504 509
f 511 509 510
f 512 510 678
f 515 514 513
f 516 517 514
f 594 516 515
f 595 519 516
f 519 518 517
f 520 691 518
f 598 520 519
f 599 694 520
f 533 521 522
f 534 522 523
f 539 523 524
f 540 524 557
f 527 526 525
f 528 529 526
f 545 528 527
f 546 531 528
f 531 530 529
f 532 561 530
f 551 532 531
f 552 563 532
f 537 535 536
f 538 536 541
f 543 541 542
f 544 542 571
f 549 546 545
f 550 551 546
f 604 547 548
f 605 548 553
f 555 552 551
f 556 582 552
f 612 553 554
f 613 554 584
f 569 557 558
f 570 558 559
f 575 559 560
f 576 560 738
f 563 562 561
f 564 565 562
f 582 564 563
f 583 567 564
f 567 566 565
f 568 742 566
f 588 568 567
f 589 744 568
f 573 571 572
f 574 572 577
f 578 575 576
f 579 576 750
f 586 583 582
f 587 588 583
f 636 584 585
f 637 585 590
f 592 589 588
f 593 762 589
f 644 590 591
f 645 591 764
f 596 595 594
f 597 598 595
f 600 599 598
f 601 807 599
f 602 601 600
f 603 810 601
f 608 604 605
f 609 605 612
f 610 607 606
f 611 614 607
f 620 608 609
f 621 609 616
f 622 611 610
f 623 618 611
f 616 612 613
f 617 613 636
f 618 615 614
f 619 638 615
f 628 616 617
f 629 617 640
f 630 619 618
f 631 642 619
f 624 620 621
f 625 621 628
f 626 623 622
f 627 630 623
f 632 628 629
f 633 629 652
f 634 631 630
f 635 654 631
f 640 636 637
f 641 637 644
f 642 639 638
f 643 646 639
f 652 640 641
f 653 641 648
f 654 643 642
f 655 650 643
f 648 644 645
f 649 645 866
f 650 647 646
f 651 868 647
f 660 648 649
f 661 649 870
f 662 651 650
f 663 872 651
f 656 652 653
f 657 653 660
f 658 655 654
f 659 662 655
f 664 660 661
f 665 661 885
f 666 663 662
f 667 887 663
f 672 669 668
f 691 671 670
f 693 674 673
f 698 675 674
f 699 702 675
f 680 683 677
f 681 678 679
f 682 679 685
f 687 684 683
f 688 705 684
f 689 685 686
f 690 686 707
f 694 692 691
f 697 698 693
f 808 697 696
f 809 700 697
f 700 699 698
f 701 721 699
f 814 701 700
f 815 723 701
f 721 703 702
f 722 704 703
f 709 706 705
f 710 713 706
f 711 707 708
f 712 708 715
f 727 711 712
f 728 712 719
f 717 714 713
f 719 715 716
f 731 718 717
f 733 719 720
f 723 722 721
f 724 725 722
f 835 730 729
f 836 735 730
f 735 732 731
f 842 736 735
f 750 738 739
f 751 739 740
f 756 740 741
f 757 741 774
f 744 743 742
f 745 746 743
f 762 745 744
f 763 748 745
f 748 747 746
f 749 776 747
f 768 749 748
f 769 778 749
f 752 750 751
f 753 751 756
f 758 756 757
f 759 757 784
f 766 763 762
f 767 768 763
f 866 764 765
f 867 765 770
f 869 772 767
f 772 769 768
f 773 796 769
f 874 770 771
f 875 771 798
f 876 773 772
f 877 800 773
f 784 774 775
f 778 777 776
f 779 780 777
f 796 779 778
f 797 782 779
f 782 781 780
f 802 783 782
f 786 784 785
f 787 785 790
f 901 789 794
f 792 790 791
f 904 794 795
f 800 797 796
f 801 802 797
f 909 798 799
f 910 799 804
f 911 801 800
f 912 805 801
f 805 803 802
f 919 806 805
f 812 809 808
f 813 814 809
f 820 811 810
f 822 813 812
f 823 816 813
f 816 815 814
f 827 817 816
f 819 835 818
f 833 839 819
f 824 821 820
f 825 826 821
f 831 828 827
f 832 848 828
f 840 838 837
f 841 844 838
f 854 841 840
f 855 846 841
f 846 845 844
f 859 847 846
f 856 853 852
f 858 859 855
f 861 860 859
f 882 863 864
f 883 864 865
f 884 865 902
f 870 866 867
f 871 867 874
f 872 869 868
f 873 876 869
f 885 870 871
f 887 873 872
f 888 880 873
f 878 874 875
f 879 875 909
f 880 877 876
f 881 911 877
f 895 881 880
f 896 915 881
f 889 885 886
f 890 886 893
f 891 888 887
f 892 895 888
f 897 893 894
f 898 894 936
f 899 896 895
f 900 937 896
f 925 902 903
f 926 903 907
f 930 907 908
f 913 909 910
f 914 910 917
f 915 912 911
f 916 919 912
f 937 916 915
f 938 923 916
f 921 917 918
f 923 920 919
f 943 924 923
f 927 925 926
f 928 926 930
f 934 930 931
f 941 938 937
f 942 943 938
f 947 944 943
f 6 8 10
f 13 14 16
f 34 4 37
f 43 45 47
f 48 38 50
f 49 50 52
f 39 58 59
f 59 60 61
f 44 12 62
f 62 15 65
f 51 59 69
f 57 71 73
f 71 68 74
f 77 78 80
f 93 95 97
f 115 116 117
f 160 162 164
f 140 72 166
f 173 165 177
f 174 176 178
f 157 181 183
f 194 196 198
f 203 178 206
f 202 183 208
f 213 215 216
f 212 214 220
f 220 217 223
f 216 226 228
f 227 98 231
f 223 229 234
f 225 232 235
f 245 242 248
f 259 253 263
f 262 264 266
f 247 255 267
f 250 268 270
f 272 281 283
f 287 239 289
f 277 283 291
f 297 299 300
f 304 306 308
f 66 246 310
f 310 250 314
f 315 308 317
f 323 325 326
f 307 262 329
f 319 330 332
f 263 341 347
f 265 347 349
f 348 343 351
f 349 350 352
f 351 353 358
f 352 357 359
f 362 356 365
f 363 364 366
f 370 371 373
f 288 336 375
f 375 338 376
f 294 381 382
f 380 373 383
f 386 388 390
f 377 340 392
f 379 392 394
f 388 393 395
f 406 366 408
f 407 408 410
f 399 412 414
f 416 410 419
f 417 419 421
f 81 423 429
f 83 429 431
f 432 434 436
f 91 441 442
f 95 442 443
f 98 444 446
f 447 448 450
f 129 475 477
f 131 474 479
f 171 324 495
f 495 327 499
f 497 500 499
f 185 507 509
f 513 334 515
f 498 335 517
f 577 578 580
f 515 397 594
f 594 399 596
f 600 417 602
f 677 673 680
f 673 692 693
f 693 695 697
f 716 718 720
f 717 725 731
f 731 726 735
f 774 727 784
f 696 807 808
f 808 810 812
f 818 817 819
f 812 820 822
f 820 469 824
f 827 829 831
f 819 828 833
f 729 834 835
f 837 839 840
f 737 843 845
f 840 852 854
f 852 850 856
f 855 857 858
f 871 882 886
f 799 901 910
f 906 860 929
f 929 862 933
f 936 927 939
f 4 34 2
f 12 44 9
f 14 13 11
f 15 62 12
f 246 66 16
f 38 48 35
f 58 39 37
f 59 51 39
f 45 43 41
f 50 49 48
f 71 57 55
f 72 140 56
f 60 59 58
f 68 71 64
f 324 171 75
f 78 77 76
f 429 83 81
f 441 91 90
f 442 95 91
f 95 93 92
f 98 227 94
f 444 98 96
f 116 115 113
f 474 131 126
f 475 129 127
f 181 157 155
f 183 202 157
f 162 160 158
f 165 173 161
f 176 174 172
f 178 203 174
f 507 185 184
f 196 192 194
f 214 212 210
f 217 220 214
f 226 216 215
f 229 223 217
f 232 225 218
f 239 287 237
f 336 288 238
f 242 245 240
f 255 247 241
f 262 307 244
f 250 310 246
f 268 250 248
f 253 259 251
f 341 263 253
f 264 262 260
f 347 265 263
f 281 272 271
f 283 277 272
f 381 294 293
f 299 297 295
f 306 304 302
f 308 315 304
f 330 319 317
f 325 323 321
f 327 495 324
f 335 498 326
f 334 513 332
f 397 515 334
f 338 375 336
f 340 377 339
f 343 348 342
f 353 351 343
f 350 349 347
f 357 352 350
f 356 362 355
f 364 363 361
f 366 406 363
f 371 370 368
f 373 380 370
f 392 379 377
f 393 388 378
f 388 385 386
f 399 594 397
f 412 398 399
f 417 600 401
f 408 407 406
f 410 416 407
f 419 417 416
f 434 432 430
f 469 820 466
f 499 497 495
f 578 577 575
f 673 677 669
f 692 673 671
f 695 693 692
f 807 696 694
f 725 717 704
f 727 774 711
f 718 716 714
f 834 729 723
f 726 731 725
f 843 737 736
f 901 799 789
f 810 808 807
f 820 812 810
f 817 818 815
f 828 819 817
f 829 827 826
f 839 837 835
f 852 840 839
f 860 906 847
f 850 852 848
f 857 855 853
f 862 929 860
f 882 871 863
f 927 936 925
