# encaixante_palermo - exportado do GemPy
v 587771.2460521501 7001319.962998291 377.5789575225057
v 589127.1612547974 6997766.247695533 330.6548476038097
v 589207.8498191765 6997860.243279943 365.03298039297204
v 588429.2136788697 7001516.864760038 426.3702547196564
v 588739.5707572026 7000858.7205398455 479.6391347782007
v 589359.0399405138 6998052.840354004 422.26819660662494
v 589544.4872257941 6998331.92348244 479.4520635142965
v 589142.4554613522 7002444.037103727 448.4806577158553
v 589708.106802578 7002019.097343277 483.40944506220643
v 588934.7324624724 7000376.775837959 524.4005397011522
v 589835.4041629687 6998904.730687707 540.6761320037448
v 590205.140858737 6999563.625794242 569.5113361280979
v 589764.0575549633 7000685.529885205 546.7353535339
v 590205.2184876483 7000221.631819398 571.5718263315373
v 591283.0085614163 7002166.017653363 504.0599519270396
v 592063.1649136445 7002259.8661687225 507.76674462817425
v 591178.9140778857 6998842.207340964 553.7102720898438
v 591178.7191326981 6998842.488897201 567.7789570261036
v 591244.0251179821 7000860.662057122 549.2000437030597
v 590733.2542938984 7000221.666683106 571.124529626635
v 592136.672474648 6999711.668586649 555.8887133653595
v 592666.9800954977 6998923.30666523 596.5989176136716
v 592583.6552327737 7001540.821998089 556.102150938317
v 593105.4150114459 7000819.34584527 589.5934082816576
v 588189.7289934019 7006582.877721544 137.8483920583592
v 588246.1263028327 7006507.055369298 201.10770236512474
v 587754.263339692 7002580.59522584 385.1211387054282
v 588308.0625464498 7006438.538845828 266.29024282824986
v 588514.4532346679 7006510.887728686 328.78087058531287
v 589187.8156882683 7007200.268210914 385.73987679696546
v 588131.9153396009 7008383.360641197 247.90536596052226
v 588185.3019312554 7008668.0929578785 302.46362381223787
v 588376.1671983601 7010671.198816048 192.49585507963388
v 588328.8312715461 7010134.627340431 246.21087282603236
v 589414.2039445511 7011625.704170093 193.29121468765248
v 589521.9742584026 7011394.487308367 250.4688299724608
v 588829.1835168967 7008675.62953668 359.7946078956861
v 589065.9309045263 7008050.091006511 369.1883959656645
v 588781.6918396825 7009935.190526911 296.2872615295236
v 589105.8674728549 7009650.036132748 335.5612972364272
v 589200.1851930172 7008698.553410132 390.12037684111056
v 589534.6191094319 7010786.1102556875 314.9442944490398
v 589975.1513093761 7011100.955160051 372.7313189587952
v 590566.5115400299 7012051.534043295 391.28910330848225
v 588293.5494081066 7002703.175187652 427.01371949308856
v 588375.827689878 7003251.903134556 476.5563268204752
v 588382.3239276262 7006024.764677495 407.1872986743191
v 588375.7308167451 7005637.632619804 483.53388609030577
v 589817.6580827358 7003623.708431667 472.0494630645386
v 589783.6431071534 7003623.563774339 487.8456698226788
v 589930.3678312722 7006384.266217847 452.04881142642296
v 589963.3374287315 7006191.046900185 468.2555635565232
v 588375.7075644376 7004032.607518634 539.8115354364386
v 588317.6257394551 7004638.708272016 591.6345093546518
v 588375.909948243 7005232.74017241 541.3194290939771
v 588317.9001891122 7004972.4120308645 590.4227982817533
v 589225.6547921555 7004568.740677842 542.4606231638442
v 589106.9926538722 7004884.302068054 565.6384937460871
v 589226.0393550833 7005098.669839948 538.4522624403348
v 589106.9923447447 7004909.868512695 565.6348253333339
v 589715.8195320204 7008480.249947355 423.63451145975336
v 590274.13770929 7008608.108532974 459.8681950715642
v 590031.8604707211 7010763.421513037 424.542825712328
v 590219.9200418602 7010494.344744437 480.1507125206657
v 590404.7553381664 7009489.119778818 521.4273453407169
v 590404.8382729454 7010101.380473346 521.6273209202304
v 590658.9567615567 7004701.386740391 445.7881860330946
v 591201.8664890795 7003826.243275771 427.4398434944397
v 590658.4054268247 7005575.461569477 456.01139831136544
v 591173.3758214535 7006158.284118905 477.5106862911657
v 592106.6617125898 7003705.475275385 456.7630972766194
v 592082.5923788054 7005142.391346522 495.54573085301456
v 591718.2405761876 7006807.086933716 551.8472864654449
v 591945.656723731 7007198.927673961 568.467090160254
v 592817.580622401 7003487.314978274 482.7218924811254
v 593316.3654298375 7004434.695454676 560.1207913152957
v 592239.2065378035 7005616.9988897145 570.2845353047232
v 592812.7666067819 7006018.931132639 760.3453584012449
v 590719.7143868671 7007896.851619811 478.74445425235564
v 590643.1046537131 7011956.955821228 422.1686860695937
v 590803.7296702212 7011687.920553723 479.52350308499376
v 590952.0076498755 7008601.655144006 476.7605550054538
v 591656.3694390007 7008656.001386157 514.2525350180161
v 590953.7252467799 7010885.766677244 539.7203988240473
v 591617.3585602044 7010945.805189559 597.8124844052427
v 592368.2819170883 7007990.1366996225 592.8697343625428
v 593167.3463662573 7011991.564282705 553.6144752653477
v 592704.0952966211 7011701.936747556 594.216348545122
v 587794.4613817306 7004765.6347404905 639.3334037234164
v 587758.11922321 7004924.759117666 649.3191718260787
v 587648.8265378989 7004886.14117904 679.2015378988916
v 593462.9208962069 7004897.916041453 622.1163115883293
v 593383.2968051094 7006064.836062228 733.124319278664
v 591887.617170348 7009582.847706252 627.0068906777758
v 591886.708909519 7010201.574575787 631.4822399245751
v 592858.9593329043 7008801.768226208 638.3083543643243
v 593355.0340406912 7009613.981550237 682.681545068996
v 592814.5349321333 7010384.543338266 664.2995100192807
v 593355.1287351437 7009795.056500118 683.1022815232993
v 587517.4557083703 7019065.048094157 191.8203872436655
v 587420.6533416926 7018952.2026046 243.78618697475798
v 587324.1599007081 7018841.130204891 290.0715245269832
v 587229.7530216197 7018727.824370836 327.23167139281924
v 586361.6248853821 7014686.170904268 559.5602135490202
v 586862.5162584862 7015441.527283999 691.5898432318409
v 587140.6504295184 7018603.3192389365 351.16221447237086
v 587060.0582882952 7018450.96734254 359.61307130612323
v 586984.8836756169 7018251.5385063235 359.47217661592543
v 586787.5040923108 7017640.4974493645 419.3602692128713
v 589414.1797835053 7012270.425385572 193.3702596138209
v 589522.1520060782 7012349.138497902 250.30815897307463
v 589641.8978386967 7012441.38228822 307.18530514081226
v 589925.6639164618 7012473.898609099 368.17561023152336
v 588402.0855444494 7019092.154604036 179.941509288063
v 588377.5667845261 7018858.092058127 233.95776458207877
v 588399.8223272641 7019513.43434272 178.90346847051933
v 588375.0906194532 7019937.1910624085 239.63116372411588
v 589123.3449215008 7019212.407309123 220.1642889968844
v 589250.6170986069 7019130.331120983 251.86986461569228
v 589123.3541252116 7019244.996506962 220.12154158423039
v 589251.1104322114 7019390.429182175 249.8266074547339
v 588379.5306874441 7018590.297949634 290.43559020023207
v 588381.0043645337 7018322.351843728 349.6085650379127
v 588375.3996708264 7020351.373502148 304.55257380795354
v 588375.6143373814 7020700.111145438 364.9938579717153
v 589449.1627588798 7018977.666429572 312.97596036002693
v 589591.9757676224 7018825.899523725 372.532214147415
v 589451.0480409347 7019636.7473544665 304.97125392348636
v 589594.5158200623 7019842.468084423 361.7594342202235
v 591960.7476167212 7014396.728920231 267.4750986988643
v 591960.7723479895 7015070.357534591 267.53078533648016
v 593195.2302742114 7014403.093860535 193.36906373651726
v 592669.9540910507 7014301.328295802 248.60345798640202
v 592888.2698124171 7015401.128158434 186.5312534154815
v 592185.862270381 7015776.738223602 249.24349813698217
v 591871.9651147688 7014300.962924712 307.7439134223936
v 591233.5511411936 7013270.684275784 377.89299137661044
v 591884.2745344933 7015776.777563373 305.1317773112284
v 591668.8831874188 7015642.80567023 365.8528193675335
v 592736.8741652577 7014034.933141894 307.2338233474856
v 592736.8290328818 7013735.596456401 364.5280485003716
v 592035.4769161701 7016661.778986259 283.3380205409005
v 592000.3155302701 7018819.833268838 275.86246376140906
v 591964.3657933268 7020417.108099072 264.50420673711693
v 592797.8992574816 7018029.896695896 193.57587781147942
v 592263.8556698735 7018026.420284107 254.07099309272542
v 592625.7915025441 7020417.021443321 193.6465539130665
v 592216.6699090924 7020417.069642935 235.6451558561447
v 591947.0803745592 7018026.41884744 304.51664470519785
v 591777.821557627 7018029.899548639 365.11530685489305
v 591820.9458113954 7020417.102658667 308.3430585202964
v 591595.4823860645 7020417.082665618 365.3601985328912
v 592035.4188837426 7017228.408521597 283.18139204244824
v 589829.803938544 7012968.196955748 421.66452107122535
v 589829.293481672 7013666.089834624 479.61405663284
v 589102.5140378989 7014435.461221751 564.9515378988916
v 588521.3343256311 7014642.005475899 593.1754724571581
v 589694.9343688103 7014289.574504103 533.78565168739
v 589121.2808947151 7014443.906984167 565.4061067176332
v 589843.1207432114 7014591.625848351 554.3172665575233
v 589596.2062015632 7014947.830140767 586.6512290324657
v 588380.9940041061 7018053.691318637 412.39093326978605
v 588378.9138228981 7017784.148323913 478.39263735718384
v 588375.6602600169 7020997.785261872 423.54524718875336
v 588375.654947354 7021255.056148958 481.16595958498436
v 589701.0267295016 7018673.258466781 426.98500520901405
v 589787.7868836104 7018517.333686793 475.46877080992056
v 589702.4189394248 7020017.177903234 419.91441565875556
v 590116.0614846841 7020753.532250961 490.3974874313035
v 588375.6559803078 7017510.831412788 544.257640820605
v 588372.708724494 7017224.356038769 603.9041304427923
v 588373.5518864129 7021494.018193701 539.6884918974652
v 588856.7498668301 7021573.348722859 574.8166759375073
v 589975.3500730568 7018354.985851819 518.2190086640687
v 589829.7398540642 7017538.149449938 589.3086283540938
v 590024.0114442357 7020828.768017096 525.5033679202112
v 589319.1746661965 7021573.361065135 574.7732940329627
v 591112.2686602768 7013160.917932354 422.6641780111401
v 591106.3644117778 7013321.162507377 477.2053466532736
v 591451.6068712621 7015642.80449227 423.34617125557156
v 591195.683650438 7015642.790321125 481.01640145171785
v 592736.7314438105 7013370.127765125 421.89859207667354
v 592736.599991685 7012907.157355507 479.3061267260622
v 591240.3906115117 7013221.083549964 521.4983306959554
v 591904.8842607151 7012170.150293332 575.2467332514774
v 590894.8881064442 7015520.796729378 534.9629495310795
v 590813.6382522264 7016170.189892026 595.1479622702911
v 592704.1685245545 7012360.687940113 535.3168351498115
v 592198.1685811696 7012170.16549292 575.2560911277906
v 591564.0327236658 7018029.9907676205 422.71534288575384
v 591249.3422350002 7018030.274094461 481.49052473149345
v 591291.4103373929 7020417.012615864 422.19995201254443
v 590752.8739323678 7020776.530616381 488.595966430274
v 590895.5919755747 7018093.74801419 534.8625372850677
v 590813.4268014074 7017361.120401708 594.3038340685836
v 590571.7406210455 7020359.394913122 508.1842269876107
v 590416.8239800752 7023938.08728387 269.0452097793982
v 589891.1399868065 7023843.30701141 312.73377700356764
v 589829.3916132002 7023502.109075049 365.51679929561476
v 591541.217839619 7023088.788172462 194.2052359400301
v 591304.4290695322 7022795.43204431 248.43878015721623
v 590814.2717482283 7024221.671425409 193.69315625542015
v 590649.6162311427 7024075.501754665 230.95987861604937
v 592113.5187992041 7021895.046551028 193.66717312017096
v 592024.5000557731 7021651.777090621 224.4392523436979
v 591153.4057389601 7022619.1399425035 309.04681642462185
v 591033.6456185434 7022405.307862844 365.98890522886313
v 589829.3837800635 7023054.331325758 422.9913715069279
v 590070.4967651566 7022193.519461185 491.1395137984409
v 589812.5994060746 7021918.602117615 532.8944328331629
v 589319.1436146542 7021754.875867514 575.0756813047454
v 590879.4217660455 7022138.931622126 422.7562765025363
v 590649.219876251 7021760.480222015 485.0031141046354
v 590552.8966046424 7021605.418089904 507.8266062903137
v 587374.0519182651 7016155.8488459755 753.7292628843709
v 587370.3297331029 7016933.899598838 643.3909159440826
v 588379.8615832415 7015967.840286225 741.0909837797049
v 589829.2067019283 7016251.815457536 655.6199173957959
v 588373.4710669249 7016961.9149318915 646.7582910049387
v 589829.4274186277 7017033.988149783 641.9663674485154
v 590668.7646351816 7016549.33835564 635.4212936203147
v 590668.6598599555 7017032.461451739 634.7519029069857
v 599207.7655238805 7002426.619654166 275.5918582464797
v 597648.5570341719 7002134.863009035 380.8997697362246
v 598884.4088396701 7002104.407816485 308.15532662432884
v 598424.59424196 7001560.317378813 367.70836350782645
v 596163.882859706 6997484.07410247 495.00839928079824
v 594190.3777281044 6997073.408147383 598.9174732008413
v 595856.2061410785 6997132.784978639 533.3052589588237
v 595501.847111883 6996672.24945377 582.3630088688219
v 596163.8964988226 6997885.955975216 495.6399252828893
v 596260.951076595 7002240.922104606 502.5458864186669
v 594917.2640378989 6997726.247681205 564.9515378988916
v 594197.148510642 6998662.132210453 625.1746147615255
v 593507.5731608742 7002410.457364248 564.3676613914896
v 593980.1377516772 7001517.088099984 629.48765494221
v 595668.4780281509 6998121.750058939 542.0490136754108
v 595478.6656169744 6998740.464614634 600.3230477858136
v 596037.9564382195 7001825.130061907 552.4802503273197
v 595644.0294009433 7001246.16987833 628.6441341688101
v 597504.1839915924 6997552.935217253 437.20533866940934
v 597050.8018408928 6997224.149178025 473.7495393019278
v 598551.5553601101 6997335.076285381 424.81528038807096
v 598551.5010181895 6996537.936349797 478.1707950683062
v 597097.8103022756 6996372.431905477 534.9174248432467
v 597097.8044081167 6995744.186808142 593.2311260957507
v 598634.6709485187 6995788.680129611 542.3981556027053
v 598186.4012814087 6995539.244778189 596.1493577163586
v 597504.1939763303 6998111.6789416615 437.4464279615909
v 597117.0352562768 6998794.875841242 487.2624775163564
v 597409.3927042871 7001719.928536121 436.9217935903449
v 597089.4824875857 7001244.121069559 503.75365567444135
v 598511.3797999977 6998917.885505912 428.9061552588546
v 597999.5524102709 6999703.260712112 462.9422649016175
v 598510.9156463285 7000470.286161761 415.7260439704037
v 597999.3489454873 7000240.509004606 459.099890844136
v 596734.003915777 6999414.466342946 542.3801894632059
v 596497.1558851349 6999826.031101694 578.5418850479635
v 596733.9719887769 7000629.881293277 541.777705749046
v 596496.9610442863 7000274.914906911 575.8561706810922
v 596365.2045545756 7004890.232288142 221.3043371008015
v 596265.6330974306 7004726.68316001 248.11300992918757
v 596344.6597677139 7006093.932868419 156.3488583570254
v 596115.5588574279 7006094.948443233 184.59353830602527
v 594906.6944356115 7007124.951909202 388.35829893685946
v 596062.7072095197 7004427.2273226045 299.20595257089485
v 595837.6741818875 7004160.493911745 341.0492456624318
v 595681.7712164125 7006097.333572687 240.93301369310814
v 595161.8480053546 7006238.189530169 320.4976925442697
v 596348.4419330802 7007344.631643993 219.0850102792582
v 596226.7789507229 7007590.412044958 252.29378835373166
v 594906.9444139461 7007355.681066763 391.34345469221347
v 595997.5150315812 7007965.045835978 315.803017211368
v 595592.7063914331 7008092.1905234875 376.93633088986337
v 597125.0416824755 7004545.026462225 188.94220676083978
v 597097.6453036272 7003977.128732877 242.81689521329946
v 596767.2245018164 7006093.598687171 129.40775621629155
v 598551.7279585985 7003808.320545872 185.84427922915393
v 598654.6940737725 7002997.120610788 250.08577495783157
v 597097.9845352144 7003392.113274179 306.64473495455456
v 597137.5206016172 7002886.177945206 359.9505250152991
v 598157.4458838546 7002669.963887657 304.7174219670123
v 597854.3446108558 7002526.1064433325 337.78548405525726
v 597099.8861878775 7007850.108348877 195.1243640592134
v 597097.4644279528 7008593.638478847 248.78391173934045
v 598551.3446304118 7008855.730419629 185.699371212502
v 598451.7408905271 7009498.316431768 239.17829584035218
v 598869.9796290911 7010018.97985722 260.40522648675574
v 597140.5868875929 7009246.914443326 297.7601876064691
v 596695.2382653175 7009436.907312274 362.8221727189041
v 597655.2267967105 7010115.63832658 321.6781478565414
v 597422.5233674364 7010567.401170628 365.07593350095146
v 597900.821631083 7009648.018239577 282.0992834942295
v 598451.9428488065 7010526.599909206 300.41516840625866
v 598524.617609887 7011724.667172296 363.8948160943513
v 594830.5835653305 7004681.72845569 427.8990514294565
v 594689.5554759451 7004376.716614602 439.3168846788381
v 594787.8607565365 7006238.442720624 402.8362627123779
v 594437.8977184846 7006091.896459112 493.34975788604265
v 595524.8243738615 7003987.643550928 389.25774431580885
v 595722.820932441 7003094.260161517 488.0348271106381
v 594967.837227237 7005533.111966653 387.5049882895004
v 594058.9349027094 7003419.498081263 480.68336970100995
v 593876.4346904353 7003794.633375657 451.10204310090444
v 594078.7309932559 7006081.970014146 596.17383235892
v 593661.7453712969 7005834.676074506 694.6674033118121
v 595310.2240381317 7002839.359546365 548.3062159161179
v 595066.7317837626 7002626.335296818 579.4921476602156
v 594824.3482736489 7007729.167702331 436.3992297387126
v 594660.1118807853 7008247.156359267 484.070624820586
v 595715.3836828258 7009022.7789412895 429.6031325148551
v 595233.6829522632 7009438.540253421 474.6140212846566
v 596246.6868624759 7010128.278694462 445.06212176937515
v 595933.2906384256 7010901.64778185 479.3102212455177
v 594486.5609305679 7008698.828516816 504.15667788761175
v 593983.7037331966 7008483.125385488 564.7022042169519
v 594251.509200042 7011063.338629973 531.5525026409932
v 593857.2302173325 7010619.309840926 585.1747897702501
v 594980.8018283915 7009636.128619687 511.7384529818537
v 595189.6237289857 7010867.787486117 510.8681399908405
v 596681.2271584802 7002730.865262799 422.05014620560905
v 596476.5126854781 7002582.940250216 460.1168881404555
v 596488.705781031 7009595.905154591 404.8514955458497
v 597009.8548726878 7011071.9673201 419.12387996263067
v 596561.5632099984 7011719.772719236 461.77422975408666
v 598022.2186196169 7012015.598183827 397.1697668906226
v 600005.5115899085 7002415.295350333 267.0180013707711
v 600756.5092740472 7002470.093594163 277.8358194505461
v 600406.8395455491 6999775.568393772 386.9304412511752
v 600005.3344289005 7001668.774619746 302.1967297911398
v 599955.4711604667 7000509.584810112 363.79294930428557
v 601006.2258990272 6999775.541995031 386.67752233121246
v 600994.8042620376 7002078.214121489 303.0725460960892
v 601517.3380147992 7001195.076667098 353.22761487137313
v 602265.003011603 7002005.673173888 383.68643276779926
v 600005.2539004814 6997230.834835157 430.43371049051655
v 600076.2631504391 6995989.946115738 485.3669340711865
v 600964.0550646402 6997413.814728273 442.89815495620945
v 601446.4268368589 6996468.005870632 482.8211091290059
v 599639.1551435413 6995501.136842655 520.3242261930664
v 601928.9054675387 6995522.005676177 511.49932695891846
v 599955.7198548315 6998961.218534914 406.4105289041948
v 599437.6546295973 7000169.467299376 396.50985057010274
v 601469.8154170145 6998880.581324357 419.3222279415314
v 601933.1956680374 6997985.723980629 458.13620216343907
v 601975.4548740021 7000414.253811357 397.4520250732749
v 602366.7235768354 6997113.465388206 497.23679542793207
v 602991.330803385 6996780.995270923 540.1775760326949
v 603459.5207001907 6996531.748225051 575.5709332435986
v 603687.4373737272 6995140.527482769 617.5820677007654
v 603642.3037104941 6997720.661788878 564.677072803582
v 603792.2582379894 6996773.260272241 596.3320388867787
v 602362.0001870733 6999577.137439746 436.5607100291365
v 602647.4567017569 6998841.910672655 474.8280646419189
v 602494.5292134066 7001253.846626112 413.39514396761405
v 603140.9462863575 7001319.8955107955 474.27292536663356
v 603416.4782050456 6998694.092599371 531.8281661278315
v 603652.6561287562 6997739.326537899 564.9515378988916
v 603541.6919053212 7001319.935301108 514.1270668869747
v 603731.5089118935 6998932.830965494 553.3926047964837
v 604102.1095236291 6998932.820193956 591.0709053810743
v 603807.6775557689 7001319.950264453 543.1105685781447
v 604220.3820239144 7001319.9710303405 591.0242634750043
v 600073.4997437762 7004174.867821259 175.59357810613005
v 600005.8162568113 7003020.424536213 235.21289339696057
v 600597.7430909765 7006094.099678763 158.99377623581756
v 600855.4752595032 7004567.805941175 209.05220633336705
v 601007.980647659 7003745.842624062 247.6472071565076
v 600958.163679367 7006094.130338796 189.23971258142882
v 601467.8434784723 7006094.163717841 240.96125104803605
v 601709.885680264 7003945.479632023 304.5174229829397
v 602065.2245105112 7003707.142257889 344.7101654468136
v 602041.231452952 7005707.628148373 306.03662862458
v 602184.1102388424 7004923.226707289 336.63406011374815
v 600121.1891678328 7008292.400872466 172.974646540771
v 600005.6026017513 7009395.5233425535 227.60095009183902
v 600005.443601796 7010007.984915276 258.6067172357894
v 600908.925219059 7007751.470652222 202.64677076361681
v 601096.9165352788 7008521.035291553 242.71248109783437
v 600793.0002471658 7009774.744667803 274.9349915900445
v 600005.3842002408 7010831.64862982 303.3458953341087
v 600004.8670643687 7011730.702141089 364.5985087694446
v 601765.1484455052 7008431.11198477 298.8739055746341
v 602022.5713521151 7009192.968515185 347.0058725533731
v 601018.8130922996 7010097.748812002 305.876046685603
v 601506.7690815724 7010497.466316179 360.4555511859252
v 602183.3242345459 7004900.701537601 336.72792928464844
v 602326.1901338311 7003945.912943458 368.2818217398617
v 602220.3975654967 7005869.019932767 325.80035475197025
v 602400.769341328 7005707.641059598 349.23794648276066
v 602243.7559887831 7007601.494072404 328.6916921076691
v 602388.530828609 7008430.968705902 360.24850426346336
v 602249.5275507156 7009845.243067662 386.91759250515753
v 600489.0004089794 7012002.645655683 398.0518933914352
v 601465.2878819428 7011520.775057937 414.6730733301371
v 601953.486401589 7011844.423399577 463.03259401625075
v 602785.8414647636 7003707.1893310025 424.3433049261937
v 603262.8858303191 7003707.197993039 482.4340651680428
v 602967.1095980442 7006094.219134877 417.6949631846381
v 603436.6107112786 7006186.952508385 480.1389714976659
v 603659.5086120904 7007044.512976222 504.9844114817571
v 603566.4211616747 7003707.197839012 520.5772899779364
v 603600.8870661214 7005453.082041379 512.4947646875191
v 603799.3877329497 7003707.193051472 549.0656840478201
v 604186.9807780314 7003707.1799768 596.6614308571786
v 603817.2098130711 7006186.969353093 531.700647576633
v 604267.5091592773 7006094.251396315 591.7145319424546
v 602852.2816818929 7008481.474084925 415.0903134773083
v 603385.2073390203 7008381.584127884 477.74270873727687
v 602418.1320748089 7010236.2622364545 420.26388732455393
v 602630.3449069785 7010976.837508672 475.3726180927612
v 603659.5182420494 7007519.222451852 504.9275145249101
v 603574.996119479 7009110.671838813 513.4827100788764
v 603245.8267253748 7010866.557581136 530.1342665637854
v 603457.5848687768 7011660.691048922 579.5930780298157
v 603810.8399467784 7008381.553800338 530.7661547261624
v 604257.3346173274 7008481.411733066 589.329684914142
v 603738.1860649762 7010069.267441578 552.5557331833504
v 603873.4848498683 7010866.471124387 593.7290722955345
v 594136.0298415056 6995804.453216459 655.3492893705726
v 594584.2813577978 6995402.491595194 684.0379701599002
v 595550.8468807227 6995602.316501889 645.989396616141
v 595004.1370765154 6995402.369859198 683.5511032523045
v 594538.5260290523 6999678.9652117165 664.6798872911464
v 594879.1654697765 7000071.311289431 680.8331698919624
v 594538.8883345146 7000513.348508411 656.7271136065418
v 594879.1694770058 7000149.53101559 680.6822758031767
v 595183.5658496364 6999678.289609048 658.2915021278458
v 594939.1530780626 7000071.306079452 680.757887269961
v 595183.3875624015 7000513.178691201 654.9550569493898
v 594939.1531075544 7000149.531386122 680.6607381807752
v 597097.8044316972 6995413.536721304 629.4909594514436
v 597926.2017341388 6995402.994907804 629.704673975596
v 593463.8894275585 7004897.915725034 622.1165596765683
v 593496.205116179 7006066.964193265 729.3238080500482
v 593597.4441341916 7008684.4352195375 617.0926611917758
v 593488.1536650159 7009613.95366599 682.2909574444743
v 593616.5388393768 7010166.2931913845 648.5359010096475
v 593488.0999605074 7009794.909814541 681.7307391207323
v 603841.1572767277 6994270.301646953 653.770145755035
v 604377.4715003622 6994158.582432609 706.8177095224484
v 604320.947373803 6996545.722665549 649.6642357532082
v 604894.3457928529 6996360.390369413 705.9444627432325
v 604899.8997902084 6994001.242867785 759.301562128832
v 605044.2289898895 6993100.697535603 797.8414231386706
v 605074.0445805255 6995441.171962307 738.020986031227
v 604652.4306837867 6998932.833111113 648.3788698820553
v 605008.7328968728 6998932.84160138 686.1026598474565
v 604699.466055917 7001319.985420415 648.7680793694126
v 605013.526356268 7001319.990673698 687.9930752706708
v 604629.5270750532 7003707.168760988 653.426950843588
v 604968.8638285027 7003707.162157162 698.8634080840984
v 604685.1888992509 7006094.255664684 649.4025566456262
v 604990.92715239 7006094.258732687 693.1873805842714
v 604688.6899394409 7008481.404964166 647.1389182463652
v 604996.6164127882 7008481.402479277 689.5872086005181
v 604328.1303052484 7010868.603669746 647.0948112580774
v 604842.1024009478 7010896.902957821 705.9690595275498
v 605016.430139392 7011711.446807639 744.1500889519873
v 593525.6083372051 7014403.163619708 193.61117581580288
v 593649.7360238453 7014303.962713991 250.6213500965112
v 593859.5223063508 7015401.26009808 186.98259436833166
v 594177.352753818 7015642.697966272 250.20202594453315
v 593780.1281624758 7014183.316080107 307.48652697051466
v 593918.274518579 7014032.527336782 364.24891531873396
v 594401.8025480054 7015642.732315798 307.55583768064423
v 594676.1586896804 7015827.108082644 366.22323274392517
v 594935.4965261392 7016745.727925486 386.2759684302552
v 594039.042333066 7018029.948644511 193.74819428208764
v 594246.971433273 7018029.969010565 250.8472611669249
v 594333.2821311798 7019643.4185375925 193.71373895652914
v 594446.3192028882 7019578.629061024 250.82125796649933
v 595495.6856291717 7020836.839693025 193.48689098184383
v 595542.2841718242 7020772.0319904545 250.5845398712986
v 594442.9187547748 7018029.986315999 307.94182380532476
v 594673.0679192973 7017879.994351436 366.45988547727967
v 594548.0455467781 7019514.117140406 307.92742001440814
v 594641.0248239706 7019449.57308822 365.037199759033
v 594935.5087293414 7016984.153116662 386.24623503312904
v 595588.8830460171 7020707.502803148 307.6828490320966
v 595776.6998435276 7020824.410605249 366.7731263808946
v 598991.3629096076 7012156.319436331 387.9407650604558
v 596377.5381220656 7021590.5910896985 387.4499611211933
v 594066.0442116526 7013837.418077861 421.0368877951584
v 594316.8768293597 7013622.079758902 475.5789606632757
v 594792.55425131 7015176.851311411 422.1758724462851
v 594885.1641276709 7014714.283500264 456.3482764739207
v 595598.3063527332 7013265.614871811 497.93078537781264
v 594982.1741676441 7016370.408325687 422.2300198125205
v 595088.2344591756 7015563.1006046925 476.98877044986034
v 594190.6187792157 7012582.975038654 523.316041152423
v 595611.0675095626 7013346.124560865 528.0102617671103
v 596188.2219379151 7014287.436348051 593.9156171621233
v 595409.7018918438 7015642.762580955 536.2898154950743
v 595787.3784955433 7015642.750950322 593.6668268132826
v 594727.2206193502 7018470.928596257 422.35074413201215
v 594808.2545455428 7018846.27346428 479.36603462521674
v 594727.2438716415 7019384.6462084595 422.1510640833281
v 594808.2564252072 7019318.943319452 479.26883254048624
v 594982.2391499078 7017277.304099392 422.041977010392
v 595060.9143030337 7017652.68922789 479.1831388551434
v 595644.1016136311 7020498.965021189 421.8848688333591
v 595644.1293592596 7020331.130037392 478.98776521890295
v 594885.2841469272 7019112.9316085335 535.3064640842944
v 594928.602602444 7019223.4515379 564.9515378988916
v 594891.6789055172 7019246.311018698 541.2222866088647
v 594922.9333203863 7019218.204700442 564.9515443229844
v 595104.2042932555 7018180.312125489 541.3037289875543
v 595300.5277476826 7018030.041644105 593.68957663312
v 595404.2920292745 7019843.397270567 544.7896748718858
v 595544.6131657357 7019846.019595106 587.4541169610089
v 597530.7521674684 7012340.001089298 434.6005997055099
v 597066.7737902706 7012677.976300995 477.60042679807054
v 598524.695696386 7012512.302691252 416.7392190728861
v 598551.5025034287 7013381.983543646 478.26400087210754
v 597097.7972453128 7013580.932324044 535.3757568978169
v 597017.6365184956 7014254.693729169 597.6294606062738
v 597448.7862474765 7014504.5243572565 619.2091570162057
v 598551.4903520592 7013964.200203907 535.9811205019129
v 598551.4851929762 7014329.868579143 582.1366073949341
v 598551.481660911 7014648.131289277 610.9284119335507
v 596396.5196059849 7021531.5309071615 422.14281103688074
v 596428.4428211084 7021429.389409437 479.2774083947306
v 596461.5773445206 7021318.657696524 536.4207980097342
v 596496.1855774646 7021198.046902577 593.5694114728954
v 596222.5515544334 7021797.336377238 193.6468276240298
v 596269.1539215366 7021740.409205746 250.76827637152712
v 596315.7547179933 7021681.818767791 307.89072481134
v 596349.7072671719 7021638.245893795 349.3667539013452
v 595789.2367191523 7030872.648499623 193.5730738564526
v 595729.7915470629 7030853.2907062955 250.68568123456475
v 594916.3302938483 7031157.857821506 335.43506843726294
v 594903.1368204455 7031141.015295158 365.01346098582366
v 595419.380125427 7030942.549717656 316.7756988531537
v 595497.409117625 7030872.185572223 359.18646461425266
v 597097.8402826422 7022850.284876676 193.56038588366482
v 597097.8261697496 7022753.62492963 250.71109591244704
v 597921.4462803344 7023857.139764217 193.63181194554397
v 597949.022874087 7023817.386017196 250.75043566203254
v 598569.6383209802 7025191.3987262035 193.7737961953456
v 598633.1160620891 7025191.402704624 250.91577617229603
v 597097.808751175 7022654.85378383 307.8688985881314
v 596956.3708921695 7022372.9736292595 367.0737279627607
v 597977.0187995848 7023777.181955319 307.86600770107214
v 598005.5533238219 7023736.360944485 364.97776162818946
v 598808.9357029106 7025423.467655739 309.51758021917
v 598732.2648864202 7025151.400039153 365.18871154467746
v 597042.376137945 7030872.646216659 193.55922587890876
v 597227.9069758834 7030914.89589116 256.3779832452274
v 599199.7738991082 7026479.047189262 193.64032276236082
v 599235.6865104524 7026436.050840673 250.76460879180348
v 597823.1160356648 7031160.26191513 279.32653794226826
v 597339.5678378305 7030937.367814418 298.81656024942276
v 597097.894443845 7030790.759357279 364.9352064023643
v 599262.196357033 7026404.229186989 291.2259425597546
v 597833.5882999158 7031152.101275451 302.84551935840665
v 597860.3434845677 7031131.242529512 365.0140067396111
v 594878.0717310652 7031109.730883574 422.1378241220698
v 594853.7635715284 7031080.735893082 479.2617383475714
v 595644.0689583991 7030753.69771834 422.0525177562127
v 595644.0705850766 7030710.272232273 479.18423415773117
v 594830.1678554027 7031053.883918718 536.3854232358477
v 594807.2214889609 7031029.02590233 593.5090864210945
v 595644.0716990328 7030670.0135676665 536.3151977837645
v 595644.0723085707 7030632.700604647 593.4454167855732
v 597123.3458060891 7022501.199877558 422.1900508233876
v 597155.2641536278 7022458.52125108 479.3440780370256
v 598034.7659679968 7023694.718914195 422.0849407119396
v 598064.8184581217 7023652.0101336315 479.186940172855
v 598761.4687222916 7025103.301704144 422.3155417260113
v 598791.5113084469 7025052.069011942 479.4402749133215
v 597188.4000476061 7022414.493579251 536.4972228917991
v 597223.0138057441 7022368.776720185 593.6468834126978
v 598095.8963082231 7023607.943257924 536.2835420775027
v 598128.2094240393 7023562.178602168 593.3751475829711
v 598822.5782449264 7024997.317892986 536.5625966063083
v 598854.8796340784 7024938.5762019195 593.6823118942865
v 597097.8976569586 7030757.426251477 422.0632035307188
v 597097.9005344275 7030726.365037449 479.19148427921175
v 597883.1774684243 7031113.441492918 422.1390833721913
v 597904.5503029609 7031096.812010932 479.26416045605663
v 597097.9030263381 7030697.368449069 536.3199690623065
v 597097.9051484999 7030670.253346789 593.4485903355442
v 597924.6589183084 7031081.223640506 536.3892205729588
v 597943.6675880853 7031066.565247408 593.5142495780065
v 599519.855212541 7012156.301760647 388.16474668666183
v 600004.7943602519 7012498.778560601 417.60667387833325
v 600005.2293243638 7013366.436587981 477.8902336857511
v 600984.3307285217 7012317.477254371 436.12445314867057
v 601465.0194114163 7012610.645753447 478.9453742726429
v 600005.2079046841 7013991.493276109 535.3940901652322
v 600005.1923520524 7014355.845099076 575.8078154934269
v 600005.1768640265 7014781.93267254 604.7307345785085
v 601459.0000598532 7013464.2876435835 534.1778095962958
v 601524.4050466289 7014194.283582313 591.4196521506034
v 601083.4127888588 7014682.90110382 611.0837842217366
v 602259.8685874369 7012201.163786563 501.6408438617941
v 602468.3974957777 7012533.177955553 535.6124931802875
v 602949.0621832289 7012875.026437399 593.7982954438032
v 603676.4879132301 7012176.378894386 618.3202778365533
v 599293.5368321592 7026373.696910144 329.309223481289
v 599333.1639053485 7026344.829210402 365.01491475577774
v 602132.9968670575 7026353.007059785 381.41604713011685
v 600005.1756912174 7027022.812109207 193.73587943849316
v 600005.1773071673 7026941.755373784 250.8710946627707
v 601458.8634444209 7027247.770976983 193.69596861672045
v 601458.8661382676 7027106.265412585 250.83579617732852
v 602151.2922541513 7031119.442554336 193.63922301529794
v 602176.4022053883 7031148.864057839 256.3773841089693
v 599868.9389160626 7026769.064121358 309.45572796971084
v 600060.021343466 7026808.294685451 365.12873309059006
v 601458.869901962 7026953.877374982 307.980088984617
v 601572.6265227961 7026741.547980792 363.5644170731769
v 602185.8418973227 7031159.220032552 279.1658871364372
v 602255.0528544053 7026353.006786149 381.41429388912024
v 602912.5235833587 7027344.88405407 193.50687224798025
v 602912.5188316966 7027158.8950571 250.62207024669766
v 602912.5764608353 7030783.910518279 193.73805425704478
v 602670.4813982013 7030965.8391160965 260.3273535906861
v 604229.417645949 7028219.236752536 193.56159377821263
v 604469.2464282732 7028266.983041568 256.3540438191413
v 604229.5103311061 7029630.055360919 193.0269683063006
v 604313.3765438761 7029688.62327276 250.08124177603503
v 602912.514806407 7026959.290032938 307.73922174300867
v 602808.7566924767 7026705.693513443 363.26497167685733
v 602693.2671477476 7031010.334122182 298.4022091463601
v 603023.3794069043 7030985.920379702 365.0801753277032
v 604605.1448655417 7028271.774536752 299.3344868628003
v 604366.2509039401 7027855.54335043 364.9131714887081
v 604507.6644879496 7029664.62824512 302.70439295211924
v 604366.293345227 7030220.620193029 364.58639032736295
v 599399.5599953388 7026296.743036423 422.1423962597842
v 599471.021027578 7026245.525312274 479.27330371915207
v 602049.8471725405 7026297.993617126 422.12921787259114
v 601941.2865044093 7026217.434386072 479.2458336731559
v 599548.3735591077 7026190.793803298 536.4103515657939
v 599632.683886255 7026132.078503325 593.5577245152965
v 601841.6980923689 7026131.859760408 536.362914063239
v 601749.109500599 7026040.591110361 593.4725473690495
v 600126.4230860668 7026763.594009578 422.2452387060164
v 600197.8906298623 7026716.092154129 479.35794946533406
v 601323.04065164 7026763.572218618 422.26876697603143
v 601214.492244181 7026716.077243742 479.38485776185337
v 600275.2495008173 7026665.411837007 536.4665199608703
v 600359.5633003522 7026611.116302374 593.5715963827174
v 601114.904762659 7026665.402328614 536.4844179290167
v 601022.3088305633 7026611.111234627 593.579323672762
v 602378.9878649352 7026297.99127999 422.10640059851306
v 602568.75183798 7026217.425016697 479.1711209917362
v 602954.5837559554 7026184.746577359 541.8553054253055
v 603149.7920998051 7026126.227762469 584.2339701648975
v 603633.7626215803 7026390.671244506 564.9515369261562
v 603672.6603637903 7026349.988084779 588.4989641883905
v 603105.8356654706 7026665.422126248 422.06909774907746
v 603295.6149053455 7026561.038373878 479.23954292777404
v 603119.9910451163 7031032.604224198 422.1878571900534
v 603245.1271941894 7031076.545205734 479.2946373107641
v 604366.2508598531 7027679.335544667 422.0340817142992
v 604366.2549440172 7027491.921617996 479.14308583553316
v 604366.2446090281 7030520.529055601 421.8892191498977
v 604366.2214312813 7030778.6156061925 479.1197333503112
v 603510.2659358291 7026449.654229835 536.3791761890058
v 603629.4019733117 7026389.691092061 566.1163760372697
v 603412.4221188022 7031118.20321966 536.4023796203757
v 603552.2952318026 7031145.370290477 574.8675854643598
v 604218.6509766427 7027110.486142543 541.9181794215024
v 604151.7232543188 7026885.4112510495 584.360532318135
v 604366.219721917 7031003.654987939 536.2934456259537
v 604366.2230398579 7031133.996039463 575.0359030144282
v 596355.5016051383 7014439.808815346 623.2598354714394
v 596127.4452864666 7015667.506373013 645.8532063529416
v 596201.692867904 7016486.5725006545 707.7073735550963
v 596302.162568885 7016726.585183959 749.3534883430877
v 595515.1838776588 7018030.029398881 650.9233814545804
v 595759.562536604 7018030.001207383 708.1607772421014
v 595808.0125637043 7019872.288062252 650.4017390317183
v 595928.8833508823 7019726.799859003 707.6115721002845
v 596086.4085493451 7017931.798345319 767.4835465468151
v 596225.6778248964 7018729.198152302 822.1641411918638
v 596066.9254413925 7019565.432338632 764.824499437385
v 596225.6921315568 7019385.096741114 822.0061223673715
v 596479.6665436807 7014439.810338362 623.2731561706669
v 597017.6075401406 7014947.033637766 646.3016893671859
v 597097.7561221994 7015943.173906924 708.1463417871414
v 598551.4815052537 7015246.172962673 651.0656913637556
v 598551.4831455121 7015931.155228363 708.0917933157982
v 596998.6327344024 7016540.742648863 767.2455561359927
v 597493.3058277551 7016742.522020301 822.1867589899311
v 598551.4893803218 7016432.208865951 765.1947295987757
v 598420.0686177465 7016756.9629374305 817.2027642036126
v 596532.5809561125 7021065.969780943 650.7062876597274
v 596571.1238450248 7020920.450342598 707.8085196687151
v 596447.9971336053 7017070.546420145 787.4609230672487
v 596766.4510847363 7017535.589518869 822.3995046097614
v 596612.1970558123 7020759.03158532 764.8850243374128
v 596656.20831287 7020578.674604651 821.9997962337754
v 598817.025230602 7017462.176914775 832.9559821048437
v 596330.8149255253 7019125.896101015 856.659888422896
v 596330.8165664613 7019267.650899763 856.6515815534732
v 597790.385233452 7016829.985809334 851.7920206123954
v 597847.8857062971 7016829.985900672 851.790684732521
v 597118.6612888528 7018144.601487369 874.0877785784002
v 597316.5733996229 7018701.465928781 936.5549086198463
v 596682.7124657531 7020204.878074135 877.1267396803476
v 596973.808005517 7020417.1004802985 936.4514262444802
v 598505.6315191664 7018108.414809441 875.1534966696867
v 598245.8874228229 7018701.462468683 936.4029352045737
v 599163.2985036611 7019336.556527956 897.2444672672423
v 598972.7181478397 7019528.50191636 936.2600702428003
v 597561.4235299 7019014.4661208335 993.521798226755
v 597742.5900942037 7019172.045991233 1028.6643882125713
v 597274.5685913593 7020417.117251088 993.7903550411012
v 597594.7876712575 7020299.98333576 1049.4256757267722
v 598003.1798005234 7019014.473105032 993.4309718319724
v 597870.5774557262 7019172.04719069 1028.6546873505483
v 598730.0344383209 7019779.449878149 993.4280215910328
v 598433.7218784045 7019962.419955425 1048.9593707643487
v 594784.8397584653 7031006.00453317 650.6328663702152
v 594762.9193527271 7030984.65616489 707.7568134653047
v 595644.0725701915 7030598.109357285 650.5749940873384
v 595644.0727107881 7030566.015883891 707.7040651840886
v 594741.3465774418 7030964.818867784 764.8809260583729
v 594720.0063670285 7030946.3411707105 822.0051823724659
v 595644.0729397341 7030536.205533123 764.8327598998989
v 595644.0734004679 7030508.48225842 821.9611910145627
v 597259.4102539145 7022320.980047311 650.7906788246165
v 597297.941880743 7022270.670501879 707.9273693384473
v 598161.9887889416 7023514.328743497 650.4626665376773
v 598197.4750360855 7023463.966079729 707.5469837179222
v 598888.6468547466 7024875.266495128 650.7992721416501
v 598924.121970325 7024806.698154931 707.9123971514233
v 597339.0051616257 7022217.388298875 765.0568642027779
v 597383.0346704564 7022160.656117766 822.1792497225996
v 598234.9081286007 7023410.637210348 764.628705869822
v 598274.530317014 7023353.871577137 821.7086428683879
v 598961.5470481748 7024732.066169904 765.0207878625943
v 599001.1658463561 7024650.435508642 822.1254226002058
v 597097.9068868138 7030644.870644013 650.5774328810562
v 597097.9080868061 7030621.10987315 707.7066312613036
v 597961.6989499525 7031052.754502747 650.6392136749513
v 597978.8324255579 7031039.741245635 707.7640729565383
v 597097.9086421244 7030598.892734729 764.8361554317714
v 597097.9085698446 7030578.161174361 821.9658856957094
v 597995.1152677856 7031027.499779664 764.8888144082551
v 598010.5783413276 7031016.016510536 822.0134507174647
v 594698.7887243193 7030929.087572861 879.1295550236223
v 594677.5920547344 7030912.940419081 936.2540196535994
v 595644.0741657121 7030482.673467503 879.0894444279775
v 595644.0752558596 7030458.630413526 936.2175777655845
v 594656.3243354463 7030897.799430012 993.3785572941006
v 594634.9031343216 7030883.580142062 1050.5031547445888
v 595644.0766587515 7030436.226254845 993.3456266717056
v 595644.0783434346 7030415.353448881 1050.4736122330107
v 597430.5031384394 7022099.969906954 879.2940252371187
v 597481.9276154664 7022034.7771826 936.4007871651854
v 598316.5961695507 7023293.171721036 878.7885642163999
v 598361.382548779 7023227.989592334 935.8717894437946
v 599043.2343207034 7024560.708940529 879.2280020168575
v 599088.0312138842 7024461.590134592 936.329267396028
v 597537.878463901 7021964.451790168 993.5002192278415
v 597598.9904727228 7021888.267257917 1050.5943980166444
v 598409.1989062893 7023157.699615628 992.9637158306416
v 598460.3976783284 7023081.572139379 1050.0726662671104
v 599135.867171893 7024351.539855321 993.4300114493183
v 599187.0936424279 7024228.7165391045 1050.5342039437794
v 597097.9079297998 7030558.867823736 879.095697318088
v 597097.9068017148 7030540.970509842 936.2254786104826
v 598025.2470315802 7031005.281081331 879.1380067791603
v 598039.145825599 7030995.282353572 936.2625129560737
v 597097.9052746482 7030524.429640307 993.3551389524653
v 597097.9034379995 7030509.207280696 1050.4846114197285
v 598052.2992387607 7030986.007256626 993.3869999535161
v 598064.7312959257 7030977.440906913 1050.5114952052957
v 600005.1723731803 7015532.897450195 650.4785737337309
v 600005.1695740847 7016253.486060343 707.5827510874071
v 602052.5372318248 7014404.843260019 625.7803287340319
v 601524.3282853629 7015146.88642937 646.7405622222957
v 601458.8709648614 7016257.1725757895 707.2342224589574
v 599876.199140567 7016719.81006625 761.2621975718762
v 599305.665090508 7016829.132260209 794.5510993502294
v 601458.8632513786 7016753.913616637 742.752163232793
v 600253.5661431231 7018029.861328141 773.1688606106043
v 599527.8451744097 7018166.66829455 817.5351362989036
v 600551.2732575944 7019510.925091011 780.4573436246503
v 600296.4972848619 7019883.2287288485 821.7628394178832
v 601458.8550166278 7018029.866149149 759.6910600463414
v 601458.8455059519 7019537.483950093 780.4239773698076
v 601458.8310712902 7020435.559706727 821.3202189227408
v 602930.7573667222 7013885.866449261 644.8143688242484
v 603427.1391282845 7014235.892054318 690.3714528751068
v 602457.9899104305 7014839.064230623 663.9151089855508
v 602930.5832795126 7015293.702409199 708.2260019514631
v 603835.3620148309 7012584.614650346 650.1691312389936
v 604078.6681399953 7013366.438789131 706.7818722331348
v 603739.1194432176 7014742.710391995 728.750559733111
v 603057.9395799096 7016495.003664594 761.6021233184434
v 603639.3890378989 7016851.085180964 793.4515378988916
v 604736.8089490528 7013300.355444855 762.6081175013167
v 604960.5672915814 7014125.800987673 803.1768242111435
v 603867.6196516812 7015791.978508223 774.2548168810165
v 604504.8113779054 7015955.888537711 816.9918203464424
v 602827.2952240066 7017804.263960638 783.0827275473856
v 603255.0356286233 7018449.567965004 806.1699662737586
v 602285.9187386034 7019354.687280344 789.5995201269645
v 602827.3130356261 7019846.372465722 823.7806932892707
v 603644.0686092608 7016858.156498126 793.2159991566385
v 604123.3268687353 7017804.266771914 824.1299769437308
v 604561.247244372 7020529.331598743 847.6464606588586
v 599362.9789615747 7019053.612138776 859.1597068375304
v 600043.196143761 7020371.875715681 882.1852630440981
v 599910.4822920614 7020722.096528597 936.0365854809017
v 601458.8209907493 7021315.103972993 871.764377664582
v 599752.1889958048 7020973.03270234 993.31928254841
v 599604.2873982085 7021188.801925785 1050.5053493435048
v 605013.4772489796 7016661.932023784 854.0994764559746
v 602912.5559935973 7021097.226973327 871.2100051422815
v 604967.6352314098 7018029.88236954 854.6423227243833
v 604561.2481200319 7020529.33710853 858.9674464872237
v 599725.3263552369 7026068.803440063 650.72079358543
v 599828.0641964895 7026000.278925158 707.9064180340805
v 601661.9268291462 7025942.819488121 650.5616665740862
v 601578.8589787689 7025837.592590393 707.6317305945122
v 600206.1275972266 7026079.149199178 774.8369594445838
v 600247.11965917 7025986.363597917 812.9787959436306
v 601243.2412414425 7025944.412420086 774.251191561565
v 601216.7952276724 7025823.574167642 812.2770997146495
v 600452.202102064 7026552.702149382 650.6755823092648
v 600554.9252713474 7026489.592105197 707.7827011230959
v 600935.1169582205 7026552.700332109 650.6765204455944
v 600852.0396596452 7026489.591485722 707.7800744150054
v 600682.388891978 7026413.866997757 770.7102075872909
v 600731.2738149945 7026385.251224713 793.6125006074602
v 600764.0286077053 7026413.865664939 770.7048350898332
v 600732.4569649897 7026385.25122471 793.6125003327295
v 602912.5164966991 7025796.5806521205 650.3355407386816
v 602912.5255024134 7025580.3739490975 707.4363269606134
v 603778.319932056 7026238.656660038 650.6353809436174
v 603881.9853038375 7026127.677903745 707.7556211826344
v 602912.539139552 7025345.74682208 764.5625736618524
v 602912.5480044427 7025089.49112959 821.7202688064749
v 605086.1606353903 7021615.389266167 850.378034395467
v 603993.0414100414 7026006.820008923 764.876067411142
v 604112.7024297423 7025874.19916685 822.0040765557785
v 604505.1940867761 7027029.793618092 650.4930216620994
v 604608.850301625 7026919.055841923 707.6499046707606
v 604719.8949095022 7026798.700741875 764.8197639184938
v 604839.548794422 7026667.356864975 821.9883194272613
v 600723.5865375149 7021625.845830135 906.2892926572478
v 600637.3697459509 7021778.18990895 936.2623814153974
v 600005.2028484718 7025574.053366506 879.5022962964827
v 600005.2104599847 7025336.554848305 936.6857946754471
v 601458.8274018415 7021808.157316049 900.5162913058456
v 601458.8578914935 7022486.344461205 936.3752782005245
v 601458.8508092212 7025284.681178493 878.8929819380958
v 601458.8403952796 7024997.775424104 936.0477601420507
v 600479.0551788772 7022051.241854541 993.4085728977523
v 600331.1495953517 7022294.575291405 1050.5844808989418
v 600005.2189293855 7025070.798115267 993.8658437626638
v 600005.2191618494 7024772.2572362395 1051.024098528334
v 601539.9191174651 7023335.636083326 991.1575089223287
v 601194.8173538841 7023488.17479689 1050.6504557767016
v 601539.861632072 7024591.932658666 990.7148093142296
v 601194.7693232524 7024541.136609821 1050.4502713924153
v 602912.5632703155 7021846.924559975 899.7289414939779
v 602912.5695375401 7022684.989884705 936.5104291726672
v 602912.547927383 7024807.6542855315 878.9081845399264
v 602912.5442274278 7024495.329528135 936.107803267252
v 604507.4320153706 7021894.811694441 882.5609289293783
v 604366.2006002039 7022804.624564177 935.8248520246176
v 604242.3662312051 7025727.469910802 879.1638900463238
v 604489.034269688 7025470.776102238 935.2934825009395
v 602935.1872606236 7023654.398958621 991.1991681511995
v 603434.809924614 7023899.562587104 1029.931249524804
v 602935.1609477507 7024166.840614568 990.8540524990192
v 603434.8079820806 7024057.512365038 1029.895672945128
v 604327.3877415984 7023657.857904409 991.7894028594724
v 603816.9495247804 7023899.566287598 1029.8802370645105
v 604327.4139262162 7024368.1385722365 992.2096914829717
v 603816.9519160779 7024057.509748537 1029.9020162256177
v 604969.2164552362 7026523.422125397 879.1403097736267
v 605055.5211254543 7026427.000889509 915.1642134852327
f 14 13 12
f 20 18 19
f 24 23 22
f 32 31 26
f 37 32 28
f 38 37 29
f 39 34 37
f 43 42 41
f 45 27 4
f 50 9 49
f 52 51 50
f 59 57 52
f 60 58 59
f 61 41 51
f 62 61 52
f 63 43 61
f 64 63 62
f 66 64 65
f 70 69 68
f 75 71 23
f 77 72 75
f 78 77 76
f 82 79 73
f 83 82 74
f 85 84 83
f 90 89 56
f 93 78 92
f 95 85 94
f 96 86 93
f 99 98 97
f 111 110 36
f 112 111 42
f 113 112 43
f 121 120 119
f 128 121 126
f 129 128 127
f 135 133 134
f 138 136 131
f 139 137 138
f 146 135 145
f 148 146 147
f 150 139 149
f 151 149 144
f 152 150 151
f 153 142 146
f 161 159 160
f 168 129 166
f 169 168 167
f 176 174 169
f 178 80 137
f 179 81 178
f 180 178 139
f 181 179 180
f 184 179 84
f 185 184 85
f 186 184 181
f 189 88 188
f 190 180 150
f 191 181 190
f 192 190 152
f 193 191 192
f 194 186 191
f 195 187 194
f 196 194 193
f 203 201 202
f 205 148 204
f 206 151 201
f 207 152 206
f 210 176 209
f 211 177 210
f 212 192 207
f 213 193 212
f 214 196 213
f 216 109 215
f 222 221 195
f 237 229 231
f 238 230 237
f 250 242 249
f 256 254 255
f 259 257 252
f 260 258 259
f 264 262 263
f 268 266 264
f 269 267 268
f 271 264 270
f 273 268 271
f 274 269 273
f 282 225 279
f 283 226 282
f 292 290 291
f 294 293 288
f 299 297 298
f 302 300 269
f 304 236 303
f 305 303 299
f 306 304 305
f 307 239 301
f 308 240 307
f 309 298 272
f 310 299 309
f 314 312 313
f 315 305 310
f 316 306 315
f 318 316 317
f 320 319 314
f 321 251 281
f 322 252 321
f 324 323 292
f 343 342 331
f 345 344 339
f 346 334 344
f 356 355 354
f 357 354 348
f 358 357 349
f 359 356 357
f 361 360 352
f 363 362 361
f 370 369 368
f 371 368 333
f 372 371 334
f 373 370 371
f 374 373 372
f 379 378 370
f 383 379 373
f 385 380 383
f 386 385 384
f 390 389 388
f 392 391 390
f 397 388 355
f 398 397 356
f 399 390 397
f 400 399 398
f 402 398 359
f 403 400 402
f 405 404 363
f 407 406 405
f 408 392 399
f 409 408 400
f 410 393 408
f 411 410 409
f 414 411 413
f 416 412 406
f 417 416 407
f 419 418 417
f 426 236 424
f 427 426 425
f 430 428 240
f 431 429 430
f 435 434 306
f 436 435 316
f 438 436 318
f 439 437 438
f 442 352 440
f 443 442 441
f 446 443 444
f 447 361 442
f 448 447 443
f 449 363 447
f 450 449 448
f 451 405 449
f 452 451 450
f 453 407 451
f 454 453 452
f 455 417 453
f 456 455 454
f 457 419 455
f 458 457 456
f 463 462 461
f 466 463 464
f 467 466 465
f 470 469 463
f 472 471 470
f 475 470 466
f 476 475 467
f 477 472 475
f 478 477 476
f 486 467 484
f 487 486 485
f 492 488 320
f 494 490 492
f 495 494 493
f 498 478 496
f 499 498 497
f 500 479 489
f 501 500 490
f 506 499 504
f 507 505 506
f 508 501 494
f 509 508 495
f 511 510 509
f 513 325 512
f 514 326 482
f 527 526 474
f 528 527 480
f 529 528 481
f 541 540 539
f 546 541 544
f 547 546 545
f 551 550 541
f 555 551 546
f 566 543 522
f 567 566 523
f 570 547 568
f 571 570 569
f 572 567 524
f 573 572 525
f 576 571 574
f 577 576 575
f 587 586 394
f 590 589 396
f 598 597 414
f 599 598 415
f 611 610 602
f 623 622 621
f 630 623 628
f 640 611 632
f 641 640 633
f 642 634 613
f 643 635 642
f 644 641 636
f 645 644 637
f 646 638 643
f 647 639 646
f 654 625 648
f 655 654 649
f 662 655 650
f 663 662 651
f 667 666 653
f 671 495 670
f 674 509 671
f 675 674 672
f 676 511 674
f 677 676 675
f 678 675 673
f 680 677 678
f 681 680 679
f 683 682 518
f 694 693 688
f 699 681 698
f 702 694 700
f 705 704 703
f 706 701 697
f 709 707 708
f 712 705 710
f 713 712 711
f 716 714 709
f 717 715 716
f 726 573 691
f 727 726 692
f 730 577 728
f 731 730 729
f 732 727 695
f 733 732 696
f 736 731 734
f 737 736 735
f 754 733 704
f 755 754 705
f 758 737 756
f 759 758 757
f 760 755 712
f 761 760 713
f 764 759 762
f 765 764 763
f 777 596 776
f 783 780 782
f 785 783 784
f 792 791 790
f 793 600 457
f 794 793 458
f 798 794 459
f 800 795 798
f 801 800 799
f 805 804 803
f 807 806 801
f 810 809 785
f 817 807 815
f 818 817 808
f 827 645 819
f 828 827 820
f 829 821 647
f 830 822 829
f 831 828 823
f 832 831 824
f 833 825 830
f 834 826 833
f 844 667 837
f 845 844 838
f 846 845 842
f 847 846 843
f 849 811 848
f 856 813 849
f 857 814 856
f 863 861 862
f 868 818 841
f 875 874 873
f 879 877 878
f 880 847 870
f 881 880 871
f 1 4 27
f 8 9 49
f 11 12 13
f 16 23 71
f 17 19 18
f 21 22 23
f 25 26 31
f 26 28 32
f 28 29 37
f 30 51 41
f 32 37 34
f 35 36 110
f 36 42 111
f 40 41 42
f 41 61 43
f 42 43 112
f 44 80 137
f 49 51 50
f 50 52 57
f 51 52 61
f 54 56 89
f 57 59 58
f 61 62 63
f 62 65 64
f 67 68 69
f 70 73 79
f 71 75 72
f 73 74 82
f 75 76 77
f 76 92 78
f 78 93 86
f 80 81 178
f 81 84 179
f 82 83 84
f 83 94 85
f 84 85 184
f 87 188 88
f 96 97 98
f 105 215 109
f 118 119 120
f 119 126 121
f 126 127 128
f 127 166 129
f 130 131 136
f 132 134 133
f 134 145 135
f 135 146 142
f 136 138 137
f 137 139 178
f 138 149 139
f 139 150 180
f 143 144 149
f 144 201 151
f 145 147 146
f 147 204 148
f 149 151 150
f 150 152 190
f 151 206 152
f 152 207 192
f 158 160 159
f 166 167 168
f 167 174 169
f 169 209 176
f 176 210 177
f 178 180 179
f 179 184 181
f 180 190 181
f 181 191 186
f 186 194 187
f 187 195 221
f 190 192 191
f 191 193 194
f 192 212 193
f 193 213 196
f 200 202 201
f 223 279 225
f 224 281 251
f 225 282 226
f 227 231 229
f 229 237 230
f 232 301 239
f 234 424 236
f 235 236 303
f 238 240 428
f 239 307 240
f 241 249 242
f 250 252 257
f 251 321 252
f 253 255 254
f 257 259 258
f 261 263 262
f 262 264 266
f 263 270 264
f 264 271 268
f 265 272 298
f 266 268 267
f 267 269 300
f 268 273 269
f 287 288 293
f 289 291 290
f 290 292 323
f 295 482 326
f 296 298 297
f 297 299 303
f 298 309 299
f 299 310 305
f 303 305 304
f 304 306 434
f 305 315 306
f 306 316 435
f 311 313 312
f 312 314 319
f 314 488 320
f 315 317 316
f 316 318 436
f 324 512 325
f 328 333 368
f 329 331 342
f 332 344 334
f 333 334 371
f 335 355 388
f 338 339 344
f 347 348 354
f 348 349 357
f 350 440 352
f 351 352 360
f 352 442 361
f 353 354 355
f 354 357 356
f 355 356 397
f 356 359 398
f 360 361 362
f 361 447 363
f 362 363 404
f 363 449 405
f 367 368 369
f 368 371 370
f 369 370 378
f 370 373 379
f 371 372 373
f 379 383 380
f 382 394 586
f 383 384 385
f 387 388 389
f 388 397 390
f 389 390 391
f 390 399 392
f 392 408 393
f 395 396 589
f 397 398 399
f 398 402 400
f 399 400 408
f 401 406 412
f 404 405 406
f 405 451 407
f 406 407 416
f 407 453 417
f 408 409 410
f 409 413 411
f 411 414 597
f 414 415 598
f 416 417 418
f 417 455 419
f 419 457 600
f 424 425 426
f 428 430 429
f 436 438 437
f 440 441 442
f 441 444 443
f 442 443 447
f 447 448 449
f 449 450 451
f 451 452 453
f 453 454 455
f 455 456 457
f 457 458 793
f 458 459 794
f 460 461 462
f 461 464 463
f 462 463 469
f 463 466 470
f 464 465 466
f 465 484 467
f 466 467 475
f 468 489 479
f 469 470 471
f 470 475 472
f 473 474 526
f 474 480 527
f 475 476 477
f 476 496 478
f 480 481 528
f 483 522 543
f 484 485 486
f 488 492 490
f 489 490 500
f 490 494 501
f 492 493 494
f 493 670 495
f 494 495 508
f 495 671 509
f 496 497 498
f 497 504 499
f 504 505 506
f 508 509 510
f 509 674 511
f 517 518 682
f 522 523 566
f 523 524 567
f 524 525 572
f 525 691 573
f 538 539 540
f 539 544 541
f 540 541 550
f 541 546 551
f 544 545 546
f 545 568 547
f 568 569 570
f 569 574 571
f 574 575 576
f 575 728 577
f 595 776 596
f 601 602 610
f 602 632 611
f 603 613 634
f 615 648 625
f 620 621 622
f 621 628 623
f 632 633 640
f 633 636 641
f 634 642 635
f 635 643 638
f 636 637 644
f 637 819 645
f 638 646 639
f 639 647 821
f 648 649 654
f 649 650 655
f 650 651 662
f 652 653 666
f 653 837 667
f 671 672 674
f 672 673 675
f 674 675 676
f 675 678 677
f 678 679 680
f 679 698 681
f 687 688 693
f 688 700 694
f 690 697 701
f 691 692 726
f 692 695 727
f 695 696 732
f 696 704 733
f 702 703 704
f 703 710 705
f 704 705 754
f 705 712 755
f 706 708 707
f 707 709 714
f 710 711 712
f 712 713 760
f 714 716 715
f 728 729 730
f 729 734 731
f 734 735 736
f 735 756 737
f 756 757 758
f 757 762 759
f 762 763 764
f 779 782 780
f 782 784 783
f 783 785 809
f 789 790 791
f 794 798 795
f 798 799 800
f 800 801 806
f 801 815 807
f 802 803 804
f 807 817 808
f 808 841 818
f 810 848 811
f 811 849 813
f 813 856 814
f 819 820 827
f 820 823 828
f 821 829 822
f 822 830 825
f 823 824 831
f 825 833 826
f 837 838 844
f 838 842 845
f 842 843 846
f 843 870 847
f 860 862 861
f 870 871 880
f 872 873 874
f 876 878 877
f 5 9 8
f 10 13 9
f 12 17 18
f 13 19 15
f 14 20 19
f 18 22 21
f 19 23 16
f 34 36 35
f 38 41 40
f 39 42 36
f 46 49 50
f 47 51 30
f 48 52 51
f 53 50 57
f 54 57 58
f 55 59 52
f 56 60 59
f 50 68 67
f 52 69 70
f 73 72 77
f 74 77 78
f 63 80 44
f 64 81 80
f 65 79 82
f 66 84 81
f 94 86 96
f 95 98 88
f 101 115 114
f 115 119 118
f 117 120 121
f 102 122 115
f 103 123 122
f 122 126 119
f 123 127 126
f 124 121 128
f 125 128 129
f 136 140 133
f 137 141 140
f 138 135 142
f 149 153 146
f 157 160 161
f 106 162 123
f 107 163 162
f 162 166 127
f 163 167 166
f 164 129 168
f 165 168 169
f 108 170 163
f 109 171 170
f 170 174 167
f 171 175 174
f 172 169 176
f 173 176 177
f 154 178 137
f 155 178 179
f 178 182 141
f 179 183 182
f 158 184 179
f 161 186 187
f 184 188 183
f 185 189 188
f 175 195 194
f 176 196 193
f 201 205 204
f 198 206 201
f 199 207 206
f 208 212 207
f 209 213 212
f 210 214 213
f 215 157 217
f 217 161 218
f 216 219 171
f 219 220 175
f 218 187 221
f 220 222 195
f 24 236 235
f 234 237 238
f 242 244 243
f 229 245 242
f 230 246 245
f 245 247 244
f 246 248 247
f 250 253 254
f 251 255 226
f 252 256 255
f 237 250 257
f 238 257 258
f 239 259 252
f 240 260 259
f 262 276 275
f 276 279 278
f 266 280 276
f 267 281 280
f 280 282 279
f 281 283 282
f 271 284 285
f 285 286 287
f 273 285 289
f 274 289 290
f 289 287 293
f 292 294 295
f 297 301 300
f 298 302 269
f 76 303 304
f 303 307 301
f 304 308 307
f 309 274 311
f 310 311 312
f 88 318 317
f 315 312 319
f 300 321 281
f 301 322 321
f 311 290 323
f 314 324 325
f 324 295 326
f 225 330 327
f 226 331 330
f 330 333 328
f 331 334 333
f 244 337 336
f 337 339 338
f 247 340 337
f 255 343 331
f 342 344 332
f 341 348 347
f 349 352 351
f 345 354 353
f 346 355 335
f 279 365 364
f 365 368 367
f 287 375 376
f 376 378 379
f 294 377 381
f 295 381 382
f 381 380 385
f 382 385 386
f 374 390 389
f 384 391 392
f 394 386 395
f 403 406 401
f 395 393 410
f 396 410 411
f 413 412 416
f 415 418 419
f 420 422 230
f 421 423 422
f 424 238 428
f 425 428 429
f 426 430 240
f 427 431 430
f 422 432 246
f 432 433 248
f 92 304 434
f 97 436 437
f 98 438 318
f 99 439 438
f 133 461 460
f 140 464 461
f 141 465 464
f 472 474 473
f 477 480 474
f 478 481 480
f 182 484 465
f 183 485 484
f 486 489 468
f 487 490 489
f 188 491 485
f 491 488 492
f 496 479 500
f 497 500 501
f 498 502 481
f 499 503 502
f 504 501 508
f 506 510 503
f 507 511 510
f 513 514 515
f 492 513 516
f 493 516 517
f 516 515 519
f 517 519 520
f 502 522 483
f 503 523 522
f 510 524 523
f 511 525 524
f 533 534 535
f 527 537 536
f 537 539 538
f 528 542 537
f 529 543 542
f 542 544 539
f 543 545 544
f 531 548 549
f 534 549 553
f 535 553 554
f 553 552 556
f 554 556 557
f 558 535 560
f 559 560 561
f 562 561 564
f 563 564 565
f 566 568 545
f 567 569 568
f 572 574 569
f 573 575 574
f 560 554 578
f 561 578 579
f 578 557 580
f 579 580 581
f 564 579 582
f 565 582 583
f 582 581 584
f 583 584 585
f 514 586 587
f 515 587 588
f 588 589 590
f 519 588 591
f 520 591 592
f 591 590 594
f 592 594 595
f 594 597 598
f 595 598 599
f 547 602 601
f 551 605 604
f 605 607 606
f 555 610 605
f 610 612 607
f 611 613 612
f 607 617 616
f 609 618 619
f 617 621 620
f 619 622 623
f 612 624 617
f 613 625 624
f 614 619 626
f 624 628 621
f 625 629 628
f 626 623 630
f 627 630 631
f 570 632 602
f 571 633 632
f 576 636 633
f 577 637 636
f 640 642 613
f 641 643 642
f 644 646 643
f 645 647 646
f 634 648 615
f 635 649 648
f 638 650 649
f 639 651 650
f 651 653 652
f 654 658 629
f 655 659 658
f 656 631 660
f 657 660 661
f 662 666 659
f 663 667 666
f 664 661 668
f 665 668 669
f 670 517 682
f 672 683 684
f 683 521 685
f 684 685 686
f 673 684 687
f 687 686 689
f 688 689 690
f 676 691 525
f 677 692 691
f 679 693 694
f 680 695 692
f 681 696 695
f 700 690 701
f 698 694 702
f 699 704 696
f 703 706 707
f 710 707 714
f 711 714 715
f 718 565 720
f 719 720 721
f 722 721 724
f 723 724 725
f 726 728 575
f 727 729 728
f 732 734 729
f 733 735 734
f 720 583 738
f 721 738 739
f 738 585 740
f 739 740 741
f 724 739 742
f 725 742 743
f 742 741 744
f 743 744 745
f 746 725 748
f 747 748 749
f 750 749 752
f 751 752 753
f 754 756 735
f 755 757 756
f 760 762 757
f 761 763 762
f 748 743 766
f 749 766 767
f 766 745 768
f 767 768 769
f 752 767 770
f 753 770 771
f 770 769 772
f 771 772 773
f 685 593 774
f 686 774 775
f 774 596 777
f 775 777 778
f 689 775 779
f 690 779 780
f 779 778 781
f 785 787 788
f 776 599 789
f 778 791 792
f 789 600 793
f 790 793 794
f 781 792 796
f 796 795 800
f 797 800 801
f 788 804 805
f 803 806 807
f 706 783 809
f 709 810 811
f 810 788 812
f 716 811 813
f 717 813 814
f 812 805 816
f 816 808 818
f 730 819 637
f 731 820 819
f 736 823 820
f 737 824 823
f 824 826 825
f 827 829 647
f 828 830 829
f 831 833 830
f 832 834 833
f 821 835 651
f 822 836 835
f 835 837 653
f 836 838 837
f 825 839 836
f 826 840 839
f 839 842 838
f 840 843 842
f 758 850 824
f 759 851 850
f 849 852 853
f 850 854 826
f 851 855 854
f 764 858 851
f 765 859 858
f 856 853 860
f 857 860 861
f 858 862 855
f 859 863 862
f 853 864 865
f 854 866 840
f 855 867 866
f 865 868 869
f 866 870 843
f 867 871 870
f 860 865 872
f 862 874 867
f 872 869 876
f 873 876 877
f 874 878 871
f 875 879 878
f 8 4 5
f 9 5 10
f 15 9 13
f 17 12 11
f 19 13 14
f 16 15 19
f 21 18 17
f 235 23 24
f 30 29 47
f 35 33 34
f 36 34 39
f 40 37 38
f 44 43 63
f 49 46 45
f 50 53 46
f 51 47 48
f 52 48 55
f 67 50 49
f 69 51 52
f 57 54 53
f 59 55 56
f 79 65 62
f 80 63 64
f 81 64 66
f 72 73 70
f 77 74 73
f 303 76 75
f 304 92 76
f 86 94 83
f 88 85 95
f 317 87 88
f 318 88 98
f 436 97 96
f 438 98 99
f 114 100 101
f 115 101 102
f 122 102 103
f 123 103 106
f 157 215 105
f 162 106 107
f 163 107 108
f 170 108 109
f 171 109 216
f 137 154 113
f 118 114 115
f 119 115 122
f 120 117 116
f 121 124 117
f 126 122 123
f 127 123 162
f 128 125 124
f 129 164 125
f 133 130 136
f 135 138 131
f 460 132 133
f 461 133 140
f 140 136 137
f 141 137 178
f 464 140 141
f 465 141 182
f 146 143 149
f 178 155 154
f 179 158 155
f 160 157 156
f 161 217 157
f 186 161 160
f 187 218 161
f 166 162 163
f 167 163 170
f 168 165 164
f 169 172 165
f 193 176 169
f 174 170 171
f 175 171 219
f 176 173 172
f 194 174 175
f 195 175 220
f 182 179 178
f 183 179 184
f 484 182 183
f 485 183 188
f 188 184 185
f 201 197 198
f 206 198 199
f 207 199 208
f 204 200 201
f 212 208 209
f 213 209 210
f 327 223 225
f 226 224 251
f 330 225 226
f 331 226 255
f 242 227 229
f 230 228 420
f 245 229 230
f 246 230 422
f 250 237 231
f 252 232 239
f 237 234 233
f 238 424 234
f 240 236 426
f 257 238 237
f 259 239 240
f 243 241 242
f 244 242 245
f 336 243 244
f 337 244 247
f 247 245 246
f 248 246 432
f 253 250 249
f 255 251 252
f 275 261 262
f 276 262 266
f 269 265 298
f 280 266 267
f 281 267 300
f 284 271 270
f 285 273 271
f 274 309 272
f 289 274 273
f 290 311 274
f 278 275 276
f 279 276 280
f 364 278 279
f 282 280 281
f 286 285 284
f 287 289 285
f 375 287 286
f 377 294 288
f 294 292 291
f 295 324 292
f 381 295 294
f 300 296 297
f 301 297 303
f 321 300 301
f 307 304 303
f 311 310 309
f 312 315 310
f 324 314 313
f 328 327 330
f 332 329 342
f 333 330 331
f 335 334 346
f 338 336 337
f 347 339 341
f 353 344 345
f 351 348 349
f 367 364 365
f 389 373 374
f 378 376 375
f 380 381 377
f 385 382 381
f 386 394 382
f 391 384 383
f 393 395 386
f 410 396 395
f 401 400 403
f 412 413 409
f 418 415 414
f 422 420 421
f 428 425 424
f 430 426 427
f 468 467 486
f 473 471 472
f 474 472 477
f 479 496 476
f 480 477 478
f 481 478 498
f 483 481 502
f 586 514 482
f 488 485 491
f 489 486 487
f 513 492 488
f 516 493 492
f 517 670 493
f 500 497 496
f 501 504 497
f 502 498 499
f 503 499 506
f 522 502 503
f 523 503 510
f 510 506 507
f 524 510 511
f 525 511 676
f 514 513 512
f 515 516 513
f 587 515 514
f 588 519 515
f 519 517 516
f 521 683 518
f 591 520 519
f 593 685 521
f 536 526 527
f 537 527 528
f 542 528 529
f 548 531 530
f 549 531 534
f 534 533 532
f 535 558 533
f 553 535 534
f 554 560 535
f 538 536 537
f 539 537 542
f 544 542 543
f 545 543 566
f 601 546 547
f 602 547 570
f 552 553 549
f 604 550 551
f 605 551 555
f 556 554 553
f 557 578 554
f 560 559 558
f 561 562 559
f 578 561 560
f 579 564 561
f 564 563 562
f 565 718 563
f 582 565 564
f 583 720 565
f 568 566 567
f 569 567 572
f 632 570 571
f 633 571 576
f 574 572 573
f 575 573 726
f 636 576 577
f 637 577 730
f 580 579 578
f 581 582 579
f 584 583 582
f 585 738 583
f 589 588 587
f 590 591 588
f 597 594 590
f 594 592 591
f 596 774 593
f 598 595 594
f 599 776 595
f 600 789 599
f 615 603 634
f 606 604 605
f 607 605 610
f 616 606 607
f 617 607 612
f 618 609 608
f 619 614 609
f 612 610 611
f 613 611 640
f 624 612 613
f 620 616 617
f 621 617 624
f 622 619 618
f 623 626 619
f 628 624 625
f 629 625 654
f 630 627 626
f 631 656 627
f 648 634 635
f 649 635 638
f 650 638 639
f 651 639 821
f 642 640 641
f 643 641 644
f 646 644 645
f 647 645 827
f 652 650 651
f 653 651 835
f 658 654 655
f 659 655 662
f 660 657 656
f 661 664 657
f 666 662 663
f 668 665 664
f 683 672 671
f 684 673 672
f 691 676 677
f 692 677 680
f 693 679 678
f 694 698 679
f 695 680 681
f 696 681 699
f 685 684 683
f 686 687 684
f 774 686 685
f 775 689 686
f 689 688 687
f 690 700 688
f 779 690 689
f 783 706 697
f 706 703 702
f 707 710 703
f 810 709 708
f 811 716 709
f 714 711 710
f 813 717 716
f 720 719 718
f 721 722 719
f 738 721 720
f 739 724 721
f 724 723 722
f 725 746 723
f 742 725 724
f 743 748 725
f 728 726 727
f 729 727 732
f 819 730 731
f 820 731 736
f 734 732 733
f 735 733 754
f 823 736 737
f 824 737 758
f 740 739 738
f 741 742 739
f 744 743 742
f 745 766 743
f 748 747 746
f 749 750 747
f 766 749 748
f 767 752 749
f 752 751 750
f 770 753 752
f 756 754 755
f 757 755 760
f 850 758 759
f 851 759 764
f 762 760 761
f 858 764 765
f 768 767 766
f 769 770 767
f 772 771 770
f 777 775 774
f 778 779 775
f 791 778 777
f 792 781 778
f 787 785 784
f 788 810 785
f 804 788 787
f 805 812 788
f 793 790 789
f 795 796 792
f 800 797 796
f 806 803 802
f 808 816 805
f 835 821 822
f 836 825 822
f 825 823 824
f 826 824 850
f 839 825 826
f 840 826 854
f 829 827 828
f 830 828 831
f 833 831 832
f 837 835 836
f 838 836 839
f 842 839 840
f 843 840 866
f 852 849 848
f 853 856 849
f 854 850 851
f 855 851 858
f 864 853 852
f 865 860 853
f 866 854 855
f 867 855 862
f 860 857 856
f 862 858 859
f 868 865 864
f 869 872 865
f 870 866 867
f 871 867 874
f 876 873 872
f 878 874 875
f 10 11 13
f 14 18 20
f 19 21 23
f 38 30 41
f 39 40 42
f 45 8 49
f 56 58 60
f 50 15 68
f 51 67 69
f 68 16 71
f 70 71 72
f 62 70 79
f 66 82 84
f 83 78 86
f 95 96 98
f 116 118 120
f 131 133 135
f 113 44 137
f 144 146 148
f 149 142 153
f 157 159 161
f 160 184 186
f 185 88 189
f 176 194 196
f 201 148 205
f 209 193 213
f 216 217 219
f 219 218 220
f 220 221 222
f 22 228 234
f 24 234 236
f 234 230 238
f 231 242 250
f 249 243 253
f 252 254 256
f 240 258 260
f 272 269 274
f 263 275 277
f 281 226 283
f 270 277 284
f 291 293 294
f 298 302 300
f 75 235 303
f 78 304 306
f 304 240 308
f 317 319 320
f 301 252 322
f 313 323 324
f 331 332 334
f 253 336 342
f 255 342 343
f 342 338 344
f 349 350 352
f 345 347 354
f 346 353 355
f 357 351 360
f 359 360 362
f 279 327 365
f 365 328 368
f 366 367 369
f 288 376 377
f 375 369 378
f 377 379 380
f 372 335 388
f 373 387 389
f 374 388 390
f 383 389 391
f 386 392 393
f 402 362 404
f 403 404 406
f 409 401 412
f 414 416 418
f 427 429 431
f 93 434 435
f 96 435 436
f 99 437 439
f 476 468 479
f 487 488 490
f 188 317 491
f 491 320 492
f 506 508 510
f 488 325 513
f 512 326 514
f 518 520 521
f 529 483 543
f 482 382 586
f 587 395 589
f 521 592 593
f 593 595 596
f 590 411 597
f 599 419 600
f 555 601 610
f 613 615 625
f 663 653 667
f 671 682 683
f 678 693 687
f 699 702 704
f 702 701 706
f 713 715 717
f 697 780 783
f 782 781 786
f 784 786 787
f 777 789 791
f 792 794 795
f 786 796 802
f 787 802 804
f 802 800 806
f 805 807 808
f 708 809 810
f 831 825 833
f 832 826 834
f 848 812 852
f 852 816 864
f 864 818 868
f 862 872 874
f 875 877 879
f 8 45 4
f 15 50 9
f 18 14 12
f 16 68 15
f 21 19 17
f 234 24 22
f 235 75 23
f 30 38 29
f 40 39 37
f 44 113 43
f 67 51 49
f 70 62 52
f 58 56 54
f 82 66 65
f 71 70 68
f 78 83 74
f 304 78 76
f 88 185 85
f 317 87 188
f 434 93 92
f 435 96 93
f 96 95 94
f 437 99 97
f 118 116 114
f 133 131 130
f 142 149 138
f 146 144 143
f 148 201 144
f 184 160 158
f 193 209 169
f 194 176 174
f 217 216 215
f 218 219 217
f 221 220 218
f 327 279 223
f 226 281 224
f 242 231 227
f 230 234 228
f 252 301 232
f 240 304 236
f 258 240 238
f 243 249 241
f 336 253 243
f 254 252 250
f 342 255 253
f 275 263 261
f 277 270 263
f 269 272 265
f 376 288 287
f 293 291 289
f 382 482 295
f 300 298 296
f 323 313 311
f 325 488 314
f 319 317 315
f 320 491 317
f 326 512 324
f 328 365 327
f 332 331 329
f 335 372 334
f 338 342 336
f 347 345 339
f 353 346 344
f 351 357 348
f 360 359 357
f 362 402 359
f 367 366 364
f 369 375 366
f 387 373 371
f 388 374 372
f 389 383 373
f 379 377 376
f 392 386 384
f 395 587 394
f 411 590 396
f 401 409 400
f 404 403 402
f 416 414 413
f 419 599 415
f 429 427 425
f 468 476 467
f 483 529 481
f 488 487 485
f 508 506 504
f 520 518 517
f 592 521 520
f 601 555 546
f 595 593 592
f 615 613 603
f 653 663 651
f 682 671 670
f 687 678 673
f 780 697 690
f 702 699 698
f 701 702 700
f 809 708 706
f 715 713 711
f 789 777 776
f 781 782 779
f 796 786 781
f 786 784 782
f 802 787 786
f 794 792 790
f 800 802 796
f 807 805 803
f 812 848 810
f 816 852 812
f 818 864 816
f 825 831 823
f 826 832 824
f 872 862 860
f 877 875 873
