# encaixante_teresina - exportado do GemPy
v 588794.9935603848 7002470.954574852 562.863772481117
v 588336.4535423267 7001967.573458024 588.3238329910921
v 589829.5153608249 7002474.343184266 566.6129533682861
v 589829.4404967173 7001872.1652507465 592.7451593756216
v 591282.9279444686 7002329.823804956 558.8357198301583
v 591283.2058506021 7001469.065489615 598.6320594014154
v 592136.4032705287 7002279.082673241 561.5952223378117
v 592666.917719969 7001770.30039018 601.1378873793822
v 588078.8889338901 7006802.267431864 137.9367828765603
v 588132.0284288534 7006729.080405718 196.15826196763499
v 588184.8989406015 7006656.028514089 256.93084439654496
v 588242.9258231343 7006588.088863738 320.15570153022395
v 587992.8779578668 7008081.640140627 260.9087904594759
v 588064.7233573928 7008155.024689199 311.06684619190554
v 588138.4055939618 7008223.410960176 359.53111613429314
v 588214.0685656236 7008284.517924805 406.2890963900725
v 588311.2467334331 7006528.238559114 385.27762455664225
v 588515.1035971429 7006558.517993323 444.9718436590787
v 590483.8197068274 7004689.205753071 501.93449827623573
v 590104.0817577383 7006540.852666704 513.5800611363513
v 588794.9919954354 7002553.2535222005 562.7843180509036
v 588336.5874052611 7002894.05547406 585.5954820869459
v 588379.3427506783 7006044.684541687 527.2203877483179
v 588376.0909807945 7005641.539435649 599.7564046924058
v 589897.6560593399 7003621.034705227 554.7098250133199
v 589308.9694685721 7004081.5671063885 600.8111080552728
v 589984.6111278824 7006380.009970695 527.8162231931791
v 589308.4918605174 7005348.697611187 601.5855487671079
v 588294.9417881058 7008336.753204686 451.16983852039044
v 588504.0021684996 7008402.404896617 501.54954982849375
v 589969.2911802751 7007526.504916268 498.36403319344504
v 588376.411083548 7009245.93735005 533.514403792456
v 588355.3030726152 7009591.639838975 589.326547599767
v 588823.3501130885 7010034.703374251 614.4716164072872
v 590067.5409856982 7008051.878823901 507.3136057683507
v 589725.4286848945 7009307.333484004 591.073934422617
v 589172.812602452 7010034.588970839 615.2229416669495
v 590878.6063497337 7004689.11705985 491.740941934612
v 590748.4917118413 7006324.993595752 513.3523230631835
v 591333.1978439245 7003818.230882266 480.0870891745086
v 591201.7097647991 7006441.361823953 528.7085516103102
v 591737.1222362283 7006911.564201559 591.0425042598806
v 592216.2485357652 7003706.109052215 497.4569401915703
v 592970.0767252755 7003650.0271426 522.9034224482384
v 592153.3179924703 7005318.8483663555 543.8388611754099
v 592369.9438200075 7006097.746332979 686.2827566127334
v 590555.3601796059 7007284.674246953 507.921135610703
v 590684.6544047494 7007541.620528815 519.3853107621356
v 591274.7546669677 7008039.356745746 543.1865614199511
v 592104.9925370108 7007475.010517132 614.7847731399083
v 588257.5620523789 7000673.688059564 656.8103041711563
v 588754.7303836092 7000271.832289968 708.7800563611537
v 590097.3666290849 6999806.710719378 727.4706619245466
v 589829.4865175324 7000935.78839016 652.6048730924981
v 589699.5948695077 7000304.133626555 710.4385290511844
v 589077.9604589902 7000132.4309987705 737.0374625898723
v 589739.8079314914 6998824.787491928 756.6631531121578
v 590351.1367560807 6997842.633905829 802.3901870871031
v 589128.226005894 7000132.430961984 737.0359137355391
v 591699.4141143999 6999809.756072864 661.3014737038646
v 591241.7515017545 6999392.013001567 699.9719358720788
v 591242.2433134926 7000454.128763084 650.8725456289321
v 590730.4417397737 7000228.930328122 689.6107277903478
v 592315.6317228595 6999809.819258465 663.7798234904556
v 592774.4449602155 6999194.599016924 712.5010254396298
v 592774.7741175336 7000530.878587703 643.1745195827049
v 593284.8438080463 7000214.905641694 685.1423098560532
v 591282.9724110994 6998355.657086291 763.9152273553918
v 591283.0469609913 6997842.584145362 803.717613986555
v 592656.6770489482 6997972.2415622305 763.2223316650662
v 592118.7070096377 6997773.746107993 798.2509699608764
v 588467.8921056594 7003995.571984169 654.9704561194757
v 588106.6008458018 7004249.652417273 708.4819438215742
v 588468.2767580874 7005204.0054748645 658.400331418567
v 588107.0724146515 7005098.601562685 709.8930677850651
v 589170.7374796844 7004564.647659273 637.3311905367273
v 589170.7772851326 7005073.703460848 634.7666295685276
v 587883.4217090473 7004482.93096809 764.8898718498172
v 587733.7281651093 7004723.026843692 822.077994957925
v 587883.8639381741 7005037.36029163 765.9214498453972
v 587733.8728360188 7004962.7597784875 822.2568108550831
v 587853.9265414304 7009664.034144719 631.0271873396516
v 588353.6067129971 7010742.318635844 650.1117801246132
v 588375.9381087167 7011933.1351168165 687.167768207711
v 590187.7323110409 7009553.7240243545 649.4990537422651
v 590479.5499244123 7009661.610446914 681.5929838301772
v 589461.104359257 7010485.557184419 649.8630561853013
v 589824.2498276829 7011067.259375021 698.8180012622814
v 590042.3146013797 7011734.827067173 763.984738627685
v 590343.6095370167 7011974.493287417 821.8172396029531
v 593343.3086864885 7004389.708056091 573.6398999172773
v 593087.6266142448 7006072.939576993 774.6352745253034
v 591290.392859883 7008968.951572451 607.8884875423984
v 591284.5018997415 7009540.341681794 685.5629402604343
v 591284.7698945829 7010116.21200524 714.6926692409473
v 592654.8673298175 7007937.475763075 681.3457525091876
v 592651.6316058388 7009204.6667006835 734.8390912114503
v 592770.6483227904 7010898.072458952 764.0924902390042
v 591283.6276241153 7011046.563478736 761.525064207857
v 591282.6812385247 7011753.75211227 821.5016135138736
v 593079.2258219452 7009587.202152741 751.2953457177733
v 592766.8372258913 7010963.331063022 772.1087602464514
v 592244.9481082902 7011841.543022786 821.7658341262356
v 587664.0991073422 7004863.650752552 854.7866454937359
v 587664.1031874599 7004914.642118595 854.7769678359954
v 590538.5524986831 7012057.758174327 851.583999367261
v 591282.5875048065 7012016.57983076 858.9568732235406
v 592081.474065043 7012005.819878829 860.1107397874405
v 587604.3351859691 7019169.08057951 208.82390907926418
v 587534.0089430594 7019084.877138174 249.36770671674543
v 587437.6448361465 7018971.959259016 301.8785731663629
v 587341.0970957744 7018860.360063066 348.96382197664644
v 587246.045720685 7018746.288772227 387.00136843767575
v 587155.9817282688 7018620.613954186 411.1865567624026
v 587074.9969140526 7018464.762824662 417.8578436012373
v 587000.4611733584 7018254.836053388 412.881505527317
v 587837.8778436183 7019169.921968034 204.55707055336262
v 588083.6141517635 7019086.197921169 239.90972535510292
v 587837.417830798 7019338.201365651 204.28906948525577
v 588081.5666608147 7019500.638139261 238.59316996384104
v 588466.5995346844 7018999.557958561 292.54349728278277
v 588379.8481351186 7018722.1727102 349.7221245338203
v 588463.0223787215 7019637.449347548 290.66173127340704
v 588375.589153239 7020059.294421737 356.18253834161624
v 589154.0800367582 7019184.832419379 329.36146204234615
v 589263.4155575406 7019089.189935728 366.28862552321493
v 589154.1721799577 7019286.345129211 329.02946823482404
v 589264.2488482721 7019429.190659705 363.48212692358686
v 588381.7428278414 7018452.4702913 406.4107585048332
v 588382.6602423195 7018179.4679010585 465.3186530562304
v 588375.612339336 7020403.952799975 419.3769792429753
v 588375.6587121678 7020701.974671019 479.20738592118846
v 589411.0348011728 7018936.614367982 426.2723503604945
v 589526.7354684104 7018783.93172489 483.95668157763555
v 589413.3103314117 7019635.7462329995 418.55848284718417
v 589529.3624927511 7019813.174150004 475.01793982071126
v 588381.8905739697 7017901.302263462 526.0684909647125
v 588379.7064745717 7017612.958657961 585.7136823879498
v 588375.6340619182 7020962.335652241 537.5251886620831
v 588375.5981242163 7021192.0388983805 595.1097663282679
v 589621.376379745 7018629.093890123 536.6258740276337
v 589700.5799427796 7018469.961252195 584.067820497557
v 589622.3110433706 7019967.53106182 532.6175536461762
v 589698.5494085846 7020103.5026685335 590.5712833971357
v 586403.8791428754 7016375.000555801 693.5154024073082
v 586909.5987814054 7016050.148254267 822.5547398394039
v 586833.9342328741 7014885.85842249 738.1558924379401
v 587281.6803174419 7014564.1330917645 824.3373767128248
v 586793.6422848814 7017631.539505493 468.21596906167144
v 587374.392933279 7016926.3322494645 697.4225981474016
v 587561.5799708356 7014468.458367699 856.0279084891808
v 587952.6816709058 7016568.755728638 773.6110272471687
v 589167.3411944107 7012151.942722787 725.4165379877034
v 588410.7686787173 7015871.4092842145 804.7450488362726
v 588317.1572295772 7014610.052841479 818.031749642941
v 589315.0302211122 7012481.570448589 765.3315551456353
v 589739.3957379463 7013298.681793216 820.9848086442597
v 589353.4575618712 7016160.820446338 793.3385870514729
v 589733.3540110588 7015474.796335951 827.7059730339093
v 588375.3602280103 7017307.04393283 639.5905608957936
v 588412.4204562732 7016985.835245026 701.8140074122157
v 588284.7315101355 7021432.462327529 655.5594311482929
v 588745.9810208014 7021527.19713828 708.4778913620452
v 589766.280356038 7018306.955908372 629.4458390781565
v 589963.758508791 7018310.872912428 677.1903842712965
v 589762.3124974802 7020224.52239149 648.6349494703012
v 589959.8787085875 7020263.151061942 710.3221137916736
v 588923.9125904058 7016866.7441782905 740.6039457560368
v 589020.8443740408 7021589.279330138 742.6644011396857
v 589836.5577839296 7017538.877852458 742.9121460466679
v 590336.4177408372 7017275.116633085 819.7486647773582
v 589829.359661032 7021187.926040074 752.4496790321241
v 591981.935138794 7014415.159312603 732.5469020517806
v 591981.935329992 7014514.101241368 732.5409216640475
v 593235.3215533536 7014260.280043552 665.4586628968698
v 592854.8214887328 7013542.005923506 714.5994013828363
v 593235.3212215597 7014666.7025526045 665.5200052722289
v 592745.196325968 7014877.551099095 711.00197158901
v 591844.6299319629 7014239.32585597 764.68992100939
v 591557.3315980284 7013841.700213659 821.6276566493173
v 591844.6004763986 7014767.131329115 764.7864604531364
v 591557.2247330183 7015174.240458006 822.294118336349
v 592539.5111527732 7013045.8690026095 764.9055730410334
v 592244.8260661397 7012648.325544058 822.3922049218809
v 592736.7620304695 7015527.070961457 764.8312088715595
v 592736.751481278 7016130.6968375 821.9875217820596
v 590764.1044421262 7019149.637277585 732.303882752152
v 590764.1472061864 7019476.564018381 731.6058023387608
v 591262.2222726856 7018918.533064645 771.3393586941711
v 591282.9112832657 7018053.580677769 823.3393091250706
v 591262.3924811123 7020330.103703185 754.3658047009677
v 592026.8009041437 7019153.902814849 790.5714554327913
v 592108.3168436445 7018807.817408296 822.0218581878102
v 592296.9753404473 7020416.983690569 777.7106601248606
v 592889.600795211 7020632.289092139 822.9885917753039
v 587792.9278425229 7014468.362508415 855.7114988245635
v 590461.5952325359 7013255.641031798 855.4758819669787
v 590429.4581731339 7015643.066275776 865.435520609053
v 590495.6889799094 7016991.439993589 861.6452510730081
v 591181.5744054737 7013155.780279527 860.0624037080262
v 591181.6990659197 7015768.796961438 871.9282228930791
v 592081.4531324235 7012293.673659684 860.2115450588577
v 592742.3359922657 7016652.866004237 883.219019568868
v 593230.6210831046 7016820.732267809 911.5892355883025
v 591283.0308561262 7017186.004828834 871.6618274864467
v 592345.220739334 7017977.8618602995 883.7192511110485
v 593013.0539624165 7017851.075376788 933.4919729478446
v 592967.191296829 7020281.5822807485 879.0418354059074
v 593075.2605897434 7020128.021892131 936.2749559060303
v 593166.0005435909 7018275.125676977 993.8680787015562
v 593244.1690998161 7018468.309249052 1050.8714110750475
v 593166.1367379767 7019974.448180513 993.4331614345072
v 593244.2969019179 7019819.765719528 1050.5607280336449
v 589497.250039153 7023785.1939525055 662.2517097298551
v 589920.9061955097 7023327.441466678 704.2939456258342
v 589829.3603719937 7022126.116564782 750.8153085455348
v 590775.3435083178 7023695.150640039 722.9619033799901
v 590943.5132694824 7025191.180827769 713.1441448561202
v 591359.8397016384 7022952.078024103 761.6330266219694
v 591944.439118053 7023800.586364566 802.1247496637077
v 591753.000504114 7025577.93423407 773.763680125807
v 591964.0720347235 7025174.53306962 799.8443537166102
v 592375.8458040415 7022209.159105048 775.6121777564517
v 592810.9602104714 7022924.582585459 814.829587142531
v 592736.7411582249 7026354.89776274 792.4446443910605
v 592736.7320547625 7025161.338938079 811.2740232285167
v 592736.7410273887 7026394.0864711935 792.4449108064889
v 592736.7390697588 7026618.289887247 822.0069364284647
v 592736.7390796 7026977.336009358 879.1401018293752
v 592736.7390852083 7027226.190706221 936.2679583690376
v 592736.7391241142 7027411.682657237 993.3944092516003
v 592736.7391434528 7027557.419923459 1050.520297900055
v 597786.1749207961 7002430.869350666 389.96504725746723
v 599126.652062619 7002360.593691804 328.98295158355313
v 598605.9909737787 7002084.698920722 367.26057217375313
v 596177.2910543437 6997526.946199054 607.4593913537228
v 593733.0356170308 7002224.147898661 620.5466081110086
v 596177.24126622 6998054.241141434 606.8737524771587
v 596184.6123575418 7002153.551200988 555.8188701288068
v 595918.0318549712 7001752.578495314 612.1312320194877
v 597828.1417778995 6997741.346586374 507.9786847616892
v 598413.173169016 6997676.868180493 501.1195902917359
v 597592.4531415051 6997606.0685759 528.6710801988337
v 597008.7768672915 6997232.877124072 586.6577599624687
v 598315.0775515995 6997377.6732502375 520.9913670482612
v 598551.5012961195 6996508.230731169 592.4102112821404
v 597829.8931521929 6997739.326535404 508.0549498252933
v 597618.8500125287 7002133.442111086 427.3861600141103
v 597312.0544951052 7001682.303244375 494.26261160200534
v 598528.8334272157 6998694.509823848 501.20987516973037
v 598551.7338753012 7001215.88528301 423.4925176939159
v 598521.3446368298 7000445.410913849 472.6607265265327
v 597523.6741784924 6998694.411517265 543.5817186054818
v 596733.4430199359 6998883.369399169 598.9282549337785
v 597060.1303636933 7001198.084159549 557.1686225208955
v 596752.7732743613 7000556.721818488 596.1313806951644
v 597978.0155026237 6998933.193455457 521.8795332672025
v 598016.8199741611 7000235.843471929 516.8611461193468
v 596303.7315080721 7004790.287866456 268.59291895514065
v 596254.9563208737 7006094.515739324 197.42789075974952
v 596166.418704174 7004589.170925717 303.0273138398741
v 595947.444190591 7004312.802118744 350.0856177587728
v 595922.7693188703 7006096.294898142 238.0494896109579
v 595460.0812883289 7006099.079841029 299.0584158513205
v 596290.6355980508 7007451.812190246 268.6745340300776
v 596133.9328808432 7007710.123931114 310.82876271265945
v 595890.6053982847 7008020.483193177 372.1626338905368
v 597552.3595066334 7004679.284642973 189.28799229964864
v 597047.8850415105 7004397.839125504 241.5209710059882
v 597249.4343795396 7006093.51931062 137.72766115807258
v 596593.1130932476 7006093.835601984 172.07833764598251
v 598551.8892281943 7004351.526009309 182.62706602253127
v 598551.7201024741 7003598.92102237 243.46928468089266
v 597097.8228633512 7003748.721352662 302.78787003615884
v 597220.3592817086 7003084.658210107 368.3184558218144
v 598605.9997313562 7002887.835251864 304.4066801212338
v 598157.4649377619 7002653.783399549 349.3446049511819
v 597524.0676164681 7007618.195043642 191.06752690404096
v 597037.959685028 7007956.093571066 247.46121519797958
v 598551.5060483486 7008082.73674878 183.2463041649347
v 598551.3363040852 7008916.663316997 242.40700059429332
v 597097.3065333015 7008724.435316677 304.051650935386
v 597145.7822396782 7009289.258222452 354.3393870440082
v 597664.024509762 7010003.135178234 378.92183191522207
v 598464.749997276 7009500.509410681 296.9712254866117
v 597922.4873486533 7009644.533098731 339.86072939658504
v 598891.6645435967 7009943.275817273 318.8750385440368
v 598464.9062292875 7010351.059635452 357.19159643322484
v 594886.3313273464 7004822.411961921 445.1543368875182
v 594774.9907869787 7004573.744417934 455.63523472737404
v 594845.5487327322 7006100.700245685 405.87841968092533
v 594604.5104799089 7006096.180862588 470.2896342495312
v 595571.3215579608 7004184.802945371 392.8356212870265
v 595641.0483720063 7003524.7376601985 465.48981844289636
v 595065.6112842999 7006100.946485441 361.4518653232785
v 594576.2931539866 7004207.981838604 473.98071790542485
v 594082.4890684739 7003469.116157563 505.20979416726436
v 594247.9283183959 7006087.272709556 571.7647409395456
v 593878.2291800308 7006077.131138341 669.6309890395405
v 595677.0100678809 7002930.385405721 551.5467853045609
v 595190.4374461623 7002716.034582786 600.5176234889323
v 594858.2015917695 7007553.580316732 439.83850795050444
v 594748.4270149942 7007911.341122752 488.32568725463875
v 595546.6657008559 7008225.147864283 425.7201635658826
v 595727.1895877897 7009169.630992897 480.5796184134768
v 596267.5677951374 7009900.271305657 502.0781141763445
v 594577.9767075229 7008271.819639022 527.9941334889809
v 594432.1926938402 7008690.937239279 545.0156518092551
v 594806.7096546969 7010076.17846157 601.6498223162814
v 595273.8966759897 7009462.769182644 531.1934940984077
v 595013.0866233724 7009625.528610245 571.0479271254684
v 596002.0082997573 7010308.437974641 537.6151415681612
v 595655.712243867 7010980.074229204 585.8596812761742
v 596891.6800091522 7002875.171816988 421.8669982260827
v 596583.7916022259 7002652.012823916 479.09993712656427
v 596406.6549189807 7002535.155115671 510.8899122959413
v 596709.2752191997 7009454.309293971 419.8254480721611
v 596498.5759007521 7009597.921676555 462.973614965394
v 597436.537633679 7010372.337920805 422.0593911051584
v 597028.9305012873 7010646.038850465 477.6667609485374
v 598551.4011315865 7011317.275437076 417.5406773568195
v 598418.0109921166 7011903.419432863 474.7663174044002
v 597070.0939049005 7011611.58223021 526.1831590988227
v 596567.555939763 7011885.7652872335 579.3539634598183
v 597844.4796348922 7012057.537226631 508.3643608761446
v 600005.4911693651 7002325.966495903 319.6546523067673
v 600005.3231384429 7001569.22877369 358.7497077102269
v 600790.5353569456 7002417.088691676 332.5657572769341
v 601032.5711958691 7002043.526794041 359.3302372299139
v 599621.1687339753 6997633.476717059 501.52863823635266
v 600065.5441692625 6997166.78469401 529.4864593835525
v 600134.2000484538 6995906.411520402 601.2556215654618
v 601458.948093218 6997342.299900176 548.760209926284
v 600478.1396299435 6999937.325669888 445.5585679396157
v 600049.9394254885 6998864.729041824 480.52751339113155
v 599998.2561675098 7000506.898450439 421.7367644238959
v 599508.9770620096 7000178.569877032 454.4636873268954
v 600915.7056575611 6999937.321853952 445.6051788954974
v 601423.9431324287 6999354.555289607 475.42477432399585
v 601480.4098602479 7001233.134143663 409.0145495926369
v 601885.0596937165 7000483.708863017 455.920866915061
v 600590.2772005317 6997791.836394338 510.0911463820628
v 601458.9859840613 6998109.924174798 520.442003879492
v 602214.9807287396 6997663.652121894 563.1449365363794
v 602460.4258940091 6997160.183741102 593.246580798527
v 602320.5647074478 6999772.473626002 496.6939712409069
v 602268.0040366894 7002075.216803772 440.5177252683502
v 602470.0852411675 7001295.523607337 471.75591118485465
v 602503.83942191 6998959.069255643 537.3331763575487
v 603206.7076566222 6998912.409172682 589.4550603776747
v 603068.1655897496 7001319.842031307 530.1673370472224
v 603501.7769137287 7001319.905189054 574.3288193774573
v 603719.6995097019 6999694.743929907 612.5755903089462
v 603769.5016482122 7001319.926525067 603.5767483569838
v 599658.9305690055 7004572.863579186 185.07794506065193
v 600114.7422526842 7004046.6063951915 227.80275216109885
v 600117.5520705718 7006093.961297194 171.50100073647945
v 600680.5696882925 7006094.127169791 211.63551310868917
v 600886.4770633626 7004488.076659866 261.74155257254824
v 600994.3125479593 7006094.1433919715 241.10458650488664
v 600005.8177788912 7002915.890304063 287.9870934656924
v 601060.1958365391 7003697.98205145 302.38502515208995
v 601754.1202779034 7003881.736834548 361.3498690443688
v 601527.1334241055 7006094.178270655 297.70906526090573
v 601992.8556021604 7006094.201591333 350.51341615475667
v 599736.6384807404 7007752.195035245 183.95018329346044
v 600146.489979485 7008299.002256699 226.98962682215347
v 600926.0647466675 7007750.439298696 257.06877133170116
v 600005.6311679862 7009386.696128225 286.9963181583482
v 600005.4666327633 7009908.011515693 317.71993988010865
v 600005.414394587 7010581.398378459 359.66819524195125
v 601093.7207066062 7008520.4943900835 299.67855787410053
v 601728.7934739804 7008412.741326522 353.841073867578
v 600761.1723761129 7009717.05459449 334.3107337265905
v 600966.2466531941 7009982.552479797 363.327784941457
v 602198.3018167464 7004794.407477895 392.0403825374072
v 602241.5160044713 7006094.2103815405 380.1494096910536
v 602246.3944832918 7007570.684038 385.38860263447236
v 602042.9636795478 7003202.98943114 403.66578902592954
v 600005.3478774539 7011361.433967199 418.3004780398928
v 600005.2998258512 7011881.522406737 465.74650143014753
v 601984.438626932 7009162.193649064 406.76805416932797
v 601483.8531838936 7010310.586152494 419.42279808751965
v 601344.652353303 7011309.12794991 476.20305732911856
v 601793.7829876705 7011747.418953859 534.331521680066
v 602096.6238023654 7011997.408940425 569.7583538118541
v 602341.9631286378 7003882.119996581 424.1743166724459
v 602796.2894281975 7003707.178547783 480.87901678891046
v 602525.8583107888 7006094.212758566 415.92884200832117
v 602971.5086861295 7006094.220047386 474.2649280905973
v 603259.1432531233 7003707.190606995 538.9903066570952
v 603561.2577931562 7003707.19252963 578.0864461141414
v 603436.0203699654 7006247.301475882 537.3433652610403
v 603601.239508874 7005553.666245145 569.023046628254
v 603787.9034746215 7003707.188574521 606.6092084754206
v 603649.352400142 7007145.103141121 563.5450985886756
v 603800.9528798392 7006247.316810438 588.2249212543524
v 602368.7354172306 7008412.535550781 418.5415528742335
v 602793.4296910268 7008481.528155072 471.06368164950294
v 602215.455814462 7009744.9045344405 447.5745308958752
v 602364.6977625572 7010057.974806669 477.8988651179865
v 603335.8028505222 7008296.2430400895 534.0288557207011
v 603535.3368618452 7008968.369705528 573.8275260529653
v 602627.8105836859 7010553.941601585 531.7212164267223
v 602946.0665811718 7010936.807189096 583.5226869174445
v 603649.3448567004 7007376.900101781 563.5989139662811
v 603772.4084768668 7008296.197674422 589.7615377732405
v 603697.253999621 7009875.407357334 614.8363137262322
v 594558.37445315 6997525.875069612 723.411547099329
v 595911.3336015907 6997249.122924904 648.1917828260117
v 595537.8911714337 6996974.910659821 701.3019187274092
v 594120.3578636275 6997194.984889975 760.5259874549902
v 594190.3824412363 6996380.659151455 821.8131400147016
v 595644.0535369833 6996202.755786216 762.6185914322302
v 595660.3800121883 6995672.371904454 818.6722695170406
v 594174.9240043767 6998840.1626282055 744.6347824695175
v 594207.4836656556 7001670.888734534 669.750716621789
v 594243.1516292421 7000445.791232868 711.7129295161008
v 595932.142438091 6998883.485509741 661.3599244450833
v 595217.622802874 6998970.679844797 717.2150679167563
v 595618.1927198007 7001187.777481695 682.9291249745752
v 595243.0515204219 7000458.9205620615 711.5568234802057
v 594176.1193643286 6998839.393777831 758.9890784695268
v 594762.9847122041 7000184.940082623 741.9238670568476
v 594986.9510825428 6999790.635415905 746.3437010379697
v 594986.7864724579 7000184.908392734 741.3355802240043
v 597097.7613734606 6996524.712047546 648.498174194758
v 597097.8054280793 6996009.828262299 706.8194626181973
v 598551.6108050263 6995959.506827663 653.6915294692689
v 598544.9443016476 6995562.164445221 706.414170432711
v 597315.3715103839 6995510.807785606 773.5335269917294
v 597060.7306699577 6995376.117626431 796.5989065006595
v 597998.0681437196 6995431.469398293 765.5942707213364
v 596511.4271347191 6999645.941891107 638.7572223448911
v 596511.0834655311 7000265.407414151 634.2439486953338
v 594190.3894854833 6995824.636675042 880.0368685228982
v 595141.0722294557 6995484.024912696 879.0197750347677
v 594946.2639120832 6995369.303343133 910.3146722556271
v 594086.5148151998 7003520.1954564275 493.76860801587907
v 593582.5277734715 7006070.454449027 734.6679532390451
v 594983.7173055077 7002558.203333517 627.8410223389976
v 593862.4340015473 7008404.186307511 628.0345709089911
v 593668.2126697362 7009215.377419238 715.2804949659627
v 594628.2674588952 7010502.542008821 632.0762442352263
v 594081.1806881417 7011193.026336406 688.5192600687012
v 595318.5092672118 7011697.66620237 655.1254052596745
v 595039.599284655 7011970.365765755 689.1687243482611
v 593523.3072146341 7009587.797115973 744.264487344679
v 593522.6882066919 7010420.021355076 738.2146002497002
v 602967.2675985773 6996398.010618467 645.6359679054614
v 603411.6002360049 6995753.374273415 691.6128753811797
v 603707.9499777573 6995152.950886491 730.0328744040819
v 603742.8431467081 6997344.8035804685 669.2486242720562
v 603923.3610555963 6996547.705961128 708.5842541031008
v 603900.6790761239 6994683.660789182 764.3490242886099
v 604340.6670989338 6994195.488870109 821.8073269818146
v 604610.7554956505 6996750.388285298 767.7391923085137
v 604888.3698314993 6996091.21803435 810.7436412754738
v 603491.860062354 6998103.3358456 630.8371105907238
v 603898.9677866992 6998912.494637505 647.5973862445719
v 604437.4423368596 6998932.794255735 704.6458247672272
v 604139.6733983462 7001319.948952041 647.4648660587458
v 604610.5630593786 7001319.9701634245 705.3015613204756
v 604900.3064821498 6998932.815404564 754.0232921792825
v 604967.1576431299 7001319.979390144 750.7002900740679
v 604756.042235263 6993714.075337467 878.2488167702155
v 604974.9063178421 6993197.753907012 917.8146005349704
v 604158.6233919361 7003707.176831017 653.3271661000803
v 604591.04632523 7003707.166721497 710.1445279648165
v 604236.9816749628 7006094.250673694 648.3541951777077
v 604645.3798340592 7006094.25465819 706.0717491732048
v 604947.2535597798 7003707.16054504 759.069622285555
v 604968.8578398806 7006094.2577554975 753.5789742944687
v 603336.351499112 7011504.985153981 648.4813345304398
v 603550.1172723301 7011914.419288961 686.6637274564472
v 604172.5666307363 7008481.43754605 645.6556990321177
v 604596.9761529238 7008481.425401662 703.5371904866292
v 603841.0947746658 7010311.392719048 648.7027725159373
v 604048.4830709897 7011018.793702935 701.6157116533262
v 604949.1464219937 7008481.418956014 753.0307326908304
v 604680.5452121105 7010684.992831927 764.8292213255621
v 604944.3094397847 7011512.369475985 820.5104146113551
v 605083.8289252656 7012033.034232087 851.5606878231074
v 596299.2456514362 7012131.4619750315 617.9900562853736
v 598813.6168098444 7012218.980664975 494.7995359262066
v 597536.7240165119 7012301.326208023 545.604643932895
v 597070.3300025807 7012501.416287405 593.7721415854783
v 598418.0343604893 7012519.973353423 528.3741787777557
v 598551.4940550557 7013233.607104188 592.2924886754658
v 600005.2673864941 7012213.117173711 494.81229687142894
v 600782.8677232217 7012106.4378526285 504.97659190374225
v 600005.2489303211 7012715.253119343 534.3903109199847
v 600005.2224713982 7013344.041678581 592.0489662510929
v 601066.8380157002 7012322.502733965 535.184937651871
v 601550.9572697476 7012692.6108072195 587.7146945730146
v 602355.1825293323 7012302.912185825 607.644997192659
v 593537.9113220982 7014260.297239674 665.507566855179
v 594080.8661063125 7013310.603422565 711.1040565011383
v 593537.9112726673 7014666.694762162 665.542382400547
v 593662.707594122 7014935.927629071 707.5506015598205
v 596045.4641512039 7012359.606018245 649.6703267872323
v 595572.1057513972 7012741.103622999 705.5805070414409
v 594579.0339730065 7013949.669942951 764.8951965933882
v 594825.5292486851 7014349.782880341 827.4511344293094
v 593852.3039717511 7015209.180520835 764.5989178018183
v 594356.3260048773 7015090.231566743 830.9999713501307
v 595644.0344876515 7013612.695798311 765.2728818763655
v 595407.7762425625 7014257.490640159 832.8669167482194
v 594929.5667923327 7014455.882757164 850.0777507648994
v 593511.0860520613 7021571.567368481 843.3597863013706
v 597097.7238781423 7013101.457755694 648.4560894580001
v 597097.7836848958 7013620.634965064 707.2527349874986
v 598551.4872446196 7013703.702058841 649.9501583490738
v 598551.4828386543 7014080.143447804 707.3717367714578
v 597097.7899388399 7014007.7620474845 764.7148150189196
v 597075.2649454472 7014304.923542748 819.4665876091697
v 597544.8138997993 7014587.388605705 836.8965288128861
v 598469.0609115026 7014355.237842363 760.7171769774932
v 597929.5567781107 7014426.05406928 798.7687152362627
v 598898.6819440473 7014630.198955027 777.6424099202525
v 598469.0767326638 7014855.375718691 819.7984847290235
v 594924.2056051422 7014454.3849432105 850.5765575399496
v 594338.6195077762 7015470.87118023 873.1339607502284
v 594076.2464618891 7016233.706427669 932.7431104737443
v 595653.1805369484 7014407.963610071 861.7007461335807
v 595505.970778309 7014623.870423116 882.5202271281836
v 595644.0291829379 7015127.417249705 936.77862680103
v 594321.1815088808 7016303.528645491 993.2483255680754
v 594431.7024213128 7016465.652399402 1050.3918587993298
v 595644.0396611234 7015573.4694018215 993.7169895393831
v 595644.0440104712 7015923.954469312 1050.833477898785
v 593515.5206881309 7016936.104147439 949.6981996894531
v 593617.5962426538 7021475.140354255 879.1322122035338
v 593769.7764898225 7021321.570922831 936.2568346601049
v 593594.3097216438 7017081.554319857 993.3901227408676
v 593704.8255292751 7017274.705163957 1050.5526234654435
v 593898.4881461115 7021167.99888612 993.3824692044539
v 594009.231597886 7021013.318690814 1050.5091765729044
v 596575.687141774 7014390.943111547 863.9759270190741
v 597075.2553674539 7014747.3278353205 881.6653501110562
v 597097.7754724267 7015217.067807159 936.567201712298
v 598551.4944909819 7015419.584362121 879.430266619615
v 598551.4973449792 7015831.907591292 936.5458488406344
v 597097.779529972 7015631.785809032 993.7561812981007
v 597097.792648777 7015969.1340726605 1050.8567241802907
v 598551.5025021662 7016173.735182656 993.6734978829315
v 598677.5215448871 7016530.727606268 1055.073794149835
v 599246.0575222776 7016872.487471264 1076.5788840075484
v 594073.5654656758 7023037.873767735 842.9586661200112
v 594190.414770916 7026304.821939138 789.036785198495
v 594190.4035563256 7025111.240772247 817.9752510334459
v 594925.5842993954 7023989.417445998 849.1356029446545
v 594931.9672556408 7026295.741681705 788.3651191067124
v 594974.5196845231 7025376.504452991 826.7933594034845
v 594190.4140715052 7026405.3552215155 789.0348371519209
v 594190.4143808661 7026570.3471166575 822.0001673975241
v 594931.9673071115 7026405.9043623675 788.3654966721515
v 594982.6118039666 7026467.789008762 822.0136443550289
v 594344.4421794909 7022705.069784559 879.0346576033625
v 594496.6163185977 7022523.894983274 936.1964383143692
v 595013.3050641961 7023898.64570347 879.1364225975083
v 595181.1924906713 7023717.476019728 936.2548590096771
v 595167.7887235329 7025191.242595789 879.0763563492543
v 595430.1696905782 7025191.243823672 936.2070650753419
v 594625.3255810427 7022325.753554274 993.346535017871
v 594736.0678963632 7022107.953522456 1050.4893813515237
v 595350.3727107794 7023519.33504515 993.3735255929589
v 595520.3405370932 7023301.5289665405 1050.4977860286597
v 595699.6046272184 7025191.244455315 993.334264154148
v 595975.9992275416 7025191.245700802 1050.459992612479
v 594190.4159910526 7026819.975786697 879.1304474139431
v 594190.4165959227 7027006.648317612 936.25771482055
v 595071.7601131696 7026560.351534076 879.1382982086986
v 595166.24744149 7026635.703479158 936.2626810728234
v 594190.4169181613 7027154.216075503 993.3839294057411
v 594190.4171578673 7027275.709115627 1050.50969190885
v 595266.4984398744 7026698.849098389 993.3868057607069
v 595372.925510996 7026753.056761455 1050.5106099917139
v 600005.2025409075 7013846.498018069 649.5202378102953
v 600029.836184533 7014287.759919529 711.3411830297098
v 600530.8144787907 7014481.201061287 734.1678746766256
v 601458.9868753386 7013503.883927723 648.4413917038207
v 601364.5640000589 7014148.417571735 710.3751365708337
v 600816.9687185375 7014481.193945507 734.249333329607
v 599561.6859701427 7014431.900174957 739.448286995219
v 600029.8161906033 7014749.433899187 760.7490450982461
v 600005.1679655843 7015433.472016676 821.7354028515886
v 601786.122087212 7014364.656661115 744.7159291675559
v 601364.4853222172 7014749.9877834385 763.7293281954148
v 601458.8679105504 7015509.120533286 821.2409355112403
v 602609.3875012196 7012619.329558272 649.0130250959652
v 603004.6619211145 7012941.366543589 702.7930675878856
v 603751.2574651793 7012313.990004536 724.7103591189458
v 602882.676596921 7013947.653815928 762.0234950449359
v 603347.0135970085 7014241.438034729 807.7362639874449
v 602377.8549716575 7014631.078824214 783.2697448908953
v 602882.5195474284 7014897.270524914 824.0079896017975
v 603944.7785202734 7012692.0048911 763.7777564421855
v 604136.8178171249 7013369.850033603 821.5643361386057
v 603697.3160383509 7014556.157658691 846.2351853681129
v 600005.1628408101 7015942.276012852 878.8952925522425
v 600005.158527439 7016356.435734142 936.0470364130869
v 601458.859812675 7016144.567747956 878.5196916177377
v 601411.5730548172 7016659.575889267 938.095022951366
v 599994.4209616297 7016674.081359877 989.3213236740967
v 599502.7175162027 7016761.078887873 1038.4575820030657
v 600895.4899783303 7016816.593013224 967.9915454156279
v 601864.6174925998 7016970.495084151 959.2132970522151
v 600471.8509618565 7017163.480883073 1006.2068879340827
v 599994.4650177766 7017414.212544516 1055.034147542995
v 601411.573744417 7017409.020501303 989.4976712790964
v 601458.841576925 7018459.7755388655 1050.1776531741057
v 602912.5895804993 7015743.11782761 878.075907676438
v 602975.8507271484 7016562.814567872 937.9976034644212
v 604730.5456704473 7013331.25960294 871.5359096555774
v 604924.330612581 7014177.20203421 919.7486864152189
v 603919.6965224481 7014896.351303176 878.8508252814381
v 604410.4423900963 7015352.579713297 936.3256127426189
v 603502.5786430021 7016811.474959407 966.7544659075468
v 604482.0458215574 7016467.992540406 987.8845361462251
v 605043.7205420921 7016797.503178042 1023.7559688406616
v 602533.45329796 7016970.497090874 959.1860474792538
v 602975.8254213 7017454.915694322 988.6335771563722
v 602912.5452994186 7018607.363625393 1050.3836216162854
v 604074.6060387968 7017239.9790952625 1004.5315244901144
v 604482.0050053587 7017922.532149185 1045.1254190585796
v 603545.858046347 7028728.336933888 1010.3146022367623
v 603397.216917212 7028648.349747598 1050.4832747028668
v 603545.8580949196 7028797.18398368 1010.3167740627634
v 603397.2176158397 7028839.794963292 1050.502630511755
v 603681.5202951888 7028728.338096237 1010.3196369648759
v 603758.252028337 7028648.35458596 1050.5101309890929
v 603681.5204395081 7028797.184228313 1010.3186975163017
v 603758.2530287568 7028839.7920315275 1050.5009072132991
f 14 13 10
f 15 14 11
f 16 15 12
f 22 2 21
f 27 25 20
f 28 26 27
f 29 16 17
f 30 29 18
f 35 31 27
f 41 39 40
f 44 43 8
f 46 45 44
f 48 47 41
f 49 48 42
f 59 57 55
f 63 61 62
f 67 66 65
f 75 73 74
f 77 76 28
f 80 78 75
f 81 79 80
f 83 82 34
f 87 37 85
f 88 87 86
f 92 46 91
f 96 50 92
f 102 98 101
f 105 104 81
f 120 119 118
f 123 120 121
f 128 127 126
f 135 128 133
f 136 135 134
f 143 136 141
f 144 143 142
f 150 149 146
f 156 153 89
f 157 156 90
f 166 144 164
f 167 166 165
f 168 161 154
f 171 170 159
f 178 176 177
f 181 179 174
f 182 180 181
f 183 102 176
f 184 103 183
f 191 188 189
f 195 194 193
f 197 157 106
f 198 159 197
f 199 171 198
f 201 200 182
f 202 108 184
f 207 206 204
f 208 195 206
f 209 208 207
f 212 209 210
f 213 212 211
f 221 218 219
f 222 221 220
f 224 223 195
f 253 243 247
f 254 244 253
f 256 254 255
f 257 245 250
f 258 257 252
f 263 261 260
f 264 262 263
f 266 263 265
f 267 264 266
f 271 269 270
f 277 235 276
f 279 271 278
f 288 286 287
f 292 290 291
f 295 293 264
f 298 296 292
f 299 297 298
f 301 240 300
f 303 292 302
f 304 295 267
f 307 298 303
f 308 299 307
f 312 310 306
f 313 311 312
f 314 248 275
f 315 249 314
f 316 255 315
f 319 317 284
f 320 318 319
f 337 335 336
f 341 340 339
f 342 335 331
f 350 349 345
f 351 348 349
f 352 351 350
f 358 357 356
f 363 362 329
f 364 360 362
f 365 364 363
f 367 366 358
f 372 368 364
f 373 372 365
f 375 374 373
f 379 363 340
f 383 375 382
f 388 387 348
f 389 377 387
f 390 389 388
f 391 388 351
f 392 391 352
f 393 390 391
f 394 393 392
f 398 378 389
f 399 398 390
f 401 400 399
f 402 399 393
f 404 401 402
f 405 404 403
f 407 406 397
f 419 410 238
f 420 411 419
f 422 420 421
f 423 416 412
f 424 418 423
f 426 425 422
f 435 434 256
f 439 297 417
f 440 439 299
f 441 421 301
f 442 440 308
f 444 442 309
f 445 443 444
f 449 448 445
f 457 454 455
f 458 457 456
f 459 350 450
f 461 460 454
f 462 354 460
f 463 462 461
f 464 461 457
f 465 463 464
f 468 395 462
f 469 468 463
f 470 397 468
f 471 470 469
f 472 469 465
f 473 471 472
f 476 407 470
f 477 476 471
f 478 408 476
f 479 478 477
f 480 477 473
f 481 479 480
f 487 324 486
f 488 325 485
f 494 491 385
f 495 494 386
f 500 499 498
f 501 446 484
f 502 447 501
f 505 500 503
f 506 505 504
f 521 519 520
f 523 506 522
f 526 509 525
f 535 532 528
f 536 535 529
f 540 539 517
f 558 557 554
f 559 549 533
f 560 559 534
f 563 554 561
f 564 563 562
f 565 560 537
f 566 565 538
f 569 564 567
f 570 569 568
f 573 558 563
f 574 573 564
f 577 574 569
f 578 577 570
f 586 585 581
f 589 584 588
f 591 496 474
f 592 591 475
f 597 596 595
f 598 593 481
f 599 598 482
f 610 606 609
f 611 607 608
f 615 599 483
f 617 600 615
f 618 617 616
f 623 622 619
f 626 625 621
f 630 628 629
f 634 633 632
f 1 21 2
f 7 8 43
f 9 10 13
f 10 11 14
f 11 12 15
f 12 17 16
f 17 18 29
f 19 20 25
f 20 31 27
f 25 27 26
f 26 28 76
f 33 34 82
f 36 85 37
f 38 40 39
f 39 41 47
f 41 42 48
f 43 44 45
f 44 91 46
f 46 92 50
f 53 55 57
f 60 62 61
f 64 65 66
f 72 74 73
f 73 75 78
f 78 80 79
f 79 81 104
f 85 86 87
f 88 89 153
f 89 90 156
f 90 106 157
f 97 101 98
f 98 176 102
f 102 183 103
f 103 184 108
f 117 118 119
f 118 121 120
f 125 126 127
f 126 133 128
f 133 134 135
f 134 141 136
f 141 142 143
f 142 164 144
f 145 146 149
f 152 154 161
f 157 197 159
f 158 159 170
f 159 198 171
f 164 165 166
f 173 174 179
f 175 177 176
f 179 181 180
f 180 182 200
f 187 189 188
f 192 193 194
f 193 206 195
f 194 195 223
f 203 204 206
f 206 207 208
f 207 210 209
f 210 211 212
f 217 219 218
f 219 220 221
f 233 275 248
f 234 276 235
f 236 238 410
f 237 417 297
f 239 300 240
f 240 301 421
f 241 243 247
f 242 250 245
f 243 253 244
f 248 314 249
f 249 315 255
f 250 252 257
f 253 255 254
f 254 256 434
f 259 260 261
f 260 265 263
f 261 263 262
f 262 264 293
f 263 266 264
f 264 267 295
f 268 270 269
f 270 278 271
f 283 284 317
f 285 287 286
f 289 291 290
f 290 292 296
f 291 302 292
f 292 303 298
f 296 298 297
f 297 439 299
f 298 307 299
f 299 308 440
f 305 306 310
f 308 309 442
f 310 312 311
f 313 484 446
f 317 319 318
f 322 485 325
f 323 486 324
f 328 329 362
f 329 340 363
f 330 331 335
f 334 336 335
f 338 339 340
f 344 345 349
f 345 450 350
f 346 349 348
f 347 348 387
f 348 351 388
f 349 350 351
f 351 352 391
f 353 460 354
f 354 462 395
f 355 356 357
f 357 358 366
f 359 362 360
f 360 364 368
f 362 363 364
f 364 365 372
f 372 373 374
f 373 382 375
f 376 387 377
f 377 389 378
f 384 385 491
f 385 386 494
f 387 388 389
f 388 391 390
f 389 390 398
f 390 393 399
f 391 392 393
f 395 468 397
f 396 397 406
f 397 470 407
f 398 399 400
f 399 402 401
f 402 403 404
f 405 474 496
f 407 476 408
f 409 416 412
f 410 419 411
f 416 423 418
f 419 421 420
f 420 422 425
f 442 444 443
f 443 445 448
f 446 501 447
f 452 455 454
f 453 454 460
f 454 457 461
f 455 456 457
f 460 461 462
f 461 464 463
f 462 463 468
f 463 465 469
f 468 469 470
f 469 472 471
f 470 471 476
f 471 473 477
f 474 475 591
f 476 477 478
f 477 480 479
f 479 481 593
f 481 482 598
f 482 483 599
f 497 498 499
f 498 503 500
f 503 504 505
f 504 522 506
f 508 525 509
f 510 533 549
f 516 517 539
f 518 520 519
f 524 528 532
f 528 529 535
f 533 534 559
f 534 537 560
f 537 538 565
f 552 561 554
f 553 554 557
f 554 563 558
f 561 562 563
f 562 567 564
f 563 564 573
f 564 569 574
f 567 568 569
f 569 570 577
f 580 581 585
f 583 588 584
f 594 595 596
f 599 615 600
f 604 608 607
f 605 609 606
f 614 619 622
f 615 616 617
f 620 621 625
f 627 629 628
f 631 632 633
f 2 4 3
f 4 6 5
f 6 8 7
f 22 25 26
f 23 27 20
f 24 28 27
f 32 31 35
f 33 35 36
f 25 40 38
f 27 39 41
f 42 45 46
f 35 47 48
f 36 48 49
f 51 54 4
f 52 55 54
f 56 59 55
f 54 62 6
f 55 63 62
f 61 65 64
f 62 66 8
f 57 68 61
f 58 69 68
f 68 70 65
f 69 71 70
f 72 26 76
f 74 77 28
f 83 37 87
f 84 87 88
f 85 49 93
f 86 93 94
f 93 50 96
f 94 96 97
f 89 95 99
f 90 99 100
f 99 98 102
f 100 102 103
f 106 100 107
f 107 103 108
f 110 118 117
f 111 121 118
f 112 122 121
f 122 126 125
f 124 127 128
f 113 129 122
f 114 130 129
f 129 133 126
f 130 134 133
f 131 128 135
f 132 135 136
f 115 137 130
f 116 138 137
f 137 141 134
f 138 142 141
f 139 136 143
f 140 143 144
f 147 154 152
f 148 155 154
f 155 159 158
f 149 160 138
f 150 161 160
f 160 164 142
f 161 165 164
f 162 144 166
f 163 166 167
f 168 170 165
f 169 167 172
f 179 183 176
f 180 184 183
f 181 178 185
f 182 185 186
f 170 189 187
f 171 190 189
f 172 188 191
f 190 193 192
f 151 196 155
f 200 202 184
f 201 186 203
f 199 205 190
f 205 206 193
f 216 219 217
f 220 223 224
f 222 226 225
f 243 245 242
f 244 246 245
f 248 251 235
f 249 252 251
f 240 256 255
f 255 258 252
f 269 273 272
f 261 274 269
f 262 275 274
f 274 276 273
f 275 277 276
f 279 280 281
f 266 279 282
f 267 282 283
f 282 281 285
f 283 285 286
f 290 294 293
f 296 300 294
f 297 301 300
f 303 304 305
f 307 305 310
f 308 310 311
f 293 314 275
f 294 315 314
f 300 316 315
f 304 283 317
f 305 317 318
f 319 288 321
f 320 321 322
f 312 320 323
f 313 323 324
f 323 322 325
f 235 327 326
f 327 329 328
f 245 331 330
f 246 332 331
f 251 336 327
f 252 337 336
f 335 339 338
f 336 340 329
f 342 343 339
f 341 348 347
f 343 349 346
f 273 356 355
f 276 361 356
f 361 362 359
f 281 366 367
f 285 367 369
f 288 370 371
f 369 368 372
f 371 374 375
f 321 371 380
f 322 380 381
f 380 375 383
f 381 383 384
f 379 387 376
f 394 397 396
f 382 378 398
f 384 400 401
f 385 401 404
f 386 404 405
f 403 406 407
f 412 414 411
f 413 415 414
f 66 417 237
f 67 418 417
f 418 422 421
f 70 423 416
f 423 420 425
f 424 426 422
f 410 427 244
f 411 428 427
f 427 429 246
f 428 430 429
f 414 431 428
f 415 432 431
f 431 433 430
f 419 254 434
f 421 435 256
f 436 437 415
f 91 297 439
f 439 441 301
f 97 442 443
f 444 313 446
f 445 446 447
f 101 443 448
f 102 449 445
f 451 454 453
f 459 460 353
f 474 408 478
f 475 478 479
f 487 488 489
f 488 490 492
f 489 492 493
f 492 491 494
f 493 494 495
f 176 498 497
f 178 499 500
f 185 500 505
f 186 505 506
f 503 502 507
f 504 507 508
f 501 487 511
f 502 511 512
f 511 489 513
f 512 513 514
f 507 512 515
f 508 515 516
f 515 514 518
f 516 518 519
f 203 506 523
f 204 523 524
f 522 508 525
f 523 509 526
f 524 526 527
f 528 527 530
f 529 530 531
f 208 533 510
f 209 534 533
f 210 532 535
f 211 535 536
f 212 537 534
f 213 538 537
f 525 516 539
f 527 540 541
f 540 521 542
f 541 542 543
f 530 541 544
f 531 544 545
f 544 543 546
f 545 546 547
f 226 551 550
f 551 554 553
f 228 555 556
f 556 557 558
f 559 561 552
f 560 562 561
f 565 567 562
f 566 568 567
f 229 556 571
f 230 571 572
f 571 558 573
f 572 573 574
f 231 572 575
f 232 575 576
f 575 574 577
f 576 577 578
f 513 493 579
f 514 579 580
f 579 495 582
f 580 582 583
f 518 580 585
f 521 586 587
f 586 584 589
f 587 589 590
f 582 496 591
f 583 591 592
f 588 592 594
f 590 596 597
f 594 593 598
f 595 598 599
f 542 587 601
f 543 601 602
f 601 590 603
f 602 603 604
f 546 602 605
f 547 605 606
f 605 604 607
f 610 611 612
f 603 597 613
f 604 613 614
f 613 600 617
f 614 617 618
f 619 618 620
f 611 622 623
f 612 623 624
f 624 625 626
f 628 632 631
f 630 633 634
f 3 1 2
f 4 2 51
f 5 3 4
f 6 4 54
f 7 5 6
f 8 6 62
f 237 8 66
f 20 18 23
f 38 19 25
f 39 20 27
f 25 22 21
f 26 72 22
f 27 23 24
f 28 24 74
f 31 32 30
f 47 35 31
f 35 33 32
f 37 83 34
f 48 36 35
f 49 85 36
f 45 42 41
f 297 91 44
f 50 93 49
f 54 51 52
f 55 52 56
f 61 53 57
f 62 54 55
f 68 57 58
f 64 60 61
f 65 61 68
f 416 65 70
f 417 66 67
f 70 68 69
f 87 84 83
f 93 86 85
f 95 89 88
f 99 90 89
f 100 106 90
f 96 94 93
f 98 99 95
f 442 97 96
f 443 101 97
f 445 102 98
f 102 100 99
f 103 107 100
f 117 109 110
f 118 110 111
f 121 111 112
f 122 112 113
f 129 113 114
f 130 114 115
f 137 115 116
f 138 116 149
f 125 121 122
f 126 122 129
f 127 124 123
f 128 131 124
f 133 129 130
f 134 130 137
f 135 132 131
f 136 139 132
f 141 137 138
f 142 138 160
f 143 140 139
f 144 162 140
f 152 146 147
f 154 147 148
f 155 148 151
f 160 149 150
f 158 154 155
f 164 160 161
f 165 161 168
f 166 163 162
f 167 169 163
f 187 165 170
f 188 172 167
f 189 170 171
f 190 171 199
f 176 173 179
f 178 181 174
f 497 175 176
f 499 178 177
f 500 185 178
f 183 179 180
f 184 180 200
f 185 182 181
f 186 201 182
f 505 186 185
f 506 203 186
f 192 189 190
f 193 190 205
f 510 195 208
f 523 204 203
f 532 210 207
f 533 208 209
f 534 209 212
f 535 211 210
f 537 212 213
f 217 215 216
f 223 220 219
f 225 221 222
f 550 225 226
f 555 228 227
f 556 229 228
f 571 230 229
f 572 231 230
f 575 232 231
f 235 233 248
f 326 234 235
f 327 235 251
f 244 236 410
f 254 419 238
f 255 239 240
f 256 240 421
f 242 241 243
f 330 242 245
f 245 243 244
f 246 244 427
f 331 245 246
f 332 246 429
f 251 248 249
f 252 249 255
f 336 251 252
f 269 259 261
f 274 261 262
f 275 262 293
f 279 266 265
f 282 267 266
f 283 304 267
f 272 268 269
f 273 269 274
f 355 272 273
f 356 273 276
f 276 274 275
f 280 279 278
f 281 282 279
f 366 281 280
f 367 285 281
f 285 283 282
f 288 319 284
f 370 288 287
f 371 321 288
f 293 289 290
f 294 290 296
f 314 293 294
f 315 294 300
f 300 296 297
f 301 439 297
f 304 303 302
f 305 307 303
f 317 305 304
f 320 312 306
f 310 308 307
f 313 444 309
f 323 313 312
f 321 320 319
f 322 323 320
f 380 322 321
f 328 326 327
f 329 327 336
f 333 331 332
f 338 334 335
f 339 335 342
f 346 339 343
f 347 340 341
f 353 350 459
f 359 356 361
f 376 363 379
f 368 369 367
f 374 371 370
f 375 380 371
f 378 382 373
f 383 381 380
f 400 384 383
f 401 385 384
f 404 386 385
f 396 393 394
f 406 403 402
f 408 474 405
f 411 409 412
f 427 410 411
f 428 411 414
f 414 412 413
f 415 413 436
f 431 414 415
f 420 416 423
f 421 417 418
f 422 418 424
f 429 427 428
f 430 428 431
f 433 431 432
f 446 445 444
f 453 450 451
f 478 475 474
f 487 501 484
f 490 488 485
f 488 487 486
f 489 511 487
f 492 489 488
f 493 513 489
f 491 492 490
f 494 493 492
f 495 579 493
f 496 582 495
f 502 503 498
f 511 502 501
f 512 507 502
f 507 504 503
f 508 522 504
f 509 523 506
f 515 508 507
f 516 525 508
f 513 512 511
f 514 515 512
f 579 514 513
f 580 518 514
f 518 516 515
f 521 540 517
f 586 521 520
f 587 542 521
f 526 524 523
f 527 528 524
f 540 527 526
f 541 530 527
f 530 529 528
f 544 531 530
f 542 541 540
f 543 544 541
f 601 543 542
f 602 546 543
f 546 545 544
f 605 547 546
f 552 549 559
f 553 550 551
f 557 556 555
f 558 571 556
f 561 559 560
f 562 560 565
f 567 565 566
f 573 572 571
f 574 575 572
f 577 576 575
f 582 580 579
f 584 586 581
f 591 583 582
f 592 588 583
f 589 587 586
f 590 601 587
f 596 590 589
f 597 603 590
f 593 594 592
f 598 595 594
f 600 613 597
f 603 602 601
f 604 605 602
f 613 604 603
f 622 611 608
f 611 610 609
f 623 612 611
f 617 614 613
f 618 619 614
f 625 624 623
f 631 627 628
f 633 630 629
f 21 3 25
f 30 20 31
f 34 36 37
f 20 38 39
f 25 5 40
f 40 7 43
f 41 43 45
f 31 39 47
f 35 41 48
f 49 46 50
f 56 57 59
f 55 61 63
f 62 64 66
f 74 76 77
f 88 94 95
f 95 97 98
f 123 125 127
f 155 157 159
f 150 152 161
f 168 158 170
f 174 176 178
f 167 187 188
f 191 192 194
f 197 107 200
f 198 200 201
f 200 108 202
f 199 201 205
f 205 203 206
f 216 191 219
f 219 194 223
f 222 224 226
f 247 242 250
f 238 244 254
f 253 245 257
f 255 257 258
f 260 269 271
f 275 235 277
f 265 271 279
f 284 286 288
f 291 293 295
f 44 237 297
f 302 295 304
f 309 311 313
f 300 255 316
f 306 318 320
f 250 330 335
f 252 335 337
f 336 338 340
f 342 333 343
f 341 346 348
f 343 344 349
f 352 353 354
f 358 359 360
f 276 326 361
f 361 328 362
f 367 360 368
f 287 369 370
f 370 372 374
f 365 376 377
f 373 377 378
f 379 347 387
f 392 354 395
f 394 395 397
f 383 398 400
f 402 396 406
f 405 407 408
f 67 416 418
f 416 411 420
f 70 412 423
f 424 425 426
f 421 434 435
f 92 439 440
f 439 421 441
f 96 440 442
f 102 448 449
f 451 452 454
f 459 453 460
f 484 324 487
f 486 325 488
f 485 381 490
f 490 384 491
f 495 405 496
f 176 445 498
f 177 497 499
f 498 447 502
f 506 509 508
f 517 519 521
f 207 532 524
f 526 539 540
f 224 510 549
f 226 549 551
f 551 552 554
f 227 550 555
f 555 553 557
f 581 583 584
f 520 585 586
f 592 479 593
f 589 594 596
f 597 599 600
f 548 606 610
f 609 607 611
f 608 614 622
f 623 620 625
f 629 631 633
f 3 21 1
f 5 25 3
f 7 40 5
f 237 44 8
f 20 30 18
f 38 20 19
f 39 31 20
f 41 35 27
f 36 34 33
f 43 41 40
f 46 49 42
f 61 55 53
f 64 62 60
f 416 67 65
f 76 74 72
f 94 88 86
f 439 92 91
f 440 96 92
f 97 95 94
f 445 176 98
f 448 102 101
f 107 197 106
f 108 200 107
f 125 123 121
f 152 150 146
f 158 168 154
f 187 167 165
f 191 216 172
f 176 174 173
f 497 177 175
f 192 191 189
f 194 219 191
f 510 224 195
f 200 198 197
f 201 199 198
f 203 205 201
f 524 207 204
f 224 222 220
f 549 226 224
f 550 227 225
f 235 275 233
f 326 276 234
f 244 238 236
f 255 300 239
f 242 241 247
f 330 250 242
f 245 253 243
f 335 252 250
f 257 255 253
f 269 260 259
f 271 265 260
f 286 284 283
f 369 287 285
f 293 291 289
f 295 302 291
f 318 306 305
f 311 309 308
f 324 484 313
f 381 485 322
f 325 486 323
f 328 361 326
f 333 342 331
f 344 343 333
f 338 336 334
f 346 341 339
f 347 379 340
f 353 352 350
f 354 392 352
f 359 358 356
f 360 367 358
f 376 365 363
f 377 373 365
f 372 370 369
f 384 490 381
f 398 383 382
f 405 495 386
f 395 394 392
f 396 402 393
f 407 405 403
f 411 416 409
f 421 439 417
f 434 421 419
f 425 424 423
f 447 498 445
f 453 459 450
f 479 592 475
f 508 506 504
f 519 517 516
f 585 520 518
f 539 526 525
f 606 548 547
f 552 551 549
f 553 555 550
f 583 581 580
f 594 589 588
f 599 597 595
f 614 608 604
f 607 609 605
f 620 623 619
f 631 629 627
