# encaixante_rio_bonito - exportado do GemPy
v 587704.4139046991 7000547.552284877 205.8836200056329
v 587801.4844879698 7001333.851424685 250.79234087217037
v 589316.0493876077 6997950.92872177 193.661312726321
v 589439.4348320869 6998084.96838856 250.87229887485773
v 588158.8482529813 7001319.857155107 307.80508776681904
v 588724.1076866199 7001412.611127957 367.5054824056705
v 589583.3566961696 6998254.338314517 308.13955418159554
v 589907.4261277505 6998337.210308201 369.69991130928076
v 589167.0969448498 7002270.291709339 387.32121473174493
v 592072.0782948872 6995423.695285261 193.60110154387735
v 592172.0731708742 6995546.2881502835 250.4838601472884
v 592281.8926968161 6995696.168672433 307.03397813330037
v 592403.5233325245 6995884.545501929 363.1425799169424
v 590572.5526149471 6997754.092982642 391.98548230472284
v 588959.9628016095 7000678.670893075 413.74288430165893
v 589693.2450431649 6999204.3849649 426.61218343631174
v 590193.9651957776 6999712.226475667 478.74401701375075
v 589431.1420653126 7001412.8061786005 432.5609655937964
v 590256.6003966252 7001086.2360511515 486.4815817843581
v 590542.4460990971 7000109.346682438 508.2275093064726
v 590542.4455694775 7000135.828338243 508.22592015846766
v 590755.9590950963 6997945.808206992 422.43228543368053
v 591175.4379528869 6999055.186999709 477.01389578336045
v 591149.6759770282 7001087.935422221 505.5701279392173
v 592652.5780469029 6998725.36871412 500.7698582915583
v 592263.4275732377 7001322.539874734 519.6620340732379
v 590576.0786606992 7000109.347208147 508.2237401849414
v 590576.0791767606 7000135.827704657 508.2306457311003
v 593135.174323177 6999448.02751057 540.7818431588823
v 593408.7357527522 6999965.10097145 567.893570314375
v 593051.5831386253 7001147.582973492 560.2625112070905
v 593408.6929671413 7000232.6921947235 567.371133474393
v 587715.9538065721 7002591.3562563285 269.6442526217204
v 588253.2781303646 7006453.942522017 142.54178885226509
v 588314.0260653821 7006383.21222954 207.84179932383194
v 587891.1279864116 7002743.211624902 307.8846827900384
v 588383.9239045877 7002919.71339594 367.26559573999464
v 588517.4712349218 7006463.012909702 270.17141260807495
v 588383.0739478491 7005963.116808573 350.02880772624076
v 589167.0355192234 7002585.567616097 388.6065460293826
v 589168.4378613665 7007197.744589971 328.0423030840912
v 589377.7712356539 7006988.661381153 361.1323687061223
v 588878.3030456514 7008612.938122663 259.1145731512496
v 589014.394891683 7008087.911556555 284.37904043082796
v 588969.5664298505 7009784.401307115 175.36908538470288
v 589130.6111657465 7009586.43661235 213.5155476754204
v 589195.9714480522 7009297.584533615 247.09871600106402
v 589699.8112333019 7010634.895263546 196.2772951813419
v 589922.6982718115 7010694.457593264 252.65424235197395
v 589071.5867441798 7007666.21177195 304.362567578
v 589302.5348666749 7008464.871229462 330.83785153508995
v 589725.2935154339 7008480.092819259 374.01182121214714
v 590037.9235185032 7010562.137327618 309.35753209665336
v 590179.8330659759 7010371.353782447 365.7169155883597
v 590657.6534656263 7011985.971759211 193.66782273556612
v 590774.5326456417 7011887.785718334 250.91868846931806
v 590909.0013526567 7011755.586909011 308.390436908942
v 591067.0841298688 7011565.050719156 366.28610998185894
v 588375.8748248911 7003530.8243336985 419.8884903706119
v 588375.5901380135 7004260.804825589 481.4952619417991
v 588375.5291118759 7005581.781358426 426.3217994634692
v 588375.6621804967 7005186.650638159 483.7209875767453
v 589842.5148903859 7003400.3604930835 435.92317456701653
v 589821.1549894324 7003692.603357941 457.9816971991643
v 589848.8205099802 7006073.383792012 430.9543566547631
v 589283.0519730499 7005115.84205932 482.44869177754464
v 588375.5927756329 7004773.55528731 523.6544614701926
v 588230.3121250063 7004930.893971273 532.274190195388
v 587648.8265378989 7004886.069816089 564.9515378988916
v 589118.033121951 7004859.489903381 509.76689765094693
v 589118.0318575455 7004925.415285506 509.7374624306165
v 590289.9766250495 7008618.7567583565 415.7113173391939
v 590496.1017319394 7009505.664976161 457.3454573958325
v 590362.3884093754 7010067.151264296 422.1899706571703
v 590496.1461541639 7009809.712589286 457.44795271536094
v 590956.5867390027 7004127.762833482 414.1263457741946
v 591381.7052301347 7003482.71442567 410.9491354421687
v 590908.7000878594 7006095.630014151 441.4044792784607
v 591572.2623945433 7006103.342282345 491.51075650239164
v 592281.3387473708 7003705.680993559 444.14333683092065
v 592131.2001705682 7005303.96125379 486.8231423027329
v 591778.8852440339 7006897.454216041 541.1461431022728
v 592989.942889025 7003599.01773131 478.4537663049698
v 593279.1120222583 7004312.740785789 531.6089676990262
v 592284.4219127615 7006103.47939635 610.4740976417523
v 593007.7775455832 7006078.330115399 735.5119327046805
v 590629.1585529563 7007913.844758975 434.74696059236874
v 590826.0756790573 7008616.119424365 448.2025986846678
v 591375.6390651986 7011399.691639476 426.27399129836795
v 591205.8202665359 7010576.275732459 480.89195319929985
v 592736.4847738638 7011999.61381236 437.264796017113
v 592736.4210869207 7011744.313206747 479.985204140116
v 591585.6259153602 7008488.859377757 490.8717697342944
v 591886.508517003 7009299.120178194 567.3412939517319
v 591639.4540754477 7010330.96692241 538.2436899123622
v 591885.4720576773 7009942.28208383 573.3568001920731
v 592070.4937004123 7007705.430726814 545.3290726783907
v 592660.22782758 7008368.4658664875 622.9311019614456
v 592735.3597338339 7011177.119974364 541.8517181226739
v 592741.6870639503 7010249.472087195 610.8225796244265
v 593233.1503949448 7009032.779618978 632.0191419348732
v 593234.1244199437 7009879.888513079 634.4401996488873
v 587451.92668394 7018987.981515675 188.93511379238618
v 587355.089379845 7018876.515257234 237.55400757327453
v 587259.7144498804 7018765.056721767 278.5169807072835
v 587168.4045832262 7018647.043923421 308.12302704311423
v 586537.7716155163 7014540.213092396 436.9781864703601
v 586982.4949025408 7014735.882876178 479.89797747716625
v 586835.2688504417 7015741.296522175 553.9486523929428
v 587273.418554157 7016261.722325912 676.8398060139826
v 587084.3784379704 7018509.795851505 323.4373507675479
v 587007.9773290639 7018335.135602853 327.037243774937
v 586741.0762646149 7017711.327454222 403.0784696670826
v 587271.1838325902 7016961.83863385 589.9650481028631
v 589829.8718997373 7012953.055270752 192.94968977307127
v 589829.333182832 7013433.736035621 250.9454786410551
v 589939.6111687013 7014023.372128352 310.87164155812815
v 589565.8540477442 7014232.298700183 365.59228519043995
v 590498.2203383741 7014492.567250469 330.5640986290752
v 590292.7858151721 7014633.936052775 365.50463398287224
v 588376.584048544 7018895.449571793 175.80155435847678
v 588378.4879910346 7018627.3015053 232.13251041353277
v 588374.7773405518 7019920.462319851 182.51472151820963
v 588375.3209456471 7020375.0673649935 247.6840167713254
v 589280.5043567391 7019130.932767651 195.22641885697965
v 589512.4534225453 7018978.184400469 257.22015623372045
v 589280.9766543311 7019405.7947780425 192.89010030846424
v 589514.2522277781 7019674.433808808 248.17891820356613
v 588380.0776194633 7018360.202146065 291.27012358798567
v 588380.3697304777 7018093.753870402 354.39173391200006
v 588375.6326841273 7020751.416677036 308.11091944378603
v 588375.7153634484 7021068.032406504 366.6059498223139
v 589668.7428257486 7018826.754632239 317.26674308107977
v 590039.5859679487 7018854.288060061 383.5680377109806
v 589671.0373667188 7019894.778618114 305.54289628566306
v 590076.0365757449 7020394.953108845 371.1014981379863
v 591130.5501379756 7013202.026431886 193.9013292523029
v 591120.655349446 7013310.2218960505 248.50440611529655
v 591460.1253627042 7015642.790589204 195.1710400044144
v 591263.8106103593 7015642.7580122985 252.84335458864848
v 592736.8026629173 7013586.168906916 193.32083447900482
v 592736.7093013304 7013295.227139123 250.64389570956683
v 591205.8953794923 7013250.404343777 296.94015989884014
v 591794.6489518703 7012313.442960485 365.25544019608935
v 590966.600603078 7015429.987098962 313.35657025893283
v 590933.3014662373 7015827.445048812 367.85686901980796
v 592736.6045359938 7012954.832188768 307.9627078129301
v 592736.5235935844 7012547.91790798 365.2025389030726
v 591641.3431753849 7018029.897670008 193.72384062139594
v 591482.2826985493 7018029.953976101 251.1832761998117
v 591452.4844629356 7020417.166237172 194.3252675552106
v 591233.6822970099 7020417.160903593 251.35526903240708
v 591284.6144087553 7018030.08199764 308.98991491232334
v 590871.282400144 7018424.083280303 377.9317135874615
v 590960.4715520974 7020417.148626284 308.34103012422327
v 590654.7736076717 7020178.476081076 362.5653557660645
v 588837.2537402144 7014494.774121836 443.04017010152006
v 588362.0983974133 7014625.325987914 474.76774050649146
v 589293.9231581673 7014363.912891689 405.09965555666304
v 589798.518641513 7014839.3933133315 426.1122735777454
v 589829.4554268948 7015428.322401402 484.8668330233629
v 588375.5085068996 7015112.049104915 533.7340713933336
v 588416.7087133803 7016094.083544561 638.329294511269
v 589898.2409388407 7016198.097527282 544.5102048913501
v 589458.8478406781 7016508.271802086 587.1582231437791
v 588378.5833786521 7017828.466848819 421.7760238559687
v 588375.1178971285 7017563.949799636 491.2807540842356
v 588375.7210412229 7021338.278828728 424.09410004548914
v 588375.7277866801 7021537.018890034 470.38487189890645
v 589975.6640875625 7018453.172935785 418.9655324266024
v 589827.9860213982 7017622.54820626 488.2559325147794
v 589760.6048685423 7020988.889235272 417.566646272178
v 589320.0170808164 7021538.402138459 467.2865503473074
v 588372.1646674381 7017293.607814066 557.1957693590628
v 588414.7794292648 7016999.651474742 614.5066620242803
v 589896.5084975408 7017070.7236506855 549.7097742908608
v 589458.5091268737 7016908.400190976 581.4537536414766
v 591923.8325264578 7012160.971046148 405.7987173627763
v 590833.5367080639 7016096.834430648 424.4026563230718
v 590706.0763698374 7016438.697543806 480.45716415195886
v 592736.4993534539 7012193.746593205 408.5786789377584
v 590608.0638634025 7016699.391118528 516.346896716278
v 590775.4954026226 7018060.43746673 419.08221451766
v 590705.8197190549 7017281.211191818 479.4673916487293
v 590544.1615693128 7019223.4515379 393.5765378988916
v 590608.0376757473 7016972.91210467 516.2335991968943
v 589829.4369335601 7023408.114903127 194.34230324742907
v 589829.4401706986 7023069.479011296 251.75974892969413
v 589829.4488513035 7022666.23417165 309.44007879564214
v 589919.7537696628 7022159.604043326 365.3983219800573
v 590949.3131973903 7022287.928233286 194.53708263805532
v 590832.3156275692 7022082.489437607 251.3281282943516
v 590689.6202521482 7021836.6181561835 308.08572978270576
v 590592.6379818587 7021671.677321677 342.17845824797274
v 589560.1921977056 7022017.327196459 423.84068712706284
v 589319.9745526947 7021795.4353508465 467.7201725393644
v 587540.6880533237 7016599.175993288 691.6902828212376
v 587542.3391536588 7016869.500010572 629.209036970803
v 587962.1782006148 7016561.461812696 673.3949192597182
v 587963.8161531363 7016871.834310554 629.4932944638903
v 597485.4611988135 6997539.522914545 380.9292437468081
v 598551.5624302687 6997307.8174890755 369.91842993098334
v 599046.5605247656 7002228.001785273 267.64049213782977
v 597485.472390026 6997980.758827147 381.5166059600006
v 597761.1239410306 7002346.440719143 330.92710985313755
v 597586.0877822621 7001977.230869528 374.1870162117446
v 598600.1765417784 6998839.431415548 380.83776210567635
v 598558.0441198313 7001861.892950018 312.6154449233649
v 598600.0440530556 7000748.52078876 367.5464130823654
v 594088.1291504516 6996609.073445081 496.7958173152423
v 596099.4521522096 6997372.794325552 435.40193663020466
v 595626.5778212965 6996922.906754223 477.530703714057
v 594503.9127313136 6995856.292490581 525.2884249908223
v 595644.0985851801 6995800.194163643 524.6835260033176
v 594190.4596938259 6997815.881272526 501.817601909586
v 596099.4701918071 6997875.708738137 436.8214121413714
v 595626.5848882255 6998093.155514796 480.97044140134926
v 596178.070096635 7002035.015068729 502.1556019827275
v 594189.1373845257 6998486.204968376 548.6359996023418
v 594231.7868116245 6999588.017694345 606.012148179821
v 593756.989591864 7001825.644314372 571.9724268266056
v 594252.4797029902 7001069.220362606 622.0700210590007
v 595777.5370606539 6999121.3010268435 552.3692475544906
v 595357.0678625221 6999573.380284838 601.1418514301226
v 595991.5633144584 7001274.092040423 572.1732328696731
v 595308.6988114625 7001193.400921828 622.800615546667
v 597039.5935602277 6997123.685316955 415.10158367157135
v 597097.8328262538 6996101.488482228 478.84434162646
v 598551.5214932571 6996424.889833534 422.3250667609249
v 598559.8152452921 6995684.877317958 480.7073710351142
v 597097.7974195469 6995527.112479253 525.7139067332255
v 598080.7511650227 6995492.051385171 526.1272248853193
v 597155.2355108262 6998724.3127944805 435.2241907467409
v 596872.7797505322 6999337.936462008 486.843194480694
v 597378.0993187361 7001232.666290492 452.4622172610825
v 596789.0168073613 7001274.439094195 502.3639535535529
v 598147.6166655627 6999572.322854321 414.3698551284804
v 598147.3633913336 7000372.497491996 409.05033871932716
v 596587.2468890009 6999734.280671027 530.1508636600757
v 596587.0543576846 7000442.0264213625 527.3220837283909
v 596328.1479348165 7004822.698179998 215.21259582616995
v 596208.8412024631 7004628.213889739 246.97738562444283
v 596279.5098398265 7006094.091330902 147.41386770351664
v 595982.7428710031 7006095.439291395 184.9512573095518
v 594871.606420231 7006615.455436525 360.70929227681313
v 596003.1399932497 7004334.478456444 296.28967526879234
v 595774.3122052591 7004073.800459208 333.99092851667587
v 595543.903991599 7006097.815826231 244.13307561724787
v 595080.8570133649 7005935.401720659 321.8209482755878
v 596298.8675836469 7007469.674241016 212.39529863452594
v 596151.5014296181 7007762.513269597 255.34568203378666
v 594875.0068023993 7007567.315180158 386.75968484554653
v 595919.3014372749 7008111.2738862075 318.1983688602056
v 595791.9651428087 7008708.161394202 381.0786345026541
v 596370.4412182275 7009681.888485405 393.54810814556964
v 597070.4600300601 7004406.3370743375 186.70804262345587
v 597097.7810179191 7003761.99989001 245.68031175168562
v 596621.4828425741 7006093.658303505 121.49328116978381
v 598551.6741174172 7003497.136525204 187.7879258311521
v 598557.9061396483 7002829.509991607 244.7011368370305
v 597205.3158226206 7003089.404924497 310.0551851714464
v 596858.58323823 7002882.570570596 365.20482486806327
v 598077.3162908085 7002633.2786562 290.4855719874661
v 597038.1027439882 7008076.253572108 192.79040755530684
v 597189.024511769 7009034.6205358 248.70933592677426
v 597735.3009705747 7009996.327073546 272.15836449790646
v 598567.8391255188 7009303.341562802 187.05838811460524
v 598094.3725943123 7009565.380286725 231.0056216580885
v 599063.638171299 7009902.035841638 213.08098217876494
v 598568.0373097612 7010359.970986474 247.85576163228956
v 596813.6402097563 7009306.080938231 304.57727090538975
v 596488.1330175761 7009586.169029572 370.0820215200574
v 597541.1355214836 7010479.039766878 308.95022217422667
v 596925.5509486487 7010681.72980137 370.2944075784707
v 598517.8716924039 7011629.0751911085 306.9350333288481
v 598011.0129433982 7012017.156486424 339.138800464714
v 594798.9074127433 7004599.714062803 413.63342433579203
v 594640.5455930134 7004265.2769888025 428.21310408744813
v 594730.3510372443 7005930.9695384875 401.98774008125815
v 594342.376216521 7006089.199564011 507.4624359858316
v 595497.6525853816 7003875.921492264 381.6525355116153
v 595672.9011442731 7002972.333127174 492.16127191481326
v 594927.4200594653 7005021.558424962 395.04652131587636
v 594134.7374027293 7003443.330345783 461.0886664030792
v 594125.8968548817 7003481.854495954 446.5122862098659
v 593982.1752808673 7006079.302092901 608.9741471765283
v 593637.1867291448 7006071.71282347 689.232042531494
v 595183.8816525384 7002737.057565805 544.3137805050608
v 594981.8692641751 7002562.258536386 570.7061926159156
v 594774.7857853569 7007999.87768108 437.2925170337043
v 594621.7131994624 7008645.31860283 478.45558221567074
v 593801.1887757467 7012014.806336639 438.9137646498519
v 594318.6785151708 7011165.570209224 463.2130532740792
v 595729.2317864479 7009351.153573212 418.7650268274041
v 595086.8665637833 7009544.188174066 458.8251436449332
v 596021.2033874332 7010474.65383224 428.25947604962715
v 595118.4324830653 7010868.384988161 455.21125089158295
v 594189.6450220064 7008483.83365645 514.5082863772506
v 593707.5119915114 7008337.215578234 582.6653838497745
v 593940.4096542158 7010519.974532547 529.625330231125
v 593688.003758985 7010190.9498969745 590.8628403659368
v 596560.6691835125 7002648.2032700265 422.18168080006353
v 596394.846187939 7002529.277900568 452.83343263854977
v 596370.647594477 7009675.155507546 393.5468672130243
v 596448.5825187464 7010633.903693216 403.98467426768764
v 600005.2598489358 6997224.263802674 376.67062422104186
v 600880.8199375473 6997428.028863337 388.50979842128305
v 600005.3600003759 7002050.265681701 255.28976083610138
v 600918.8914144732 7002181.855719811 266.293099162966
v 600005.3688791845 6998933.056922604 362.08088756756365
v 600005.2512236618 7000983.042786993 304.59334958963194
v 600005.2148666425 7000252.494827247 341.5025444845537
v 601402.9980024896 6998949.1157463435 373.2926496243118
v 601231.7679388984 7001672.780323645 297.41767894619505
v 601601.7924474247 7001084.830872944 327.2928252016929
v 602281.164172621 6999755.704893055 386.3156711451943
v 602173.043914741 7002513.576537899 336.4515378988915
v 602350.8899144637 7001558.560276296 361.84063176716916
v 599967.9004915976 6995941.565440473 425.0770178959372
v 599458.5093107899 6995429.362965256 456.1606612571089
v 601286.0262785464 6994158.531284555 428.27019595246304
v 601499.379451839 6996430.358638843 425.01437026807355
v 602118.016841141 6995432.504764191 451.9405539517941
v 601849.9728641788 6998164.269322852 403.60104878134007
v 602322.2965498281 6997023.9625603845 443.2616320022673
v 602701.0536489789 6996355.243989029 474.28385022754986
v 603454.2183462522 6996545.763376073 519.334922791278
v 603706.1096911444 6994959.746486201 558.639001626156
v 603906.548190233 6994161.845420425 592.2504281427923
v 603821.8160891167 6996545.756862611 547.7721852020894
v 604307.6528658194 6996545.7383509595 592.9019333094608
v 602528.6659069937 6998949.099770913 420.9461000606525
v 603320.2102243475 6998796.394585801 478.5865508579743
v 602919.2908192455 7001319.891049888 416.9750521244219
v 603436.8116747632 7001319.942127095 466.89908164923247
v 603707.1792846974 6999501.189884288 499.96574723279593
v 603721.3909044033 7001319.956890321 496.2051551558726
v 603600.3529140854 6997909.795503536 510.2209551344971
v 603931.5888854457 6998796.401982405 529.9388173113387
v 604543.7387797995 6998932.845208441 591.59702919703
v 604055.1957541696 7001319.972873151 534.0101683727783
v 604548.3668519721 7001319.988462382 591.7317864163704
v 600006.0584919184 7003581.799695991 178.3728088325489
v 600005.6511209093 7002737.896298163 223.39901620462376
v 600907.453552438 7004427.473916565 190.28589878861305
v 601215.8689143173 7003593.449418823 240.9146901001045
v 601176.8919710205 7006094.125576316 182.6069306436973
v 601759.238732882 7006094.1819803 242.75620773416142
v 601953.3139420351 7003486.692204486 306.54650826260627
v 602179.7193915029 7002544.057943267 336.8625642242141
v 602111.9909337312 7006094.202937971 281.3210059485971
v 600086.9189154077 7009202.7176371915 184.40032717023576
v 600625.0489035837 7009617.261221908 224.54267431103455
v 599655.9946565569 7009902.147960209 211.054049717091
v 600086.5534242301 7010396.56760322 241.90876056173846
v 601001.1700388537 7008011.269325464 187.38987079319867
v 601323.633650548 7008685.694309634 233.32051971892008
v 600965.7190943544 7010057.304870694 261.75694030022515
v 599971.3233791433 7011638.380075737 307.85649430980095
v 600433.0839074474 7011971.853330814 342.3383417395307
v 602029.0837999277 7008720.215238808 294.80621225423164
v 602197.6771394612 7009674.951537899 336.45153789889173
v 601578.2659043807 7010223.912647689 310.5936710268558
v 601572.5802469376 7011082.744674475 351.2085495539417
v 602245.3149803231 7003730.050677445 330.96025570376037
v 602437.1333707225 7003324.568526293 356.83406802771844
v 602361.3352347686 7006094.206144987 310.4504322912147
v 602768.7134378352 7006094.214762368 360.4125638978162
v 602300.650012994 7008481.475299245 316.73349802601393
v 602671.1634936633 7008481.463231493 358.12455968065274
v 602188.7970954427 7009684.572521947 336.1435504561551
v 602331.0438899688 7010063.5721096825 363.84485536332414
v 601923.2450589925 7011774.881842566 407.50023759726537
v 603061.9191017074 7003707.200458427 425.33908171437866
v 603471.1166869554 7003707.20131361 475.32024361244385
v 603219.967378744 7006094.225990027 418.587219918559
v 603539.216176037 7006094.236124064 461.66301095498085
v 603704.2511714642 7003707.197412547 503.9419565106697
v 603758.0847425191 7006094.243317127 490.65892172363766
v 604005.2898823852 7003707.188452005 539.9422889473806
v 604464.1988816347 7003707.173838599 596.6978367235988
v 604098.4705363037 7006094.250219164 534.5799012534981
v 604531.2129902171 7006094.254998649 592.3239759178306
v 603170.7608886467 7008481.434999152 416.3683541174535
v 603527.0460553411 7008481.422621437 459.1912031639996
v 602554.0922255677 7010935.047945009 420.5133205354948
v 603190.8321099081 7010785.057993698 476.45452361486167
v 603764.6725803063 7008481.414337062 488.16028988968833
v 603693.8775979597 7009933.46823655 501.20426836523586
v 603437.5582960235 7011524.910642983 523.7523101740265
v 604116.0432930463 7008481.4041154245 532.3601800029112
v 604559.6470499969 7008481.397162101 590.147199866247
v 603813.0753021274 7010784.9725338025 538.2435341404314
v 604247.5711888069 7010868.580482139 590.4495234800714
v 594745.4289300974 6999926.5808533225 633.2903247983223
v 594745.4726355507 7000307.856969958 630.3673747776843
v 595039.9627279992 6999926.4967782665 631.8436011500995
v 595039.9048162353 7000307.877072865 630.2328345380611
v 593530.9882478846 7009033.305256089 625.04512851543
v 593532.3848563129 7009879.444859024 629.1462274649904
v 604509.4219025215 6994158.596573625 649.8884917660766
v 604952.4150347629 6994158.597976639 691.780458604472
v 604897.7457151402 6996323.805364008 650.5182707120692
v 605088.8281756465 6995380.179141086 679.5846822886332
v 604956.3768290495 6998932.851120662 634.8046985294781
v 604941.3440308549 7001319.994820993 639.6998652436276
v 604927.6578644214 7003830.680119628 657.6541924910501
v 605088.1146002699 7004708.713528667 680.023100323907
v 604949.69366651 7005911.633827623 652.2371079330148
v 605088.1295046555 7004994.181356603 679.9258810719834
v 604935.0185833235 7008481.39535341 640.8623749618398
v 604803.9574596697 7010787.694995428 651.7513802911345
v 605003.9821796701 7011529.4574856 688.0323162086773
v 594066.8026751102 7014013.805353935 192.7177735966091
v 594313.9936263027 7013954.746763393 248.18445269914287
v 594793.3482196735 7014750.901554548 193.59926562862114
v 594880.2306982351 7014549.177342674 229.6791506710063
v 594973.8415808948 7014391.912073817 267.7793858624467
v 595279.360319148 7015944.473383603 193.67381256134257
v 595305.1478249958 7015464.038484332 249.4609074702044
v 594190.7227979462 7013523.984474481 306.7802907814973
v 594190.5901512778 7013073.830410269 364.19702282150195
v 595080.730071207 7014269.429686065 307.9875249004897
v 595251.8430012016 7014033.067716309 365.1544902787771
v 595609.1016093954 7015642.754434797 307.6680518679775
v 595872.8501576858 7015642.741626709 364.58816241534316
v 595927.8942602504 7018029.962227584 193.86099539039253
v 596130.7927421884 7018207.863477266 248.94183820451627
v 596292.7067948024 7019320.5001605265 193.6376990561315
v 596350.1139187984 7019249.20038393 228.25685444060036
v 596172.3506388724 7017732.332890064 308.0246675132207
v 596264.978659211 7017376.419376319 365.0829366678741
v 597468.9932060909 7012435.253699679 376.0608852579476
v 598980.156936372 7012157.715977263 331.6673263237246
v 598517.9738991156 7012601.870419596 359.05404241635216
v 596401.9338742541 7019122.125940551 266.34548750191215
v 596763.1886751378 7020514.094516934 193.62600116653329
v 596729.544555887 7020193.815254268 248.70351876555156
v 596454.228245401 7018925.891751513 307.9234784766547
v 596531.7083493449 7018569.995204006 365.092450723669
v 596913.0859399122 7020417.089520753 307.94438302232345
v 597025.6188526724 7020417.107451108 365.1100432177712
v 594247.6655329126 7012420.8978116345 420.25832139081217
v 594770.2593495032 7012160.49695396 454.7368629542452
v 595682.6906304501 7013247.107527725 425.80904198639286
v 595668.2098619506 7013232.760098317 449.9065239002804
v 596196.9047589895 7015695.843517506 422.43907062047737
v 596319.1261849696 7014935.548486153 456.5516042196506
v 596332.3960678652 7017056.171183655 404.2943414660897
v 597029.6973463657 7013063.417382283 416.3337861543778
v 597097.7516218779 7014227.440765471 467.51983102595113
v 596409.3891567691 7016526.966603399 442.317468215005
v 596944.925608138 7015536.17027019 482.9374810168688
v 598551.5003722665 7013643.812890893 421.44984152085254
v 598551.48555585 7014234.443656973 473.4366022220016
v 598551.4785231041 7014616.5149533115 502.24254254617426
v 597405.6428584175 7016102.311655627 537.3832296500085
v 597629.4612390762 7016596.526290965 593.5911224282698
v 598551.4616289331 7015385.5743753845 537.1243981520588
v 598551.4712220449 7016348.472230485 593.8552965465428
v 596591.4129641757 7017923.094445703 423.11547735522964
v 596848.5676391586 7018029.891965676 479.50669186171615
v 597148.2057575583 7020417.12241442 422.2783435236062
v 597283.0250261979 7020417.132941927 479.44676498816756
v 597131.5804773434 7018029.890090529 536.5634476202852
v 597480.7400851138 7018029.888872492 593.6272828206284
v 597432.8238552663 7020417.138372302 536.6171859691648
v 597601.1168160192 7020417.138426908 593.7911586031825
v 598989.5752974631 7018765.265174703 611.354821411734
v 598989.579543865 7019437.338362598 611.3664279197003
v 597490.0250436214 7022039.878744193 193.74224653105313
v 597522.8513710588 7021996.800641917 250.85649635611253
v 598351.1996415469 7023233.1020938745 193.3386828615158
v 598381.7541700908 7023190.019796522 250.44167499205918
v 599077.8117647738 7024405.478128034 193.68105267760598
v 599108.3643158338 7024347.755805353 250.79670039021363
v 597556.6842203051 7021952.642056635 307.9689321262423
v 597591.7446574632 7021907.138455362 365.08015314605893
v 598413.2215998815 7023145.867987863 307.5483665571857
v 598445.7708182572 7023100.3825778905 364.6597240881543
v 599139.8344455862 7024286.512924092 307.9123115709231
v 599172.3916002869 7024221.335102372 365.028690774723
v 597628.2855252897 7021859.981798441 422.1907727499193
v 597666.5982140898 7021810.815026388 479.3014576326278
v 598479.5936256205 7023053.255169032 421.7771438313722
v 598514.9068852243 7023004.127583795 478.90279774142164
v 599206.2280102812 7024151.729124342 422.14685466513504
v 599241.5610268257 7024077.105140682 479.2676006208908
v 597707.0205204 7021759.226191532 536.4130529848002
v 597749.9444745587 7021704.743525135 593.5268385858564
v 598689.5672107919 7023118.1879438935 535.9223122309434
v 598551.5927409988 7022666.436421747 593.2474373797913
v 599265.862979693 7024024.872554845 517.2593611738919
v 599463.9225037554 7012157.689966559 332.06944999240926
v 599971.239498724 7012538.269220323 361.58154684308766
v 600954.0644047651 7012329.253509656 380.75380910267245
v 600005.2278928668 7013509.617731677 420.9068656203534
v 600125.2268900563 7014231.343767974 481.4686846180829
v 599720.6550076737 7014575.815568306 502.99805390576864
v 601446.8587855437 7012635.50010424 423.07921322492405
v 601458.9979967285 7013569.861590588 477.18750524067366
v 600689.7728215348 7014445.36624691 508.201922614968
v 600125.1837900974 7015134.545247068 531.2086390725455
v 600058.7169275684 7016464.39873276 598.1232074540494
v 601458.9313262464 7014247.113833499 519.644267439304
v 601458.8755452484 7014897.790902028 549.0454188899346
v 601374.465947107 7016171.943423632 598.0469569227095
v 600422.7352130463 7019002.788909644 553.4744556064056
v 600016.2851536254 7018088.305176002 597.3885726507772
v 600454.0954251124 7020417.029749607 550.1505952782902
v 599806.1350131303 7020306.652561293 592.3315619194595
v 600945.9707510585 7019002.792301344 553.5454337815916
v 601374.3538675901 7018134.704537216 599.3211678203704
v 601010.9053404852 7020417.027349219 549.9759787226577
v 601737.7956563594 7020417.022620271 581.9477823384971
v 602238.6239782298 7012180.621547423 446.32196703155
v 602437.4007637337 7012548.518581153 478.6940369422389
v 602829.3313645655 7013163.434416502 540.2503317766394
v 603212.3245103298 7013801.77247818 592.3021927606175
v 602220.5751723191 7014540.763242582 562.8837132179893
v 602485.3623212716 7015029.133260226 593.7748900052388
v 603660.696760865 7012143.063429121 562.816801750714
v 603812.9176550987 7012608.170258456 593.2355821138152
v 602308.3595480064 7018858.051290672 614.7708702843051
v 602377.6249059907 7020417.011174096 610.8688625680254
v 600005.1492517543 7025330.256369977 193.95229980302724
v 600005.1510623839 7025203.9255878255 251.108992782658
v 601458.8452898674 7025590.861003901 193.53274689269296
v 601458.8395176363 7025438.99941783 250.611466191204
v 600005.1538653456 7025067.975578691 308.267334015739
v 600005.1569184951 7024921.257844313 365.4251521203517
v 601458.8334016994 7025276.583885041 307.68934570163253
v 601458.8268992198 7025102.394315442 364.77229075355297
v 602912.5472465528 7025709.092176383 193.35290117314685
v 602912.5530279416 7025540.915573617 250.4669685874872
v 603790.3710697889 7026234.16590394 193.63787199129888
v 603874.2976390014 7026149.226094725 250.7615976212395
v 602912.5595662723 7025363.731032845 307.5951174945198
v 602912.564559584 7025176.487480078 364.73877310674317
v 603961.739307452 7026059.730364814 307.8848484357947
v 604053.0758261916 7025965.120049423 365.00892673339166
v 604517.2479160731 7026985.199577285 193.51766633770103
v 604601.1663695754 7026900.831606769 250.66661619138625
v 604688.5980626539 7026811.78376419 307.8216334458782
v 604779.9252259673 7026717.494485667 364.97791537684645
v 600005.1587754135 7024762.466843136 422.5784970248486
v 600005.1574630473 7024590.11821325 479.72333861411096
v 601458.8199597821 7024915.046051427 421.8661372772435
v 601458.8133928694 7024712.966562937 478.97701127910926
v 600004.8821456066 7022836.603473146 557.6278298689034
v 600003.7256427871 7022902.5344685875 594.6766138021355
v 599896.3822618359 7024338.649357011 536.859321433252
v 600200.9676905343 7024285.569580043 593.7882174648896
v 600889.9329317714 7021747.795872424 557.5322120208355
v 601451.2551632752 7022692.065403864 593.131344601397
v 601458.8089630817 7024494.370455101 536.1102603641575
v 601500.2791116316 7024241.311978107 590.7108092197119
v 602912.5655339934 7024977.933998549 421.89635391961707
v 602912.5620616096 7024766.581567832 479.06227116442807
v 604148.7747048857 7025864.726412237 422.13720221788157
v 604249.4188838518 7025757.746958625 479.27929686281453
v 602373.4023449459 7022804.193943325 607.0285345003091
v 602912.5564955071 7024540.659637859 536.2278038978046
v 602837.444690095 7024273.986981319 590.8503028422084
v 604485.5181726892 7025745.302049788 537.6229360439253
v 604366.2153976313 7025234.268742679 593.6272971386144
v 604875.6192373268 7026617.306185347 422.1275837591896
v 604976.2664590294 7026510.444305413 479.26578694391026
v 605049.6325356867 7026431.768169038 519.290873285539
v 597779.0788785123 7016795.977395329 626.3550140337338
v 598551.4747722459 7016772.933350291 628.8974964100593
v 597749.6670706528 7018029.888700182 633.0129018008474
v 597768.8568072589 7020594.890667129 651.3756036780125
v 597821.2459939548 7021509.014205133 681.142946825099
v 598523.5970223013 7017993.684273914 633.7626381041955
v 598523.6094472061 7020070.134737673 651.3717327976444
v 598580.5782714833 7021326.910704801 703.6872877041777
v 599084.4862780129 7021531.943739923 744.7992720651513
v 597795.8201092099 7021646.835776527 650.6448981904225
v 597821.2505376417 7021614.828743295 681.1285089184694
v 598551.5190774697 7022337.257249282 650.5344695754043
v 598580.5352758052 7021903.738558195 703.3491151440206
v 599084.4804847868 7021733.234881153 744.7769547671253
v 599609.8446496242 7016792.15818564 626.4609064195183
v 601802.7576043372 7016722.319698567 627.2858488030344
v 599609.8458202905 7017173.84562925 626.5790634173088
v 599606.6648018284 7020954.766938601 650.561316849261
v 599430.1402129657 7021332.155282415 707.7780892047379
v 601802.7503029767 7017266.629820267 627.5710738477619
v 599324.0768065549 7021531.950432359 744.7516698480506
v 603519.5219782157 7014300.62163578 628.6483388553162
v 603039.6191700205 7015916.140870337 647.4558663271252
v 603528.9052576266 7016701.4148489265 682.8243067592913
v 604098.7180066125 7013405.247700655 647.4068587340251
v 604799.9596584465 7013348.4923208365 707.0303816437365
v 603799.2016419315 7015109.982931195 667.2304258760205
v 604154.4893782296 7015800.51698176 704.6088051642666
v 605018.3202808765 7014206.079469957 741.9187518987102
v 604890.192847169 7015642.749069407 748.6473538924057
v 602918.6045252231 7018200.165223789 653.711781327435
v 603528.889569673 7017542.296761533 683.1508665261325
v 603104.4565652672 7020417.0205590725 647.2835904810215
v 603661.4539190013 7019133.717958486 678.5032423639238
v 604279.4020391759 7018261.126187463 707.149386030691
v 604234.0964476186 7020502.493112201 671.4176839792892
v 604630.5779905859 7019763.764454305 692.1358784131439
v 604897.4004662794 7017388.546018114 746.3608456341851
v 600018.4075764861 7022967.273466269 651.3510825463056
v 599937.5570377351 7022788.030215334 700.952004763658
v 600430.0657914978 7024155.864670514 650.7444460919154
v 600613.8988541804 7024057.833048758 690.8756593459265
v 601046.6933637812 7023633.493049173 650.716815898712
v 600840.1711904653 7023873.5664282255 690.8710500433293
v 601046.6641990696 7024155.840623852 650.594022549667
v 600840.167379298 7024057.830721303 690.8625300590843
v 599324.0809188744 7021733.237395559 744.7686307177252
v 603099.111638628 7022689.39338896 654.4236328459142
v 603457.7684074569 7023408.5464824485 695.0964178710761
v 603227.5832406577 7024192.871582293 650.6530274628718
v 603457.774762664 7024081.506679328 695.1137747513161
v 604366.2218234215 7022080.1272740895 669.2075969514535
v 604366.2172368299 7023273.705171734 699.1244492450512
v 604366.228221684 7024715.231519101 650.7928127256765
v 604366.2345117975 7024213.96925448 699.4989123005528
f 19 18 17
f 21 19 20
f 28 27 24
f 31 26 29
f 32 31 30
f 36 33 5
f 37 36 6
f 44 43 35
f 49 48 47
f 50 44 38
f 52 51 42
f 53 49 51
f 54 53 52
f 63 40 18
f 64 63 19
f 66 64 65
f 71 70 66
f 72 52 65
f 74 54 72
f 75 74 73
f 79 78 77
f 83 80 31
f 85 81 83
f 86 85 84
f 88 87 79
f 93 88 82
f 95 90 93
f 96 95 94
f 98 97 86
f 102 100 101
f 114 113 110
f 120 118 119
f 128 127 126
f 135 128 133
f 136 135 134
f 138 56 137
f 140 138 139
f 143 138 57
f 144 143 58
f 145 143 140
f 150 140 149
f 152 150 151
f 153 145 150
f 154 146 153
f 155 153 152
f 156 154 155
f 160 159 120
f 172 170 136
f 177 165 176
f 178 144 89
f 183 179 154
f 184 180 183
f 185 183 156
f 186 182 184
f 192 152 191
f 193 155 192
f 194 156 193
f 195 172 190
f 196 173 195
f 198 114 197
f 200 199 175
f 217 212 216
f 226 224 225
f 233 227 204
f 236 234 235
f 238 237 209
f 240 239 236
f 244 242 243
f 248 246 244
f 249 247 248
f 251 244 250
f 253 248 251
f 254 249 253
f 262 206 261
f 263 208 260
f 270 268 269
f 273 271 266
f 274 272 273
f 280 278 279
f 283 281 249
f 285 222 284
f 286 284 280
f 287 285 286
f 288 225 282
f 289 226 288
f 290 279 252
f 291 280 290
f 296 294 255
f 297 295 296
f 298 286 291
f 299 287 298
f 300 298 293
f 301 299 300
f 302 235 262
f 303 236 302
f 305 304 274
f 324 313 322
f 331 330 329
f 333 332 326
f 334 318 332
f 335 334 333
f 338 333 327
f 340 339 331
f 341 337 339
f 342 341 340
f 348 347 346
f 349 346 314
f 350 349 315
f 351 348 349
f 355 354 353
f 357 356 348
f 361 357 351
f 363 358 361
f 364 363 362
f 366 365 318
f 368 367 366
f 370 369 368
f 372 371 370
f 374 366 334
f 375 374 335
f 376 368 374
f 377 376 375
f 380 378 341
f 381 380 342
f 382 379 380
f 383 382 381
f 384 370 376
f 385 384 377
f 386 372 384
f 387 386 385
f 391 388 382
f 392 391 383
f 393 389 391
f 394 393 392
f 396 222 395
f 398 397 226
f 400 399 301
f 403 331 401
f 404 403 402
f 405 340 403
f 406 342 405
f 407 381 406
f 409 383 407
f 410 409 408
f 411 392 409
f 412 394 411
f 417 416 415
f 425 420 423
f 426 425 424
f 428 427 420
f 430 429 428
f 431 428 425
f 432 431 426
f 435 276 434
f 441 438 439
f 442 441 440
f 444 443 293
f 446 297 445
f 447 426 445
f 448 447 446
f 449 432 447
f 450 305 433
f 462 461 453
f 463 442 461
f 464 463 462
f 465 462 457
f 466 465 458
f 467 464 465
f 468 467 466
f 472 471 438
f 476 475 474
f 477 472 441
f 478 477 442
f 481 476 479
f 482 481 480
f 483 478 463
f 484 483 464
f 487 482 485
f 488 487 486
f 489 484 467
f 490 489 468
f 493 488 491
f 495 494 360
f 500 496 373
f 503 499 502
f 511 509 510
f 515 514 513
f 517 516 387
f 518 517 390
f 521 520 519
f 523 522 394
f 543 542 537
f 544 543 540
f 545 544 541
f 551 511 550
f 553 552 551
f 555 554 515
f 567 545 560
f 568 567 561
f 569 568 565
f 572 466 570
f 573 468 572
f 576 575 470
f 579 490 573
f 580 579 574
f 583 582 578
f 586 584 509
f 589 513 585
f 592 521 591
f 594 523 412
f 595 594 413
f 597 596 595
f 599 597 598
f 601 600 593
f 602 525 600
f 606 605 604
f 607 604 599
f 608 587 551
f 609 588 608
f 610 553 608
f 611 610 609
f 614 612 557
f 615 613 614
f 616 590 609
f 617 562 602
f 619 564 617
f 620 619 618
f 2 5 33
f 5 6 36
f 9 18 40
f 16 17 18
f 17 20 19
f 18 19 63
f 23 24 27
f 25 29 26
f 26 31 80
f 29 30 31
f 34 35 43
f 35 38 44
f 41 42 51
f 42 65 52
f 46 47 48
f 47 51 49
f 51 52 53
f 52 72 54
f 55 56 137
f 56 57 138
f 57 58 143
f 58 89 144
f 63 65 64
f 64 66 70
f 72 73 74
f 76 77 78
f 78 79 87
f 79 82 88
f 80 83 81
f 83 84 85
f 85 86 97
f 88 93 90
f 93 94 95
f 98 101 100
f 109 110 113
f 110 197 114
f 117 119 118
f 118 120 159
f 125 126 127
f 126 133 128
f 133 134 135
f 134 136 170
f 136 190 172
f 137 139 138
f 138 143 140
f 139 149 140
f 140 150 145
f 145 153 146
f 146 154 179
f 149 151 150
f 150 152 153
f 151 191 152
f 152 192 155
f 153 155 154
f 154 156 183
f 155 193 156
f 163 175 199
f 164 176 165
f 172 195 173
f 179 183 180
f 180 184 182
f 201 204 227
f 203 260 208
f 205 261 206
f 206 262 235
f 207 209 237
f 211 216 212
f 218 282 225
f 220 395 222
f 221 222 284
f 223 225 224
f 224 226 397
f 225 288 226
f 233 235 234
f 234 236 239
f 235 302 236
f 241 243 242
f 242 244 246
f 243 250 244
f 244 251 248
f 245 252 279
f 246 248 247
f 247 249 281
f 248 253 249
f 254 255 294
f 265 266 271
f 267 269 268
f 271 273 272
f 272 274 304
f 274 433 305
f 275 434 276
f 277 279 278
f 278 280 284
f 279 290 280
f 280 291 286
f 284 286 285
f 286 298 287
f 291 293 298
f 292 293 443
f 294 296 295
f 296 445 297
f 298 300 299
f 299 301 399
f 307 322 313
f 309 314 346
f 314 315 349
f 316 332 318
f 317 318 365
f 318 334 366
f 325 326 332
f 326 327 333
f 328 329 330
f 329 401 331
f 330 331 339
f 331 403 340
f 332 333 334
f 334 335 374
f 336 339 337
f 337 341 378
f 339 340 341
f 340 405 342
f 341 342 380
f 342 406 381
f 345 346 347
f 346 349 348
f 347 348 356
f 348 351 357
f 352 353 354
f 357 361 358
f 359 360 494
f 361 362 363
f 364 373 496
f 365 366 367
f 366 374 368
f 367 368 369
f 368 376 370
f 369 370 371
f 370 384 372
f 374 375 376
f 376 377 384
f 378 380 379
f 379 382 388
f 380 381 382
f 381 407 383
f 382 383 391
f 383 409 392
f 384 385 386
f 386 387 516
f 387 390 517
f 388 391 389
f 391 392 393
f 392 411 394
f 393 394 522
f 394 412 523
f 401 402 403
f 407 408 409
f 412 413 594
f 414 415 416
f 418 423 420
f 419 420 427
f 420 425 428
f 423 424 425
f 424 445 426
f 425 426 431
f 426 447 432
f 427 428 429
f 436 439 438
f 437 438 471
f 438 441 472
f 439 440 441
f 440 461 442
f 441 442 477
f 442 463 478
f 445 447 446
f 452 453 461
f 453 457 462
f 457 458 465
f 458 570 466
f 461 462 463
f 462 465 464
f 463 464 483
f 464 467 484
f 465 466 467
f 466 572 468
f 467 468 489
f 468 573 490
f 469 470 575
f 473 474 475
f 474 479 476
f 479 480 481
f 480 485 482
f 485 486 487
f 486 491 488
f 498 502 499
f 504 509 584
f 507 585 513
f 508 510 509
f 510 550 511
f 511 551 587
f 512 513 514
f 514 515 554
f 518 519 520
f 519 591 521
f 524 600 525
f 525 602 562
f 536 537 542
f 537 540 543
f 540 541 544
f 541 560 545
f 550 551 552
f 551 608 553
f 555 557 612
f 560 561 567
f 561 565 568
f 562 617 564
f 573 574 579
f 577 578 582
f 587 608 588
f 588 609 590
f 592 593 600
f 594 595 596
f 595 598 597
f 597 599 604
f 603 604 605
f 608 610 609
f 612 614 613
f 617 618 619
f 15 18 9
f 16 14 22
f 17 22 23
f 20 23 27
f 21 28 24
f 39 42 41
f 44 47 46
f 50 51 47
f 49 56 55
f 53 57 56
f 54 58 57
f 59 40 63
f 60 63 64
f 61 65 42
f 62 66 65
f 67 64 70
f 68 71 66
f 64 77 76
f 82 81 85
f 73 87 88
f 74 89 58
f 75 90 89
f 90 92 91
f 94 97 98
f 95 99 92
f 96 100 99
f 104 122 121
f 122 126 125
f 124 127 128
f 105 129 122
f 106 130 129
f 129 133 126
f 130 134 133
f 131 128 135
f 132 135 136
f 116 137 138
f 138 142 141
f 117 143 138
f 120 145 146
f 143 147 142
f 144 148 147
f 158 160 161
f 109 158 162
f 110 162 163
f 162 161 164
f 163 164 165
f 111 166 130
f 112 167 166
f 166 170 134
f 167 171 170
f 168 136 172
f 169 172 173
f 113 174 167
f 114 175 174
f 174 176 171
f 175 177 176
f 160 146 179
f 161 179 180
f 178 181 148
f 164 180 182
f 170 183 154
f 171 184 183
f 176 186 184
f 188 192 191
f 189 193 192
f 190 194 193
f 197 163 199
f 198 200 175
f 206 209 208
f 213 214 212
f 29 215 219
f 30 219 220
f 32 222 221
f 219 217 223
f 220 223 224
f 212 228 227
f 227 229 202
f 228 230 229
f 214 231 228
f 231 232 230
f 217 233 234
f 233 207 237
f 235 238 209
f 223 234 239
f 225 240 236
f 242 257 256
f 257 260 259
f 246 261 257
f 247 262 261
f 261 263 260
f 251 264 265
f 265 267 268
f 253 265 271
f 254 271 272
f 273 270 275
f 274 275 276
f 278 282 281
f 279 283 249
f 84 284 285
f 284 288 282
f 285 289 288
f 92 293 292
f 290 254 294
f 291 294 295
f 99 300 293
f 100 301 300
f 281 302 262
f 282 303 302
f 294 272 304
f 296 274 305
f 208 311 308
f 209 312 311
f 311 314 309
f 312 315 314
f 229 319 306
f 230 320 319
f 319 322 307
f 323 326 325
f 324 332 316
f 338 339 336
f 260 344 343
f 344 346 345
f 270 354 355
f 353 356 357
f 275 355 359
f 359 358 363
f 360 363 364
f 350 366 365
f 364 371 372
f 373 372 386
f 390 389 393
f 395 224 397
f 396 398 226
f 101 299 399
f 102 400 301
f 142 415 414
f 417 420 419
f 147 421 415
f 148 422 421
f 421 423 418
f 422 424 423
f 430 438 437
f 431 439 436
f 432 440 439
f 181 443 422
f 443 445 424
f 444 446 445
f 446 450 451
f 448 453 452
f 450 435 454
f 451 454 455
f 457 456 459
f 458 459 460
f 449 461 440
f 472 474 473
f 477 479 474
f 478 480 479
f 483 485 480
f 484 486 485
f 489 491 486
f 490 492 491
f 435 494 495
f 454 495 497
f 455 497 498
f 497 496 500
f 498 500 501
f 459 499 503
f 460 503 504
f 502 501 505
f 504 506 507
f 509 513 512
f 501 516 517
f 505 517 518
f 507 520 521
f 519 522 523
f 476 527 526
f 527 529 528
f 481 530 527
f 482 531 530
f 530 532 529
f 531 533 532
f 529 535 534
f 535 537 536
f 532 538 535
f 533 539 538
f 538 540 537
f 539 541 540
f 487 546 531
f 488 547 546
f 546 548 533
f 547 549 548
f 492 550 551
f 493 552 547
f 551 554 555
f 552 556 549
f 553 557 556
f 548 558 539
f 549 559 558
f 558 560 541
f 559 561 560
f 556 563 559
f 557 564 563
f 563 565 561
f 564 566 565
f 570 460 571
f 574 576 577
f 579 581 492
f 580 582 581
f 571 504 584
f 575 586 509
f 576 511 587
f 577 587 588
f 578 588 590
f 585 521 592
f 591 523 594
f 593 596 597
f 589 600 524
f 601 604 603
f 581 551 608
f 582 609 608
f 608 555 612
f 609 612 613
f 610 614 557
f 611 615 614
f 583 616 609
f 618 621 622
f 619 623 566
f 620 624 623
f 9 6 15
f 14 16 8
f 22 17 16
f 23 20 17
f 24 19 21
f 215 29 25
f 219 30 29
f 221 31 32
f 40 59 37
f 41 38 39
f 42 39 61
f 46 43 44
f 47 44 50
f 55 48 49
f 56 49 53
f 57 53 54
f 58 54 74
f 63 60 59
f 64 67 60
f 65 61 62
f 66 62 68
f 76 64 63
f 87 73 72
f 89 74 75
f 81 82 79
f 284 84 83
f 91 89 90
f 92 90 95
f 292 91 92
f 293 92 99
f 97 94 93
f 99 95 96
f 299 101 98
f 300 99 100
f 301 100 102
f 121 103 104
f 122 104 105
f 129 105 106
f 130 106 111
f 158 109 108
f 162 110 109
f 163 197 110
f 166 111 112
f 167 112 113
f 174 113 114
f 175 114 198
f 137 116 115
f 138 117 116
f 145 120 119
f 146 160 120
f 125 121 122
f 126 122 129
f 127 124 123
f 128 131 124
f 133 129 130
f 134 130 166
f 135 132 131
f 136 168 132
f 154 134 170
f 141 138 137
f 142 138 143
f 414 141 142
f 415 142 147
f 147 143 144
f 148 144 178
f 421 147 148
f 422 148 181
f 160 158 157
f 161 162 158
f 179 161 160
f 180 164 161
f 164 163 162
f 170 166 167
f 171 167 174
f 172 169 168
f 183 170 171
f 184 171 176
f 176 174 175
f 191 187 188
f 192 188 189
f 193 189 190
f 202 201 227
f 306 202 229
f 308 203 208
f 207 233 204
f 208 205 206
f 209 206 235
f 311 208 209
f 212 210 213
f 227 211 212
f 228 212 214
f 217 219 215
f 233 217 216
f 234 223 217
f 236 218 225
f 223 220 219
f 224 395 220
f 226 222 396
f 229 227 228
f 230 228 231
f 319 229 230
f 256 241 242
f 257 242 246
f 249 245 279
f 261 246 247
f 262 247 281
f 264 251 250
f 265 253 251
f 254 290 252
f 271 254 253
f 272 294 254
f 274 296 255
f 259 256 257
f 260 257 261
f 343 259 260
f 267 265 264
f 270 273 266
f 354 270 269
f 355 275 270
f 275 274 273
f 281 277 278
f 282 278 284
f 302 281 282
f 288 285 284
f 294 291 290
f 307 306 319
f 309 308 311
f 314 311 312
f 316 313 324
f 325 322 323
f 336 333 338
f 345 343 344
f 365 349 350
f 356 353 352
f 358 359 355
f 363 360 359
f 371 364 363
f 372 373 364
f 389 390 387
f 418 415 421
f 419 416 417
f 423 421 422
f 424 422 443
f 436 428 431
f 437 429 430
f 439 431 432
f 440 432 449
f 435 450 433
f 494 435 434
f 495 454 435
f 445 443 444
f 450 445 446
f 452 447 448
f 454 451 450
f 456 457 453
f 497 455 454
f 499 459 456
f 459 458 457
f 460 570 458
f 503 460 459
f 504 571 460
f 509 469 575
f 511 576 470
f 473 471 472
f 474 472 477
f 526 475 476
f 527 476 481
f 479 477 478
f 480 478 483
f 530 481 482
f 531 482 487
f 485 483 484
f 486 484 489
f 546 487 488
f 547 488 493
f 491 489 490
f 492 490 579
f 550 491 492
f 551 492 581
f 496 497 495
f 500 498 497
f 501 502 498
f 516 501 500
f 517 505 501
f 506 504 503
f 520 507 506
f 521 585 507
f 512 508 509
f 524 513 589
f 522 519 518
f 523 591 519
f 528 526 527
f 529 527 530
f 534 528 529
f 535 529 532
f 532 530 531
f 533 531 546
f 538 532 533
f 539 533 548
f 536 534 535
f 537 535 538
f 540 538 539
f 541 539 558
f 548 546 547
f 549 547 552
f 558 548 549
f 559 549 556
f 554 551 550
f 555 608 551
f 556 552 553
f 557 553 610
f 563 556 557
f 560 558 559
f 561 559 563
f 565 563 564
f 566 564 619
f 576 574 573
f 587 577 576
f 588 578 577
f 581 579 580
f 608 581 582
f 609 582 583
f 596 593 592
f 603 600 601
f 612 608 609
f 614 610 611
f 621 618 617
f 623 619 620
f 15 16 18
f 24 25 26
f 21 27 28
f 37 9 40
f 45 46 48
f 50 41 51
f 68 70 71
f 64 24 77
f 65 76 78
f 77 26 80
f 79 80 81
f 72 78 87
f 75 88 90
f 93 85 97
f 96 98 100
f 119 143 145
f 136 154 156
f 157 159 160
f 175 165 177
f 178 91 181
f 176 182 186
f 190 156 194
f 198 199 200
f 204 202 207
f 25 210 215
f 215 212 217
f 32 220 222
f 216 227 233
f 235 237 238
f 225 239 240
f 252 249 254
f 243 256 258
f 261 208 263
f 250 258 264
f 266 268 270
f 255 272 274
f 279 283 281
f 83 221 284
f 86 285 287
f 285 226 289
f 293 295 297
f 98 287 299
f 282 236 303
f 296 304 305
f 207 306 310
f 209 310 312
f 310 307 313
f 312 313 315
f 315 316 318
f 319 321 322
f 327 328 330
f 324 325 332
f 335 336 337
f 338 330 339
f 260 308 344
f 344 309 346
f 269 352 354
f 355 357 358
f 350 318 366
f 351 365 367
f 361 367 369
f 363 369 371
f 375 337 378
f 377 378 379
f 385 379 388
f 387 388 389
f 396 397 398
f 102 399 400
f 417 418 420
f 433 276 435
f 430 436 438
f 181 292 443
f 444 297 446
f 445 305 450
f 448 451 453
f 453 455 456
f 449 452 461
f 434 359 494
f 495 364 496
f 456 498 499
f 503 505 506
f 470 509 511
f 509 507 513
f 510 512 514
f 500 386 516
f 506 518 520
f 518 393 522
f 515 524 525
f 493 550 552
f 550 514 554
f 555 525 562
f 557 562 564
f 572 571 575
f 573 575 576
f 580 577 582
f 575 584 586
f 592 594 596
f 589 592 600
f 601 597 604
f 602 603 605
f 611 613 615
f 583 590 616
f 617 605 621
f 620 622 624
f 9 37 6
f 24 64 19
f 27 21 20
f 25 24 23
f 26 77 24
f 220 32 30
f 221 83 31
f 41 50 38
f 46 45 43
f 76 65 63
f 78 72 65
f 70 68 67
f 88 75 73
f 80 79 77
f 85 93 82
f 285 86 84
f 287 98 86
f 91 178 89
f 292 181 91
f 98 96 94
f 399 102 101
f 143 119 117
f 154 136 134
f 156 190 136
f 165 175 163
f 182 176 164
f 199 198 197
f 202 204 201
f 306 207 202
f 308 260 203
f 208 261 205
f 310 209 207
f 212 215 210
f 227 216 211
f 236 282 218
f 226 285 222
f 239 225 223
f 237 235 233
f 256 243 241
f 258 250 243
f 249 252 245
f 272 255 254
f 268 266 265
f 352 269 267
f 276 433 274
f 359 434 275
f 281 279 277
f 295 293 291
f 297 444 293
f 304 296 294
f 305 445 296
f 307 310 306
f 309 344 308
f 313 312 310
f 316 315 313
f 318 350 315
f 325 324 322
f 330 338 327
f 336 335 333
f 337 375 335
f 365 351 349
f 367 361 351
f 357 355 353
f 364 495 360
f 369 363 361
f 386 500 373
f 378 377 375
f 379 385 377
f 388 387 385
f 393 518 390
f 397 396 395
f 418 417 415
f 436 430 428
f 451 448 446
f 452 449 447
f 455 453 451
f 498 456 455
f 509 470 469
f 550 493 491
f 505 503 502
f 507 509 504
f 518 506 505
f 512 510 508
f 514 550 510
f 524 515 513
f 525 555 515
f 562 557 555
f 571 572 570
f 584 575 571
f 575 573 572
f 577 580 574
f 590 583 578
f 592 589 585
f 594 592 591
f 597 601 593
f 603 602 600
f 605 617 602
f 613 611 609
f 622 620 618
