# encaixante_serra_alta - exportado do GemPy
v 588375.6691242065 7002242.858596933 555.858613830113
v 588375.6355237969 7001361.032759399 595.104055941116
v 589829.4553797704 7002343.49585904 559.7764205195278
v 589829.366913733 7001636.49957477 594.1246626038863
v 591282.9814134953 7002204.394327474 558.4376234892372
v 591283.1651313736 7001254.400520004 599.0419689898864
v 592183.0276733771 7002192.74469465 561.4709379308686
v 592694.6230340339 7001647.630723119 602.7621175083729
v 588092.3619094966 7006777.6893302025 137.3195084806249
v 588145.3089317426 7006703.237364125 196.14353251800338
v 588198.9846354045 7006629.947639176 257.54550478347574
v 588258.5241894403 7006562.579627123 321.317602475729
v 588009.2558015907 7008115.09227539 259.96398692934275
v 588081.7147425067 7008188.505056001 309.43124712094897
v 588155.7748978784 7008256.6388563635 357.3783618962109
v 588231.9406828494 7008317.045908672 403.63110744789725
v 588328.803896285 7006503.57742213 386.77082600109213
v 588522.2787304948 7006511.253866618 443.8383477021789
v 590454.1603583824 7004602.563499335 499.49589700250385
v 589913.0450514763 7006225.058469169 506.2656194740073
v 588375.6693477399 7002642.791782934 555.2928922525754
v 588375.6692108165 7003207.517831733 593.3219267279651
v 588377.9985907346 7005948.607393396 531.9149328437679
v 588376.1925862911 7005542.6347268 600.2170657749471
v 589870.8696279422 7003620.888108478 551.1813189511347
v 589276.1836157741 7004219.567994163 600.6450069476194
v 589525.1545900165 7005639.479789854 552.7458764996107
v 589276.1274627354 7005274.01864228 599.3312870476775
v 588313.824976964 7008368.352316224 448.1040591247186
v 588510.7921048977 7008508.547874464 496.04523788670406
v 589827.2900238516 7007744.4617565265 498.24868621728905
v 588376.9675786496 7009448.171451099 530.5477830373511
v 588377.6840290616 7009663.1002984205 568.1751536120173
v 588376.2096083334 7010868.714703682 582.0670733577515
v 589681.2852732519 7008892.614739358 529.8227407531807
v 589670.7387277038 7009456.602103881 580.6016095924979
v 589090.4440268521 7009674.951537899 564.9515378988916
v 589217.824738889 7010629.416000933 598.2360560142087
v 591012.8819686348 7004603.062315861 472.36313569557603
v 591131.669334397 7005852.908853519 493.74343832722036
v 592003.4869666852 7004900.701537899 507.8265378988916
v 592006.6879484552 7004890.032165168 507.82726799931913
v 591413.7277396104 7003766.837399506 468.57299388524484
v 591637.9667508261 7005923.771756541 536.002098104805
v 591761.4583437284 7006945.673992556 588.5139824505563
v 592208.3792253933 7003943.548094365 489.38187513084006
v 593012.4351733037 7003687.117621036 526.5207510693664
v 592102.0069380712 7005167.814310149 526.826879499949
v 592407.6444601762 7006113.972293249 690.6961892268745
v 590574.5825733984 7007356.622346712 505.5614973456941
v 590749.7655555778 7007695.2963546235 521.7740220269667
v 591289.3965466782 7008127.014251667 541.2026325453188
v 592135.8268643535 7007535.24933288 611.0971330027023
v 588352.2866673362 7000448.119911512 649.5421070017013
v 588821.2740857623 7000246.757576072 692.2698426062424
v 589789.8540764248 6998872.924826984 715.0270563612522
v 589829.5267185386 7000742.737207803 652.7926031455244
v 589829.5390013164 7000256.083696782 694.9435931900208
v 590248.2670674591 6998037.219110096 754.7554702786192
v 591614.7894434356 6999723.511116653 656.8263875219899
v 591190.9424725058 6999193.287121727 696.7322746606148
v 591191.4409964266 7000352.868100101 646.2935323217389
v 590645.8023467289 7000179.160015481 684.5045992081789
v 592398.9749059681 6999723.533086327 659.3923615248232
v 592917.427511283 6998803.50317262 721.302420881365
v 592824.9552890835 7000434.777050063 639.6885067096167
v 593368.1463981975 7000173.697604566 682.5874759697494
v 591283.0382084465 6998068.495422631 761.4182382952453
v 592468.4003405076 6997880.477905208 752.9756718436179
v 588438.9971545219 7004128.106047185 652.4417892083454
v 588042.5689844602 7004342.5822118865 708.1544559044573
v 588439.439662416 7005152.736545353 655.4830464848525
v 588043.0310753381 7005070.107367269 709.3835507087457
v 589150.9794810576 7004662.295944056 631.8095569395688
v 589150.9547180432 7005023.5277558 630.9312961275368
v 587832.4518987403 7004576.295363732 765.0014739209895
v 587716.1822895413 7004763.304614354 809.5989744940622
v 587832.7743007616 7005006.4349747365 765.5761725220144
v 587716.2487443421 7004948.038837055 809.601682048295
v 590245.1772575577 7009563.80296642 637.4563773394416
v 589877.3746454723 7010725.463672978 652.477455402819
v 590118.0853698842 7011455.226116081 705.6061000053166
v 590368.2649529658 7011923.854097097 764.6993946201064
v 590530.0174178021 7012051.001540098 795.4257597420086
v 593356.3822174609 7004451.029317567 579.2341829661138
v 593123.127188885 7006070.976460339 769.6640997895282
v 591182.1671537034 7009198.87874858 616.2297915377242
v 591589.4969711839 7009543.909910051 687.5055820097683
v 590619.3469078566 7009834.891156844 676.3531783010397
v 591176.8626660662 7010308.02550187 703.9346619620883
v 592671.9442006655 7008028.10786474 672.458098245067
v 592733.1160798472 7009277.887075444 729.7700013929547
v 592788.5635598698 7010844.893165228 748.6366468337021
v 591283.6822341045 7011420.561252164 761.1999386347736
v 591427.8573018996 7011971.467560366 817.0408763024531
v 593217.2971301409 7009618.965659677 744.4952565826386
v 592743.274474036 7010956.639886224 759.911413152323
v 592122.1156037797 7011957.2573513705 820.9361130197664
v 592009.8890378989 7012084.258334415 850.5765378988916
v 592009.8890378989 7012084.258334415 850.5765378988916
v 587595.6308760747 7019158.510658934 206.1843978165819
v 587520.8115506261 7019069.230164529 248.97027997999243
v 587424.3474957399 7018956.597500208 300.9233954977338
v 587327.8662319673 7018845.063066416 347.07170204906583
v 587233.268815785 7018730.375190495 383.65426727268294
v 587144.1933985738 7018602.540354739 405.89888240758034
v 587064.4165527468 7018442.018022055 410.8345734556348
v 586989.441175718 7018226.801005154 406.469036604447
v 587874.7798443846 7019159.5932222 200.52409861147402
v 588134.8216667614 7019070.47470275 238.94520465539824
v 587874.2163003354 7019360.645537376 200.15328047212813
v 588132.5820783782 7019532.537751569 237.34518857603382
v 588485.4293931036 7018974.463971251 290.33885923152843
v 588380.0612961577 7018675.322062401 349.2919745638451
v 588481.8902786991 7019680.639242647 289.37715277903857
v 588375.528664218 7020134.385357489 357.8956764688303
v 589181.6685213216 7019164.144146287 325.6541037707474
v 589301.960569886 7019058.202238492 366.9636201048308
v 589181.8657284032 7019320.062113131 324.9383920572388
v 589303.0885269388 7019477.766113009 363.02609131279837
v 589126.7742009602 7012085.543469705 616.6218904211195
v 588381.8426175867 7018405.540466679 406.513546153699
v 588382.4713922277 7018132.596620625 466.17132513550223
v 588375.6120718872 7020473.601147652 420.19734429195523
v 588375.652192575 7020766.892226372 479.6065338600537
v 589444.8129704979 7018905.761623724 426.89918116583385
v 589557.1116502709 7018752.977247365 483.8046974436885
v 589447.2935236901 7019680.565542632 418.32919858853967
v 589559.5568647679 7019854.7765205875 475.1765959407378
v 588381.3234715173 7017854.7241496155 527.6783241586969
v 588378.8620855289 7017566.540065351 587.6735992963706
v 588375.6244513235 7021023.106292618 537.7317795071647
v 588375.5954992435 7021249.192159498 595.1874745756857
v 589649.120353833 7018597.611034809 535.3545370168617
v 589725.8442329771 7018437.819194075 581.9927354769186
v 589649.5021206364 7020006.43473667 532.9668970071182
v 589723.2909485323 7020140.0972806215 591.0159338065221
v 593229.5429674637 7014319.21499532 608.1277480184393
v 593229.5533595781 7014731.424125849 608.0963970283066
v 593468.524815021 7026389.502959524 393.5765379855482
v 592736.7397918346 7027886.666680083 193.63303275480422
v 592736.7384557646 7027824.0638370635 250.75541319659288
v 592736.7362518456 7027730.056703114 307.8750718853579
v 592884.078790686 7027337.1546210665 370.69029282222124
v 589423.4038826694 7023901.835444219 612.5505710357838
v 593417.0622347678 7026342.203951356 416.94597999975554
v 593253.0060810804 7026197.063313792 479.26468325599706
v 591283.0630887796 7025999.849037768 600.100852085539
v 593028.1304467992 7026015.199827325 536.3977092254805
v 592653.7148127314 7025822.871591173 592.510674481335
v 592940.2430988093 7027112.521180989 412.9984018542554
v 592526.1481120952 7027484.627104141 479.2027014220884
v 592204.5777359887 7027950.86629169 545.5158363483514
v 592079.8503411419 7027920.547412833 587.6851496809403
v 586440.2961928274 7016309.034224593 707.8910735519725
v 586930.6910133853 7015937.652234922 867.2758193796146
v 586926.5551809997 7014749.447289957 749.9628574716444
v 587407.4037632273 7014529.0458947765 808.9383346070225
v 586809.4055994651 7017602.14438154 454.8380187477519
v 587413.2545179332 7016912.595263072 695.2257011495536
v 588075.1779050172 7016464.262335353 775.7501446467004
v 589213.8942104017 7012183.185488783 650.6300579484067
v 589390.7524648565 7012436.045148237 707.8874564690639
v 588536.607914066 7015495.15835458 809.000028907201
v 588038.8669385018 7014528.699422917 807.1024017997704
v 589626.3425250208 7013233.358693192 769.4182758221652
v 590289.074298094 7013255.659432351 803.3981756433619
v 589456.840445433 7015650.305897255 799.2186416560048
v 590251.06802432 7015732.682602975 826.9251939620401
v 588374.3688247905 7017261.695762584 641.5876453928524
v 588485.5445237652 7016954.318211186 702.5035614743259
v 588343.5060430134 7021468.071817935 652.4451963146812
v 588924.9142300986 7021570.047296375 713.890590663621
v 589788.999530573 7018274.774001287 627.5709015611651
v 589971.6057323929 7018209.847062793 674.1317144101265
v 589785.0080904354 7020259.09568866 649.148848946136
v 589824.5424663534 7020729.653788501 710.6738942970563
v 589045.0652021882 7016846.26640768 738.0398013593513
v 589102.2739712128 7021610.513913406 736.3450222249294
v 589876.5583315196 7017376.065107985 745.4117887499717
v 590422.4919322255 7017090.784966048 820.6577580224285
v 589829.4000640725 7021533.98630958 739.2528885745506
v 591982.2736814636 7014416.67155001 675.0276777988337
v 591860.2271398152 7014267.72686615 707.6040192869791
v 591982.2738918633 7014528.305736352 675.0169750087714
v 591860.2008015865 7014807.964301004 707.6642131441412
v 592741.7374295611 7014076.180807117 653.1971684279731
v 592805.846353065 7013073.805089862 707.7737783995492
v 592741.724198235 7014983.155711225 653.672126060514
v 592736.7542538663 7015720.720754633 707.7381018335209
v 591613.5999460106 7013950.519711445 764.3908725711061
v 591214.2895099716 7013221.028019734 811.6283556918902
v 591613.4910127971 7015247.468786502 765.164758176117
v 591215.2334240498 7015850.87302474 824.0600318562524
v 592390.148685349 7012757.198235935 765.2050969135014
v 592159.4596820965 7012402.500097644 811.4563762996208
v 592966.8817281984 7016521.651558792 773.7725419884507
v 592718.5062142938 7016742.104488096 801.268261877732
v 591282.9416324777 7018973.128635874 725.1617375985551
v 592011.2866931086 7021617.647183882 679.3209881959665
v 591429.1317408368 7020887.6147273835 703.5883078649474
v 592043.1710334057 7019091.838101155 731.405830860675
v 592009.8890412651 7021621.182505784 679.3807114038033
v 592510.9374439537 7020788.12342767 708.7950434141933
v 591282.6989292593 7018171.464368191 767.5667602652973
v 591270.2242489477 7017170.287936651 823.171461433459
v 590652.6160574238 7021508.339912496 738.7403807378579
v 592696.9666555536 7017898.73016729 776.815158352915
v 592778.9587560168 7017670.133030928 814.6925223074757
v 592867.1270839619 7020249.354480544 764.5947158107483
v 593010.6106079092 7020096.607482122 821.967789225532
v 590542.9666766749 7016587.419578997 853.5633034944399
v 590542.9640835709 7016870.263545452 853.0294611622792
v 590777.1882520956 7016587.40914541 853.464647999239
v 590777.1822714047 7016870.27571598 853.1698556995449
v 593124.2997612898 7018318.421595559 879.5315213320793
v 593217.7045243926 7018504.599512714 936.5606588082817
v 593124.3906951196 7019945.466405728 879.1686599574193
v 593217.8024953554 7019794.838794965 936.3087020633088
v 593296.5786885801 7018692.97313043 993.5764675471407
v 593364.6862106614 7018885.038058523 1050.6050255018922
v 593296.6486699511 7019643.63439869 993.4276475838642
v 593364.7186619709 7019490.752294736 1050.538643973658
v 589876.5436605862 7023608.591253362 649.4048981455347
v 589683.9797309688 7022289.950228751 713.157803851365
v 589829.3910377295 7021680.78434206 738.6693611991174
v 591299.4943233817 7022925.951307952 672.9855494072686
v 591336.0612805205 7022589.822284199 702.1674352162963
v 591298.684766056 7024906.419755717 649.0166073951774
v 591793.6423478608 7024434.166633155 695.6462707593449
v 593073.9600597591 7023293.316067797 677.1019832715943
v 592861.1459059158 7022956.768293785 693.6015646693305
v 592861.1989786575 7024842.460671731 655.0006431845475
v 592459.6057898266 7024434.172027136 695.6946746670637
v 590652.6216480976 7021703.519812692 738.8021700130399
v 592089.0150763551 7028621.133620563 650.6364141845665
v 592142.4036348998 7028653.971530684 707.7621416501142
v 592197.0511431145 7028668.119359398 764.8872093967531
v 592252.9435291108 7028678.884671446 822.0121572273753
v 592310.2391882715 7028688.629353535 879.1370609778864
v 592369.4258690112 7028698.0801743 936.2619504031868
v 592431.603278797 7028707.526376087 993.3868318352119
v 592499.1311674024 7028717.096795422 1050.5116804326035
v 597769.9893005046 7002396.074471638 388.5940189892017
v 599091.0752264401 7002324.713210285 327.2569095988793
v 598584.645966374 7002023.0980459275 367.16541929136974
v 596118.1404488325 6997462.059986736 602.7244994632238
v 593790.1746785117 7002162.936316822 622.4678043963219
v 596118.077925687 6998150.413274938 602.0764742477863
v 596167.3164882874 7002120.102596122 555.4610032487985
v 595891.7065655345 7001706.68502126 613.9079599805701
v 597742.9745180224 6997692.22857006 504.1855790845199
v 598551.536589105 6997576.817236446 495.06833318776074
v 597413.1574897736 6997502.983065505 533.9916747403647
v 596962.8683384125 6997143.717140002 583.4594536057294
v 598551.51308288 6997038.578611022 532.4034936278891
v 598551.5122339439 6996367.937893864 593.4681342489209
v 597742.9675327436 6997925.77948175 503.90035303298964
v 597594.232804097 7002084.866106343 428.22197526961094
v 597286.6302558519 7001640.01243598 495.44236717633163
v 598493.9427810474 6998806.349113528 494.77471148311326
v 598551.6920053335 7001121.233712216 422.9720505171864
v 598493.4364285119 7000394.0344820125 470.99031412306863
v 597409.5205544437 6998806.327859262 542.1332150126252
v 596653.610403843 6998941.058052949 596.0046570178151
v 597037.3111161429 7001168.1581513295 556.0381217247607
v 596710.3292164181 7000510.622338407 595.6578710966727
v 597970.598981135 6999517.443917546 519.6030718515515
v 597970.321392983 7000209.380146158 514.7742179458288
v 596295.8139360625 7004777.269806756 267.2343222938155
v 596241.0835921323 7006094.559516902 195.59519840124062
v 596154.2542548396 7004570.160681645 302.65570800898587
v 595934.597857778 7004294.873562601 349.20068018824406
v 595894.4555276328 7006096.420418786 238.2406690182308
v 595430.64322567 7006099.158131846 300.0889891670068
v 596280.1109283268 7007473.294329793 267.35815283670996
v 596117.9089040998 7007740.051249851 311.36537349873856
v 595873.8959493059 7008046.530934383 372.3493014981383
v 597522.9664069851 7004654.064474544 188.9252103741773
v 597035.5823972231 7004370.817998242 240.86604919124653
v 597187.0065724433 7006093.54330179 136.79135577690738
v 596560.6439945631 7006093.8525041 170.3243761050768
v 598551.8667997179 7004287.737482576 182.9798322782259
v 598551.7076197544 7003537.920767487 243.84018774300597
v 597097.8420725174 7003706.853709558 303.27576035600686
v 597210.634372061 7003061.364194059 367.3951678051969
v 598584.6427365552 7002854.939996453 303.30533725536463
v 598121.865419036 7002638.801258161 348.1449424306248
v 597491.2363449614 7007656.921812333 191.13054952083064
v 597024.3429974079 7007996.287722676 246.8813577274882
v 598551.4788529443 7008173.490195199 183.64567599178588
v 598551.3256569544 7008997.0173766995 242.5595246931017
v 597097.267456342 7008784.9825067865 303.8072608739309
v 597131.2798673384 7009321.649124119 352.9641868904383
v 597639.8392608184 7010052.55555653 376.6673452616817
v 598427.5378822434 7009542.419712931 295.15893835947975
v 597860.4766338186 7009663.807631878 337.75728948569065
v 598829.5927692538 7009986.361791618 315.3970421675397
v 598427.694491385 7010428.831455435 355.5628115177199
v 594879.7857665903 7004805.957966181 443.7037505470147
v 594765.0450761986 7004550.27376966 453.810258055655
v 594835.8697312484 7006100.493703032 405.54150642501355
v 594584.9550208113 7006095.720322431 472.8686269515467
v 595566.0196904857 7004161.440783761 392.79761105615376
v 595641.5625298906 7003485.233334744 467.91422483781776
v 595050.6232189069 7006100.936508224 360.89980644326636
v 594566.1430311755 7004187.732984359 471.5205723299663
v 594101.0981999486 7003485.005106609 503.0073545551794
v 594228.0371374234 7006086.626473522 574.7067768657989
v 593858.2425840129 7006076.602557494 671.8140175826089
v 595666.631706238 7002907.617122141 550.7170745457354
v 595164.0961463001 7002697.181522677 599.9555692552788
v 594851.6161097224 7007583.271922417 439.40866623345136
v 594738.1487455585 7007951.109360662 488.41495248132554
v 595539.7540269365 7008261.518534296 424.59296736136423
v 595704.7109670737 7009210.263840865 478.2439573549311
v 596230.3248463564 7009981.46008563 500.10521587439314
v 594567.0963872273 7008302.628811588 525.5691919319671
v 594410.2796739908 7008701.86745347 542.5077355163339
v 594783.6714581545 7010158.903864675 597.849891462654
v 595219.3593217225 7009493.622202234 531.8676041072786
v 594977.4988333166 7009643.906023001 568.920939885857
v 595947.2702008389 7010411.868406112 536.0383453834035
v 595594.3693006923 7011049.938880147 579.763138442515
v 596866.9662120014 7002858.225615223 421.88505199403875
v 596558.2537974608 7002635.9182346035 479.1449931971961
v 596389.3369595155 7002524.688474377 509.40426455324916
v 596673.1960694282 7009477.308678655 420.2174999048842
v 596474.609052277 7009612.388523453 460.7203966347688
v 597400.3999542888 7010439.736197002 421.8404236930742
v 597119.0000016221 7010945.195213711 478.39674806943947
v 598551.4094704108 7011437.029312167 417.77438852522926
v 598551.4737478255 7011921.896621328 462.4056529727565
v 596788.4630685708 7011605.669168352 533.8567426605866
v 596504.2760825686 7011942.518511573 574.8403746090733
v 600005.4570851673 7002260.299839557 317.20676703847585
v 600005.3008350801 7001445.005073171 359.2302293629221
v 600821.8955088895 7002365.383276634 330.32188643113864
v 601078.3985970488 7001970.244494334 358.22283269758077
v 600005.2246416946 6997585.812572977 498.75731716052155
v 600765.6150779679 6997704.081937494 506.7724230841607
v 600005.182133477 6996840.094750206 534.8973415216278
v 600059.9388593233 6995789.405637489 597.789935309633
v 601333.7135773891 6997262.178105474 537.1941327432114
v 600349.748393477 6999841.662576975 442.7457219214928
v 599921.4603204803 6999000.835451414 469.7897969207531
v 599921.2224222415 7000442.628804833 420.2410360298742
v 599380.5618103908 7000149.559634173 452.4713526922625
v 601008.6326208687 6999841.654311912 442.7508991390887
v 601371.8778040138 6998968.553649268 478.3684538667692
v 601541.6402529206 7001154.983579219 407.1572845076366
v 601977.8453075709 7000373.428336944 455.07660602687406
v 601734.8161251957 6998095.671649233 520.4948728772417
v 602268.9481211998 6997524.160971363 559.8235883833391
v 602474.8586658094 6996655.36663763 598.5513493063785
v 602353.0923154693 6999687.117430731 493.9233059155238
v 602288.7604563934 7001964.820697102 437.4467184427461
v 602514.0929290327 7001229.302164776 469.62511249157205
v 602574.7816788604 6998907.8548365515 534.9778496107843
v 603290.3003926239 6998832.879717291 588.4676831906218
v 603145.8832037138 7001319.859712458 530.5819379903257
v 603540.0868874722 7001319.9122970365 570.7635532975565
v 603744.3773968882 6999562.133972551 609.5454418515203
v 603802.7237475456 7001319.931285919 599.8520273190319
v 599704.6318287243 7004534.174847558 183.9575089953696
v 600132.1791174657 7003987.421495041 225.89047535559763
v 600303.5710260979 7006144.87725363 178.26345397154887
v 600699.8873554302 7005383.333161979 220.39325406972307
v 600904.9286321513 7004438.810650525 259.44722739475077
v 600747.708665432 7006974.921237722 219.33907905784133
v 600974.7249234322 7006145.050146662 234.55516207993855
v 600005.7805971783 7002860.875161626 285.5879911742152
v 601100.6546433334 7003668.436960097 301.08261814983445
v 601801.1837956231 7003795.905499856 361.7122265184306
v 601584.3212802166 7006094.180945051 298.07777590601967
v 602020.8307112025 7006094.202766191 347.61449071607797
v 599962.4645957453 7007725.662628317 185.73027191239794
v 600006.153067261 7008665.136627088 236.56822226229667
v 600747.5812269441 7007328.682313564 220.73768440026265
v 600904.7546069945 7007702.253014715 246.62815828820953
v 600005.6008701833 7009445.282646509 283.7585442676038
v 600005.4575061919 7009977.381383981 314.3023528024917
v 600005.3994326671 7010711.066676563 359.9866905121788
v 601138.4982702158 7008549.911128219 297.91431776953965
v 601781.0709686619 7008463.466033745 353.5513431678541
v 600795.4647617771 7009766.569910002 331.73956397441697
v 601016.9432237744 7010052.139397773 362.9498257421215
v 602215.2687538919 7004651.2194720805 390.00708481985674
v 602267.8162846548 7006094.209909237 377.12451257041073
v 602264.5898217704 7007655.320807263 382.65077560069943
v 602072.6025830824 7003059.8044509515 401.6995407605836
v 600005.3409124116 7011475.034154201 418.5020667696289
v 600005.2944528077 7011934.822630662 460.4521668607084
v 602017.5882927976 7009246.793356588 405.08789510223403
v 601503.817659192 7010395.360305642 417.7262769641616
v 601382.9301072337 7011399.306087131 475.07588156142447
v 601889.901342004 7011821.6352709215 534.9549855558214
v 602160.8825678686 7012044.058963314 566.3064910211741
v 602374.4427442377 7003796.200178963 422.6865454550817
v 602851.0640376712 7003707.182317541 481.1124482682559
v 602577.6620246078 7006094.213049549 416.15223681958804
v 603021.7573578812 7006094.220993116 474.45601269541953
v 603312.2564488478 7003707.192012083 539.1198827273834
v 603587.408302776 7003707.193196586 574.7067114422985
v 603465.0402069974 7006089.629364835 536.27846512958
v 603616.5071114148 7005290.872084315 567.9439252083082
v 603815.9106984221 7003707.188932677 603.193559203888
v 603667.78162804 7006882.29520591 560.4116769228406
v 603833.219139802 7006089.646421898 587.2215700472111
v 602405.3977297713 7008463.293848228 416.96009107396685
v 602857.0351646387 7008481.515477871 471.3554555343343
v 602240.8346145392 7009804.559442344 444.8514284334657
v 602402.3614010784 7010141.996760915 477.56520847311833
v 603375.3622154085 7008394.632178151 533.5281205430973
v 603559.3790238274 7009132.3740479825 572.4812688708872
v 602664.6723499907 7010628.223415562 531.118135183589
v 602979.2517084602 7010999.954240677 580.6320910070579
v 603667.7212483913 7007540.914651381 560.8168237005685
v 603807.8477569235 7008394.589991016 588.5359906458145
v 603720.2685491676 7009955.094880228 611.8596466532642
v 594190.3965354852 6997503.244779258 721.7363935335754
v 595826.6296900352 6997157.950065509 647.6956236998253
v 595505.608618333 6996859.8337558145 697.8080661308086
v 594190.3359957158 6996845.899513076 763.3584355367191
v 594190.393359145 6996127.166843875 822.4057318417227
v 595772.3667194186 6995887.1403113315 767.9501770312638
v 595380.8049178234 6995624.556484291 821.5969316241727
v 594292.7653112285 6999081.731868969 735.263769959939
v 594242.0265881752 7001583.761290655 669.8840917145292
v 594293.4300360347 7000376.674557346 710.9560074199802
v 595840.2075204423 6998941.229575315 660.1258205319266
v 595138.4948253373 6999080.437462488 715.3652690993765
v 595589.1820681492 7001152.7144489745 681.6784657807646
v 595184.4755397883 7000403.198987999 710.4276227322066
v 594846.868500839 6999973.249540322 740.0808335653155
v 594846.8677107972 7000153.12282244 738.6865129808128
v 594949.004647017 6999973.225024644 739.7798116808823
v 594948.984645244 7000153.118604697 738.5705021345653
v 597097.7866273678 6996376.741252423 648.9506065231424
v 597097.8055455299 6995877.467489264 707.0253878611067
v 598655.7417099325 6995761.42869264 657.9553009956126
v 598256.3717080102 6995559.177966323 710.5298128289446
v 597097.7947143703 6995503.342462642 758.2846725337371
v 597984.412511513 6995427.0267339675 749.5807219983403
v 596483.3207165173 6999742.090502802 635.5856219128048
v 596483.0354856619 7000237.596925675 631.78452779752
v 594196.8459782803 6995579.363819018 882.4026566192131
v 595079.2302711464 6995447.6057181405 863.5897599269721
v 594111.9356769826 7003544.732827633 493.0456604868757
v 593572.410945099 7006070.047171441 734.2315578616207
v 594966.0166936044 7002546.306611296 626.221928944246
v 593831.2031629379 7008436.903408213 628.0353129181033
v 593635.8206099971 7009279.534455337 717.1931428733726
v 594594.2626492106 7010607.073898785 630.0807453270197
v 594059.8536706907 7011088.369606374 684.3309741451376
v 595196.41581658 7011802.745604372 653.3296426240471
v 594963.6977033518 7012027.264870175 682.9128462694968
v 593501.902550248 7009618.977234425 741.3540164830935
v 593501.6517326056 7010153.679244782 739.6032533575749
v 603206.0214248081 6996467.516692568 647.1643657302029
v 603487.4764286325 6995619.737297051 687.5551275615793
v 603754.5611426138 6995017.496763171 725.7190380643219
v 603777.8936515346 6997211.152125303 665.8331052186525
v 603993.2429747488 6996467.512534845 705.8524377244241
v 603908.383823838 6994196.460228659 769.2831875958587
v 604547.7655946899 6994298.554394385 823.1153550915635
v 604687.7538283694 6996648.6053650705 766.1527345007779
v 604935.3446346432 6995921.566539736 806.9594701199353
v 603545.5876251268 6997970.749528961 627.7596595606201
v 603949.3338592203 6998832.930099893 645.2676994661502
v 604525.7463945784 6998932.802192727 704.7955434556335
v 604205.3947766392 7001319.955027948 647.6346875266265
v 604674.8744055537 7001319.973782769 705.4482615160632
v 604944.1848117221 6998932.8204283975 749.4625245274764
v 604998.9643199461 7001319.981389189 746.737116290691
v 604844.4215574021 6993525.011722341 878.5576955975638
v 605034.4576596257 6993080.493582179 912.7413778136756
v 604213.9086268472 7003707.175792224 653.3476217879885
v 604644.8980493468 7003707.166096273 710.1546833813316
v 604289.6012724133 7006094.251193759 648.4894600910299
v 604696.6657111391 7006094.2551412005 706.1839590105561
v 604973.8264709767 7003707.160375526 755.3419152369411
v 604994.1716041348 7006094.258019712 749.8713529945964
v 603399.3403765386 7011616.703591664 649.1700839816823
v 603592.0222116108 7011983.73531205 683.1922604031141
v 604233.1604732813 7008481.432309178 645.8420249550942
v 604656.2857201493 7008481.421820882 703.707803358199
v 603875.3029228286 7010423.15688574 648.2670242902249
v 604096.1616916081 7011060.386685663 699.2783567369463
v 604978.4820517711 7008481.416434514 748.9831167591719
v 604735.2368357647 7010761.749217253 763.7203951877987
v 604938.2485514543 7011486.115128935 808.900847834341
v 593535.2616848504 7014319.232045178 608.1819776176471
v 593535.2770595407 7014731.417157863 608.1115860499981
v 596212.2494713282 7012215.624532592 612.8039551056054
v 597763.6542217304 7012115.63483581 504.24777317636676
v 598551.5031802288 7012257.813390472 491.5325654805929
v 597515.4643285006 7012321.175214258 535.1589779864851
v 597032.3359100112 7012610.962604995 590.7480532701672
v 598551.497794039 7012785.035416575 534.4972272439392
v 598551.4936456537 7013370.476402036 592.472636167098
v 594769.6744177936 7026289.954849714 193.63855062712196
v 594648.5947630941 7026213.73639373 250.7627499481551
v 595011.0838550823 7026289.954618403 193.6379305318892
v 595073.8025294173 7026213.7358948365 250.76090083603538
v 594498.7185238228 7026121.6018611975 307.8862905692083
v 594139.5486972718 7026085.427923749 370.71974496320763
v 595137.9981904003 7026121.60101427 307.8823728671235
v 595204.0118736455 7026008.241519247 365.001633900646
v 594042.8296329343 7026828.387781509 193.6365938854036
v 593921.7513269444 7026760.71945099 250.76239908854592
v 594190.4182857354 7029529.957986375 193.62376247296515
v 594190.4215727971 7029405.216398259 250.75406915115315
v 595494.3306267165 7027578.336104094 193.60542845370537
v 595534.1651525351 7027578.342834197 250.7335740506391
v 595400.5355087827 7028860.369182985 193.63627952275482
v 595377.6456286446 7028850.37721729 250.76163974511098
v 593771.8765630109 7026660.880382202 307.8877678268786
v 593581.7034772321 7026499.0785125615 365.01192060103375
v 594190.4219145745 7029302.199192026 307.8844577309274
v 594190.420530267 7029215.792708433 365.01431583115607
v 595573.2307384154 7027578.34865624 307.8611270663803
v 595611.5133697189 7027578.353640242 364.9881310161269
v 595352.5097034823 7028840.948318699 307.88698414749274
v 595324.7723247763 7028832.039616123 365.0123167549144
v 593951.8759819338 7026003.281947606 413.0450465883477
v 594190.4179239095 7025494.277966736 479.25858340484643
v 595272.194005315 7025865.785524895 422.11733245560754
v 595342.9043581414 7025682.029348389 479.22681095785873
v 594754.7936608429 7023933.770180633 608.7177533983602
v 594190.4180100277 7025067.350780845 536.3815698384656
v 594238.3036736576 7024491.657111698 591.2009134268576
v 594990.7562056524 7023933.771036279 608.7196277092908
v 595416.512114933 7025436.960481828 536.3252629096299
v 595422.2571575786 7024994.401549676 591.1104554898145
v 593471.0574543285 7026393.256988614 394.4428070653742
v 594190.4184455489 7029142.465807149 422.1431325372968
v 594190.416294071 7029079.69617295 479.2707401846477
v 595648.9711382667 7027578.3578287875 422.1145934059939
v 595685.5426502301 7027578.361238527 479.2404833811021
v 595294.0405483255 7028823.613328367 422.137638950486
v 595259.8921397737 7028815.636078507 479.26294847531943
v 594190.414387424 7029025.627707601 536.3972516251978
v 594190.4128355434 7028978.8573056925 593.5229038772823
v 595721.1639792996 7027578.363862972 536.3657290537233
v 595755.7975326754 7027578.365677931 593.4902147132708
v 595221.89270797 7028808.078383245 536.3882387768506
v 595179.6252219265 7028800.914439448 593.5134991676149
v 600005.2646979578 7012292.750730719 489.4294196271205
v 600846.8299905674 7012162.236850912 501.3368202811862
v 600005.2432900765 7012865.0869029835 534.5401897843833
v 600005.2181003187 7013477.008524095 592.1551256791132
v 601163.0365677883 7012401.27174765 534.7821533931337
v 601589.539554081 7012784.507224844 585.2855491435209
v 602397.3728707095 7012362.860838724 603.9793027315005
v 593652.8376513661 7014007.4374593515 650.3125919747847
v 594191.1078067855 7013271.866534463 702.69439811775
v 593652.841163414 7015057.293372548 650.396598741999
v 593827.8524051841 7015361.995676063 707.4297313569281
v 595923.2478950176 7012474.20383902 649.3566004252369
v 595526.6126362145 7012932.600558118 701.8455439139918
v 594756.6944390545 7014193.3504506145 764.9926692018796
v 594882.7913540219 7014412.176308108 797.5111964121629
v 593842.7461696038 7015989.533979502 773.3642539815188
v 594206.5510489525 7015745.607281695 814.0888430078229
v 595643.9809949044 7013937.2107997695 766.0045676093096
v 595720.171531477 7014352.897339 819.9871765489529
v 595286.5822030291 7014649.762861062 835.9182803838598
v 593553.7888352268 7021550.092997353 725.2654036284981
v 593466.5875309097 7016842.72573829 792.4763900233105
v 593513.4972720285 7016939.024291277 822.0066342350727
v 593695.2254713171 7021442.922648444 764.8763007434342
v 593868.87177797 7021290.157101042 821.9933158716719
v 597097.763447256 7013280.760298323 649.1632839683889
v 597097.7874056565 7013773.150582955 707.4318672026196
v 598551.4866725722 7013825.155931893 650.0663849111631
v 598645.4534744881 7014232.05840376 711.3979355042749
v 599192.6628619321 7014487.348453119 733.3841405160686
v 597208.1242551027 7014196.501978827 769.1176112479043
v 596728.0263432793 7014356.755342277 822.0605270220274
v 597766.2474040368 7014475.073183575 791.17020739367
v 597454.8711228343 7014629.571973781 822.1546640309384
v 598223.5360217004 7014369.38701761 752.9428826042988
v 598645.4535158492 7014639.004896435 769.1250381642327
v 598551.4929322469 7015134.967433535 822.3225295715007
v 594334.0838070128 7016081.910211212 879.0153679200832
v 594434.3022818939 7016321.20191493 936.1416133497373
v 596255.7697801293 7014434.986720035 853.8887230497953
v 595720.2783096273 7014904.602220538 876.0577395182011
v 595644.032727044 7015510.371379934 936.6109740270313
v 594542.4476306546 7016499.606480858 993.2897601957022
v 594660.1272514549 7016638.243328654 1050.4596799560045
v 595644.0360341122 7015906.999268295 993.6947221147179
v 595644.0416933196 7016218.961226298 1050.8352727393742
v 593607.2147027765 7017124.854091225 879.1405802215527
v 593707.4229870326 7017310.996296622 936.3000216068043
v 594009.7552261086 7021139.0116588725 879.1101838349928
v 594284.8187399878 7021115.670950564 941.9353636557341
v 594912.0480407085 7021617.708765575 964.8265324040553
v 593815.5433130476 7017499.344933767 993.4982132595647
v 593933.175957073 7017691.431174441 1050.7535785157957
v 594429.2645628954 7021076.739157777 984.8550203300588
v 594190.4270319989 7020585.82731115 1050.5390070433245
v 594933.1967146768 7021588.682014128 988.8766130586309
v 594988.7052890455 7021512.084055734 1050.512738490834
v 596420.8854099752 7014434.992428916 853.8427774830321
v 596982.366653626 7014901.084139118 875.6498484267547
v 597097.7716106278 7015471.192392018 936.6313885240327
v 598551.494123437 7015619.183459191 879.4280861084251
v 598551.498342548 7016012.133040753 936.549936873254
v 597097.7834944022 7015857.927145688 993.7374355692398
v 597097.7966625866 7016172.764974361 1050.8418873071282
v 598551.5041097228 7016337.986682018 993.6779663052735
v 598595.4007384453 7016624.65981356 1048.6342344582583
v 599109.2054917201 7017025.84250446 1066.0188950436157
v 594238.2960652615 7023776.466250316 654.8862934224505
v 594099.1670086241 7022700.14763815 706.7284408413644
v 593785.6693008431 7024272.084189236 638.7446685434502
v 595107.0388347832 7023828.770063941 650.6329889029093
v 595267.0523556971 7023676.930445558 707.7495315304465
v 595763.7592602762 7025191.233342512 650.564489461271
v 596057.75214496 7025359.73138188 705.8067786777207
v 594422.0534466298 7022319.495765949 764.8134556317727
v 594595.7027340083 7022142.5129295625 821.9692530557281
v 595428.822428204 7023513.070561215 764.867056131553
v 595735.8760597757 7023464.548516215 825.6095068179364
v 596155.6664641934 7024809.196906404 764.853319000507
v 596281.6269052507 7024401.028199787 808.9998443200665
v 594190.4116494328 7028938.297788535 650.6479355383786
v 594190.4108010314 7028903.087656786 707.7725399780568
v 595789.4737119888 7027578.366649823 650.6137775326309
v 595908.8968983438 7027407.924466436 705.848937275083
v 595132.7328598895 7028794.12228381 650.6387163394103
v 595080.968586817 7028787.684236984 707.7638777453403
v 594917.2640378989 7028789.682641403 850.5765378988916
v 594190.4102496492 7028872.530513986 764.89686288009
v 594190.409952416 7028846.053709756 822.0210116976257
v 595751.0731334699 7027836.6962481495 764.8739760322761
v 595534.9872623503 7028144.891657709 827.715998312554
v 595024.2329699533 7028781.587299225 764.8889769692291
v 594962.5796890254 7028775.823221482 822.0140202373001
v 596387.0579069098 7026267.8004458165 723.6625341153156
v 596377.4254766108 7023991.265295413 847.0972008913418
v 596414.7701453528 7026002.777696254 764.8862145132598
v 596442.8391037912 7025194.538491526 825.5906966156259
v 596387.0580326084 7026498.615159122 723.6622531091346
v 596414.7704818137 7026643.149668529 764.8868192168378
v 596455.9577145836 7026790.147478677 822.0090777361143
v 594736.5937734031 7021950.992706791 879.1174221400994
v 594853.5463741573 7021743.033646254 936.2571621563156
v 595644.1109700748 7023107.497809179 879.1267705179374
v 595496.672138739 7022596.536602408 941.959829222603
v 594910.3725940497 7021626.641321935 966.8267739224463
v 595415.1305142568 7022311.894695528 984.8600004376366
v 595715.5696733347 7022586.354869369 1050.5251230402234
v 594846.0827554625 7028760.827561861 882.0166730851873
v 594693.725163492 7028725.719495192 936.2642987123799
v 594385.2342500022 7028806.096422723 881.0650164957916
v 594283.66426056 7028792.982880144 936.2696206920809
v 595406.2478145468 7028307.283766278 871.5305554418443
v 595644.1057458477 7028115.6992543535 936.2627541065762
v 594923.9017466261 7028770.388261742 867.7353564398009
v 594917.2640376556 7028758.6137638455 936.2640266842194
v 594541.8443336724 7028699.108985603 993.389861503279
v 594412.1153319477 7028678.915930154 1050.5155244259056
v 594035.4464827266 7028789.242112497 987.6794614213935
v 593685.2730821768 7028788.330096203 1050.5141103477536
v 595644.1067195927 7028148.045847458 993.3900495530996
v 595644.1077239161 7028175.520450501 1050.5167170845534
v 594917.2640378989 7028753.673369183 964.8265378988916
v 596408.4059702728 7023960.631599356 879.1387546897568
v 596465.8200005749 7023904.137322293 936.2619115332432
v 596538.5577129545 7025191.251062657 879.0914267405483
v 596645.5531999918 7025191.253765035 936.2199086296434
v 596527.2690406037 7023844.071113387 993.3829359344738
v 596593.1206032739 7023779.900154314 1050.5010925054733
v 596761.5449964148 7025191.256957276 993.349346390956
v 596887.4932168031 7025191.260655944 1050.4800267220019
v 596501.1058142052 7026892.522845082 879.1308801330835
v 596550.68650727 7026968.368329864 936.2524321664712
v 596605.2280348196 7027027.319764521 993.3736400916232
v 596665.3231624813 7027074.981535728 1050.4942943573928
v 600005.1994269178 7013966.015599147 649.59668692328
v 600005.1872992183 7014317.1192295 699.0302702931006
v 600005.18111961 7014565.752765541 727.7930322699763
v 601458.9772490571 7013651.582927539 648.5846361780184
v 601500.2441320439 7014232.917325779 707.5535668744867
v 601043.1559403365 7014566.38963631 728.5130790353547
v 600005.1716322093 7015026.26798121 764.5863378596058
v 600005.1667986852 7015640.1293291915 821.7564747360498
v 602012.2824896745 7014412.496834937 740.103500626886
v 601500.1814199357 7014900.543807087 760.6921789228251
v 601458.8662685093 7015742.613627207 821.3088360893385
v 602672.4954027645 7012704.234031218 648.5989944791922
v 603029.8325254904 7013049.005390949 700.4338856498849
v 603786.0223481591 7012392.268015553 721.0518075646015
v 602940.5277638567 7014064.452383961 759.4366179977751
v 603443.4827789185 7014309.988006899 803.1186911779768
v 602474.3477032994 7014722.411384098 778.0859092478594
v 602940.4053450106 7015071.54595066 821.1195488995838
v 603996.6977192052 7012802.147038308 763.456804121316
v 604350.5689601288 7013232.154531387 821.2948529228803
v 603762.1095789752 7014675.793200964 841.3698435533852
v 600005.1620852004 7016127.348843707 878.9119868062614
v 600088.5992929195 7016565.933771159 938.4208489285467
v 601458.8585998337 7016351.103600129 878.5662692994422
v 601458.8533229128 7016727.52468195 921.6915491104929
v 599624.7788489123 7016723.826270706 993.2654017673301
v 599358.9230234255 7016809.298084821 1027.8900323280004
v 600628.8029240762 7016980.330191189 959.2775818285736
v 601458.8528599489 7017185.0423523225 950.4525358686251
v 600351.6425837538 7017325.306947285 993.5774919397779
v 599908.1997547653 7017704.805916991 1048.8523946124474
v 601458.8500953048 7018050.931659005 993.1501902142784
v 601410.7016451539 7018933.9372461755 1051.4637533256553
v 601863.1890582917 7019326.560936987 1071.657851039932
v 602912.5852193484 7016021.281091203 878.1923528775708
v 602912.5648493399 7016641.877865134 922.0646673134963
v 604744.3216020062 7013796.456204213 877.9380860287042
v 604989.7519579282 7014282.65985099 915.1267743797143
v 604017.3848189269 7015062.116100124 878.6085985278512
v 604374.0036619027 7015748.645471251 935.7635024989103
v 604727.1846057799 7016457.351681106 978.8137487611352
v 602912.5499783481 7017185.35123804 950.9184154707998
v 603758.0347266913 7016980.75389775 959.8301547820375
v 602912.5462798035 7018095.758536248 993.1993655842559
v 602912.545401972 7018940.303457462 1041.500622566091
v 602912.5460983836 7019367.1474368395 1070.1721027924054
v 604292.068524652 7017419.08072262 995.762805773136
v 604366.244260132 7018650.0057452 1042.5494758607583
v 604366.2332520302 7019435.821867168 1071.5053409937452
v 603580.2702234667 7028753.650105432 844.985798747243
v 603580.2701879328 7028784.9573780745 844.9864447164833
v 603657.3985113802 7028753.650664523 844.987830377399
v 603657.3985591691 7028784.957636596 844.9876142043291
v 602153.9719055623 7028753.705282067 1018.5575565880638
v 602019.8756004554 7028659.008759739 1050.5146107709002
v 602153.971925994 7028778.391744734 1018.5575925437367
v 602019.8765995417 7028808.110860217 1050.516613821324
v 603418.5619061479 7028695.091460254 879.1137040481616
v 603176.8866250978 7028591.626852432 936.1971735532803
v 603418.5620375149 7028823.652878104 879.1253400705084
v 603176.8881625239 7028886.6179798255 936.248968368478
v 603714.6260024251 7028695.096216482 879.1369207078021
v 603815.0027446225 7028591.638817215 936.2579792886017
v 603714.6269306168 7028823.652371915 879.1319081601589
v 603815.0063009842 7028886.608427139 936.234994078009
v 602829.0884936324 7028525.876090087 996.9317297595962
v 602912.5280269914 7028239.603958041 1050.3876181901583
v 602829.0951388924 7028915.773369922 997.0545141475119
v 602912.5385520225 7029040.963650033 1050.5135397842173
v 603923.9602903815 7028478.072398316 993.3745227050631
v 604043.0899723243 7028352.568525604 1050.4852386978064
v 603923.9695156865 7028946.876600753 993.3182488994328
v 604043.107078622 7029004.76902243 1050.3806202895375
f 14 13 10
f 15 14 11
f 16 15 12
f 27 25 20
f 28 26 27
f 29 16 17
f 30 29 18
f 38 37 36
f 44 40 43
f 47 46 8
f 48 42 46
f 49 48 47
f 51 50 44
f 52 51 45
f 63 61 62
f 67 66 65
f 73 71 72
f 75 74 28
f 78 76 73
f 79 77 78
f 81 38 80
f 86 49 85
f 90 89 88
f 91 53 86
f 97 96 93
f 112 111 110
f 115 112 113
f 120 119 118
f 128 120 126
f 129 128 127
f 136 129 134
f 137 136 135
f 151 146 144
f 152 147 151
f 153 149 152
f 154 150 153
f 160 159 156
f 162 121 81
f 163 162 82
f 166 163 83
f 167 166 84
f 169 168 167
f 176 137 174
f 177 176 175
f 178 171 164
f 181 180 169
f 186 184 185
f 189 187 139
f 193 191 186
f 194 192 193
f 195 97 188
f 196 98 195
f 209 208 198
f 210 204 208
f 211 210 209
f 213 181 212
f 215 214 206
f 218 211 216
f 219 218 217
f 222 219 220
f 223 222 221
f 228 227 201
f 230 229 228
f 234 232 233
f 235 207 228
f 264 254 258
f 265 255 264
f 267 265 266
f 269 268 263
f 274 272 271
f 275 273 274
f 277 274 276
f 278 275 277
f 282 280 281
f 288 246 287
f 290 282 289
f 299 297 298
f 303 301 302
f 306 304 275
f 309 307 303
f 310 308 309
f 312 251 311
f 314 303 313
f 315 306 278
f 318 309 314
f 319 310 318
f 323 321 317
f 324 322 323
f 325 259 286
f 326 260 325
f 327 266 326
f 330 328 295
f 331 329 330
f 348 346 347
f 352 351 350
f 353 350 344
f 360 359 355
f 361 358 359
f 362 361 360
f 368 367 366
f 374 373 339
f 375 371 373
f 376 375 374
f 380 379 371
f 384 380 375
f 385 384 376
f 387 386 385
f 391 374 351
f 395 387 394
f 400 399 358
f 401 389 399
f 402 401 400
f 403 400 361
f 404 403 362
f 405 402 403
f 406 405 404
f 410 390 401
f 411 410 402
f 413 412 411
f 414 411 405
f 416 413 414
f 417 416 415
f 419 418 409
f 431 422 249
f 432 423 431
f 434 432 433
f 436 430 435
f 438 437 434
f 446 445 267
f 449 308 429
f 450 449 310
f 451 433 312
f 452 450 319
f 454 452 320
f 455 453 454
f 459 458 455
f 467 464 465
f 468 467 466
f 469 360 460
f 471 470 464
f 472 364 470
f 473 472 471
f 474 471 467
f 475 473 474
f 478 407 472
f 479 478 473
f 480 409 478
f 481 480 479
f 482 479 475
f 483 481 482
f 486 419 480
f 487 486 481
f 488 420 486
f 489 488 487
f 490 487 483
f 491 489 490
f 498 334 496
f 499 335 498
f 511 503 510
f 515 505 514
f 517 516 515
f 518 506 511
f 519 507 518
f 522 508 515
f 523 509 522
f 524 517 522
f 525 524 523
f 536 526 519
f 539 528 523
f 540 529 539
f 541 525 539
f 542 541 540
f 545 540 534
f 546 545 535
f 547 542 545
f 548 547 546
f 553 550 397
f 554 553 398
f 558 494 556
f 559 558 557
f 560 456 495
f 561 457 560
f 564 559 562
f 565 564 563
f 571 570 565
f 582 580 581
f 584 583 578
f 589 568 588
f 595 571 586
f 596 595 587
f 600 596 591
f 601 600 592
f 607 606 582
f 618 616 532
f 621 535 619
f 622 621 620
f 623 617 572
f 624 623 573
f 627 622 625
f 628 627 626
f 631 546 621
f 632 631 622
f 633 548 631
f 634 633 632
f 640 634 638
f 641 640 639
f 647 646 644
f 648 647 645
f 649 624 597
f 650 649 598
f 653 650 602
f 654 652 604
f 655 654 605
f 659 657 658
f 662 641 660
f 666 664 659
f 667 665 666
f 673 645 671
f 674 673 672
f 677 674 675
f 678 677 676
f 679 648 673
f 680 679 674
f 681 680 677
f 682 681 678
f 692 688 691
f 694 555 484
f 695 694 485
f 700 699 698
f 701 696 491
f 702 701 492
f 712 708 710
f 713 709 712
f 721 703 719
f 722 721 720
f 729 725 723
f 739 737 738
f 742 740 733
f 743 741 742
f 746 735 744
f 747 746 745
f 750 748 743
f 754 747 752
f 755 754 753
f 7 8 46
f 9 10 13
f 10 11 14
f 11 12 15
f 12 17 16
f 17 18 29
f 19 20 25
f 25 27 26
f 26 28 74
f 35 36 37
f 36 80 38
f 38 81 121
f 39 43 40
f 40 44 50
f 41 46 42
f 44 45 51
f 46 47 48
f 47 85 49
f 49 86 53
f 60 62 61
f 64 65 66
f 70 72 71
f 71 73 76
f 76 78 77
f 81 82 162
f 82 83 163
f 83 84 166
f 87 88 89
f 92 96 93
f 93 188 97
f 97 195 98
f 109 110 111
f 110 113 112
f 117 118 119
f 118 126 120
f 126 127 128
f 127 134 129
f 134 135 136
f 135 174 137
f 138 139 187
f 140 144 146
f 146 151 147
f 147 152 149
f 149 153 150
f 155 156 159
f 161 164 171
f 166 167 168
f 168 169 180
f 169 212 181
f 174 175 176
f 183 185 184
f 184 186 191
f 191 193 192
f 194 206 214
f 197 208 198
f 200 227 201
f 201 228 207
f 202 208 204
f 208 209 210
f 209 216 211
f 216 217 218
f 217 220 219
f 220 221 222
f 227 228 229
f 231 233 232
f 244 286 259
f 245 287 246
f 247 249 422
f 248 429 308
f 250 311 251
f 251 312 433
f 252 258 254
f 254 264 255
f 259 325 260
f 260 326 266
f 261 263 268
f 264 266 265
f 265 267 445
f 270 271 272
f 271 276 274
f 272 274 273
f 273 275 304
f 274 277 275
f 275 278 306
f 279 281 280
f 281 289 282
f 294 295 328
f 296 298 297
f 300 302 301
f 301 303 307
f 302 313 303
f 303 314 309
f 307 309 308
f 308 449 310
f 309 318 310
f 310 319 450
f 316 317 321
f 319 320 452
f 321 323 322
f 324 495 456
f 328 330 329
f 331 496 334
f 334 498 335
f 338 339 373
f 339 351 374
f 341 344 350
f 345 347 346
f 349 350 351
f 354 355 359
f 355 460 360
f 356 359 358
f 357 358 399
f 358 361 400
f 359 360 361
f 361 362 403
f 363 470 364
f 364 472 407
f 365 366 367
f 369 373 371
f 370 371 379
f 371 375 380
f 373 374 375
f 375 376 384
f 384 385 386
f 385 394 387
f 388 399 389
f 389 401 390
f 396 397 550
f 397 398 553
f 399 400 401
f 400 403 402
f 401 402 410
f 402 405 411
f 403 404 405
f 407 478 409
f 408 409 418
f 409 480 419
f 410 411 412
f 411 414 413
f 414 415 416
f 417 484 555
f 419 486 420
f 422 431 423
f 428 435 430
f 431 433 432
f 432 434 437
f 452 454 453
f 453 455 458
f 456 560 457
f 462 465 464
f 463 464 470
f 464 467 471
f 465 466 467
f 470 471 472
f 471 474 473
f 472 473 478
f 473 475 479
f 478 479 480
f 479 482 481
f 480 481 486
f 481 483 487
f 484 485 694
f 486 487 488
f 487 490 489
f 489 491 696
f 491 492 701
f 493 556 494
f 502 510 503
f 503 511 506
f 504 505 514
f 505 508 515
f 506 518 507
f 507 519 526
f 508 509 522
f 509 528 523
f 514 516 515
f 515 517 522
f 522 524 523
f 523 525 539
f 528 529 539
f 529 534 540
f 530 532 616
f 533 619 535
f 534 535 545
f 535 621 546
f 539 541 540
f 540 542 545
f 545 547 546
f 546 548 631
f 556 557 558
f 557 562 559
f 562 563 564
f 564 565 570
f 565 586 571
f 567 588 568
f 569 572 617
f 572 573 623
f 573 597 624
f 577 578 583
f 579 581 580
f 580 582 606
f 586 587 595
f 587 591 596
f 591 592 600
f 597 598 649
f 598 602 650
f 599 604 652
f 604 605 654
f 619 620 621
f 620 625 622
f 621 622 631
f 625 626 627
f 631 633 632
f 632 638 634
f 638 640 639
f 639 641 660
f 642 644 646
f 643 671 645
f 644 645 647
f 645 673 648
f 656 657 658
f 657 664 659
f 664 666 665
f 671 672 673
f 672 675 674
f 673 674 679
f 674 677 680
f 675 676 677
f 677 678 681
f 687 691 688
f 697 698 699
f 702 719 703
f 705 710 708
f 708 712 709
f 719 720 721
f 722 723 725
f 732 733 740
f 734 744 735
f 736 738 737
f 740 742 741
f 741 743 748
f 744 745 746
f 745 752 747
f 752 753 754
f 2 4 3
f 4 6 5
f 6 8 7
f 22 25 26
f 23 27 20
f 24 28 27
f 32 31 35
f 33 35 36
f 25 43 39
f 44 42 48
f 45 48 49
f 35 50 51
f 36 51 52
f 54 57 4
f 55 58 57
f 57 62 6
f 58 63 62
f 61 65 64
f 62 66 8
f 59 68 61
f 68 69 65
f 70 26 74
f 72 75 28
f 80 52 87
f 82 89 90
f 87 53 91
f 88 91 92
f 83 90 94
f 84 94 95
f 94 93 97
f 95 97 98
f 99 100 98
f 102 110 109
f 103 113 110
f 104 114 113
f 114 118 117
f 116 119 120
f 105 122 114
f 106 123 122
f 122 126 118
f 123 127 126
f 124 120 128
f 125 128 129
f 107 130 123
f 108 131 130
f 130 134 127
f 131 135 134
f 132 129 136
f 133 136 137
f 157 164 161
f 158 165 164
f 159 170 131
f 160 171 170
f 170 174 135
f 171 175 174
f 172 137 176
f 173 176 177
f 178 180 175
f 179 177 182
f 184 188 187
f 186 189 190
f 191 195 188
f 192 196 195
f 193 190 197
f 194 197 198
f 201 204 203
f 180 205 199
f 181 206 205
f 182 201 207
f 205 208 202
f 206 209 208
f 212 194 214
f 213 215 206
f 225 228 227
f 229 233 150
f 230 234 233
f 226 235 228
f 254 256 253
f 255 257 256
f 259 262 246
f 260 263 262
f 251 267 266
f 264 261 268
f 266 269 263
f 280 284 283
f 272 285 280
f 273 286 285
f 285 287 284
f 286 288 287
f 290 291 292
f 277 290 293
f 278 293 294
f 293 292 296
f 294 296 297
f 301 305 304
f 307 311 305
f 308 312 311
f 314 315 316
f 318 316 321
f 319 321 322
f 304 325 286
f 305 326 325
f 311 327 326
f 315 294 328
f 316 328 329
f 330 299 332
f 331 332 333
f 323 331 334
f 324 334 335
f 246 337 336
f 337 339 338
f 256 342 340
f 257 343 342
f 342 344 341
f 262 347 337
f 263 348 347
f 346 350 349
f 347 351 339
f 352 358 357
f 353 359 356
f 284 366 365
f 368 371 370
f 287 372 366
f 372 373 369
f 292 377 378
f 378 379 380
f 296 378 381
f 299 382 383
f 381 380 384
f 383 386 387
f 332 383 392
f 333 392 393
f 392 387 395
f 393 395 396
f 391 399 388
f 406 409 408
f 394 390 410
f 396 412 413
f 397 413 416
f 398 416 417
f 415 418 419
f 424 426 423
f 425 427 426
f 66 429 248
f 67 430 429
f 430 434 433
f 435 432 437
f 436 438 434
f 422 439 255
f 423 440 439
f 439 441 257
f 440 442 441
f 426 443 440
f 443 444 442
f 431 265 445
f 433 446 267
f 447 448 427
f 85 308 449
f 449 451 312
f 92 452 453
f 454 324 456
f 455 456 457
f 96 453 458
f 97 459 455
f 461 464 463
f 469 470 363
f 484 420 488
f 485 488 489
f 498 497 500
f 499 500 501
f 503 505 504
f 506 508 505
f 507 509 508
f 142 511 510
f 513 516 517
f 143 518 511
f 144 519 518
f 520 517 524
f 521 524 525
f 146 526 507
f 147 527 526
f 526 528 509
f 527 529 528
f 149 531 527
f 150 532 531
f 531 534 529
f 532 535 534
f 151 536 519
f 537 525 541
f 538 541 542
f 543 542 547
f 544 547 548
f 500 549 551
f 501 551 552
f 551 550 553
f 552 553 554
f 187 556 493
f 188 557 556
f 189 494 558
f 190 558 559
f 197 559 564
f 198 564 565
f 562 561 566
f 563 566 567
f 209 570 571
f 210 572 569
f 211 573 572
f 560 499 574
f 561 574 575
f 574 501 576
f 575 576 577
f 566 575 579
f 567 579 580
f 579 577 583
f 582 584 585
f 586 568 589
f 587 589 590
f 591 590 593
f 592 593 594
f 216 571 595
f 217 595 596
f 218 597 573
f 219 598 597
f 220 596 600
f 221 600 601
f 222 602 598
f 223 603 602
f 602 604 599
f 603 605 604
f 588 580 606
f 590 607 608
f 607 585 609
f 608 609 610
f 593 608 611
f 594 611 612
f 611 610 613
f 612 613 614
f 232 617 616
f 233 618 532
f 616 619 533
f 617 620 619
f 623 625 620
f 624 626 625
f 629 548 633
f 630 633 634
f 636 634 640
f 637 640 641
f 627 644 642
f 628 645 644
f 638 646 647
f 639 647 648
f 649 651 626
f 650 652 651
f 653 654 652
f 656 660 639
f 657 661 660
f 658 641 662
f 659 662 663
f 664 668 661
f 665 669 668
f 666 663 670
f 651 671 643
f 652 672 671
f 654 675 672
f 655 676 675
f 660 648 679
f 661 679 680
f 668 680 681
f 669 681 682
f 576 552 683
f 577 683 684
f 683 554 686
f 684 686 687
f 584 685 689
f 585 689 690
f 689 688 692
f 690 692 693
f 686 555 694
f 687 694 695
f 691 695 697
f 693 699 700
f 697 696 701
f 698 701 702
f 609 690 704
f 610 704 705
f 704 693 706
f 705 706 707
f 613 705 708
f 614 708 709
f 712 711 714
f 713 714 715
f 706 700 717
f 707 717 718
f 717 703 721
f 718 721 722
f 714 724 726
f 715 726 727
f 726 725 729
f 727 729 730
f 740 744 734
f 741 745 744
f 742 735 746
f 743 746 747
f 737 749 748
f 739 750 751
f 748 752 745
f 749 753 752
f 750 747 754
f 751 754 755
f 3 1 2
f 4 2 54
f 5 3 4
f 6 4 57
f 7 5 6
f 8 6 62
f 248 8 66
f 20 18 23
f 39 19 25
f 25 22 21
f 26 70 22
f 27 23 24
f 28 24 72
f 31 32 30
f 50 35 31
f 35 33 32
f 51 36 35
f 52 80 36
f 42 44 40
f 48 45 44
f 308 85 47
f 53 87 52
f 57 54 55
f 61 56 59
f 62 57 58
f 64 60 61
f 65 61 68
f 429 66 67
f 89 82 81
f 90 83 82
f 94 84 83
f 91 88 87
f 93 94 90
f 452 92 91
f 453 96 92
f 455 97 93
f 97 95 94
f 98 99 95
f 109 101 102
f 110 102 103
f 113 103 104
f 114 104 105
f 122 105 106
f 123 106 107
f 130 107 108
f 131 108 159
f 117 113 114
f 118 114 122
f 119 116 115
f 120 124 116
f 126 122 123
f 127 123 130
f 128 125 124
f 129 132 125
f 134 130 131
f 135 131 170
f 136 133 132
f 137 172 133
f 493 138 187
f 494 189 139
f 507 140 146
f 510 141 142
f 511 142 143
f 518 143 144
f 519 144 151
f 526 146 147
f 527 147 149
f 150 148 229
f 531 149 150
f 532 150 233
f 161 156 157
f 164 157 158
f 170 159 160
f 194 212 169
f 174 170 171
f 175 171 178
f 176 173 172
f 177 179 173
f 199 175 180
f 201 182 177
f 205 180 181
f 206 181 213
f 187 183 184
f 188 184 191
f 189 186 185
f 190 193 186
f 556 187 188
f 558 190 189
f 559 197 190
f 195 191 192
f 197 194 193
f 564 198 197
f 202 199 205
f 203 201 200
f 569 204 210
f 208 205 206
f 570 208 209
f 571 216 209
f 572 210 211
f 573 211 218
f 595 217 216
f 596 220 217
f 597 218 219
f 598 219 222
f 600 221 220
f 602 222 223
f 227 224 225
f 228 225 226
f 233 229 230
f 616 231 232
f 246 244 259
f 336 245 246
f 337 246 262
f 255 247 422
f 265 431 249
f 266 250 251
f 267 251 433
f 253 252 254
f 340 253 256
f 256 254 255
f 257 255 439
f 342 256 257
f 343 257 441
f 261 264 258
f 262 259 260
f 263 260 266
f 347 262 263
f 280 270 272
f 285 272 273
f 286 273 304
f 290 277 276
f 293 278 277
f 294 315 278
f 283 279 280
f 284 280 285
f 365 283 284
f 366 284 287
f 287 285 286
f 291 290 289
f 292 293 290
f 377 292 291
f 378 296 292
f 296 294 293
f 299 330 295
f 382 299 298
f 383 332 299
f 304 300 301
f 305 301 307
f 325 304 305
f 326 305 311
f 311 307 308
f 312 449 308
f 315 314 313
f 316 318 314
f 328 316 315
f 331 323 317
f 321 319 318
f 324 454 320
f 334 324 323
f 332 331 330
f 392 333 332
f 338 336 337
f 339 337 347
f 341 340 342
f 344 342 343
f 349 345 346
f 356 350 353
f 357 351 352
f 363 360 469
f 369 366 372
f 370 367 368
f 388 374 391
f 379 378 377
f 380 381 378
f 386 383 382
f 387 392 383
f 390 394 385
f 395 393 392
f 412 396 395
f 413 397 396
f 416 398 397
f 408 405 406
f 418 415 414
f 420 484 417
f 423 421 424
f 439 422 423
f 440 423 426
f 426 424 425
f 427 425 447
f 432 435 428
f 433 429 430
f 434 430 436
f 441 439 440
f 442 440 443
f 456 455 454
f 463 460 461
f 488 485 484
f 499 560 495
f 497 498 496
f 549 500 497
f 500 499 498
f 501 574 499
f 551 501 500
f 552 576 501
f 504 502 503
f 505 503 506
f 508 506 507
f 509 507 526
f 516 513 512
f 517 520 513
f 524 521 520
f 525 537 521
f 528 526 527
f 529 527 531
f 533 530 616
f 534 531 532
f 541 538 537
f 542 543 538
f 547 543 544
f 548 544 629
f 550 551 549
f 553 552 551
f 554 683 552
f 555 686 554
f 561 562 557
f 574 561 560
f 575 566 561
f 566 563 562
f 568 586 565
f 579 567 566
f 580 588 567
f 576 575 574
f 577 579 575
f 683 577 576
f 685 584 578
f 584 582 581
f 585 607 582
f 689 585 584
f 690 609 585
f 589 587 586
f 590 591 587
f 607 590 589
f 608 593 590
f 593 592 591
f 611 594 593
f 599 598 602
f 604 602 603
f 609 608 607
f 610 611 608
f 704 610 609
f 705 613 610
f 613 612 611
f 708 614 613
f 619 616 617
f 620 617 623
f 642 622 627
f 625 623 624
f 626 624 649
f 643 626 651
f 644 627 628
f 633 629 630
f 634 630 636
f 646 638 632
f 639 656 635
f 640 636 637
f 641 637 658
f 647 638 639
f 648 639 660
f 651 649 650
f 652 650 653
f 671 651 652
f 672 652 654
f 675 654 655
f 660 657 656
f 661 664 657
f 662 658 659
f 663 659 666
f 679 660 661
f 680 661 668
f 668 665 664
f 681 668 669
f 686 684 683
f 688 689 685
f 694 687 686
f 695 691 687
f 692 690 689
f 693 704 690
f 699 693 692
f 700 706 693
f 696 697 695
f 701 698 697
f 703 717 700
f 706 705 704
f 717 707 706
f 711 712 710
f 724 714 711
f 714 713 712
f 726 715 714
f 721 718 717
f 725 726 724
f 729 727 726
f 734 732 740
f 735 742 733
f 748 736 737
f 750 739 738
f 744 740 741
f 745 741 748
f 746 743 742
f 747 750 743
f 752 748 749
f 754 751 750
f 21 3 25
f 30 20 31
f 34 36 38
f 20 39 40
f 25 5 43
f 43 7 46
f 44 46 48
f 31 40 50
f 52 49 53
f 55 56 58
f 58 61 63
f 62 64 66
f 72 74 75
f 81 89 87
f 90 92 93
f 115 117 119
f 164 166 168
f 160 161 171
f 178 168 180
f 185 187 189
f 167 95 192
f 169 192 194
f 192 98 196
f 177 199 201
f 201 202 204
f 206 198 209
f 213 214 215
f 227 203 231
f 228 204 232
f 230 232 234
f 226 207 235
f 258 253 261
f 249 255 265
f 266 268 269
f 271 280 282
f 286 246 288
f 276 282 290
f 295 297 299
f 302 304 306
f 47 248 308
f 313 306 315
f 320 322 324
f 311 266 327
f 317 329 331
f 261 340 346
f 263 346 348
f 346 341 350
f 347 349 351
f 352 356 358
f 353 354 359
f 362 363 364
f 368 369 371
f 287 336 372
f 372 338 373
f 377 370 379
f 298 381 382
f 382 384 386
f 376 388 389
f 385 389 390
f 391 357 399
f 404 364 407
f 406 407 409
f 395 410 412
f 414 408 418
f 417 419 420
f 65 421 428
f 67 428 430
f 428 423 432
f 436 437 438
f 433 445 446
f 86 449 450
f 449 433 451
f 91 450 452
f 97 458 459
f 461 462 464
f 469 463 470
f 139 493 494
f 496 333 497
f 495 335 499
f 532 533 535
f 151 536 526
f 497 393 549
f 549 396 550
f 554 417 555
f 188 455 557
f 557 457 561
f 565 568 567
f 208 564 570
f 581 583 584
f 589 606 607
f 232 569 617
f 233 616 618
f 628 643 645
f 632 642 646
f 653 604 654
f 658 662 660
f 578 684 685
f 685 687 688
f 695 489 696
f 692 697 699
f 700 702 703
f 710 707 711
f 615 709 713
f 711 718 724
f 724 722 725
f 716 727 728
f 728 730 731
f 733 734 735
f 738 748 750
f 3 21 1
f 5 25 3
f 7 43 5
f 248 47 8
f 20 30 18
f 39 20 19
f 40 31 20
f 36 34 33
f 46 44 43
f 49 52 45
f 61 58 56
f 64 62 60
f 428 67 65
f 74 72 70
f 87 81 80
f 95 167 84
f 449 86 85
f 450 91 86
f 92 90 88
f 455 188 93
f 98 192 95
f 458 97 96
f 117 115 113
f 493 139 138
f 526 151 146
f 161 160 156
f 168 178 164
f 192 169 167
f 199 177 175
f 207 226 182
f 187 185 183
f 198 206 194
f 564 208 197
f 202 201 199
f 203 227 200
f 204 228 201
f 569 232 204
f 214 213 212
f 232 230 228
f 616 233 231
f 246 286 244
f 336 287 245
f 255 249 247
f 266 311 250
f 253 258 252
f 340 261 253
f 346 263 261
f 268 266 264
f 280 271 270
f 282 276 271
f 297 295 294
f 381 298 296
f 304 302 300
f 306 313 302
f 329 317 316
f 322 320 319
f 335 495 324
f 333 496 331
f 393 497 333
f 338 372 336
f 341 346 340
f 354 353 344
f 349 347 345
f 356 352 350
f 357 391 351
f 363 362 360
f 364 404 362
f 369 368 366
f 370 377 367
f 388 376 374
f 389 385 376
f 384 382 381
f 396 549 393
f 410 395 394
f 417 554 398
f 407 406 404
f 408 414 405
f 419 417 415
f 423 428 421
f 433 449 429
f 445 433 431
f 437 436 435
f 457 557 455
f 463 469 460
f 489 695 485
f 533 532 530
f 567 565 563
f 684 578 577
f 583 581 579
f 606 589 588
f 604 653 602
f 709 615 614
f 642 632 622
f 643 628 626
f 660 658 656
f 687 685 684
f 697 692 691
f 702 700 698
f 707 710 705
f 718 711 707
f 727 716 715
f 722 724 718
f 730 728 727
f 734 733 732
f 748 738 736
