# encaixante_sedimentar - exportado do GemPy
v 588374.8196303045 7000971.754256643 195.41445532402525
v 588374.3862453019 7000891.288268801 253.32269660611684
v 589945.961891968 7002096.775268926 194.54627440718934
v 590074.2349870875 7002108.900848417 236.53082416823088
v 588374.0334791705 7000809.851725432 311.08744864260495
v 588373.7459472694 7000727.385295923 368.73223113208326
v 589829.6239218618 7001789.048180667 311.6199956552868
v 589828.2575511774 7001665.829138742 374.47206445533567
v 590552.1532044958 7002515.715233512 222.19734547496938
v 590614.4537965357 7002484.70397496 246.26809680904995
v 590793.7724914089 7002399.6607937 308.66114409121127
v 590980.3264602891 7002321.240117982 366.3136281736579
v 587648.822602 7000149.267798755 450.6976020000002
v 587675.4499732456 7000112.332507622 482.5771870683243
v 588373.5048402632 7000643.836132461 426.2957575899677
v 588249.0940671363 7000484.96047484 481.18459702977884
v 589827.2315063787 7001541.161116208 436.7199793097981
v 589826.5062601923 7001414.830051984 498.3468085961389
v 587737.9287259651 7000060.676385901 536.5294141181363
v 587811.1649018198 7000008.205245284 593.6396163674648
v 588462.499190385 7000519.996087321 541.3619182606992
v 588535.8945849248 7000469.748685365 598.5261117052937
v 589826.0423380319 7001286.65567897 559.3421191313433
v 589825.7929490071 7001156.50022439 619.716574374293
v 591347.1394811558 7002290.111282512 432.1148717749043
v 591283.2905400712 7002071.025357085 485.9322572012785
v 592095.7888858656 7002503.567462243 449.21029792418943
v 592643.0981100188 7002363.130897946 489.24226503828515
v 591283.3353093868 7001840.397063253 549.8513086533413
v 591283.593023539 7001609.16200831 612.2754994938016
v 592736.9828869354 7001923.180906293 549.3855090363033
v 592737.3082713421 7001472.604802476 611.9217797051695
v 588924.498224076 7007153.381323209 193.9267577946032
v 588950.9701503816 7007174.863373626 251.07137224839698
v 590516.3432566716 7002616.076288421 191.8880522450641
v 590554.7766395396 7002517.253475986 222.72319107699843
v 589849.497376301 7006513.219910139 153.37265328461524
v 589840.5141934219 7006621.766707952 222.65222910675044
v 588978.8699275467 7007196.909989794 308.16500920338416
v 589008.5023918723 7007219.669716948 365.2415517588534
v 589832.8406746648 7006729.283652717 292.06448515508015
v 589826.828352866 7006836.410295522 361.41804098948086
v 588192.9620531539 7007678.090546637 217.3721030223112
v 588219.7911610627 7007687.587813533 274.41613847123784
v 588247.8437082302 7007696.97383108 331.8995012518243
v 588277.5010463299 7007706.361444401 389.99611087887877
v 590890.5676677383 7003539.940218674 58.45109974702609
v 590941.6199351603 7003303.474110639 91.64606457456989
v 590928.258468947 7005448.5651271315 159.79052896287732
v 591002.2387036758 7005545.00662673 203.8221616598645
v 591327.4684968916 7003685.145268793 178.85821972548786
v 591580.8783297373 7003688.524258721 250.23409588507565
v 591077.8585659871 7005643.692926955 245.7252215677263
v 591154.119469501 7005744.500999094 286.03607903910193
v 589040.236314919 7007243.2932292055 422.3257061757408
v 589074.5006089904 7007267.925246052 479.4404445346314
v 589822.6674663455 7006943.82673471 430.4773216923093
v 589820.3572035992 7007052.212233847 499.0483463212819
v 589095.8294074218 7007283.193933502 512.8610767819034
v 589801.6447081651 7007169.950662517 562.1059751895457
v 590289.6685587916 7007252.280773692 585.2278765204476
v 588309.2261173594 7007715.851038031 448.8802683128047
v 588343.5598085935 7007725.523813112 508.7409029852678
v 588513.1064543448 7007655.515318934 567.9728154770366
v 588372.0186495151 7007830.824094105 632.5714808342525
v 589315.2397390836 7007313.408760757 556.9453912850194
v 589811.7212120132 7007412.568847671 641.3185887612741
v 591888.5707100141 7003593.316001899 342.37896863927284
v 591999.5754007711 7004330.823037206 420.3062391188028
v 591230.2058738804 7005846.770158407 325.8105427304102
v 591437.4845034875 7006387.517777752 419.2297566082135
v 592094.7061359872 7002738.356534728 443.7674979459371
v 592575.1054299001 7003491.649638228 448.6463080451007
v 592122.3078340816 7006089.107540027 502.3130111416992
v 590873.0050436989 7007189.418643192 537.5779619735257
v 590648.5090423132 7007255.124773725 575.4994372245058
v 592962.7801042072 7004132.097559095 534.0546562446679
v 593213.7023104134 7004548.690544659 594.6966978500944
v 592533.3072977199 7006080.763507691 591.9140532384579
v 593185.3594656723 7006002.303003022 680.889787326981
v 591856.3707506331 7007400.631567662 494.50887262281645
v 592102.9380873849 7007401.091606473 494.4777030429272
v 591601.4040498188 7007621.674440838 531.1303890941697
v 591195.2525075976 7007884.696924257 601.9112013924062
v 592324.4378379172 7007622.463639301 508.0246602733605
v 592790.5250020636 7008022.689789149 550.8634194147261
v 587887.864347439 6999954.972375568 650.8318080436924
v 587968.3174187299 6999901.01678218 708.2388759040304
v 588612.914064642 7000418.536783892 655.3680284221415
v 588693.8288042612 7000366.355453108 711.8954157326109
v 589825.7058408833 7001024.262628381 679.5054268516506
v 589825.7322416833 7000889.864817407 738.7629287826815
v 588052.8546469271 6999846.3907695 766.0621916057498
v 588141.8680059777 6999791.157504762 824.5953007142169
v 588778.9273625549 7000313.218318527 768.1576256026342
v 588868.52690844 7000259.158542294 824.2712592740262
v 589825.8344825474 7000753.239732026 797.5568938496382
v 589825.9886429241 7000614.32236093 855.9640985831447
v 591283.9563254477 7001376.927630474 673.5535210043093
v 591284.3556238527 7001143.408302998 733.9550583689418
v 593366.7023477788 7000032.170913244 724.9923358687943
v 592737.6768113864 7001032.56678721 672.6320731464386
v 592824.6651462725 7000573.818661438 727.3590858702523
v 591284.7494826826 7000908.388009678 793.6771029798224
v 591285.1167012592 7000671.692358024 852.8563568131444
v 593206.1231615987 6999869.769623701 767.0368489652044
v 592991.1465970755 6999641.896062682 830.7785210655637
v 592479.8174696 7000474.86542225 776.0622379102942
v 592263.4451809784 7000321.445395913 825.6790395490002
v 588235.844311635 6999735.385264277 884.2467639330528
v 588484.0877506161 6999765.566909702 951.2376611266254
v 588962.9960766145 7000204.225396506 880.4475388454334
v 589057.0061350678 7000148.448595951 935.3522362841702
v 589132.8294499231 7000119.9784685 962.8193466051563
v 589826.1828873417 7000473.042483625 914.0635012775629
v 589601.5879558121 7000265.088388595 981.4078958882344
v 588374.8924254938 6999566.792078153 1004.5346424583665
v 588374.7435236435 6999417.380482003 1062.207257918353
v 589102.510102 7000114.011146547 964.8226020000004
v 589383.7554784057 7000077.2236720035 1008.7227167313222
v 589890.7375842743 6999986.863024858 1081.9090670699677
v 589906.7531288179 7000199.007979756 1020.7368308361017
v 590418.3242911291 7000149.4379616855 1031.5330642140298
v 593430.1815855753 6997680.048131016 1016.1960020559304
v 593333.9038884705 6997506.410809944 1051.5460969418593
v 591961.6479442607 7000100.009580496 903.5970404252571
v 591788.5195193114 6999999.049480361 940.5665521236441
v 591400.8792476548 7000387.788280865 913.811382694001
v 591062.3849603221 7000299.479459519 954.7324600650668
v 592653.888509394 6999545.326747724 901.8374126756249
v 592739.8415413796 6999069.660944882 958.7027985480835
v 592109.8083102151 7000205.393722078 865.9889050695701
v 591507.5282767073 6999825.673813023 1011.1145459893877
v 591176.9775144492 6999715.854122421 1084.3726247821387
v 590779.215790568 7000206.6734288735 998.603258051769
v 590616.4022230058 7000148.996999794 1029.376212358317
v 592865.2359669893 6998514.5333417235 1016.7118571776425
v 592609.3934650643 6998453.730677383 1065.073634807107
v 588373.1621225354 7007917.135492109 696.9908249180102
v 588374.2879795822 7008009.790141929 762.450389012225
v 589830.8678097925 7007809.163252938 734.9624785261834
v 589839.3078265097 7008270.923251916 831.9542445625997
v 590486.4157844033 7011637.176995719 707.9836409032577
v 588375.3784542709 7008107.816345349 828.6967601795209
v 588376.784981957 7008210.178001053 895.6725870355724
v 589978.0828869586 7008823.96337229 910.6852470928
v 589757.6734837982 7008877.3135436475 932.9451173724317
v 590380.4539282414 7010844.364347542 686.5531951043004
v 590110.3940258308 7010859.297780197 728.9479259403203
v 593392.0517576716 7004809.583284933 627.1709306202803
v 593391.6293060496 7005232.720648752 678.9246785418854
v 591278.7676203565 7008647.9099462 645.9859691733371
v 591236.9133273282 7009330.308258465 686.1139238698921
v 591246.837765658 7010853.392242469 675.8308569676492
v 592725.652069247 7009217.390998815 656.5661381927408
v 592232.7861288859 7009604.977546085 688.4460220144678
v 593201.946778064 7010041.693680598 673.4979646339883
v 592725.2013544438 7010849.999555265 687.0320131925752
v 590737.8116383106 7009549.061257218 741.0689326593323
v 590738.2426110822 7010041.644599705 734.6235900612827
v 588379.0681831829 7008316.202448712 963.4098412554663
v 588382.7144891762 7008425.655701997 1031.8024064197214
v 589663.2526853897 7008996.021724349 960.0046387491045
v 589573.9259241913 7009095.46068932 989.5466857915267
v 589875.187280824 7010857.44483894 779.8706401543811
v 589659.2572110151 7010855.969659701 833.991405837137
v 588387.9297611857 7008538.464316247 1100.4388941001746
v 588394.5998399408 7008654.362392428 1168.6121593697194
v 589084.5824305061 7012006.7045335425 1014.1526113078892
v 589041.5075816521 7011877.570860676 1047.1567948227894
v 589491.889900094 7009181.083907402 1024.3894063795453
v 589417.3806546157 7009259.003076768 1065.677974781682
v 589396.6476090063 7011054.982486452 885.8367413914739
v 589382.3863868682 7010667.488897944 973.379994107754
v 586924.8776138152 7017196.123666508 223.19561633679984
v 586925.9924937607 7017161.785027243 282.76474214296604
v 586927.3658749528 7017127.368682228 342.59632338896756
v 586929.0381257575 7017092.781388093 402.7314811253646
v 587517.1654540882 7016813.428651513 614.2285874393052
v 586931.0330939717 7017057.888772683 463.2070213340103
v 586933.3390880995 7017022.506641292 524.0433528524424
v 586935.8915897061 7016986.407086611 585.2274002100195
v 586994.7825162018 7016933.660926213 634.9719871179643
v 589059.5982221646 7016806.9250514405 187.53249138362798
v 588939.6345391573 7016725.47646515 250.43209589742605
v 589277.9748820843 7016792.315750601 184.38420284224492
v 589938.8074193668 7016725.404192499 208.61124700632098
v 588836.8232793123 7016655.821114283 308.19271034694043
v 588739.2914916773 7016590.010206882 366.7238396916658
v 590053.5393155621 7016623.804830471 236.53478005589722
v 589821.5529247933 7016351.407310248 309.5534410288933
v 588585.6559780816 7016945.461576273 173.28285286986693
v 588212.7582502436 7016967.962533834 251.51624751799903
v 589829.6848123437 7016873.606592652 142.77773534788417
v 590410.6206881516 7016854.3095943965 249.0227863878514
v 588107.4871052696 7016945.040433338 312.1439963397565
v 588006.8740053036 7016922.369288215 370.34330573747917
v 590558.3515365889 7016836.027153826 279.16108227735225
v 588646.0060181216 7016528.321279616 426.70824444155306
v 588556.0653640875 7016472.437039798 489.2411968941151
v 589821.190435243 7016158.474458347 369.96894545511674
v 589820.7221618034 7015968.121001831 430.66447983264345
v 588468.384764835 7016426.000194001 555.8837879714991
v 588264.2836731148 7016466.5646059215 617.474640972174
v 589820.1648790967 7015780.271556603 491.57857557874536
v 589819.5418215162 7015594.853013772 552.6516148710361
v 587909.5041754653 7016899.708494816 426.6444491900594
v 587814.2703306023 7016876.872381846 481.8552517411905
v 587720.612522297 7016853.901090966 537.1489647490648
v 587665.7253701166 7016840.49181056 570.2118482553407
v 587319.3653065482 7016794.873663078 673.7310310565371
v 586904.4201092422 7016807.930238737 777.8476444980915
v 586717.255412464 7016784.079154673 842.9777117013546
v 586932.74488532 7016614.92417475 914.6494692517767
v 586587.8890792696 7016886.403563632 663.7106989690651
v 586338.1606558089 7016850.902325664 710.3457262407384
v 586211.966807168 7016837.724512553 738.4351781801706
v 586935.4075354511 7016503.933140316 979.945338459962
v 586937.1385871349 7016391.044512634 1042.9945944597243
v 586938.5303467866 7016276.943435241 1104.100045961101
v 586940.0293210368 7016162.347073298 1163.5671421371444
v 588398.8840719523 7016207.714989488 679.9895829937539
v 588395.0606395988 7016054.03403073 734.4582489758523
v 589818.8766819686 7015411.795202269 613.8204425648427
v 589818.1888122517 7015231.035257446 675.0138310954915
v 588389.5855653821 7015906.185553048 787.8329722809535
v 588383.9144018213 7015764.941040945 841.3210323478426
v 589817.4907278315 7015052.523370313 736.1510387040169
v 589816.7879079453 7014876.227465864 797.1437583171327
v 588379.1968043213 7015629.904033521 895.8605772032718
v 588375.8268450681 7015499.811807905 951.5541162727802
v 589907.8989369074 7014685.772796596 851.2826602343184
v 589618.2390760452 7014682.801818778 922.6308838968408
v 588373.5992852503 7015373.41970603 1007.9561277577749
v 588372.1743879057 7015249.954064261 1064.629404697806
v 589480.2490801227 7014623.028855487 985.6440738447359
v 589347.3287328725 7014563.569161551 1046.9093652714387
v 596186.4231813919 7002169.661139449 377.6533494310084
v 597642.3139761719 6999974.350417043 384.8670775927902
v 597666.8227350652 7002272.185275386 328.3296368959893
v 597169.3804168942 7001424.280526441 340.77424252546797
v 598551.54955896 6999734.580626837 371.36673459603225
v 598551.7628557647 7002120.899623662 319.3458842284251
v 598551.3099931794 7000926.173361703 333.0742431135972
v 596307.8183903409 6997630.589345507 615.2314492602361
v 594752.7370136281 7002432.483972278 448.7422699257103
v 594236.7549037592 7002067.710633225 480.7013988980308
v 596288.7922833503 7000036.9380476875 444.4610746472208
v 596059.2339792441 6999783.514987787 476.6303431816282
v 595751.4157408664 7001502.957504249 406.9952956590902
v 595331.726930096 7000859.387343457 464.55392719046256
v 594847.6355498766 7000049.070778992 557.9269544609631
v 594675.9355433399 6999853.51586109 592.8198845247628
v 594292.711091795 7000960.406390617 548.1516999545067
v 593948.8822612606 7000670.296113376 599.0335789340681
v 595589.4978831083 6999479.829447156 536.3319381569788
v 595751.8708436929 6998573.961297794 596.5156618323172
v 595068.2465082852 7000389.791442976 518.2758198977999
v 597768.6202776919 6997653.329089853 503.960859218171
v 599186.5730760874 6997630.248419612 447.27551137103717
v 598641.8377799632 6997208.395108546 482.0147708075036
v 597781.6972586274 6995250.790807477 617.8421550958382
v 597541.2967501095 6997304.677958342 537.5410529648968
v 597158.5562040304 6996643.343348775 606.695830746849
v 599026.58197809 6994856.508012606 547.5657817945572
v 598609.4115974316 6994257.615203864 589.8290669266753
v 598546.0028324536 6996023.129733613 534.7198335225248
v 598057.4609099044 6995654.103713754 579.5390052550371
v 597133.5780679197 6999670.01885765 418.3404920567343
v 597209.5978383184 6998586.230511737 480.8467546386717
v 596672.7710397703 7000577.383084729 398.61947367827577
v 598641.80976061 6998547.070114579 423.35134192347044
v 598217.3587174994 6998016.350736418 463.4092964722281
v 596814.2848899808 6998182.668161366 534.6492760618892
v 596533.5095840422 6997902.2374450555 576.6581357164094
v 596186.6114515844 7002669.593195616 382.4951475846326
v 597666.8269190367 7002620.043037096 330.2992367328107
v 597148.238013468 7003002.815063924 348.31136246125607
v 598551.7815332725 7002669.7193052815 321.92900987233435
v 598551.9116905899 7003618.116794976 347.4913354013639
v 594752.7108940078 7002559.856209075 448.4721327832841
v 594236.4558365922 7002834.1506343065 478.78016166099826
v 595678.3954195058 7002932.5631698435 416.2835165400876
v 595758.2783541409 7003994.152737506 471.14920158274043
v 596320.5820631293 7004993.024485754 505.0291401271584
v 594190.3777959074 7003685.15219247 523.9156476145046
v 594135.0444684804 7004537.603612388 576.810935215197
v 594257.1595703086 7006215.599954632 707.5936103016459
v 595336.983261283 7004449.8087296495 533.7328645376648
v 595043.5503983111 7004759.401384596 573.5466995092469
v 596065.6296162256 7005451.496767026 559.3433568125326
v 595472.8984785543 7006388.202014935 651.4284240518816
v 594356.3766111352 7008299.128544381 604.8250054553511
v 594783.9064390777 7009984.411151688 617.8255937742877
v 595507.0255122065 7008289.75687979 597.8667113037244
v 596360.8512352856 7011789.542553336 564.3664438752196
v 595702.1197298542 7010886.998316028 589.9110870668491
v 597138.5453298528 7004190.61250739 409.703946266197
v 596681.4587421655 7004600.680264506 464.3057717807651
v 597650.7793069424 7005128.9127488155 442.06147509964524
v 597139.1764322441 7005512.419844875 488.75954162214896
v 598551.6981358273 7004655.699638103 394.3009581081592
v 598551.4951205981 7005423.865421188 424.7073947177414
v 598510.3826629642 7006693.569537679 479.35639527205785
v 597030.6844862446 7006714.797017492 542.5968119171703
v 596499.4221081265 7007135.816288405 570.4546676976337
v 597997.8910189018 7007191.344471828 511.1043671515728
v 598967.1473419382 7007963.226943785 503.93304637759934
v 598853.400844839 7011553.078119814 502.2651245888609
v 597218.8516699532 7008481.2103335615 551.2825774676198
v 596491.9833846017 7008481.335031156 573.8433366298256
v 596971.7998912841 7010943.7055124175 542.5983990090298
v 596403.4990314866 7010198.1141908895 565.0366534111197
v 598510.5562599796 7008647.652436207 518.4208800188953
v 598442.0312354945 7010801.919663137 512.3061468422686
v 600005.2545123835 6999562.068967021 371.788566124566
v 599401.811590434 7002231.268966002 330.08061131440195
v 599934.2740155079 7001388.941548358 333.94947570808944
v 601034.1566632116 6999744.2086846605 381.67716280335566
v 601130.7536196269 7001319.8510314645 366.79684040324787
v 600355.9864698318 6994817.552734062 492.8116665728253
v 600005.2168648726 6997292.3285205765 437.800017377867
v 599924.9375906152 6996013.159810628 475.96353887402245
v 601475.0368276326 6994076.435630349 479.2829436971235
v 601458.8770629871 6996836.921349293 433.1915787558107
v 601458.8567980848 6995643.3095215205 452.55374163431725
v 599920.0390937899 6994041.150611343 526.326291944622
v 599484.2441085326 6993265.051726082 572.9056418106353
v 599386.8874258222 6995458.113963394 511.2837407765925
v 601001.2382240145 6993226.136497601 512.3782996683876
v 600005.116556868 6998368.512240266 406.13712052035794
v 601494.8774025167 6998942.153160419 397.9010334985446
v 601857.6246465906 7001319.969541749 394.04719878260374
v 602912.5236755844 6994158.4155640695 464.0150089132658
v 604366.3522819724 6994158.486494757 474.927529029591
v 599401.7462910427 7002615.225147352 332.5611074273498
v 599934.1636332927 7003228.941878557 350.80999056977396
v 600961.2332425144 7002891.530725563 381.04289405517864
v 600005.5510783647 7004524.829243768 392.67307561065195
v 600005.3768028301 7005482.501225515 424.1370095431938
v 600005.3538425261 7006676.134645028 463.563261484679
v 601444.6362786823 7003679.060641839 415.2647752496415
v 601927.4606950656 7004466.437509272 458.81319749368754
v 600958.2648845416 7005207.31406089 440.5693751924159
v 601415.1981093414 7006049.594154095 478.331269767859
v 601871.6343894771 7006891.7479843 515.2832558638061
v 600005.3944172082 7008066.699015712 496.9329198104143
v 600005.2569075363 7009260.231814642 508.8896123043574
v 596149.7060964354 6997357.116726584 651.8401965797391
v 595902.6163855325 6996927.346124156 714.1719481063636
v 594864.275310612 6997643.204944366 785.5999337354641
v 594745.353069516 6997425.348605106 823.1091517533451
v 596291.4155389083 6995151.657252823 782.4560056212907
v 596152.7183798748 6994802.457350254 822.7779962784326
v 595651.5939950875 6996555.818571118 777.1309635663424
v 595426.7996031838 6996232.307844709 829.4894134138015
v 594412.7766205635 6999545.4857417215 652.9970532358111
v 594084.1747163344 6999367.3011401305 714.3406676016367
v 593685.4729692239 7000379.549998168 651.3791054622453
v 593527.173935158 7000200.105057891 686.8097527902875
v 595422.8596232163 6998351.7070541475 651.5763070533171
v 595174.8735371516 6998053.1184127275 707.7862748878736
v 594305.2133826353 6998556.87466488 774.527922703556
v 594019.183330964 6998447.449529674 827.5604296663602
v 595008.2612810909 6997850.663700182 747.4039489276067
v 597619.3432936941 6994870.148073945 649.2582251467711
v 597401.6612229275 6994072.485314591 707.0940049801208
v 596893.1261991693 6996163.812628523 656.2019369468128
v 596616.1029849511 6995732.976820404 708.6843176183293
v 598202.3820198119 6993676.374296428 645.8057926165426
v 597960.4073038946 6993219.442344863 689.4333783891294
v 596829.0057261119 6994276.949425547 762.3851552526603
v 596661.5665309209 6993608.695460508 820.476469743752
v 596443.8150108649 6995465.294099056 744.212212846092
v 594564.6780084963 6997090.313136842 883.8754761114492
v 594391.8204321851 6996764.01144998 946.7299319801884
v 596027.611998215 6994078.098579047 884.8997441174031
v 595647.7039573845 6994158.948990913 938.7748047057755
v 595231.2328091314 6995896.188455861 881.9005801999114
v 595042.0530259036 6995568.994485117 936.6760295039767
v 594827.8871259994 6995118.307750886 1006.6749152010163
v 594704.454201784 6994793.913033177 1052.2777743226466
v 594186.6263713146 6996536.765296605 1007.2990565195313
v 593979.1215809587 6996313.870061354 1060.5749124385
v 595274.2435786102 6994257.295123053 992.433706248285
v 595175.9200911897 6993600.181892694 1050.8197307996481
v 594938.4513765209 6995389.112145708 968.1469290058034
v 593837.4396310204 6998221.682303976 881.8684071429371
v 593663.2349708756 6997999.858353814 937.0810939251273
v 593539.8399429357 6997839.7182571115 978.1751522372592
v 596490.0514405785 6993228.175838405 865.4939363217698
v 594354.2579320936 7008300.642024719 607.8018373383499
v 594226.8968327018 7010808.88555788 646.4779423812068
v 593669.8890010313 7011633.063167876 684.1230574999558
v 594930.1099478556 7007367.321991573 622.1933511262132
v 595043.1996127144 7011575.818230287 627.186365720946
f 21 16 19
f 22 21 20
f 36 35 4
f 44 43 34
f 45 44 39
f 46 45 40
f 48 47 10
f 50 49 48
f 51 48 11
f 52 51 12
f 53 50 51
f 54 53 52
f 62 46 55
f 63 62 56
f 64 63 59
f 67 66 61
f 68 52 25
f 70 54 68
f 71 70 69
f 73 72 28
f 79 74 77
f 80 79 78
f 83 75 81
f 84 76 83
f 85 82 79
f 86 85 80
f 89 22 87
f 90 89 88
f 95 90 93
f 96 95 94
f 108 106 103
f 109 107 108
f 112 96 110
f 113 112 111
f 122 116 120
f 123 122 121
f 129 127 128
f 132 130 109
f 135 133 129
f 136 134 135
f 138 125 137
f 149 147 148
f 151 80 150
f 158 156 157
f 160 159 154
f 165 163 149
f 166 164 165
f 173 171 166
f 174 172 173
f 193 185 192
f 195 194 187
f 196 188 193
f 197 189 196
f 198 195 190
f 207 199 197
f 208 200 207
f 209 203 208
f 210 204 209
f 215 211 183
f 216 212 215
f 217 213 216
f 251 249 250
f 255 253 254
f 258 256 251
f 268 266 267
f 271 269 241
f 273 261 272
f 274 263 270
f 275 264 274
f 278 241 277
f 282 247 281
f 283 250 276
f 291 289 285
f 292 290 291
f 301 299 300
f 311 306 310
f 313 311 312
f 314 307 308
f 329 327 323
f 333 320 332
f 337 336 318
f 342 338 333
f 345 344 343
f 356 354 355
f 359 357 255
f 360 358 359
f 361 349 257
f 362 350 361
f 364 352 363
f 365 355 362
f 368 366 264
f 369 367 368
f 374 372 369
f 379 377 356
f 380 378 379
f 384 382 383
f 387 385 380
f 388 375 364
f 389 376 388
f 390 383 389
f 393 392 294
f 3 4 35
f 9 10 47
f 10 11 48
f 11 12 51
f 12 25 52
f 14 19 16
f 19 20 21
f 20 87 22
f 27 28 72
f 33 34 43
f 34 39 44
f 39 40 45
f 40 55 46
f 47 48 49
f 48 51 50
f 51 52 53
f 52 68 54
f 55 56 62
f 56 59 63
f 60 61 66
f 68 69 70
f 71 81 75
f 73 77 74
f 74 79 82
f 75 83 76
f 77 78 79
f 78 150 80
f 79 80 85
f 87 88 89
f 88 93 90
f 93 94 95
f 94 110 96
f 101 103 106
f 106 108 107
f 107 109 130
f 110 111 112
f 114 120 116
f 120 121 122
f 124 137 125
f 126 128 127
f 127 129 133
f 133 135 134
f 146 148 147
f 147 149 163
f 153 154 159
f 155 157 156
f 163 165 164
f 164 166 171
f 171 173 172
f 179 183 211
f 184 192 185
f 185 193 188
f 186 187 194
f 187 190 195
f 188 196 189
f 189 197 199
f 199 207 200
f 200 208 203
f 203 209 204
f 211 215 212
f 212 216 213
f 238 276 250
f 239 241 269
f 240 277 241
f 245 257 349
f 246 281 247
f 248 250 249
f 249 251 256
f 252 254 253
f 253 255 357
f 259 270 263
f 260 272 261
f 262 264 366
f 263 274 264
f 265 267 266
f 284 285 289
f 289 291 290
f 293 294 392
f 298 300 299
f 304 308 307
f 305 310 306
f 310 312 311
f 317 318 336
f 319 332 320
f 320 333 338
f 321 323 327
f 342 343 344
f 349 361 350
f 350 362 355
f 351 363 352
f 352 364 375
f 353 355 354
f 354 356 377
f 357 359 358
f 366 368 367
f 367 369 372
f 375 388 376
f 376 389 383
f 377 379 378
f 378 380 385
f 381 383 382
f 2 4 3
f 5 7 4
f 6 8 7
f 4 10 9
f 7 11 10
f 8 12 11
f 15 17 8
f 16 18 17
f 21 23 18
f 22 24 23
f 17 25 12
f 18 26 25
f 26 28 27
f 23 29 26
f 24 30 29
f 29 31 28
f 30 32 31
f 34 37 38
f 39 38 41
f 40 41 42
f 36 48 47
f 38 49 50
f 41 50 53
f 42 53 54
f 55 42 57
f 56 57 58
f 59 58 60
f 65 66 67
f 57 54 70
f 58 70 71
f 69 72 73
f 60 71 75
f 61 75 76
f 83 82 85
f 84 85 86
f 89 91 24
f 90 92 91
f 95 97 92
f 96 98 97
f 91 99 30
f 92 100 99
f 99 102 32
f 100 103 102
f 97 104 100
f 98 105 104
f 104 108 103
f 105 109 108
f 112 115 98
f 113 116 115
f 117 120 114
f 118 121 120
f 119 122 116
f 115 128 105
f 116 129 128
f 127 131 130
f 128 132 109
f 122 135 129
f 123 136 135
f 133 137 131
f 134 138 137
f 139 67 141
f 140 141 142
f 144 142 146
f 145 146 147
f 141 84 152
f 142 152 153
f 152 86 155
f 153 155 156
f 146 153 159
f 148 160 154
f 161 147 163
f 162 163 164
f 167 164 171
f 168 171 172
f 170 174 173
f 185 187 186
f 188 190 187
f 189 191 190
f 176 193 192
f 177 196 193
f 178 197 196
f 199 201 191
f 200 202 201
f 203 205 202
f 204 206 205
f 180 207 197
f 181 208 207
f 182 209 208
f 183 210 209
f 211 222 204
f 212 223 222
f 222 224 206
f 223 225 224
f 213 226 223
f 214 227 226
f 226 228 225
f 227 229 228
f 218 230 227
f 219 231 230
f 230 232 229
f 231 233 232
f 220 234 231
f 221 235 234
f 234 236 233
f 235 237 236
f 241 244 243
f 247 251 250
f 31 254 247
f 32 255 254
f 253 257 256
f 254 258 251
f 263 267 261
f 264 268 267
f 249 270 269
f 250 271 241
f 269 272 242
f 270 273 272
f 256 274 270
f 257 275 274
f 278 279 280
f 282 283 284
f 77 282 286
f 78 286 287
f 286 284 289
f 287 289 290
f 283 278 298
f 284 298 299
f 298 280 302
f 301 303 304
f 291 301 305
f 292 305 306
f 305 304 307
f 297 313 312
f 244 318 317
f 261 323 322
f 323 326 325
f 266 328 327
f 267 329 323
f 327 330 324
f 272 331 316
f 331 332 319
f 280 336 337
f 302 337 339
f 304 340 341
f 339 338 342
f 341 344 345
f 314 347 348
f 352 356 355
f 102 359 255
f 103 360 359
f 357 361 257
f 358 362 361
f 106 363 358
f 107 364 363
f 363 365 362
f 349 368 264
f 350 369 368
f 366 370 266
f 367 371 370
f 354 373 372
f 355 374 369
f 375 379 356
f 376 380 379
f 125 384 383
f 382 386 385
f 383 387 380
f 130 388 364
f 131 389 388
f 137 390 389
f 377 391 373
f 155 293 392
f 158 393 394
f 392 395 295
f 393 297 396
f 3 1 2
f 4 2 5
f 9 3 4
f 10 4 7
f 7 5 6
f 8 6 15
f 11 7 8
f 12 8 17
f 17 15 16
f 18 16 21
f 25 17 18
f 26 18 23
f 23 21 22
f 24 22 89
f 29 23 24
f 30 24 91
f 27 25 26
f 28 26 29
f 247 28 31
f 31 29 30
f 32 30 99
f 254 31 32
f 255 32 102
f 37 34 33
f 38 39 34
f 47 35 36
f 49 38 37
f 50 41 38
f 41 40 39
f 42 55 40
f 53 42 41
f 54 57 42
f 57 56 55
f 58 59 56
f 70 58 57
f 71 60 58
f 75 61 60
f 66 65 64
f 67 139 65
f 84 141 67
f 72 69 68
f 282 77 73
f 286 78 77
f 287 150 78
f 288 80 151
f 82 83 81
f 85 84 83
f 86 152 84
f 293 155 86
f 91 89 90
f 92 90 95
f 99 91 92
f 100 92 97
f 97 95 96
f 98 96 112
f 104 97 98
f 105 98 115
f 102 99 100
f 103 100 104
f 358 101 106
f 359 102 103
f 108 104 105
f 109 105 128
f 363 106 107
f 364 107 130
f 114 111 117
f 115 112 113
f 116 113 119
f 128 115 116
f 129 116 122
f 120 117 118
f 135 122 123
f 383 124 125
f 130 126 127
f 131 127 133
f 388 130 131
f 389 131 137
f 137 133 134
f 141 140 139
f 142 144 140
f 152 142 141
f 153 146 142
f 154 143 148
f 146 145 144
f 147 161 145
f 155 153 152
f 393 158 157
f 163 162 161
f 164 167 162
f 171 168 167
f 173 169 170
f 192 175 176
f 193 176 177
f 196 177 178
f 197 178 180
f 204 179 211
f 207 180 181
f 208 181 182
f 209 182 183
f 186 184 185
f 187 185 188
f 190 188 189
f 191 189 199
f 201 199 200
f 202 200 203
f 205 203 204
f 206 204 222
f 222 211 212
f 223 212 213
f 226 213 214
f 227 214 218
f 230 218 219
f 231 219 220
f 234 220 221
f 224 222 223
f 225 223 226
f 228 226 227
f 229 227 230
f 232 230 231
f 233 231 234
f 236 234 235
f 241 238 250
f 242 239 269
f 243 240 241
f 316 242 272
f 317 243 244
f 264 245 349
f 250 246 247
f 251 247 254
f 269 248 249
f 270 249 256
f 256 252 253
f 257 253 357
f 274 256 257
f 261 259 263
f 322 260 261
f 323 261 267
f 266 262 366
f 267 263 264
f 327 265 266
f 272 269 270
f 278 283 276
f 279 278 277
f 280 298 278
f 336 280 279
f 337 302 280
f 283 282 281
f 284 286 282
f 298 284 283
f 301 291 285
f 289 287 286
f 305 292 291
f 295 392 293
f 297 393 294
f 312 296 297
f 303 301 300
f 304 305 301
f 340 304 303
f 347 314 308
f 319 316 331
f 324 321 327
f 325 322 323
f 338 339 337
f 344 341 340
f 368 349 350
f 369 350 355
f 355 351 352
f 356 352 375
f 372 353 354
f 373 354 377
f 361 357 358
f 362 358 363
f 370 366 367
f 379 375 376
f 380 376 383
f 385 381 382
f 36 10 48
f 64 66 60
f 68 27 72
f 71 73 74
f 81 74 82
f 67 76 84
f 113 114 116
f 128 130 132
f 123 134 136
f 154 156 158
f 148 159 160
f 192 186 194
f 183 204 210
f 241 242 244
f 254 256 258
f 264 266 268
f 250 269 271
f 270 261 273
f 257 264 275
f 276 241 278
f 277 243 279
f 73 247 282
f 281 250 283
f 288 290 292
f 86 288 293
f 294 295 297
f 285 299 301
f 300 302 303
f 295 306 311
f 297 311 313
f 310 307 314
f 312 314 315
f 244 316 318
f 318 319 320
f 323 324 326
f 267 327 329
f 272 322 331
f 331 325 332
f 279 317 336
f 337 320 338
f 303 339 340
f 340 342 344
f 308 341 347
f 103 358 360
f 363 355 365
f 355 372 374
f 383 385 387
f 137 383 390
f 157 392 393
f 10 36 4
f 27 68 25
f 247 73 28
f 60 64 59
f 76 67 61
f 73 71 69
f 74 81 71
f 288 86 80
f 358 103 101
f 114 113 111
f 134 123 121
f 383 124 137
f 130 126 128
f 159 148 146
f 156 154 153
f 392 157 155
f 204 179 183
f 186 192 184
f 241 276 238
f 242 241 239
f 243 277 240
f 316 244 242
f 317 279 243
f 264 257 245
f 250 281 246
f 269 250 248
f 256 254 252
f 261 270 259
f 322 272 260
f 266 264 262
f 327 267 265
f 299 285 284
f 290 288 287
f 306 295 292
f 295 294 293
f 311 297 295
f 302 300 298
f 339 303 302
f 341 308 304
f 307 310 305
f 314 312 310
f 348 315 314
f 319 318 316
f 320 337 318
f 324 323 321
f 325 331 322
f 334 326 324
f 342 340 339
f 345 347 341
f 355 363 351
f 372 355 353
f 385 383 381
