# sill_diabasio - exportado do GemPy
v 592330.1702447968 7006080.065899723 681.663694535482
v 592072.1058346007 7007410.576705435 618.2133690642427
v 589819.8715209193 7010485.587466604 704.8342033450264
v 588375.9137417852 7011497.960831861 764.6916306168048
v 588375.9129948564 7011971.953309685 802.5692959838767
v 589829.9466455221 7011396.977008025 762.9191160243882
v 589764.6190018303 7011862.810882894 818.2573294288637
v 593050.0566578857 7006074.877982826 779.3747973112138
v 590973.9875999874 7009986.1962394165 722.106588071552
v 592637.014280699 7007840.833134237 690.7587525994477
v 591387.9840895404 7010483.450937728 758.0613152987903
v 591282.8478890012 7011487.520679764 820.7934932174649
v 592792.4083002722 7010905.266781689 781.7668566615741
v 590274.2377928954 7011995.129486314 878.8495042628003
v 590530.9937504655 7012058.64457257 908.6816668163925
v 591282.595924497 7011894.903590885 879.4793251510109
v 591282.6223191231 7012052.555189393 910.4588703511072
v 586365.5230879688 7016457.402925547 686.5818881723452
v 586882.7621532045 7016179.3325199345 790.1426061062723
v 586923.1235305759 7015176.220254615 752.7110265535092
v 586777.0604840945 7017656.23524465 481.36489597033307
v 587332.3029397025 7016940.072712355 697.7439182532253
v 587826.3941288933 7016687.0309103085 756.527797637294
v 588338.905693569 7016103.0843210425 802.614755000998
v 588480.3860538056 7014783.390142244 823.839755996928
v 589258.8320316392 7013255.734132258 839.4499292056198
v 589281.2713670119 7016354.61300229 795.642940663557
v 588333.6916031581 7017017.535345996 697.882196822111
v 588793.8653819588 7016885.27637837 738.0228391885288
v 591158.5174241175 7018666.70597284 824.6187626515016
v 589958.5052648073 7013255.706334106 880.0161673447473
v 590528.8689650986 7013255.634247917 909.3012598939135
v 590152.4286366757 7015643.19711316 882.3801447104333
v 590542.9426674193 7015642.969873712 911.241000345098
v 590468.1038723679 7017065.620707578 878.1138352854533
v 590549.6693867667 7016857.465941128 909.2724891205683
v 591144.5668330138 7013056.539929195 910.2818781605599
v 591267.5858261638 7015890.275823398 929.2795239993884
v 592736.7460238696 7016383.433326413 936.216865326986
v 591967.2547683916 7016789.16899252 969.4779834981675
v 592795.8132969422 7016722.984822063 990.386746073369
v 591426.2520586742 7018225.982619627 874.8943020444137
v 591402.8430322354 7017146.93409478 931.2650835986699
v 592196.0088291903 7018402.370303347 936.4829083362254
v 591967.2549744941 7016914.111738661 969.4754636585731
v 593593.3464030649 7006070.880694448 735.0789540436159
f 10 2 8
f 29 28 24
f 31 26 14
f 32 31 15
f 36 35 34
f 45 43 40
f 1 8 2
f 7 14 26
f 14 15 31
f 18 19 21
f 23 24 28
f 33 34 35
f 38 40 43
f 4 3 6
f 5 6 7
f 6 9 11
f 7 11 12
f 14 12 16
f 15 16 17
f 20 24 23
f 40 39 41
f 35 42 30
f 36 43 42
f 9 6 3
f 6 5 4
f 11 7 6
f 12 14 7
f 13 12 11
f 16 15 14
f 23 19 20
f 27 24 25
f 42 35 36
f 39 40 38
f 44 43 45
f 22 23 28
f 32 17 37
f 36 38 43
f 46 10 8
f 17 32 15
f 23 22 19
f 27 29 24
f 38 36 34
f 41 45 40
